<svg width="485" height="456" viewBox="0 0 485 456" fill="none" xmlns="http://www.w3.org/2000/svg">
<circle cx="219" cy="204" r="189" stroke="#DBDBDA" stroke-width="30"/>
<path d="M60 101C136.5 -15.5001 321.5 -19.5001 391 126" stroke="#B33231" stroke-width="30" stroke-linecap="round"/>
<path d="M198.465 388.464C196.512 390.417 196.512 393.583 198.465 395.536L230.284 427.355C232.237 429.308 235.403 429.308 237.355 427.355C239.308 425.403 239.308 422.237 237.355 420.284L209.071 392L237.355 363.716C239.308 361.763 239.308 358.597 237.355 356.645C235.403 354.692 232.237 354.692 230.284 356.645L198.465 388.464ZM209.81 392V387H202V392V397H209.81V392Z" fill="#999999"/>
<path d="M67.5928 94.6219C66.8316 91.9674 64.0627 90.4326 61.4083 91.1938L18.1515 103.597C15.4971 104.359 13.9623 107.127 14.7234 109.782C15.4846 112.436 18.2535 113.971 20.9079 113.21L59.3584 102.185L70.3839 140.635C71.145 143.289 73.9139 144.824 76.5683 144.063C79.2228 143.302 80.7576 140.533 79.9965 137.879L67.5928 94.6219ZM59 102.831L63.3731 105.255L67.1596 98.4241L62.7865 96.0001L58.4134 93.576L54.6269 100.407L59 102.831Z" fill="#DBDBDA"/>
<path d="M394 133C442.5 245.5 366 389.5 221 392.5" stroke="#999999" stroke-width="30" stroke-linecap="round"/>
<path d="M397.757 144.753C400.365 145.661 403.215 144.283 404.123 141.675L418.914 99.1751C419.822 96.5671 418.444 93.7171 415.836 92.8094C413.228 91.9018 410.378 93.2801 409.47 95.8881L396.322 133.665L358.544 120.517C355.937 119.61 353.086 120.988 352.179 123.596C351.271 126.204 352.649 129.054 355.257 129.962L397.757 144.753ZM396 133L391.499 135.177L394.899 142.208L399.4 140.031L403.902 137.854L400.501 130.823L396 133Z" fill="#B33231"/>
<ellipse cx="54.5" cy="109.5" rx="12.5" ry="11.5" fill="#D9D9D9"/>
<ellipse cx="390.5" cy="125.5" rx="12.5" ry="11.5" fill="#B33231"/>
<path d="M151.254 196H154.614C155.707 196 156.527 196.293 157.074 196.88C157.62 197.467 157.894 198.327 157.894 199.46V206.54C157.894 207.673 157.62 208.533 157.074 209.12C156.527 209.707 155.707 210 154.614 210H151.254V196ZM154.574 208C154.934 208 155.207 207.893 155.394 207.68C155.594 207.467 155.694 207.12 155.694 206.64V199.36C155.694 198.88 155.594 198.533 155.394 198.32C155.207 198.107 154.934 198 154.574 198H153.454V208H154.574ZM159.379 196H165.379V198H161.579V201.7H164.599V203.7H161.579V208H165.379V210H159.379V196ZM166.644 196H169.404L171.544 204.38H171.584V196H173.544V210H171.284L168.644 199.78H168.604V210H166.644V196ZM178.383 196H180.583V210H178.383V196ZM183.95 198H181.65V196H188.45V198H186.15V210H183.95V198ZM189.515 196H195.515V198H191.715V201.7H194.735V203.7H191.715V208H195.515V210H189.515V196ZM196.781 196H200.041C201.174 196 202.001 196.267 202.521 196.8C203.041 197.32 203.301 198.127 203.301 199.22V200.08C203.301 201.533 202.821 202.453 201.861 202.84V202.88C202.394 203.04 202.768 203.367 202.981 203.86C203.208 204.353 203.321 205.013 203.321 205.84V208.3C203.321 208.7 203.334 209.027 203.361 209.28C203.388 209.52 203.454 209.76 203.561 210H201.321C201.241 209.773 201.188 209.56 201.161 209.36C201.134 209.16 201.121 208.8 201.121 208.28V205.72C201.121 205.08 201.014 204.633 200.801 204.38C200.601 204.127 200.248 204 199.741 204H198.981V210H196.781V196ZM199.781 202C200.221 202 200.548 201.887 200.761 201.66C200.988 201.433 201.101 201.053 201.101 200.52V199.44C201.101 198.933 201.008 198.567 200.821 198.34C200.648 198.113 200.368 198 199.981 198H198.981V202H199.781ZM206.547 196H209.527L211.807 210H209.607L209.207 207.22V207.26H206.707L206.307 210H204.267L206.547 196ZM208.947 205.36L207.967 198.44H207.927L206.967 205.36H208.947ZM213.677 198H211.377V196H218.177V198H215.877V210H213.677V198ZM219.242 196H221.442V210H219.242V196ZM222.51 196H224.73L226.17 206.86H226.21L227.65 196H229.67L227.55 210H224.63L222.51 196ZM230.726 196H236.726V198H232.926V201.7H235.946V203.7H232.926V208H236.726V210H230.726V196ZM241.195 196H244.435C245.528 196 246.348 196.293 246.895 196.88C247.442 197.467 247.715 198.327 247.715 199.46V200.84C247.715 201.973 247.442 202.833 246.895 203.42C246.348 204.007 245.528 204.3 244.435 204.3H243.395V210H241.195V196ZM244.435 202.3C244.795 202.3 245.062 202.2 245.235 202C245.422 201.8 245.515 201.46 245.515 200.98V199.32C245.515 198.84 245.422 198.5 245.235 198.3C245.062 198.1 244.795 198 244.435 198H243.395V202.3H244.435ZM248.91 196H252.17C253.303 196 254.13 196.267 254.65 196.8C255.17 197.32 255.43 198.127 255.43 199.22V200.08C255.43 201.533 254.95 202.453 253.99 202.84V202.88C254.523 203.04 254.897 203.367 255.11 203.86C255.337 204.353 255.45 205.013 255.45 205.84V208.3C255.45 208.7 255.463 209.027 255.49 209.28C255.517 209.52 255.583 209.76 255.69 210H253.45C253.37 209.773 253.317 209.56 253.29 209.36C253.263 209.16 253.25 208.8 253.25 208.28V205.72C253.25 205.08 253.143 204.633 252.93 204.38C252.73 204.127 252.377 204 251.87 204H251.11V210H248.91V196ZM251.91 202C252.35 202 252.677 201.887 252.89 201.66C253.117 201.433 253.23 201.053 253.23 200.52V199.44C253.23 198.933 253.137 198.567 252.95 198.34C252.777 198.113 252.497 198 252.11 198H251.11V202H251.91ZM260.156 210.2C259.076 210.2 258.25 209.893 257.676 209.28C257.103 208.667 256.816 207.8 256.816 206.68V199.32C256.816 198.2 257.103 197.333 257.676 196.72C258.25 196.107 259.076 195.8 260.156 195.8C261.236 195.8 262.063 196.107 262.636 196.72C263.21 197.333 263.496 198.2 263.496 199.32V206.68C263.496 207.8 263.21 208.667 262.636 209.28C262.063 209.893 261.236 210.2 260.156 210.2ZM260.156 208.2C260.916 208.2 261.296 207.74 261.296 206.82V199.18C261.296 198.26 260.916 197.8 260.156 197.8C259.396 197.8 259.016 198.26 259.016 199.18V206.82C259.016 207.74 259.396 208.2 260.156 208.2ZM268.084 210.2C267.031 210.2 266.224 209.9 265.664 209.3C265.117 208.7 264.844 207.853 264.844 206.76V199.24C264.844 198.147 265.117 197.3 265.664 196.7C266.224 196.1 267.031 195.8 268.084 195.8C269.137 195.8 269.937 196.1 270.484 196.7C271.044 197.3 271.324 198.147 271.324 199.24V200.72H269.244V199.1C269.244 198.233 268.877 197.8 268.144 197.8C267.411 197.8 267.044 198.233 267.044 199.1V206.92C267.044 207.773 267.411 208.2 268.144 208.2C268.877 208.2 269.244 207.773 269.244 206.92V204.78H271.324V206.76C271.324 207.853 271.044 208.7 270.484 209.3C269.937 209.9 269.137 210.2 268.084 210.2ZM272.64 196H278.64V198H274.84V201.7H277.86V203.7H274.84V208H278.64V210H272.64V196ZM282.805 210.2C281.738 210.2 280.932 209.9 280.385 209.3C279.838 208.687 279.565 207.813 279.565 206.68V205.88H281.645V206.84C281.645 207.747 282.025 208.2 282.785 208.2C283.158 208.2 283.438 208.093 283.625 207.88C283.825 207.653 283.925 207.293 283.925 206.8C283.925 206.213 283.792 205.7 283.525 205.26C283.258 204.807 282.765 204.267 282.045 203.64C281.138 202.84 280.505 202.12 280.145 201.48C279.785 200.827 279.605 200.093 279.605 199.28C279.605 198.173 279.885 197.32 280.445 196.72C281.005 196.107 281.818 195.8 282.885 195.8C283.938 195.8 284.732 196.107 285.265 196.72C285.812 197.32 286.085 198.187 286.085 199.32V199.9H284.005V199.18C284.005 198.7 283.912 198.353 283.725 198.14C283.538 197.913 283.265 197.8 282.905 197.8C282.172 197.8 281.805 198.247 281.805 199.14C281.805 199.647 281.938 200.12 282.205 200.56C282.485 201 282.985 201.533 283.705 202.16C284.625 202.96 285.258 203.687 285.605 204.34C285.952 204.993 286.125 205.76 286.125 206.64C286.125 207.787 285.838 208.667 285.265 209.28C284.705 209.893 283.885 210.2 282.805 210.2Z" fill="#3F4345"/>
<path d="M391.965 72H394.165V86H391.965V72ZM395.812 72H399.172C400.266 72 401.086 72.2933 401.632 72.88C402.179 73.4667 402.452 74.3267 402.452 75.46V82.54C402.452 83.6733 402.179 84.5333 401.632 85.12C401.086 85.7067 400.266 86 399.172 86H395.812V72ZM399.132 84C399.492 84 399.766 83.8933 399.952 83.68C400.152 83.4667 400.252 83.12 400.252 82.64V75.36C400.252 74.88 400.152 74.5333 399.952 74.32C399.766 74.1067 399.492 74 399.132 74H398.012V84H399.132ZM403.937 72H409.937V74H406.137V77.7H409.157V79.7H406.137V84H409.937V86H403.937V72ZM414.323 86.2C413.256 86.2 412.443 85.9 411.883 85.3C411.323 84.6867 411.043 83.8133 411.043 82.68V75.32C411.043 74.1867 411.323 73.32 411.883 72.72C412.443 72.1067 413.256 71.8 414.323 71.8C415.389 71.8 416.203 72.1067 416.763 72.72C417.323 73.32 417.603 74.1867 417.603 75.32V76.52H415.523V75.18C415.523 74.26 415.143 73.8 414.383 73.8C413.623 73.8 413.243 74.26 413.243 75.18V82.84C413.243 83.7467 413.623 84.2 414.383 84.2C415.143 84.2 415.523 83.7467 415.523 82.84V80.1H414.423V78.1H417.603V82.68C417.603 83.8133 417.323 84.6867 416.763 85.3C416.203 85.9 415.389 86.2 414.323 86.2ZM419.015 72H425.015V74H421.215V77.7H424.235V79.7H421.215V84H425.015V86H419.015V72ZM426.281 72H429.041L431.181 80.38H431.221V72H433.181V86H430.921L428.281 75.78H428.241V86H426.281V72ZM434.816 72H440.816V74H437.016V77.7H440.036V79.7H437.016V84H440.816V86H434.816V72ZM442.082 72H445.342C446.475 72 447.302 72.2667 447.822 72.8C448.342 73.32 448.602 74.1267 448.602 75.22V76.08C448.602 77.5333 448.122 78.4533 447.162 78.84V78.88C447.695 79.04 448.068 79.3667 448.282 79.86C448.508 80.3533 448.622 81.0133 448.622 81.84V84.3C448.622 84.7 448.635 85.0267 448.662 85.28C448.688 85.52 448.755 85.76 448.862 86H446.622C446.542 85.7733 446.488 85.56 446.462 85.36C446.435 85.16 446.422 84.8 446.422 84.28V81.72C446.422 81.08 446.315 80.6333 446.102 80.38C445.902 80.1267 445.548 80 445.042 80H444.282V86H442.082V72ZM445.082 78C445.522 78 445.848 77.8867 446.062 77.66C446.288 77.4333 446.402 77.0533 446.402 76.52V75.44C446.402 74.9333 446.308 74.5667 446.122 74.34C445.948 74.1133 445.668 74 445.282 74H444.282V78H445.082ZM450.148 72H456.148V74H452.348V77.7H455.368V79.7H452.348V84H456.148V86H450.148V72ZM457.414 72H460.674C461.807 72 462.634 72.2667 463.154 72.8C463.674 73.32 463.934 74.1267 463.934 75.22V76.08C463.934 77.5333 463.454 78.4533 462.494 78.84V78.88C463.027 79.04 463.4 79.3667 463.614 79.86C463.84 80.3533 463.954 81.0133 463.954 81.84V84.3C463.954 84.7 463.967 85.0267 463.994 85.28C464.02 85.52 464.087 85.76 464.194 86H461.954C461.874 85.7733 461.82 85.56 461.794 85.36C461.767 85.16 461.754 84.8 461.754 84.28V81.72C461.754 81.08 461.647 80.6333 461.434 80.38C461.234 80.1267 460.88 80 460.374 80H459.614V86H457.414V72ZM460.414 78C460.854 78 461.18 77.8867 461.394 77.66C461.62 77.4333 461.734 77.0533 461.734 76.52V75.44C461.734 74.9333 461.64 74.5667 461.454 74.34C461.28 74.1133 461 74 460.614 74H459.614V78H460.414ZM465.48 72H467.68V86H465.48V72ZM469.328 72H472.088L474.228 80.38H474.268V72H476.228V86H473.968L471.328 75.78H471.288V86H469.328V72ZM480.983 86.2C479.916 86.2 479.103 85.9 478.543 85.3C477.983 84.6867 477.703 83.8133 477.703 82.68V75.32C477.703 74.1867 477.983 73.32 478.543 72.72C479.103 72.1067 479.916 71.8 480.983 71.8C482.05 71.8 482.863 72.1067 483.423 72.72C483.983 73.32 484.263 74.1867 484.263 75.32V76.52H482.183V75.18C482.183 74.26 481.803 73.8 481.043 73.8C480.283 73.8 479.903 74.26 479.903 75.18V82.84C479.903 83.7467 480.283 84.2 481.043 84.2C481.803 84.2 482.183 83.7467 482.183 82.84V80.1H481.083V78.1H484.263V82.68C484.263 83.8133 483.983 84.6867 483.423 85.3C482.863 85.9 482.05 86.2 480.983 86.2Z" fill="#3F4345"/>
<path d="M213.762 453.2C212.695 453.2 211.889 452.9 211.342 452.3C210.795 451.687 210.522 450.813 210.522 449.68V448.88H212.602V449.84C212.602 450.747 212.982 451.2 213.742 451.2C214.115 451.2 214.395 451.093 214.582 450.88C214.782 450.653 214.882 450.293 214.882 449.8C214.882 449.213 214.749 448.7 214.482 448.26C214.215 447.807 213.722 447.267 213.002 446.64C212.095 445.84 211.462 445.12 211.102 444.48C210.742 443.827 210.562 443.093 210.562 442.28C210.562 441.173 210.842 440.32 211.402 439.72C211.962 439.107 212.775 438.8 213.842 438.8C214.895 438.8 215.689 439.107 216.222 439.72C216.769 440.32 217.042 441.187 217.042 442.32V442.9H214.962V442.18C214.962 441.7 214.869 441.353 214.682 441.14C214.495 440.913 214.222 440.8 213.862 440.8C213.129 440.8 212.762 441.247 212.762 442.14C212.762 442.647 212.895 443.12 213.162 443.56C213.442 444 213.942 444.533 214.662 445.16C215.582 445.96 216.215 446.687 216.562 447.34C216.909 447.993 217.082 448.76 217.082 449.64C217.082 450.787 216.795 451.667 216.222 452.28C215.662 452.893 214.842 453.2 213.762 453.2ZM218.343 439H220.543V444.9L223.343 439H225.543L222.923 444.14L225.583 453H223.283L221.423 446.76L220.543 448.54V453H218.343V439ZM228.325 439H231.305L233.585 453H231.385L230.985 450.22V450.26H228.485L228.085 453H226.045L228.325 439ZM230.725 448.36L229.745 441.44H229.705L228.745 448.36H230.725ZM234.652 439H237.972C239.105 439 239.932 439.267 240.452 439.8C240.972 440.32 241.232 441.127 241.232 442.22V442.78C241.232 443.5 241.112 444.087 240.872 444.54C240.645 444.993 240.292 445.32 239.812 445.52V445.56C240.905 445.933 241.452 446.907 241.452 448.48V449.68C241.452 450.76 241.165 451.587 240.592 452.16C240.032 452.72 239.205 453 238.112 453H234.652V439ZM237.712 444.7C238.152 444.7 238.479 444.587 238.692 444.36C238.919 444.133 239.032 443.753 239.032 443.22V442.44C239.032 441.933 238.939 441.567 238.752 441.34C238.579 441.113 238.299 441 237.912 441H236.852V444.7H237.712ZM238.112 451C238.499 451 238.785 450.9 238.972 450.7C239.159 450.487 239.252 450.127 239.252 449.62V448.4C239.252 447.76 239.139 447.32 238.912 447.08C238.699 446.827 238.339 446.7 237.832 446.7H236.852V451H238.112Z" fill="#3F4345"/>
<path d="M2.8818 74H0.581797V72H7.3818V74H5.0818V86H2.8818V74ZM8.44695 72H14.447V74H10.647V77.7H13.667V79.7H10.647V84H14.447V86H8.44695V72ZM18.6116 86.2C17.545 86.2 16.7383 85.9 16.1916 85.3C15.645 84.6867 15.3716 83.8133 15.3716 82.68V81.88H17.4516V82.84C17.4516 83.7467 17.8316 84.2 18.5916 84.2C18.965 84.2 19.245 84.0933 19.4316 83.88C19.6316 83.6533 19.7316 83.2933 19.7316 82.8C19.7316 82.2133 19.5983 81.7 19.3316 81.26C19.065 80.8067 18.5716 80.2667 17.8516 79.64C16.945 78.84 16.3116 78.12 15.9516 77.48C15.5916 76.8267 15.4116 76.0933 15.4116 75.28C15.4116 74.1733 15.6916 73.32 16.2516 72.72C16.8116 72.1067 17.625 71.8 18.6916 71.8C19.745 71.8 20.5383 72.1067 21.0716 72.72C21.6183 73.32 21.8916 74.1867 21.8916 75.32V75.9H19.8116V75.18C19.8116 74.7 19.7183 74.3533 19.5316 74.14C19.345 73.9133 19.0716 73.8 18.7116 73.8C17.9783 73.8 17.6116 74.2467 17.6116 75.14C17.6116 75.6467 17.745 76.12 18.0116 76.56C18.2916 77 18.7916 77.5333 19.5116 78.16C20.4316 78.96 21.065 79.6867 21.4116 80.34C21.7583 80.9933 21.9316 81.76 21.9316 82.64C21.9316 83.7867 21.645 84.6667 21.0716 85.28C20.5116 85.8933 19.6916 86.2 18.6116 86.2ZM24.913 74H22.613V72H29.413V74H27.113V86H24.913V74Z" fill="#3F4345"/>
</svg>
