<svg width="627" height="204" viewBox="0 0 627 204" fill="none" xmlns="http://www.w3.org/2000/svg">
<line y1="-4" x2="70.2123" y2="-4" transform="matrix(-0.613941 -0.789352 -0.789352 0.613941 559.261 132.791)" stroke="#053926" stroke-width="8"/>
<line x1="423.426" y1="127.535" x2="466.532" y2="72.1132" stroke="#053926" stroke-width="8"/>
<line y1="-4" x2="70.2123" y2="-4" transform="matrix(-0.613941 -0.789352 -0.789352 0.613941 374.521 129.991)" stroke="#053926" stroke-width="8"/>
<line x1="244.283" y1="127.535" x2="287.389" y2="72.1132" stroke="#053926" stroke-width="8"/>
<line y1="-4" x2="70.2123" y2="-4" transform="matrix(-0.613941 -0.789352 -0.789352 0.613941 203.774 129.991)" stroke="#053926" stroke-width="8"/>
<line x1="64.0214" y1="127.535" x2="107.128" y2="72.1132" stroke="#053926" stroke-width="8"/>
<circle cx="44.7857" cy="158.542" r="44.7857" fill="#053926"/>
<circle cx="134.356" cy="45.4585" r="44.7857" fill="#053926"/>
<circle cx="223.928" cy="158.542" r="44.7857" fill="#053926"/>
<circle cx="313.499" cy="45.4585" r="44.7857" fill="#053926"/>
<circle cx="403.071" cy="158.542" r="44.7857" fill="#053926"/>
<circle cx="492.642" cy="45.4585" r="44.7857" fill="#053926"/>
<circle cx="582.214" cy="158.542" r="44.7857" fill="#053926"/>
<path d="M10.2031 164.673V153.282H17.4766V154.915H11.9297V158.165H16.6641V159.696H11.9297V163.04H17.4766V164.673H10.2031ZM19.0547 164.673V156.563H20.6875V157.423H20.7188C21.2552 156.782 21.9609 156.462 22.8359 156.462C23.3984 156.472 23.8516 156.569 24.1953 156.751C24.5339 156.954 24.8438 157.212 25.125 157.524C25.7604 156.806 26.612 156.451 27.6797 156.462C28.3516 156.462 28.9661 156.699 29.5234 157.173C30.0755 157.652 30.362 158.355 30.3828 159.282V164.673H28.75V159.845C28.75 159.277 28.6016 158.845 28.3047 158.548C28.0078 158.246 27.625 158.095 27.1562 158.095C26.6875 158.095 26.3021 158.246 26 158.548C25.6927 158.845 25.5391 159.277 25.5391 159.845V164.673H23.9062V159.845C23.9062 159.277 23.7578 158.845 23.4609 158.548C23.1589 158.246 22.7734 158.095 22.3047 158.095C21.8359 158.095 21.4531 158.246 21.1562 158.548C20.8438 158.845 20.6875 159.277 20.6875 159.845V164.673H19.0547ZM32.6016 167.954V156.563H34.2344V157.407C34.776 156.803 35.474 156.488 36.3281 156.462C37.3229 156.488 38.0495 156.842 38.5078 157.524C38.7318 157.78 38.8854 158.116 38.9688 158.532C39.0469 158.944 39.0859 159.642 39.0859 160.626C39.0859 161.584 39.0469 162.272 38.9688 162.688C38.8854 163.105 38.7318 163.446 38.5078 163.712C38.2839 164.024 37.9896 164.274 37.625 164.462C37.2656 164.655 36.8333 164.756 36.3281 164.767C35.9115 164.767 35.5391 164.675 35.2109 164.493C34.8568 164.326 34.5312 164.097 34.2344 163.806V167.954H32.6016ZM35.8359 163.134C36.2214 163.134 36.526 163.061 36.75 162.915C36.974 162.764 37.1328 162.571 37.2266 162.337C37.3307 162.092 37.401 161.821 37.4375 161.524C37.4479 161.233 37.4531 160.933 37.4531 160.626C37.4531 160.303 37.4479 159.988 37.4375 159.681C37.401 159.373 37.3307 159.103 37.2266 158.868C37.1328 158.623 36.974 158.431 36.75 158.29C36.526 158.16 36.2214 158.095 35.8359 158.095C35.4714 158.095 35.1823 158.17 34.9688 158.321C34.7448 158.472 34.5807 158.67 34.4766 158.915C34.3776 159.16 34.3125 159.425 34.2812 159.712C34.25 160.014 34.2344 160.319 34.2344 160.626C34.2344 160.912 34.25 161.199 34.2812 161.485C34.3125 161.787 34.3776 162.061 34.4766 162.306C34.5807 162.55 34.7448 162.748 34.9688 162.899C35.1823 163.056 35.4714 163.134 35.8359 163.134ZM45.1719 164.673V163.954H45.1406C44.9896 164.23 44.7552 164.433 44.4375 164.563C44.125 164.699 43.6927 164.767 43.1406 164.767C42.2344 164.756 41.5365 164.517 41.0469 164.048C40.5312 163.59 40.2734 163.004 40.2734 162.29C40.2734 161.608 40.4974 161.043 40.9453 160.595C41.3932 160.136 42.0495 159.902 42.9141 159.892H45.1719V159.04C45.1823 158.326 44.6276 157.98 43.5078 158.001C43.1016 158.001 42.7812 158.043 42.5469 158.126C42.3021 158.225 42.1094 158.392 41.9688 158.626L40.6875 157.649C41.3073 156.837 42.2214 156.441 43.4297 156.462C44.4505 156.451 45.2656 156.644 45.875 157.04C46.4844 157.446 46.7943 158.144 46.8047 159.134V164.673H45.1719ZM45.1719 161.821V161.235H43.2188C42.2708 161.256 41.8021 161.582 41.8125 162.212C41.8125 162.488 41.9349 162.722 42.1797 162.915C42.4141 163.129 42.8021 163.235 43.3438 163.235C44.026 163.246 44.5078 163.165 44.7891 162.993C45.0443 162.821 45.1719 162.431 45.1719 161.821ZM49.0078 156.563V154.095H50.6406V156.563H51.8281V157.806H50.6406V162.532C50.6302 162.944 50.8229 163.144 51.2188 163.134H51.8281V164.673H50.9766C50.4036 164.673 49.9349 164.496 49.5703 164.142C49.1953 163.803 49.0078 163.313 49.0078 162.673V157.806H48.1953V156.563H49.0078ZM53.3672 164.673V153.282H55V157.423H55.0312C55.5677 156.782 56.2708 156.462 57.1406 156.462C57.8125 156.462 58.4271 156.699 58.9844 157.173C59.5365 157.652 59.8255 158.355 59.8516 159.282V164.673H58.2188V159.845C58.2188 159.277 58.0677 158.845 57.7656 158.548C57.4688 158.246 57.0859 158.095 56.6172 158.095C56.1484 158.095 55.763 158.246 55.4609 158.548C55.1536 158.845 55 159.277 55 159.845V164.673H53.3672ZM62.0078 164.673V156.563H63.6406V164.673H62.0078ZM62.0078 154.915V153.282H63.6406V154.915H62.0078ZM65.2812 164.673V163.376L69.3438 158.001H65.5V156.563H71.3281V157.86L67.2656 163.134H71.3281V164.673H65.2812ZM79.2031 161.235H74.1484C74.1484 161.886 74.3359 162.381 74.7109 162.72C75.0599 163.063 75.5182 163.235 76.0859 163.235C76.7474 163.235 77.3385 162.972 77.8594 162.446L79.0391 163.454C78.2109 164.34 77.237 164.777 76.1172 164.767C75.6901 164.767 75.2734 164.704 74.8672 164.579C74.6641 164.511 74.4661 164.42 74.2734 164.306C74.0703 164.207 73.8802 164.084 73.7031 163.938C73.3594 163.636 73.0807 163.215 72.8672 162.673C72.6328 162.152 72.5156 161.475 72.5156 160.642C72.5156 159.84 72.6172 159.173 72.8203 158.642C73.0234 158.1 73.2839 157.673 73.6016 157.36C73.9245 157.043 74.2865 156.813 74.6875 156.673C75.0833 156.532 75.474 156.462 75.8594 156.462C76.7865 156.472 77.5703 156.777 78.2109 157.376C78.862 157.985 79.1927 158.824 79.2031 159.892V161.235ZM74.1484 159.892H77.5703C77.5495 159.261 77.3802 158.785 77.0625 158.462C76.75 158.155 76.349 158.001 75.8594 158.001C75.3698 158.001 74.9688 158.155 74.6562 158.462C74.349 158.785 74.1797 159.261 74.1484 159.892Z" fill="white"/>
<path d="M113.203 51.6729V40.2822H117.188C118.729 40.2926 119.885 40.9333 120.656 42.2041C120.932 42.6312 121.107 43.0791 121.18 43.5479C121.237 44.0166 121.266 44.8265 121.266 45.9775C121.266 47.2015 121.221 48.0557 121.133 48.54C121.091 48.7848 121.029 49.0036 120.945 49.1963C120.857 49.3838 120.75 49.5791 120.625 49.7822C120.292 50.3187 119.828 50.7614 119.234 51.1104C118.646 51.4854 117.924 51.6729 117.07 51.6729H113.203ZM114.93 41.915V50.04H116.992C117.961 50.04 118.664 49.7093 119.102 49.0479C119.294 48.8031 119.417 48.4932 119.469 48.1182C119.516 47.7484 119.539 47.0557 119.539 46.04C119.539 45.0505 119.516 44.3421 119.469 43.915C119.406 43.488 119.258 43.1416 119.023 42.876C118.544 42.2145 117.867 41.8942 116.992 41.915H114.93ZM129.422 48.2354H124.367C124.367 48.8864 124.555 49.3812 124.93 49.7197C125.279 50.0635 125.737 50.2354 126.305 50.2354C126.966 50.2354 127.557 49.9723 128.078 49.4463L129.258 50.4541C128.43 51.3395 127.456 51.777 126.336 51.7666C125.909 51.7666 125.492 51.7041 125.086 51.5791C124.883 51.5114 124.685 51.4202 124.492 51.3057C124.289 51.2067 124.099 51.0843 123.922 50.9385C123.578 50.6364 123.299 50.2145 123.086 49.6729C122.852 49.152 122.734 48.4749 122.734 47.6416C122.734 46.8395 122.836 46.1729 123.039 45.6416C123.242 45.0999 123.503 44.6729 123.82 44.3604C124.143 44.0426 124.505 43.8135 124.906 43.6729C125.302 43.5322 125.693 43.4619 126.078 43.4619C127.005 43.4723 127.789 43.777 128.43 44.376C129.081 44.9854 129.411 45.8239 129.422 46.8916V48.2354ZM124.367 46.8916H127.789C127.768 46.2614 127.599 45.7848 127.281 45.4619C126.969 45.1546 126.568 45.001 126.078 45.001C125.589 45.001 125.188 45.1546 124.875 45.4619C124.568 45.7848 124.398 46.2614 124.367 46.8916ZM131.391 51.6729V44.8057H130.57V43.5635H131.391V42.4932C131.391 41.7223 131.604 41.1546 132.031 40.79C132.448 40.4515 132.971 40.2822 133.602 40.2822H134.656V41.8213H133.727C133.237 41.8057 133.003 42.0296 133.023 42.4932V43.5635H134.656V44.8057H133.023V51.6729H131.391ZM135.633 51.6729V43.5635H137.266V51.6729H135.633ZM135.633 41.915V40.2822H137.266V41.915H135.633ZM139.43 51.6729V43.5635H141.062V44.4229H141.094C141.63 43.7822 142.333 43.4619 143.203 43.4619C143.875 43.4619 144.49 43.6989 145.047 44.1729C145.599 44.652 145.888 45.3551 145.914 46.2822V51.6729H144.281V46.8447C144.281 46.277 144.13 45.8447 143.828 45.5479C143.531 45.2458 143.148 45.0947 142.68 45.0947C142.211 45.0947 141.826 45.2458 141.523 45.5479C141.216 45.8447 141.062 46.277 141.062 46.8447V51.6729H139.43ZM154.312 48.2354H149.258C149.258 48.8864 149.445 49.3812 149.82 49.7197C150.169 50.0635 150.628 50.2354 151.195 50.2354C151.857 50.2354 152.448 49.9723 152.969 49.4463L154.148 50.4541C153.32 51.3395 152.346 51.777 151.227 51.7666C150.799 51.7666 150.383 51.7041 149.977 51.5791C149.773 51.5114 149.576 51.4202 149.383 51.3057C149.18 51.2067 148.99 51.0843 148.812 50.9385C148.469 50.6364 148.19 50.2145 147.977 49.6729C147.742 49.152 147.625 48.4749 147.625 47.6416C147.625 46.8395 147.727 46.1729 147.93 45.6416C148.133 45.0999 148.393 44.6729 148.711 44.3604C149.034 44.0426 149.396 43.8135 149.797 43.6729C150.193 43.5322 150.583 43.4619 150.969 43.4619C151.896 43.4723 152.68 43.777 153.32 44.376C153.971 44.9854 154.302 45.8239 154.312 46.8916V48.2354ZM149.258 46.8916H152.68C152.659 46.2614 152.49 45.7848 152.172 45.4619C151.859 45.1546 151.458 45.001 150.969 45.001C150.479 45.001 150.078 45.1546 149.766 45.4619C149.458 45.7848 149.289 46.2614 149.258 46.8916Z" fill="white"/>
<path d="M204.203 164.673V153.282H205.93V164.673H204.203ZM213.031 163.821C212.495 164.431 211.794 164.746 210.93 164.767C210.44 164.756 210.021 164.655 209.672 164.462C209.307 164.274 209.003 164.024 208.758 163.712C208.534 163.457 208.385 163.11 208.312 162.673C208.224 162.256 208.18 161.569 208.18 160.61C208.18 159.636 208.224 158.944 208.312 158.532C208.385 158.116 208.534 157.78 208.758 157.524C209.216 156.842 209.94 156.488 210.93 156.462C211.346 156.462 211.732 156.548 212.086 156.72C212.414 156.902 212.729 157.136 213.031 157.423V153.282H214.664V164.673H213.031V163.821ZM211.43 158.095C211.044 158.095 210.75 158.16 210.547 158.29C210.323 158.431 210.159 158.623 210.055 158.868C209.956 159.113 209.891 159.379 209.859 159.665C209.828 159.972 209.812 160.287 209.812 160.61C209.812 160.918 209.828 161.217 209.859 161.509C209.891 161.816 209.956 162.092 210.055 162.337C210.159 162.571 210.323 162.764 210.547 162.915C210.75 163.061 211.044 163.134 211.43 163.134C211.815 163.134 212.12 163.056 212.344 162.899C212.568 162.748 212.721 162.55 212.805 162.306C212.909 162.061 212.979 161.787 213.016 161.485C213.026 161.188 213.031 160.897 213.031 160.61C213.031 160.298 213.026 159.998 213.016 159.712C212.979 159.425 212.909 159.16 212.805 158.915C212.721 158.67 212.568 158.472 212.344 158.321C212.12 158.17 211.815 158.095 211.43 158.095ZM222.781 161.235H217.727C217.727 161.886 217.914 162.381 218.289 162.72C218.638 163.063 219.096 163.235 219.664 163.235C220.326 163.235 220.917 162.972 221.438 162.446L222.617 163.454C221.789 164.34 220.815 164.777 219.695 164.767C219.268 164.767 218.852 164.704 218.445 164.579C218.242 164.511 218.044 164.42 217.852 164.306C217.648 164.207 217.458 164.084 217.281 163.938C216.938 163.636 216.659 163.215 216.445 162.673C216.211 162.152 216.094 161.475 216.094 160.642C216.094 159.84 216.195 159.173 216.398 158.642C216.602 158.1 216.862 157.673 217.18 157.36C217.503 157.043 217.865 156.813 218.266 156.673C218.661 156.532 219.052 156.462 219.438 156.462C220.365 156.472 221.148 156.777 221.789 157.376C222.44 157.985 222.771 158.824 222.781 159.892V161.235ZM217.727 159.892H221.148C221.128 159.261 220.958 158.785 220.641 158.462C220.328 158.155 219.927 158.001 219.438 158.001C218.948 158.001 218.547 158.155 218.234 158.462C217.927 158.785 217.758 159.261 217.727 159.892ZM228.75 164.673V163.954H228.719C228.568 164.23 228.333 164.433 228.016 164.563C227.703 164.699 227.271 164.767 226.719 164.767C225.812 164.756 225.115 164.517 224.625 164.048C224.109 163.59 223.852 163.004 223.852 162.29C223.852 161.608 224.076 161.043 224.523 160.595C224.971 160.136 225.628 159.902 226.492 159.892H228.75V159.04C228.76 158.326 228.206 157.98 227.086 158.001C226.68 158.001 226.359 158.043 226.125 158.126C225.88 158.225 225.688 158.392 225.547 158.626L224.266 157.649C224.885 156.837 225.799 156.441 227.008 156.462C228.029 156.451 228.844 156.644 229.453 157.04C230.062 157.446 230.372 158.144 230.383 159.134V164.673H228.75ZM228.75 161.821V161.235H226.797C225.849 161.256 225.38 161.582 225.391 162.212C225.391 162.488 225.513 162.722 225.758 162.915C225.992 163.129 226.38 163.235 226.922 163.235C227.604 163.246 228.086 163.165 228.367 162.993C228.622 162.821 228.75 162.431 228.75 161.821ZM232.586 156.563V154.095H234.219V156.563H235.406V157.806H234.219V162.532C234.208 162.944 234.401 163.144 234.797 163.134H235.406V164.673H234.555C233.982 164.673 233.513 164.496 233.148 164.142C232.773 163.803 232.586 163.313 232.586 162.673V157.806H231.773V156.563H232.586ZM243.234 161.235H238.18C238.18 161.886 238.367 162.381 238.742 162.72C239.091 163.063 239.549 163.235 240.117 163.235C240.779 163.235 241.37 162.972 241.891 162.446L243.07 163.454C242.242 164.34 241.268 164.777 240.148 164.767C239.721 164.767 239.305 164.704 238.898 164.579C238.695 164.511 238.497 164.42 238.305 164.306C238.102 164.207 237.911 164.084 237.734 163.938C237.391 163.636 237.112 163.215 236.898 162.673C236.664 162.152 236.547 161.475 236.547 160.642C236.547 159.84 236.648 159.173 236.852 158.642C237.055 158.1 237.315 157.673 237.633 157.36C237.956 157.043 238.318 156.813 238.719 156.673C239.115 156.532 239.505 156.462 239.891 156.462C240.818 156.472 241.602 156.777 242.242 157.376C242.893 157.985 243.224 158.824 243.234 159.892V161.235ZM238.18 159.892H241.602C241.581 159.261 241.411 158.785 241.094 158.462C240.781 158.155 240.38 158.001 239.891 158.001C239.401 158.001 239 158.155 238.688 158.462C238.38 158.785 238.211 159.261 238.18 159.892Z" fill="white"/>
<path d="M283.93 41.915V45.5947H286.484C287.125 45.5843 287.607 45.3864 287.93 45.001C288.237 44.626 288.391 44.2093 288.391 43.751C288.391 43.3708 288.328 43.0505 288.203 42.79C288.073 42.5557 287.891 42.3708 287.656 42.2354C287.302 42.0114 286.891 41.9046 286.422 41.915H283.93ZM282.203 51.6729V40.2822H286.328C286.776 40.2822 287.208 40.3239 287.625 40.4072C288.042 40.5166 288.464 40.7406 288.891 41.0791C289.25 41.3343 289.542 41.6989 289.766 42.1729C290 42.6312 290.117 43.1729 290.117 43.7979C290.117 44.6416 289.82 45.4098 289.227 46.1025C288.617 46.8317 287.727 47.2067 286.555 47.2275H283.93V51.6729H282.203ZM291.539 51.6729V43.5635H293.172V44.4229H293.203C293.74 43.7822 294.443 43.4619 295.312 43.4619C295.964 43.4723 296.531 43.6807 297.016 44.0869L295.828 45.501C295.484 45.2301 295.128 45.0947 294.758 45.0947C294.341 45.0947 293.984 45.2301 293.688 45.501C293.354 45.7666 293.182 46.1963 293.172 46.79V51.6729H291.539ZM297.078 47.6104C297.078 46.7562 297.148 46.0999 297.289 45.6416C297.435 45.1937 297.659 44.8161 297.961 44.5088C298.185 44.238 298.497 43.9958 298.898 43.7822C299.294 43.5791 299.802 43.4723 300.422 43.4619C301.062 43.4723 301.581 43.5791 301.977 43.7822C302.367 43.9958 302.669 44.238 302.883 44.5088C303.206 44.8161 303.435 45.1937 303.57 45.6416C303.701 46.0999 303.766 46.7562 303.766 47.6104C303.766 48.4645 303.701 49.1156 303.57 49.5635C303.435 50.0114 303.206 50.3994 302.883 50.7275C302.779 50.8473 302.651 50.9645 302.5 51.0791C302.365 51.2093 302.19 51.3213 301.977 51.415C301.581 51.639 301.062 51.7562 300.422 51.7666C299.802 51.7562 299.294 51.639 298.898 51.415C298.497 51.2119 298.185 50.9827 297.961 50.7275C297.659 50.3994 297.435 50.0114 297.289 49.5635C297.148 49.1156 297.078 48.4645 297.078 47.6104ZM302.133 47.626C302.133 47.0479 302.107 46.626 302.055 46.3604C302.003 46.1051 301.896 45.8812 301.734 45.6885C301.615 45.5062 301.438 45.363 301.203 45.2588C300.979 45.1494 300.719 45.0947 300.422 45.0947C300.146 45.0947 299.891 45.1494 299.656 45.2588C299.432 45.363 299.25 45.5062 299.109 45.6885C298.969 45.8812 298.867 46.1051 298.805 46.3604C298.742 46.626 298.711 47.0426 298.711 47.6104C298.711 48.1729 298.742 48.5843 298.805 48.8447C298.867 49.1104 298.969 49.3447 299.109 49.5479C299.25 49.7041 299.432 49.8421 299.656 49.9619C299.891 50.0765 300.146 50.1338 300.422 50.1338C300.719 50.1338 300.979 50.0765 301.203 49.9619C301.438 49.8421 301.615 49.7041 301.734 49.5479C301.896 49.3447 302.003 49.1104 302.055 48.8447C302.107 48.5843 302.133 48.1781 302.133 47.626ZM305.57 43.5635V41.0947H307.203V43.5635H308.391V44.8057H307.203V49.5322C307.193 49.9437 307.385 50.1442 307.781 50.1338H308.391V51.6729H307.539C306.966 51.6729 306.497 51.4958 306.133 51.1416C305.758 50.8031 305.57 50.3135 305.57 49.6729V44.8057H304.758V43.5635H305.57ZM309.531 47.6104C309.531 46.7562 309.602 46.0999 309.742 45.6416C309.888 45.1937 310.112 44.8161 310.414 44.5088C310.638 44.238 310.951 43.9958 311.352 43.7822C311.747 43.5791 312.255 43.4723 312.875 43.4619C313.516 43.4723 314.034 43.5791 314.43 43.7822C314.82 43.9958 315.122 44.238 315.336 44.5088C315.659 44.8161 315.888 45.1937 316.023 45.6416C316.154 46.0999 316.219 46.7562 316.219 47.6104C316.219 48.4645 316.154 49.1156 316.023 49.5635C315.888 50.0114 315.659 50.3994 315.336 50.7275C315.232 50.8473 315.104 50.9645 314.953 51.0791C314.818 51.2093 314.643 51.3213 314.43 51.415C314.034 51.639 313.516 51.7562 312.875 51.7666C312.255 51.7562 311.747 51.639 311.352 51.415C310.951 51.2119 310.638 50.9827 310.414 50.7275C310.112 50.3994 309.888 50.0114 309.742 49.5635C309.602 49.1156 309.531 48.4645 309.531 47.6104ZM314.586 47.626C314.586 47.0479 314.56 46.626 314.508 46.3604C314.456 46.1051 314.349 45.8812 314.188 45.6885C314.068 45.5062 313.891 45.363 313.656 45.2588C313.432 45.1494 313.172 45.0947 312.875 45.0947C312.599 45.0947 312.344 45.1494 312.109 45.2588C311.885 45.363 311.703 45.5062 311.562 45.6885C311.422 45.8812 311.32 46.1051 311.258 46.3604C311.195 46.626 311.164 47.0426 311.164 47.6104C311.164 48.1729 311.195 48.5843 311.258 48.8447C311.32 49.1104 311.422 49.3447 311.562 49.5479C311.703 49.7041 311.885 49.8421 312.109 49.9619C312.344 50.0765 312.599 50.1338 312.875 50.1338C313.172 50.1338 313.432 50.0765 313.656 49.9619C313.891 49.8421 314.068 49.7041 314.188 49.5479C314.349 49.3447 314.456 49.1104 314.508 48.8447C314.56 48.5843 314.586 48.1781 314.586 47.626ZM318.023 43.5635V41.0947H319.656V43.5635H320.844V44.8057H319.656V49.5322C319.646 49.9437 319.839 50.1442 320.234 50.1338H320.844V51.6729H319.992C319.419 51.6729 318.951 51.4958 318.586 51.1416C318.211 50.8031 318.023 50.3135 318.023 49.6729V44.8057H317.211V43.5635H318.023ZM324.125 51.3525L321.219 43.5635H322.945L324.867 49.2432H324.898L326.812 43.5635H328.547L325.055 53.3525C324.831 53.9619 324.521 54.3838 324.125 54.6182C323.724 54.8421 323.271 54.9541 322.766 54.9541H322.227V53.415H322.703C322.917 53.415 323.115 53.3577 323.297 53.2432C323.479 53.1234 323.607 52.9463 323.68 52.7119L324.125 51.3525ZM329.492 54.9541V43.5635H331.125V44.4072C331.667 43.8031 332.365 43.488 333.219 43.4619C334.214 43.488 334.94 43.8421 335.398 44.5244C335.622 44.7796 335.776 45.1156 335.859 45.5322C335.938 45.9437 335.977 46.6416 335.977 47.626C335.977 48.5843 335.938 49.2718 335.859 49.6885C335.776 50.1051 335.622 50.4463 335.398 50.7119C335.174 51.0244 334.88 51.2744 334.516 51.4619C334.156 51.6546 333.724 51.7562 333.219 51.7666C332.802 51.7666 332.43 51.6755 332.102 51.4932C331.747 51.3265 331.422 51.0973 331.125 50.8057V54.9541H329.492ZM332.727 50.1338C333.112 50.1338 333.417 50.0609 333.641 49.915C333.865 49.764 334.023 49.5713 334.117 49.3369C334.221 49.0921 334.292 48.8213 334.328 48.5244C334.339 48.2327 334.344 47.9333 334.344 47.626C334.344 47.3031 334.339 46.988 334.328 46.6807C334.292 46.3734 334.221 46.1025 334.117 45.8682C334.023 45.6234 333.865 45.4307 333.641 45.29C333.417 45.1598 333.112 45.0947 332.727 45.0947C332.362 45.0947 332.073 45.1702 331.859 45.3213C331.635 45.4723 331.471 45.6702 331.367 45.915C331.268 46.1598 331.203 46.4255 331.172 46.7119C331.141 47.014 331.125 47.3187 331.125 47.626C331.125 47.9124 331.141 48.1989 331.172 48.4854C331.203 48.7874 331.268 49.0609 331.367 49.3057C331.471 49.5505 331.635 49.7484 331.859 49.8994C332.073 50.0557 332.362 50.1338 332.727 50.1338ZM344.094 48.2354H339.039C339.039 48.8864 339.227 49.3812 339.602 49.7197C339.951 50.0635 340.409 50.2354 340.977 50.2354C341.638 50.2354 342.229 49.9723 342.75 49.4463L343.93 50.4541C343.102 51.3395 342.128 51.777 341.008 51.7666C340.581 51.7666 340.164 51.7041 339.758 51.5791C339.555 51.5114 339.357 51.4202 339.164 51.3057C338.961 51.2067 338.771 51.0843 338.594 50.9385C338.25 50.6364 337.971 50.2145 337.758 49.6729C337.523 49.152 337.406 48.4749 337.406 47.6416C337.406 46.8395 337.508 46.1729 337.711 45.6416C337.914 45.0999 338.174 44.6729 338.492 44.3604C338.815 44.0426 339.177 43.8135 339.578 43.6729C339.974 43.5322 340.365 43.4619 340.75 43.4619C341.677 43.4723 342.461 43.777 343.102 44.376C343.753 44.9854 344.083 45.8239 344.094 46.8916V48.2354ZM339.039 46.8916H342.461C342.44 46.2614 342.271 45.7848 341.953 45.4619C341.641 45.1546 341.24 45.001 340.75 45.001C340.26 45.001 339.859 45.1546 339.547 45.4619C339.24 45.7848 339.07 46.2614 339.039 46.8916Z" fill="white"/>
<path d="M392.133 164.673V154.821H389.016V153.282H396.984V154.821H393.867V164.673H392.133ZM402.734 161.235H397.68C397.68 161.886 397.867 162.381 398.242 162.72C398.591 163.063 399.049 163.235 399.617 163.235C400.279 163.235 400.87 162.972 401.391 162.446L402.57 163.454C401.742 164.34 400.768 164.777 399.648 164.767C399.221 164.767 398.805 164.704 398.398 164.579C398.195 164.511 397.997 164.42 397.805 164.306C397.602 164.207 397.411 164.084 397.234 163.938C396.891 163.636 396.612 163.215 396.398 162.673C396.164 162.152 396.047 161.475 396.047 160.642C396.047 159.84 396.148 159.173 396.352 158.642C396.555 158.1 396.815 157.673 397.133 157.36C397.456 157.043 397.818 156.813 398.219 156.673C398.615 156.532 399.005 156.462 399.391 156.462C400.318 156.472 401.102 156.777 401.742 157.376C402.393 157.985 402.724 158.824 402.734 159.892V161.235ZM397.68 159.892H401.102C401.081 159.261 400.911 158.785 400.594 158.462C400.281 158.155 399.88 158.001 399.391 158.001C398.901 158.001 398.5 158.155 398.188 158.462C397.88 158.785 397.711 159.261 397.68 159.892ZM404.688 162.196C405.349 162.889 406.203 163.235 407.25 163.235C407.719 163.235 408.102 163.144 408.398 162.962C408.695 162.78 408.844 162.524 408.844 162.196C408.844 161.905 408.755 161.701 408.578 161.587C408.396 161.467 408.154 161.402 407.852 161.392L406.414 161.267C405.732 161.204 405.177 160.975 404.75 160.579C404.312 160.194 404.089 159.655 404.078 158.962C404.089 158.129 404.383 157.504 404.961 157.087C405.523 156.67 406.237 156.462 407.102 156.462C407.477 156.462 407.812 156.485 408.109 156.532C408.406 156.584 408.685 156.657 408.945 156.751C409.445 156.954 409.893 157.228 410.289 157.571L409.281 158.751C408.969 158.527 408.638 158.342 408.289 158.196C407.945 158.066 407.549 158.001 407.102 158.001C406.591 158.001 406.234 158.092 406.031 158.274C405.818 158.457 405.711 158.691 405.711 158.978C405.701 159.16 405.781 159.319 405.953 159.454C406.109 159.605 406.385 159.701 406.781 159.743L408.125 159.845C408.969 159.907 409.578 160.162 409.953 160.61C410.302 161.048 410.477 161.603 410.477 162.274C410.466 163.061 410.146 163.668 409.516 164.095C408.891 164.532 408.091 164.756 407.117 164.767C405.794 164.767 404.604 164.282 403.547 163.313L404.688 162.196ZM412.227 156.563V154.095H413.859V156.563H415.047V157.806H413.859V162.532C413.849 162.944 414.042 163.144 414.438 163.134H415.047V164.673H414.195C413.622 164.673 413.154 164.496 412.789 164.142C412.414 163.803 412.227 163.313 412.227 162.673V157.806H411.414V156.563H412.227Z" fill="white"/>
<path d="M457.203 51.6729V40.2822H458.93V51.6729H457.203ZM461.273 51.6729V43.5635H462.906V44.4229H462.938C463.474 43.7822 464.18 43.4619 465.055 43.4619C465.617 43.4723 466.07 43.5687 466.414 43.751C466.753 43.9541 467.062 44.2119 467.344 44.5244C467.979 43.8057 468.831 43.4515 469.898 43.4619C470.57 43.4619 471.185 43.6989 471.742 44.1729C472.294 44.652 472.581 45.3551 472.602 46.2822V51.6729H470.969V46.8447C470.969 46.277 470.82 45.8447 470.523 45.5479C470.227 45.2458 469.844 45.0947 469.375 45.0947C468.906 45.0947 468.521 45.2458 468.219 45.5479C467.911 45.8447 467.758 46.277 467.758 46.8447V51.6729H466.125V46.8447C466.125 46.277 465.977 45.8447 465.68 45.5479C465.378 45.2458 464.992 45.0947 464.523 45.0947C464.055 45.0947 463.672 45.2458 463.375 45.5479C463.062 45.8447 462.906 46.277 462.906 46.8447V51.6729H461.273ZM474.82 54.9541V43.5635H476.453V44.4072C476.995 43.8031 477.693 43.488 478.547 43.4619C479.542 43.488 480.268 43.8421 480.727 44.5244C480.951 44.7796 481.104 45.1156 481.188 45.5322C481.266 45.9437 481.305 46.6416 481.305 47.626C481.305 48.5843 481.266 49.2718 481.188 49.6885C481.104 50.1051 480.951 50.4463 480.727 50.7119C480.503 51.0244 480.208 51.2744 479.844 51.4619C479.484 51.6546 479.052 51.7562 478.547 51.7666C478.13 51.7666 477.758 51.6755 477.43 51.4932C477.076 51.3265 476.75 51.0973 476.453 50.8057V54.9541H474.82ZM478.055 50.1338C478.44 50.1338 478.745 50.0609 478.969 49.915C479.193 49.764 479.352 49.5713 479.445 49.3369C479.549 49.0921 479.62 48.8213 479.656 48.5244C479.667 48.2327 479.672 47.9333 479.672 47.626C479.672 47.3031 479.667 46.988 479.656 46.6807C479.62 46.3734 479.549 46.1025 479.445 45.8682C479.352 45.6234 479.193 45.4307 478.969 45.29C478.745 45.1598 478.44 45.0947 478.055 45.0947C477.69 45.0947 477.401 45.1702 477.188 45.3213C476.964 45.4723 476.799 45.6702 476.695 45.915C476.596 46.1598 476.531 46.4255 476.5 46.7119C476.469 47.014 476.453 47.3187 476.453 47.626C476.453 47.9124 476.469 48.1989 476.5 48.4854C476.531 48.7874 476.596 49.0609 476.695 49.3057C476.799 49.5505 476.964 49.7484 477.188 49.8994C477.401 50.0557 477.69 50.1338 478.055 50.1338ZM483.133 49.7041V40.2822H484.766V49.5791C484.766 49.9489 484.969 50.1338 485.375 50.1338H485.938V51.6729H485.211C484.617 51.6729 484.128 51.5244 483.742 51.2275C483.336 50.9255 483.133 50.4176 483.133 49.7041ZM493.547 48.2354H488.492C488.492 48.8864 488.68 49.3812 489.055 49.7197C489.404 50.0635 489.862 50.2354 490.43 50.2354C491.091 50.2354 491.682 49.9723 492.203 49.4463L493.383 50.4541C492.555 51.3395 491.581 51.777 490.461 51.7666C490.034 51.7666 489.617 51.7041 489.211 51.5791C489.008 51.5114 488.81 51.4202 488.617 51.3057C488.414 51.2067 488.224 51.0843 488.047 50.9385C487.703 50.6364 487.424 50.2145 487.211 49.6729C486.977 49.152 486.859 48.4749 486.859 47.6416C486.859 46.8395 486.961 46.1729 487.164 45.6416C487.367 45.0999 487.628 44.6729 487.945 44.3604C488.268 44.0426 488.63 43.8135 489.031 43.6729C489.427 43.5322 489.818 43.4619 490.203 43.4619C491.13 43.4723 491.914 43.777 492.555 44.376C493.206 44.9854 493.536 45.8239 493.547 46.8916V48.2354ZM488.492 46.8916H491.914C491.893 46.2614 491.724 45.7848 491.406 45.4619C491.094 45.1546 490.693 45.001 490.203 45.001C489.714 45.001 489.312 45.1546 489 45.4619C488.693 45.7848 488.523 46.2614 488.492 46.8916ZM495.352 51.6729V43.5635H496.984V44.4229H497.016C497.552 43.7822 498.258 43.4619 499.133 43.4619C499.695 43.4723 500.148 43.5687 500.492 43.751C500.831 43.9541 501.141 44.2119 501.422 44.5244C502.057 43.8057 502.909 43.4515 503.977 43.4619C504.648 43.4619 505.263 43.6989 505.82 44.1729C506.372 44.652 506.659 45.3551 506.68 46.2822V51.6729H505.047V46.8447C505.047 46.277 504.898 45.8447 504.602 45.5479C504.305 45.2458 503.922 45.0947 503.453 45.0947C502.984 45.0947 502.599 45.2458 502.297 45.5479C501.99 45.8447 501.836 46.277 501.836 46.8447V51.6729H500.203V46.8447C500.203 46.277 500.055 45.8447 499.758 45.5479C499.456 45.2458 499.07 45.0947 498.602 45.0947C498.133 45.0947 497.75 45.2458 497.453 45.5479C497.141 45.8447 496.984 46.277 496.984 46.8447V51.6729H495.352ZM515.188 48.2354H510.133C510.133 48.8864 510.32 49.3812 510.695 49.7197C511.044 50.0635 511.503 50.2354 512.07 50.2354C512.732 50.2354 513.323 49.9723 513.844 49.4463L515.023 50.4541C514.195 51.3395 513.221 51.777 512.102 51.7666C511.674 51.7666 511.258 51.7041 510.852 51.5791C510.648 51.5114 510.451 51.4202 510.258 51.3057C510.055 51.2067 509.865 51.0843 509.688 50.9385C509.344 50.6364 509.065 50.2145 508.852 49.6729C508.617 49.152 508.5 48.4749 508.5 47.6416C508.5 46.8395 508.602 46.1729 508.805 45.6416C509.008 45.0999 509.268 44.6729 509.586 44.3604C509.909 44.0426 510.271 43.8135 510.672 43.6729C511.068 43.5322 511.458 43.4619 511.844 43.4619C512.771 43.4723 513.555 43.777 514.195 44.376C514.846 44.9854 515.177 45.8239 515.188 46.8916V48.2354ZM510.133 46.8916H513.555C513.534 46.2614 513.365 45.7848 513.047 45.4619C512.734 45.1546 512.333 45.001 511.844 45.001C511.354 45.001 510.953 45.1546 510.641 45.4619C510.333 45.7848 510.164 46.2614 510.133 46.8916ZM516.898 51.6729V43.5635H518.531V44.4229H518.562C519.099 43.7822 519.802 43.4619 520.672 43.4619C521.344 43.4619 521.958 43.6989 522.516 44.1729C523.068 44.652 523.357 45.3551 523.383 46.2822V51.6729H521.75V46.8447C521.75 46.277 521.599 45.8447 521.297 45.5479C521 45.2458 520.617 45.0947 520.148 45.0947C519.68 45.0947 519.294 45.2458 518.992 45.5479C518.685 45.8447 518.531 46.277 518.531 46.8447V51.6729H516.898ZM525.586 43.5635V41.0947H527.219V43.5635H528.406V44.8057H527.219V49.5322C527.208 49.9437 527.401 50.1442 527.797 50.1338H528.406V51.6729H527.555C526.982 51.6729 526.513 51.4958 526.148 51.1416C525.773 50.8031 525.586 50.3135 525.586 49.6729V44.8057H524.773V43.5635H525.586Z" fill="white"/>
<path d="M563.203 164.673V153.282H564.93V163.04H570.477V164.673H563.203ZM578.25 161.235H573.195C573.195 161.886 573.383 162.381 573.758 162.72C574.107 163.063 574.565 163.235 575.133 163.235C575.794 163.235 576.385 162.972 576.906 162.446L578.086 163.454C577.258 164.34 576.284 164.777 575.164 164.767C574.737 164.767 574.32 164.704 573.914 164.579C573.711 164.511 573.513 164.42 573.32 164.306C573.117 164.207 572.927 164.084 572.75 163.938C572.406 163.636 572.128 163.215 571.914 162.673C571.68 162.152 571.562 161.475 571.562 160.642C571.562 159.84 571.664 159.173 571.867 158.642C572.07 158.1 572.331 157.673 572.648 157.36C572.971 157.043 573.333 156.813 573.734 156.673C574.13 156.532 574.521 156.462 574.906 156.462C575.833 156.472 576.617 156.777 577.258 157.376C577.909 157.985 578.24 158.824 578.25 159.892V161.235ZM573.195 159.892H576.617C576.596 159.261 576.427 158.785 576.109 158.462C575.797 158.155 575.396 158.001 574.906 158.001C574.417 158.001 574.016 158.155 573.703 158.462C573.396 158.785 573.227 159.261 573.195 159.892ZM584.219 164.673V163.954H584.188C584.036 164.23 583.802 164.433 583.484 164.563C583.172 164.699 582.74 164.767 582.188 164.767C581.281 164.756 580.583 164.517 580.094 164.048C579.578 163.59 579.32 163.004 579.32 162.29C579.32 161.608 579.544 161.043 579.992 160.595C580.44 160.136 581.096 159.902 581.961 159.892H584.219V159.04C584.229 158.326 583.674 157.98 582.555 158.001C582.148 158.001 581.828 158.043 581.594 158.126C581.349 158.225 581.156 158.392 581.016 158.626L579.734 157.649C580.354 156.837 581.268 156.441 582.477 156.462C583.497 156.451 584.312 156.644 584.922 157.04C585.531 157.446 585.841 158.144 585.852 159.134V164.673H584.219ZM584.219 161.821V161.235H582.266C581.318 161.256 580.849 161.582 580.859 162.212C580.859 162.488 580.982 162.722 581.227 162.915C581.461 163.129 581.849 163.235 582.391 163.235C583.073 163.246 583.555 163.165 583.836 162.993C584.091 162.821 584.219 162.431 584.219 161.821ZM587.961 164.673V156.563H589.594V157.423H589.625C590.161 156.782 590.865 156.462 591.734 156.462C592.385 156.472 592.953 156.681 593.438 157.087L592.25 158.501C591.906 158.23 591.549 158.095 591.18 158.095C590.763 158.095 590.406 158.23 590.109 158.501C589.776 158.767 589.604 159.196 589.594 159.79V164.673H587.961ZM593.805 164.673V156.563H595.438V157.423H595.469C596.005 156.782 596.708 156.462 597.578 156.462C598.25 156.462 598.865 156.699 599.422 157.173C599.974 157.652 600.263 158.355 600.289 159.282V164.673H598.656V159.845C598.656 159.277 598.505 158.845 598.203 158.548C597.906 158.246 597.523 158.095 597.055 158.095C596.586 158.095 596.201 158.246 595.898 158.548C595.591 158.845 595.438 159.277 595.438 159.845V164.673H593.805Z" fill="white"/>
</svg>
