<svg width="584" height="319" viewBox="0 0 584 319" fill="none" xmlns="http://www.w3.org/2000/svg">
<rect width="222.658" height="222.658" transform="matrix(0.706851 -0.707362 0.706851 0.707362 268.309 158)" fill="#004B32"/>
<path d="M400.264 130.779H403.624C404.718 130.779 405.538 131.073 406.084 131.659C406.631 132.246 406.904 133.106 406.904 134.239V141.319C406.904 142.453 406.631 143.313 406.084 143.899C405.538 144.486 404.718 144.779 403.624 144.779H400.264V130.779ZM403.584 142.779C403.944 142.779 404.218 142.673 404.404 142.459C404.604 142.246 404.704 141.899 404.704 141.419V134.139C404.704 133.659 404.604 133.313 404.404 133.099C404.218 132.886 403.944 132.779 403.584 132.779H402.464V142.779H403.584ZM408.389 130.779H414.389V132.779H410.589V136.479H413.609V138.479H410.589V142.779H414.389V144.779H408.389V130.779ZM415.075 130.779H417.295L418.735 141.639H418.775L420.215 130.779H422.235L420.115 144.779H417.195L415.075 130.779ZM426.433 144.979C425.353 144.979 424.526 144.673 423.953 144.059C423.379 143.446 423.093 142.579 423.093 141.459V134.099C423.093 132.979 423.379 132.113 423.953 131.499C424.526 130.886 425.353 130.579 426.433 130.579C427.513 130.579 428.339 130.886 428.913 131.499C429.486 132.113 429.773 132.979 429.773 134.099V141.459C429.773 142.579 429.486 143.446 428.913 144.059C428.339 144.673 427.513 144.979 426.433 144.979ZM426.433 142.979C427.193 142.979 427.573 142.519 427.573 141.599V133.959C427.573 133.039 427.193 132.579 426.433 132.579C425.673 132.579 425.293 133.039 425.293 133.959V141.599C425.293 142.519 425.673 142.979 426.433 142.979ZM431.26 130.779H433.46V142.779H437.08V144.779H431.26V130.779ZM441.237 144.979C440.157 144.979 439.331 144.673 438.757 144.059C438.184 143.446 437.897 142.579 437.897 141.459V134.099C437.897 132.979 438.184 132.113 438.757 131.499C439.331 130.886 440.157 130.579 441.237 130.579C442.317 130.579 443.144 130.886 443.717 131.499C444.291 132.113 444.577 132.979 444.577 134.099V141.459C444.577 142.579 444.291 143.446 443.717 144.059C443.144 144.673 442.317 144.979 441.237 144.979ZM441.237 142.979C441.997 142.979 442.377 142.519 442.377 141.599V133.959C442.377 133.039 441.997 132.579 441.237 132.579C440.477 132.579 440.097 133.039 440.097 133.959V141.599C440.097 142.519 440.477 142.979 441.237 142.979ZM446.065 130.779H449.305C450.399 130.779 451.219 131.073 451.765 131.659C452.312 132.246 452.585 133.106 452.585 134.239V135.619C452.585 136.753 452.312 137.613 451.765 138.199C451.219 138.786 450.399 139.079 449.305 139.079H448.265V144.779H446.065V130.779ZM449.305 137.079C449.665 137.079 449.932 136.979 450.105 136.779C450.292 136.579 450.385 136.239 450.385 135.759V134.099C450.385 133.619 450.292 133.279 450.105 133.079C449.932 132.879 449.665 132.779 449.305 132.779H448.265V137.079H449.305Z" fill="#F7F6F2"/>
<path d="M402.481 159.508H405.841C406.934 159.508 407.754 159.801 408.301 160.388C408.848 160.974 409.121 161.834 409.121 162.968V170.048C409.121 171.181 408.848 172.041 408.301 172.628C407.754 173.214 406.934 173.508 405.841 173.508H402.481V159.508ZM405.801 171.508C406.161 171.508 406.434 171.401 406.621 171.188C406.821 170.974 406.921 170.628 406.921 170.148V162.868C406.921 162.388 406.821 162.041 406.621 161.828C406.434 161.614 406.161 161.508 405.801 161.508H404.681V171.508H405.801ZM410.606 159.508H416.606V161.508H412.806V165.208H415.826V167.208H412.806V171.508H416.606V173.508H410.606V159.508ZM417.872 159.508H420.072V171.508H423.692V173.508H417.872V159.508ZM424.747 159.508H426.947V173.508H424.747V159.508ZM428.014 159.508H430.234L431.674 170.368H431.714L433.154 159.508H435.174L433.054 173.508H430.134L428.014 159.508ZM436.231 159.508H442.231V161.508H438.431V165.208H441.451V167.208H438.431V171.508H442.231V173.508H436.231V159.508ZM443.497 159.508H446.757C447.89 159.508 448.717 159.774 449.237 160.308C449.757 160.828 450.017 161.634 450.017 162.728V163.588C450.017 165.041 449.537 165.961 448.577 166.348V166.388C449.11 166.548 449.483 166.874 449.697 167.368C449.923 167.861 450.037 168.521 450.037 169.348V171.808C450.037 172.208 450.05 172.534 450.077 172.788C450.103 173.028 450.17 173.268 450.277 173.508H448.037C447.957 173.281 447.903 173.068 447.877 172.868C447.85 172.668 447.837 172.308 447.837 171.788V169.228C447.837 168.588 447.73 168.141 447.517 167.888C447.317 167.634 446.963 167.508 446.457 167.508H445.697V173.508H443.497V159.508ZM446.497 165.508C446.937 165.508 447.263 165.394 447.477 165.168C447.703 164.941 447.817 164.561 447.817 164.028V162.948C447.817 162.441 447.723 162.074 447.537 161.848C447.363 161.621 447.083 161.508 446.697 161.508H445.697V165.508H446.497Z" fill="#F7F6F2"/>
<rect width="222.658" height="222.658" transform="matrix(0.706851 -0.707362 0.706851 0.707362 0 158)" fill="#004B32"/>
<path d="M129.138 130.779H132.498C133.591 130.779 134.411 131.073 134.958 131.659C135.505 132.246 135.778 133.106 135.778 134.239V141.319C135.778 142.453 135.505 143.313 134.958 143.899C134.411 144.486 133.591 144.779 132.498 144.779H129.138V130.779ZM132.458 142.779C132.818 142.779 133.091 142.673 133.278 142.459C133.478 142.246 133.578 141.899 133.578 141.419V134.139C133.578 133.659 133.478 133.313 133.278 133.099C133.091 132.886 132.818 132.779 132.458 132.779H131.338V142.779H132.458ZM137.263 130.779H139.463V144.779H137.263V130.779ZM143.971 144.979C142.904 144.979 142.097 144.679 141.551 144.079C141.004 143.466 140.731 142.593 140.731 141.459V140.659H142.811V141.619C142.811 142.526 143.191 142.979 143.951 142.979C144.324 142.979 144.604 142.873 144.791 142.659C144.991 142.433 145.091 142.073 145.091 141.579C145.091 140.993 144.957 140.479 144.691 140.039C144.424 139.586 143.931 139.046 143.211 138.419C142.304 137.619 141.671 136.899 141.311 136.259C140.951 135.606 140.771 134.873 140.771 134.059C140.771 132.953 141.051 132.099 141.611 131.499C142.171 130.886 142.984 130.579 144.051 130.579C145.104 130.579 145.897 130.886 146.431 131.499C146.977 132.099 147.251 132.966 147.251 134.099V134.679H145.171V133.959C145.171 133.479 145.077 133.133 144.891 132.919C144.704 132.693 144.431 132.579 144.071 132.579C143.337 132.579 142.971 133.026 142.971 133.919C142.971 134.426 143.104 134.899 143.371 135.339C143.651 135.779 144.151 136.313 144.871 136.939C145.791 137.739 146.424 138.466 146.771 139.119C147.117 139.773 147.291 140.539 147.291 141.419C147.291 142.566 147.004 143.446 146.431 144.059C145.871 144.673 145.051 144.979 143.971 144.979ZM151.652 144.979C150.599 144.979 149.792 144.679 149.232 144.079C148.685 143.479 148.412 142.633 148.412 141.539V134.019C148.412 132.926 148.685 132.079 149.232 131.479C149.792 130.879 150.599 130.579 151.652 130.579C152.705 130.579 153.505 130.879 154.052 131.479C154.612 132.079 154.892 132.926 154.892 134.019V135.499H152.812V133.879C152.812 133.013 152.445 132.579 151.712 132.579C150.979 132.579 150.612 133.013 150.612 133.879V141.699C150.612 142.553 150.979 142.979 151.712 142.979C152.445 142.979 152.812 142.553 152.812 141.699V139.559H154.892V141.539C154.892 142.633 154.612 143.479 154.052 144.079C153.505 144.679 152.705 144.979 151.652 144.979ZM159.427 144.979C158.347 144.979 157.521 144.673 156.947 144.059C156.374 143.446 156.087 142.579 156.087 141.459V134.099C156.087 132.979 156.374 132.113 156.947 131.499C157.521 130.886 158.347 130.579 159.427 130.579C160.507 130.579 161.334 130.886 161.907 131.499C162.481 132.113 162.767 132.979 162.767 134.099V141.459C162.767 142.579 162.481 143.446 161.907 144.059C161.334 144.673 160.507 144.979 159.427 144.979ZM159.427 142.979C160.187 142.979 160.567 142.519 160.567 141.599V133.959C160.567 133.039 160.187 132.579 159.427 132.579C158.667 132.579 158.287 133.039 158.287 133.959V141.599C158.287 142.519 158.667 142.979 159.427 142.979ZM163.636 130.779H165.856L167.296 141.639H167.336L168.776 130.779H170.796L168.676 144.779H165.756L163.636 130.779ZM171.853 130.779H177.853V132.779H174.053V136.479H177.073V138.479H174.053V142.779H177.853V144.779H171.853V130.779ZM179.119 130.779H182.379C183.512 130.779 184.339 131.046 184.859 131.579C185.379 132.099 185.639 132.906 185.639 133.999V134.859C185.639 136.313 185.159 137.233 184.199 137.619V137.659C184.732 137.819 185.105 138.146 185.319 138.639C185.545 139.133 185.659 139.793 185.659 140.619V143.079C185.659 143.479 185.672 143.806 185.699 144.059C185.725 144.299 185.792 144.539 185.899 144.779H183.659C183.579 144.553 183.525 144.339 183.499 144.139C183.472 143.939 183.459 143.579 183.459 143.059V140.499C183.459 139.859 183.352 139.413 183.139 139.159C182.939 138.906 182.585 138.779 182.079 138.779H181.319V144.779H179.119V130.779ZM182.119 136.779C182.559 136.779 182.885 136.666 183.099 136.439C183.325 136.213 183.439 135.833 183.439 135.299V134.219C183.439 133.713 183.345 133.346 183.159 133.119C182.985 132.893 182.705 132.779 182.319 132.779H181.319V136.779H182.119Z" fill="#F7F6F2"/>
<path d="M241.3 301.5H244.66C245.754 301.5 246.574 301.793 247.12 302.38C247.667 302.967 247.94 303.827 247.94 304.96V312.04C247.94 313.173 247.667 314.033 247.12 314.62C246.574 315.207 245.754 315.5 244.66 315.5H241.3V301.5ZM244.62 313.5C244.98 313.5 245.254 313.393 245.44 313.18C245.64 312.967 245.74 312.62 245.74 312.14V304.86C245.74 304.38 245.64 304.033 245.44 303.82C245.254 303.607 244.98 303.5 244.62 303.5H243.5V313.5H244.62ZM252.605 315.7C251.525 315.7 250.699 315.393 250.125 314.78C249.552 314.167 249.265 313.3 249.265 312.18V304.82C249.265 303.7 249.552 302.833 250.125 302.22C250.699 301.607 251.525 301.3 252.605 301.3C253.685 301.3 254.512 301.607 255.085 302.22C255.659 302.833 255.945 303.7 255.945 304.82V312.18C255.945 313.3 255.659 314.167 255.085 314.78C254.512 315.393 253.685 315.7 252.605 315.7ZM252.605 313.7C253.365 313.7 253.745 313.24 253.745 312.32V304.68C253.745 303.76 253.365 303.3 252.605 303.3C251.845 303.3 251.465 303.76 251.465 304.68V312.32C251.465 313.24 251.845 313.7 252.605 313.7ZM260.633 315.7C259.567 315.7 258.753 315.4 258.193 314.8C257.633 314.187 257.353 313.313 257.353 312.18V301.5H259.553V312.34C259.553 312.82 259.647 313.167 259.833 313.38C260.033 313.593 260.313 313.7 260.673 313.7C261.033 313.7 261.307 313.593 261.493 313.38C261.693 313.167 261.793 312.82 261.793 312.34V301.5H263.913V312.18C263.913 313.313 263.633 314.187 263.073 314.8C262.513 315.4 261.7 315.7 260.633 315.7ZM265.48 301.5H268.8C269.933 301.5 270.76 301.767 271.28 302.3C271.8 302.82 272.06 303.627 272.06 304.72V305.28C272.06 306 271.94 306.587 271.7 307.04C271.473 307.493 271.12 307.82 270.64 308.02V308.06C271.733 308.433 272.28 309.407 272.28 310.98V312.18C272.28 313.26 271.993 314.087 271.42 314.66C270.86 315.22 270.033 315.5 268.94 315.5H265.48V301.5ZM268.54 307.2C268.98 307.2 269.307 307.087 269.52 306.86C269.747 306.633 269.86 306.253 269.86 305.72V304.94C269.86 304.433 269.767 304.067 269.58 303.84C269.407 303.613 269.127 303.5 268.74 303.5H267.68V307.2H268.54ZM268.94 313.5C269.327 313.5 269.613 313.4 269.8 313.2C269.987 312.987 270.08 312.627 270.08 312.12V310.9C270.08 310.26 269.967 309.82 269.74 309.58C269.527 309.327 269.167 309.2 268.66 309.2H267.68V313.5H268.94ZM273.566 301.5H275.766V313.5H279.386V315.5H273.566V301.5ZM280.441 301.5H286.441V303.5H282.641V307.2H285.661V309.2H282.641V313.5H286.441V315.5H280.441V301.5ZM290.91 301.5H294.27C295.363 301.5 296.183 301.793 296.73 302.38C297.277 302.967 297.55 303.827 297.55 304.96V312.04C297.55 313.173 297.277 314.033 296.73 314.62C296.183 315.207 295.363 315.5 294.27 315.5H290.91V301.5ZM294.23 313.5C294.59 313.5 294.863 313.393 295.05 313.18C295.25 312.967 295.35 312.62 295.35 312.14V304.86C295.35 304.38 295.25 304.033 295.05 303.82C294.863 303.607 294.59 303.5 294.23 303.5H293.11V313.5H294.23ZM299.035 301.5H301.235V315.5H299.035V301.5ZM304.583 301.5H307.563L309.843 315.5H307.643L307.243 312.72V312.76H304.743L304.343 315.5H302.303L304.583 301.5ZM306.983 310.86L306.003 303.94H305.963L305.002 310.86H306.983ZM310.91 301.5H314.05L315.45 311.52H315.49L316.89 301.5H320.03V315.5H317.95V304.9H317.91L316.31 315.5H314.47L312.87 304.9H312.83V315.5H310.91V301.5ZM324.852 315.7C323.772 315.7 322.945 315.393 322.372 314.78C321.798 314.167 321.512 313.3 321.512 312.18V304.82C321.512 303.7 321.798 302.833 322.372 302.22C322.945 301.607 323.772 301.3 324.852 301.3C325.932 301.3 326.758 301.607 327.332 302.22C327.905 302.833 328.192 303.7 328.192 304.82V312.18C328.192 313.3 327.905 314.167 327.332 314.78C326.758 315.393 325.932 315.7 324.852 315.7ZM324.852 313.7C325.612 313.7 325.992 313.24 325.992 312.32V304.68C325.992 303.76 325.612 303.3 324.852 303.3C324.092 303.3 323.712 303.76 323.712 304.68V312.32C323.712 313.24 324.092 313.7 324.852 313.7ZM329.679 301.5H332.439L334.579 309.88H334.619V301.5H336.579V315.5H334.319L331.679 305.28H331.639V315.5H329.679V301.5ZM338.215 301.5H341.575C342.668 301.5 343.488 301.793 344.035 302.38C344.581 302.967 344.855 303.827 344.855 304.96V312.04C344.855 313.173 344.581 314.033 344.035 314.62C343.488 315.207 342.668 315.5 341.575 315.5H338.215V301.5ZM341.535 313.5C341.895 313.5 342.168 313.393 342.355 313.18C342.555 312.967 342.655 312.62 342.655 312.14V304.86C342.655 304.38 342.555 304.033 342.355 303.82C342.168 303.607 341.895 303.5 341.535 303.5H340.415V313.5H341.535Z" fill="#004B32"/>
<path d="M136.652 159.508H140.012C141.106 159.508 141.926 159.801 142.472 160.388C143.019 160.974 143.292 161.834 143.292 162.968V170.048C143.292 171.181 143.019 172.041 142.472 172.628C141.926 173.214 141.106 173.508 140.012 173.508H136.652V159.508ZM139.972 171.508C140.332 171.508 140.606 171.401 140.792 171.188C140.992 170.974 141.092 170.628 141.092 170.148V162.868C141.092 162.388 140.992 162.041 140.792 161.828C140.606 161.614 140.332 161.508 139.972 161.508H138.852V171.508H139.972ZM144.777 159.508H150.777V161.508H146.977V165.208H149.997V167.208H146.977V171.508H150.777V173.508H144.777V159.508ZM152.043 159.508H157.863V161.508H154.243V165.408H157.083V167.408H154.243V173.508H152.043V159.508ZM158.918 159.508H161.118V173.508H158.918V159.508ZM162.766 159.508H165.526L167.666 167.888H167.706V159.508H169.666V173.508H167.406L164.766 163.288H164.726V173.508H162.766V159.508ZM171.301 159.508H177.301V161.508H173.501V165.208H176.521V167.208H173.501V171.508H177.301V173.508H171.301V159.508Z" fill="#F7F6F2"/>
</svg>
