<svg width="666" height="413" viewBox="0 0 666 413" fill="none" xmlns="http://www.w3.org/2000/svg">
<path d="M44.9452 176.474C68.916 175.24 60 85.0002 145 96.5002C195.767 103.369 189.7 157 131.5 254C101.5 304 185 393.5 254.5 304C321.755 217.391 282.5 129.5 360.5 129.5C435.101 129.5 361.522 232.5 477 232.5C553.5 232.5 510 38.5001 604.645 46.9259" stroke="#004B32" stroke-width="31"/>
<circle cx="44.6808" cy="166.826" r="44.6808" fill="#FEB701"/>
<circle cx="181.103" cy="341.319" r="44.6808" fill="#FEB701"/>
<circle cx="356.681" cy="121.681" r="44.6808" fill="#FEB701"/>
<circle cx="611.519" cy="44.6808" r="44.6808" fill="#FEB701"/>
<g clip-path="url(#clip0_33_358)">
<path d="M31.6995 157.308C31.6995 154.714 32.7357 152.226 34.5802 150.391C36.4246 148.556 38.9262 147.526 41.5346 147.526C44.143 147.526 46.6446 148.556 48.4891 150.391C50.3335 152.226 51.3697 154.714 51.3697 157.308C51.3697 159.902 50.3335 162.391 48.4891 164.225C46.6446 166.06 44.143 167.09 41.5346 167.09C38.9262 167.09 36.4246 166.06 34.5802 164.225C32.7357 162.391 31.6995 159.902 31.6995 157.308ZM24.3232 184.385C24.3232 176.857 30.4548 170.759 38.0232 170.759H45.046C52.6144 170.759 58.746 176.857 58.746 184.385C58.746 185.638 57.7241 186.655 56.4639 186.655H26.6053C25.3452 186.655 24.3232 185.638 24.3232 184.385ZM63.0488 171.37V166.479H58.1313C57.1094 166.479 56.2872 165.661 56.2872 164.645C56.2872 163.628 57.1094 162.811 58.1313 162.811H63.0488V157.919C63.0488 156.903 63.871 156.085 64.8929 156.085C65.9148 156.085 66.737 156.903 66.737 157.919V162.811H71.6545C72.6764 162.811 73.4986 163.628 73.4986 164.645C73.4986 165.661 72.6764 166.479 71.6545 166.479H66.737V171.37C66.737 172.386 65.9148 173.204 64.8929 173.204C63.871 173.204 63.0488 172.386 63.0488 171.37Z" fill="#004B32"/>
</g>
<g clip-path="url(#clip1_33_358)">
<path d="M173.643 331.173V335.635H188.562V331.173C188.562 327.065 185.224 323.738 181.103 323.738C176.982 323.738 173.643 327.065 173.643 331.173ZM167.676 335.635V331.173C167.676 323.784 173.69 317.789 181.103 317.789C188.516 317.789 194.53 323.784 194.53 331.173V335.635H196.022C199.313 335.635 201.989 338.303 201.989 341.584V359.429C201.989 362.711 199.313 365.378 196.022 365.378H166.184C162.893 365.378 160.217 362.711 160.217 359.429V341.584C160.217 338.303 162.893 335.635 166.184 335.635H167.676Z" fill="#004B32"/>
</g>
<g clip-path="url(#clip2_33_358)">
<path d="M353.07 102.678C350.656 100.269 346.738 100.269 344.323 102.678L332.397 114.575C329.982 116.984 329.982 120.893 332.397 123.301L344.323 135.199C346.738 137.608 350.656 137.608 353.07 135.199L364.997 123.301C367.411 120.893 367.411 116.984 364.997 114.575L353.07 102.678ZM346.635 118.938C346.635 118.393 346.852 117.869 347.239 117.484C347.625 117.098 348.15 116.881 348.697 116.881C349.244 116.881 349.768 117.098 350.155 117.484C350.542 117.869 350.759 118.393 350.759 118.938C350.759 119.484 350.542 120.007 350.155 120.393C349.768 120.779 349.244 120.996 348.697 120.996C348.15 120.996 347.625 120.779 347.239 120.393C346.852 120.007 346.635 119.484 346.635 118.938ZM337.698 116.881C338.245 116.881 338.77 117.098 339.157 117.484C339.543 117.869 339.761 118.393 339.761 118.938C339.761 119.484 339.543 120.007 339.157 120.393C338.77 120.779 338.245 120.996 337.698 120.996C337.151 120.996 336.627 120.779 336.24 120.393C335.853 120.007 335.636 119.484 335.636 118.938C335.636 118.393 335.853 117.869 336.24 117.484C336.627 117.098 337.151 116.881 337.698 116.881ZM348.697 131.967C348.15 131.967 347.625 131.751 347.239 131.365C346.852 130.979 346.635 130.456 346.635 129.91C346.635 129.365 346.852 128.841 347.239 128.456C347.625 128.07 348.15 127.853 348.697 127.853C349.244 127.853 349.768 128.07 350.155 128.456C350.542 128.841 350.759 129.365 350.759 129.91C350.759 130.456 350.542 130.979 350.155 131.365C349.768 131.751 349.244 131.967 348.697 131.967ZM359.695 116.881C360.242 116.881 360.767 117.098 361.153 117.484C361.54 117.869 361.757 118.393 361.757 118.938C361.757 119.484 361.54 120.007 361.153 120.393C360.767 120.779 360.242 120.996 359.695 120.996C359.148 120.996 358.624 120.779 358.237 120.393C357.85 120.007 357.633 119.484 357.633 118.938C357.633 118.393 357.85 117.869 358.237 117.484C358.624 117.098 359.148 116.881 359.695 116.881ZM348.697 110.024C348.15 110.024 347.625 109.807 347.239 109.421C346.852 109.035 346.635 108.512 346.635 107.966C346.635 107.421 346.852 106.898 347.239 106.512C347.625 106.126 348.15 105.909 348.697 105.909C349.244 105.909 349.768 106.126 350.155 106.512C350.542 106.898 350.759 107.421 350.759 107.966C350.759 108.512 350.542 109.035 350.155 109.421C349.768 109.807 349.244 110.024 348.697 110.024ZM356.945 138.139C356.945 141.165 359.412 143.625 362.445 143.625H378.942C381.975 143.625 384.441 141.165 384.441 138.139V121.681C384.441 118.655 381.975 116.195 378.942 116.195H369.121C370.118 119.281 369.387 122.796 366.939 125.239L356.945 135.208V138.139ZM370.693 127.853C371.24 127.853 371.765 128.07 372.152 128.456C372.538 128.841 372.756 129.365 372.756 129.91C372.756 130.456 372.538 130.979 372.152 131.365C371.765 131.751 371.24 131.967 370.693 131.967C370.146 131.967 369.622 131.751 369.235 131.365C368.848 130.979 368.631 130.456 368.631 129.91C368.631 129.365 368.848 128.841 369.235 128.456C369.622 128.07 370.146 127.853 370.693 127.853Z" fill="#004B32"/>
</g>
<g clip-path="url(#clip3_33_358)">
<path d="M603.508 23.2656C606.341 23.2656 609.058 24.3937 611.061 26.4018C613.064 28.4098 614.189 31.1333 614.189 33.9732C614.189 36.813 613.064 39.5365 611.061 41.5445C609.058 43.5526 606.341 44.6807 603.508 44.6807C600.676 44.6807 597.959 43.5526 595.956 41.5445C593.953 39.5365 592.827 36.813 592.827 33.9732C592.827 31.1333 593.953 28.4098 595.956 26.4018C597.959 24.3937 600.676 23.2656 603.508 23.2656ZM599.695 48.696H607.322C609.041 48.696 610.693 48.9888 612.228 49.5242C611.769 50.9546 611.519 52.4688 611.519 54.0498C611.519 59.0271 613.981 63.4272 617.761 66.0958H587.295C585.926 66.0958 584.816 64.9832 584.816 63.6113C584.816 55.3715 591.475 48.696 599.695 48.696ZM614.189 54.0498C614.189 50.855 615.455 47.7911 617.709 45.532C619.962 43.2729 623.019 42.0038 626.206 42.0038C629.393 42.0038 632.449 43.2729 634.702 45.532C636.956 47.7911 638.222 50.855 638.222 54.0498C638.222 57.2446 636.956 60.3085 634.702 62.5676C632.449 64.8266 629.393 66.0958 626.206 66.0958C623.019 66.0958 619.962 64.8266 617.709 62.5676C615.455 60.3085 614.189 57.2446 614.189 54.0498ZM626.206 47.3576C625.471 47.3576 624.871 47.9599 624.871 48.696V54.0498C624.871 54.7859 625.471 55.3882 626.206 55.3882H630.211C630.945 55.3882 631.546 54.7859 631.546 54.0498C631.546 53.3136 630.945 52.7113 630.211 52.7113H627.541V48.696C627.541 47.9599 626.94 47.3576 626.206 47.3576Z" fill="#004B32"/>
</g>
<path d="M11.166 233.2C10.086 233.2 9.25935 232.893 8.68602 232.28C8.11268 231.667 7.82602 230.8 7.82602 229.68V222.32C7.82602 221.2 8.11268 220.333 8.68602 219.72C9.25935 219.107 10.086 218.8 11.166 218.8C12.246 218.8 13.0727 219.107 13.646 219.72C14.2193 220.333 14.506 221.2 14.506 222.32V229.68C14.506 230.8 14.2193 231.667 13.646 232.28C13.0727 232.893 12.246 233.2 11.166 233.2ZM11.166 231.2C11.926 231.2 12.306 230.74 12.306 229.82V222.18C12.306 221.26 11.926 220.8 11.166 220.8C10.406 220.8 10.026 221.26 10.026 222.18V229.82C10.026 230.74 10.406 231.2 11.166 231.2ZM15.9938 219H19.2338C20.3272 219 21.1472 219.293 21.6938 219.88C22.2405 220.467 22.5138 221.327 22.5138 222.46V223.84C22.5138 224.973 22.2405 225.833 21.6938 226.42C21.1472 227.007 20.3272 227.3 19.2338 227.3H18.1938V233H15.9938V219ZM19.2338 225.3C19.5938 225.3 19.8605 225.2 20.0338 225C20.2205 224.8 20.3138 224.46 20.3138 223.98V222.32C20.3138 221.84 20.2205 221.5 20.0338 221.3C19.8605 221.1 19.5938 221 19.2338 221H18.1938V225.3H19.2338ZM23.7087 219H26.9687C28.102 219 28.9287 219.267 29.4487 219.8C29.9687 220.32 30.2287 221.127 30.2287 222.22V223.08C30.2287 224.533 29.7487 225.453 28.7887 225.84V225.88C29.322 226.04 29.6953 226.367 29.9087 226.86C30.1353 227.353 30.2487 228.013 30.2487 228.84V231.3C30.2487 231.7 30.262 232.027 30.2887 232.28C30.3153 232.52 30.382 232.76 30.4887 233H28.2487C28.1687 232.773 28.1153 232.56 28.0887 232.36C28.062 232.16 28.0487 231.8 28.0487 231.28V228.72C28.0487 228.08 27.942 227.633 27.7287 227.38C27.5287 227.127 27.1753 227 26.6687 227H25.9087V233H23.7087V219ZM26.7087 225C27.1487 225 27.4753 224.887 27.6887 224.66C27.9153 224.433 28.0287 224.053 28.0287 223.52V222.44C28.0287 221.933 27.9353 221.567 27.7487 221.34C27.5753 221.113 27.2953 221 26.9087 221H25.9087V225H26.7087ZM31.7751 219H37.7751V221H33.9751V224.7H36.9951V226.7H33.9751V231H37.7751V233H31.7751V219ZM40.7607 221H38.4607V219H45.2607V221H42.9607V233H40.7607V221ZM48.2412 221H45.9412V219H52.7412V221H50.4412V233H48.2412V221ZM53.8063 219H59.8063V221H56.0063V224.7H59.0263V226.7H56.0063V231H59.8063V233H53.8063V219ZM61.072 219H63.272V231H66.892V233H61.072V219ZM70.807 233.2C69.7403 233.2 68.9336 232.9 68.387 232.3C67.8403 231.687 67.567 230.813 67.567 229.68V228.88H69.647V229.84C69.647 230.747 70.027 231.2 70.787 231.2C71.1603 231.2 71.4403 231.093 71.627 230.88C71.827 230.653 71.927 230.293 71.927 229.8C71.927 229.213 71.7936 228.7 71.527 228.26C71.2603 227.807 70.767 227.267 70.047 226.64C69.1403 225.84 68.507 225.12 68.147 224.48C67.787 223.827 67.607 223.093 67.607 222.28C67.607 221.173 67.887 220.32 68.447 219.72C69.007 219.107 69.8203 218.8 70.887 218.8C71.9403 218.8 72.7336 219.107 73.267 219.72C73.8136 220.32 74.087 221.187 74.087 222.32V222.9H72.007V222.18C72.007 221.7 71.9136 221.353 71.727 221.14C71.5403 220.913 71.267 220.8 70.907 220.8C70.1736 220.8 69.807 221.247 69.807 222.14C69.807 222.647 69.9403 223.12 70.207 223.56C70.487 224 70.987 224.533 71.707 225.16C72.627 225.96 73.2603 226.687 73.607 227.34C73.9536 227.993 74.127 228.76 74.127 229.64C74.127 230.787 73.8403 231.667 73.267 232.28C72.707 232.893 71.887 233.2 70.807 233.2ZM75.3884 219H81.3884V221H77.5884V224.7H80.6084V226.7H77.5884V231H81.3884V233H75.3884V219Z" fill="#3F4345"/>
<path d="M123.028 410.2C121.961 410.2 121.154 409.9 120.608 409.3C120.061 408.687 119.788 407.813 119.788 406.68V405.88H121.868V406.84C121.868 407.747 122.248 408.2 123.008 408.2C123.381 408.2 123.661 408.093 123.848 407.88C124.048 407.653 124.148 407.293 124.148 406.8C124.148 406.213 124.014 405.7 123.748 405.26C123.481 404.807 122.988 404.267 122.268 403.64C121.361 402.84 120.728 402.12 120.368 401.48C120.008 400.827 119.828 400.093 119.828 399.28C119.828 398.173 120.108 397.32 120.668 396.72C121.228 396.107 122.041 395.8 123.108 395.8C124.161 395.8 124.954 396.107 125.488 396.72C126.034 397.32 126.308 398.187 126.308 399.32V399.9H124.228V399.18C124.228 398.7 124.134 398.353 123.948 398.14C123.761 397.913 123.488 397.8 123.128 397.8C122.394 397.8 122.028 398.247 122.028 399.14C122.028 399.647 122.161 400.12 122.428 400.56C122.708 401 123.208 401.533 123.928 402.16C124.848 402.96 125.481 403.687 125.828 404.34C126.174 404.993 126.348 405.76 126.348 406.64C126.348 407.787 126.061 408.667 125.488 409.28C124.928 409.893 124.108 410.2 123.028 410.2ZM130.631 396H137.851V398H134.051V401.7H137.071V403.7H134.051V408H137.851V410H131.851V407.26H129.691L128.991 410H126.891L130.631 396ZM131.851 405.36V398.7H131.811L130.171 405.36H131.851ZM140.833 398H138.533V396H145.333V398H143.033V410H140.833V398ZM149.601 396H155.601V398H151.801V401.7H154.821V403.7H151.801V408H155.601V410H149.601V396ZM159.987 410.2C158.92 410.2 158.107 409.9 157.547 409.3C156.987 408.687 156.707 407.813 156.707 406.68V399.32C156.707 398.187 156.987 397.32 157.547 396.72C158.107 396.107 158.92 395.8 159.987 395.8C161.054 395.8 161.867 396.107 162.427 396.72C162.987 397.32 163.267 398.187 163.267 399.32V400.52H161.187V399.18C161.187 398.26 160.807 397.8 160.047 397.8C159.287 397.8 158.907 398.26 158.907 399.18V406.84C158.907 407.747 159.287 408.2 160.047 408.2C160.807 408.2 161.187 407.747 161.187 406.84V404.1H160.087V402.1H163.267V406.68C163.267 407.813 162.987 408.687 162.427 409.3C161.867 409.9 161.054 410.2 159.987 410.2ZM164.679 396H167.439L169.579 404.38H169.619V396H171.579V410H169.319L166.679 399.78H166.639V410H164.679V396ZM173.215 396H179.215V398H175.415V401.7H178.435V403.7H175.415V408H179.215V410H173.215V396ZM186.803 410.2C185.737 410.2 184.923 409.9 184.363 409.3C183.803 408.687 183.523 407.813 183.523 406.68V399.32C183.523 398.187 183.803 397.32 184.363 396.72C184.923 396.107 185.737 395.8 186.803 395.8C187.87 395.8 188.683 396.107 189.243 396.72C189.803 397.32 190.083 398.187 190.083 399.32V400.52H188.003V399.18C188.003 398.26 187.623 397.8 186.863 397.8C186.103 397.8 185.723 398.26 185.723 399.18V406.84C185.723 407.747 186.103 408.2 186.863 408.2C187.623 408.2 188.003 407.747 188.003 406.84V404.1H186.903V402.1H190.083V406.68C190.083 407.813 189.803 408.687 189.243 409.3C188.683 409.9 187.87 410.2 186.803 410.2ZM191.496 396H194.756C195.889 396 196.716 396.267 197.236 396.8C197.756 397.32 198.016 398.127 198.016 399.22V400.08C198.016 401.533 197.536 402.453 196.576 402.84V402.88C197.109 403.04 197.482 403.367 197.696 403.86C197.922 404.353 198.036 405.013 198.036 405.84V408.3C198.036 408.7 198.049 409.027 198.076 409.28C198.102 409.52 198.169 409.76 198.276 410H196.036C195.956 409.773 195.902 409.56 195.876 409.36C195.849 409.16 195.836 408.8 195.836 408.28V405.72C195.836 405.08 195.729 404.633 195.516 404.38C195.316 404.127 194.962 404 194.456 404H193.696V410H191.496V396ZM194.496 402C194.936 402 195.262 401.887 195.476 401.66C195.702 401.433 195.816 401.053 195.816 400.52V399.44C195.816 398.933 195.722 398.567 195.536 398.34C195.362 398.113 195.082 398 194.696 398H193.696V402H194.496ZM202.682 396H209.902V398H206.102V401.7H209.122V403.7H206.102V408H209.902V410H203.902V407.26H201.742L201.042 410H198.942L202.682 396ZM203.902 405.36V398.7H203.862L202.222 405.36H203.902ZM211.164 396H213.924L216.064 404.38H216.104V396H218.064V410H215.804L213.164 399.78H213.124V410H211.164V396ZM222.559 410.2C221.492 410.2 220.686 409.9 220.139 409.3C219.592 408.687 219.319 407.813 219.319 406.68V405.88H221.399V406.84C221.399 407.747 221.779 408.2 222.539 408.2C222.912 408.2 223.192 408.093 223.379 407.88C223.579 407.653 223.679 407.293 223.679 406.8C223.679 406.213 223.546 405.7 223.279 405.26C223.012 404.807 222.519 404.267 221.799 403.64C220.892 402.84 220.259 402.12 219.899 401.48C219.539 400.827 219.359 400.093 219.359 399.28C219.359 398.173 219.639 397.32 220.199 396.72C220.759 396.107 221.572 395.8 222.639 395.8C223.692 395.8 224.486 396.107 225.019 396.72C225.566 397.32 225.839 398.187 225.839 399.32V399.9H223.759V399.18C223.759 398.7 223.666 398.353 223.479 398.14C223.292 397.913 223.019 397.8 222.659 397.8C221.926 397.8 221.559 398.247 221.559 399.14C221.559 399.647 221.692 400.12 221.959 400.56C222.239 401 222.739 401.533 223.459 402.16C224.379 402.96 225.012 403.687 225.359 404.34C225.706 404.993 225.879 405.76 225.879 406.64C225.879 407.787 225.592 408.667 225.019 409.28C224.459 409.893 223.639 410.2 222.559 410.2ZM227.14 396H233.14V398H229.34V401.7H232.36V403.7H229.34V408H233.14V410H227.14V396ZM234.406 396H237.666C238.799 396 239.626 396.267 240.146 396.8C240.666 397.32 240.926 398.127 240.926 399.22V400.08C240.926 401.533 240.446 402.453 239.486 402.84V402.88C240.019 403.04 240.393 403.367 240.606 403.86C240.833 404.353 240.946 405.013 240.946 405.84V408.3C240.946 408.7 240.959 409.027 240.986 409.28C241.013 409.52 241.079 409.76 241.186 410H238.946C238.866 409.773 238.813 409.56 238.786 409.36C238.759 409.16 238.746 408.8 238.746 408.28V405.72C238.746 405.08 238.639 404.633 238.426 404.38C238.226 404.127 237.873 404 237.366 404H236.606V410H234.406V396ZM237.406 402C237.846 402 238.173 401.887 238.386 401.66C238.613 401.433 238.726 401.053 238.726 400.52V399.44C238.726 398.933 238.633 398.567 238.446 398.34C238.273 398.113 237.993 398 237.606 398H236.606V402H237.406Z" fill="#3F4345"/>
<path d="M329.966 177H332.166V189H335.786V191H329.966V177ZM336.841 177H339.041V191H336.841V177ZM340.109 177H342.329L343.769 187.86H343.809L345.249 177H347.269L345.149 191H342.229L340.109 177ZM348.326 177H354.326V179H350.526V182.7H353.546V184.7H350.526V189H354.326V191H348.326V177ZM361.655 191.2C360.588 191.2 359.781 190.9 359.235 190.3C358.688 189.687 358.415 188.813 358.415 187.68V186.88H360.495V187.84C360.495 188.747 360.875 189.2 361.635 189.2C362.008 189.2 362.288 189.093 362.475 188.88C362.675 188.653 362.775 188.293 362.775 187.8C362.775 187.213 362.641 186.7 362.375 186.26C362.108 185.807 361.615 185.267 360.895 184.64C359.988 183.84 359.355 183.12 358.995 182.48C358.635 181.827 358.455 181.093 358.455 180.28C358.455 179.173 358.735 178.32 359.295 177.72C359.855 177.107 360.668 176.8 361.735 176.8C362.788 176.8 363.581 177.107 364.115 177.72C364.661 178.32 364.935 179.187 364.935 180.32V180.9H362.855V180.18C362.855 179.7 362.761 179.353 362.575 179.14C362.388 178.913 362.115 178.8 361.755 178.8C361.021 178.8 360.655 179.247 360.655 180.14C360.655 180.647 360.788 181.12 361.055 181.56C361.335 182 361.835 182.533 362.555 183.16C363.475 183.96 364.108 184.687 364.455 185.34C364.801 185.993 364.975 186.76 364.975 187.64C364.975 188.787 364.688 189.667 364.115 190.28C363.555 190.893 362.735 191.2 361.655 191.2ZM366.236 177H369.476C370.569 177 371.389 177.293 371.936 177.88C372.483 178.467 372.756 179.327 372.756 180.46V181.84C372.756 182.973 372.483 183.833 371.936 184.42C371.389 185.007 370.569 185.3 369.476 185.3H368.436V191H366.236V177ZM369.476 183.3C369.836 183.3 370.103 183.2 370.276 183C370.463 182.8 370.556 182.46 370.556 181.98V180.32C370.556 179.84 370.463 179.5 370.276 179.3C370.103 179.1 369.836 179 369.476 179H368.436V183.3H369.476ZM373.951 177H376.151V191H373.951V177ZM377.799 177H379.999V189H383.619V191H377.799V177Z" fill="#3F4345"/>
<path d="M566.646 101H569.906C571.04 101 571.866 101.267 572.386 101.8C572.906 102.32 573.166 103.127 573.166 104.22V105.08C573.166 106.533 572.686 107.453 571.726 107.84V107.88C572.26 108.04 572.633 108.367 572.846 108.86C573.073 109.353 573.186 110.013 573.186 110.84V113.3C573.186 113.7 573.2 114.027 573.226 114.28C573.253 114.52 573.32 114.76 573.426 115H571.186C571.106 114.773 571.053 114.56 571.026 114.36C571 114.16 570.986 113.8 570.986 113.28V110.72C570.986 110.08 570.88 109.633 570.666 109.38C570.466 109.127 570.113 109 569.606 109H568.846V115H566.646V101ZM569.646 107C570.086 107 570.413 106.887 570.626 106.66C570.853 106.433 570.966 106.053 570.966 105.52V104.44C570.966 103.933 570.873 103.567 570.686 103.34C570.513 103.113 570.233 103 569.846 103H568.846V107H569.646ZM574.713 101H580.713V103H576.913V106.7H579.933V108.7H576.913V113H580.713V115H574.713V101ZM581.978 101H587.798V103H584.178V106.9H587.018V108.9H584.178V115H581.978V101ZM588.853 101H591.053V113H594.673V115H588.853V101ZM595.728 101H601.728V103H597.928V106.7H600.948V108.7H597.928V113H601.728V115H595.728V101ZM602.994 101H605.194V106.9L607.994 101H610.194L607.574 106.14L610.234 115H607.934L606.074 108.76L605.194 110.54V115H602.994V101ZM613.998 115.2C612.932 115.2 612.125 114.9 611.578 114.3C611.032 113.687 610.758 112.813 610.758 111.68V110.88H612.838V111.84C612.838 112.747 613.218 113.2 613.978 113.2C614.352 113.2 614.632 113.093 614.818 112.88C615.018 112.653 615.118 112.293 615.118 111.8C615.118 111.213 614.985 110.7 614.718 110.26C614.452 109.807 613.958 109.267 613.238 108.64C612.332 107.84 611.698 107.12 611.338 106.48C610.978 105.827 610.798 105.093 610.798 104.28C610.798 103.173 611.078 102.32 611.638 101.72C612.198 101.107 613.012 100.8 614.078 100.8C615.132 100.8 615.925 101.107 616.458 101.72C617.005 102.32 617.278 103.187 617.278 104.32V104.9H615.198V104.18C615.198 103.7 615.105 103.353 614.918 103.14C614.732 102.913 614.458 102.8 614.098 102.8C613.365 102.8 612.998 103.247 612.998 104.14C612.998 104.647 613.132 105.12 613.398 105.56C613.678 106 614.178 106.533 614.898 107.16C615.818 107.96 616.452 108.687 616.798 109.34C617.145 109.993 617.318 110.76 617.318 111.64C617.318 112.787 617.032 113.667 616.458 114.28C615.898 114.893 615.078 115.2 613.998 115.2ZM618.58 101H620.78V115H618.58V101ZM625.607 115.2C624.527 115.2 623.701 114.893 623.127 114.28C622.554 113.667 622.267 112.8 622.267 111.68V104.32C622.267 103.2 622.554 102.333 623.127 101.72C623.701 101.107 624.527 100.8 625.607 100.8C626.687 100.8 627.514 101.107 628.087 101.72C628.661 102.333 628.947 103.2 628.947 104.32V111.68C628.947 112.8 628.661 113.667 628.087 114.28C627.514 114.893 626.687 115.2 625.607 115.2ZM625.607 113.2C626.367 113.2 626.747 112.74 626.747 111.82V104.18C626.747 103.26 626.367 102.8 625.607 102.8C624.847 102.8 624.467 103.26 624.467 104.18V111.82C624.467 112.74 624.847 113.2 625.607 113.2ZM630.435 101H633.195L635.335 109.38H635.375V101H637.335V115H635.075L632.435 104.78H632.395V115H630.435V101ZM645.354 115.2C644.274 115.2 643.447 114.893 642.874 114.28C642.3 113.667 642.014 112.8 642.014 111.68V104.32C642.014 103.2 642.3 102.333 642.874 101.72C643.447 101.107 644.274 100.8 645.354 100.8C646.434 100.8 647.26 101.107 647.834 101.72C648.407 102.333 648.694 103.2 648.694 104.32V111.68C648.694 112.8 648.407 113.667 647.834 114.28C647.26 114.893 646.434 115.2 645.354 115.2ZM645.354 113.2C646.114 113.2 646.494 112.74 646.494 111.82V104.18C646.494 103.26 646.114 102.8 645.354 102.8C644.594 102.8 644.214 103.26 644.214 104.18V111.82C644.214 112.74 644.594 113.2 645.354 113.2ZM653.301 115.2C652.235 115.2 651.421 114.9 650.861 114.3C650.301 113.687 650.021 112.813 650.021 111.68V104.32C650.021 103.187 650.301 102.32 650.861 101.72C651.421 101.107 652.235 100.8 653.301 100.8C654.368 100.8 655.181 101.107 655.741 101.72C656.301 102.32 656.581 103.187 656.581 104.32V105.52H654.501V104.18C654.501 103.26 654.121 102.8 653.361 102.8C652.601 102.8 652.221 103.26 652.221 104.18V111.84C652.221 112.747 652.601 113.2 653.361 113.2C654.121 113.2 654.501 112.747 654.501 111.84V109.1H653.401V107.1H656.581V111.68C656.581 112.813 656.301 113.687 655.741 114.3C655.181 114.9 654.368 115.2 653.301 115.2ZM582.242 119H584.442V124.7H586.802V119H589.002V133H586.802V126.7H584.442V133H582.242V119ZM592.34 119H595.32L597.6 133H595.4L595 130.22V130.26H592.5L592.1 133H590.06L592.34 119ZM594.74 128.36L593.76 121.44H593.72L592.76 128.36H594.74ZM598.668 119H601.428L603.568 127.38H603.608V119H605.568V133H603.308L600.668 122.78H600.628V133H598.668V119ZM607.203 119H610.563C611.656 119 612.476 119.293 613.023 119.88C613.569 120.467 613.843 121.327 613.843 122.46V129.54C613.843 130.673 613.569 131.533 613.023 132.12C612.476 132.707 611.656 133 610.563 133H607.203V119ZM610.523 131C610.883 131 611.156 130.893 611.343 130.68C611.543 130.467 611.643 130.12 611.643 129.64V122.36C611.643 121.88 611.543 121.533 611.343 121.32C611.156 121.107 610.883 121 610.523 121H609.403V131H610.523ZM615.328 119H617.528V131H621.148V133H615.328V119ZM622.203 119H624.403V133H622.203V119ZM626.05 119H628.81L630.95 127.38H630.99V119H632.95V133H630.69L628.05 122.78H628.01V133H626.05V119ZM637.706 133.2C636.639 133.2 635.826 132.9 635.266 132.3C634.706 131.687 634.426 130.813 634.426 129.68V122.32C634.426 121.187 634.706 120.32 635.266 119.72C635.826 119.107 636.639 118.8 637.706 118.8C638.772 118.8 639.586 119.107 640.146 119.72C640.706 120.32 640.986 121.187 640.986 122.32V123.52H638.906V122.18C638.906 121.26 638.526 120.8 637.766 120.8C637.006 120.8 636.626 121.26 636.626 122.18V129.84C636.626 130.747 637.006 131.2 637.766 131.2C638.526 131.2 638.906 130.747 638.906 129.84V127.1H637.806V125.1H640.986V129.68C640.986 130.813 640.706 131.687 640.146 132.3C639.586 132.9 638.772 133.2 637.706 133.2Z" fill="#3F4345"/>
<defs>
<clipPath id="clip0_33_358">
<rect width="49.1753" height="39.1288" fill="white" transform="translate(24.3232 147.526)"/>
</clipPath>
<clipPath id="clip1_33_358">
<rect width="41.7726" height="47.589" fill="white" transform="translate(160.217 317.789)"/>
</clipPath>
<clipPath id="clip2_33_358">
<rect width="54.9918" height="43.8877" fill="white" transform="translate(329.449 99.7373)"/>
</clipPath>
<clipPath id="clip3_33_358">
<rect width="53.4055" height="42.8301" fill="white" transform="translate(584.816 23.2656)"/>
</clipPath>
</defs>
</svg>
