<svg width="464" height="282" viewBox="0 0 464 282" fill="none" xmlns="http://www.w3.org/2000/svg">
<circle cx="53.4953" cy="53.4953" r="53.4953" transform="matrix(-0.957733 0.28766 0.28766 0.957733 160.704 0)" fill="#363634"/>
<path d="M331.738 101.022C288.241 53.4329 216.047 54.899 175.914 66.9532C165.224 75.4056 147.25 92.1859 160.878 91.6869C174.507 91.1878 253.641 117.739 289.037 178.244C312.552 175.924 363.214 135.459 331.738 101.022Z" fill="#363634"/>
<path d="M212.278 243.833C223.753 200.804 227.803 148.204 220.695 87.815C219.022 73.6058 206.317 49.486 207.001 77.2166C209.41 174.986 207.001 190.046 191.481 232.359C202.675 243.708 202.174 230.93 212.278 243.833Z" fill="#363634"/>
<path d="M91.0705 253.327L183.362 86.0833C194.789 84.2807 217.209 89.8018 202.347 102.498C187.486 115.194 149.519 213.053 116.971 249.241L91.0705 253.327Z" fill="#363634"/>
<path d="M272.635 159.636L281.196 105.873L315.439 97.9673C311.634 126.166 325.984 171.117 307.436 196.417C310.137 207.742 272.57 212.168 246.233 182.184C269.984 212.532 275.454 232.463 297.725 262.926C300.291 266.436 298.579 271.612 294.397 272.802C274.118 278.575 234.112 289.397 234.112 270.323C234.112 258.463 237.679 253.72 250.52 249.766C222.698 230.792 202.485 168.86 211.997 149.358L215.277 145.376C221.974 137.247 233.656 135.337 242.594 140.908L272.635 159.636Z" fill="#363634"/>
<path d="M348.712 234.847C355.828 212.074 360.33 146.854 335.902 105.325L312.93 128.678C314.846 133.38 297.123 146.857 297.123 156.886C297.123 181.96 310.891 243.853 321.669 277.546C361.185 284.598 409.207 261.883 431.48 258.749C435.791 271.285 466.686 299.493 463.812 263.45C462.878 251.741 456.627 203.9 435.072 221.921C415.673 223.489 372.422 232.496 348.712 234.847Z" fill="#363634"/>
<rect width="92.2177" height="15.9217" transform="matrix(-0.94417 -0.329459 -0.329459 0.94417 129.806 242.66)" fill="#363634"/>
<rect width="38.7264" height="52.5231" rx="5" transform="matrix(-0.940938 -0.338579 -0.338579 0.940938 65.261 195.27)" fill="#363634"/>
<rect width="69.193" height="34.5965" rx="4" transform="matrix(-1 0 0 1 73.2633 244.494)" fill="#363634"/>
<path d="M11.4954 247.11L7.78276 240.569L4.0701 244.93L11.4954 247.11Z" fill="#363634"/>
<path d="M55.3048 244.93H59.0175L56.7899 248.564L55.3048 244.93Z" fill="#363634"/>
<path d="M7.78276 218.038H11.4954V222.398L7.78276 218.038Z" fill="#363634"/>
<path d="M1.52588e-05 230.248L1.74438 228.213L4.07019 232.283L1.52588e-05 230.248Z" fill="#363634"/>
<path d="M14.1529 233.875L16.3849 235.943L12.1946 238.973L14.1529 233.875Z" fill="#363634"/>
<path d="M4.20191 239.242L2.88042 236.501L7.8887 235.212L4.20191 239.242Z" fill="#363634"/>
<path d="M9.8502 223.835L12.0822 225.903L7.89185 228.933L9.8502 223.835Z" fill="#363634"/>
<path d="M226.317 257.473L170.623 194.217C170.203 193.741 169.451 193.771 169.071 194.28L161.052 205.025C160.737 205.448 160.804 206.043 161.206 206.385L224.401 260.126L226.317 257.473Z" fill="#363634"/>
<ellipse cx="4.80478" cy="8.36461" rx="4.80478" ry="8.36461" transform="matrix(-0.78938 -0.613905 -0.613905 0.78938 174.745 196.683)" fill="#363634"/>
</svg>
