<svg width="584" height="318" viewBox="0 0 584 318" fill="none" xmlns="http://www.w3.org/2000/svg">
<rect width="222.658" height="222.658" transform="matrix(0.706851 -0.707362 0.706851 0.707362 268.309 157.5)" fill="#3D6471"/>
<path d="M400.264 130.279H403.624C404.717 130.279 405.537 130.572 406.084 131.159C406.631 131.746 406.904 132.606 406.904 133.739V140.819C406.904 141.952 406.631 142.812 406.084 143.399C405.537 143.986 404.717 144.279 403.624 144.279H400.264V130.279ZM403.584 142.279C403.944 142.279 404.217 142.172 404.404 141.959C404.604 141.746 404.704 141.399 404.704 140.919V133.639C404.704 133.159 404.604 132.812 404.404 132.599C404.217 132.386 403.944 132.279 403.584 132.279H402.464V142.279H403.584ZM408.389 130.279H414.389V132.279H410.589V135.979H413.609V137.979H410.589V142.279H414.389V144.279H408.389V130.279ZM415.075 130.279H417.295L418.735 141.139H418.775L420.215 130.279H422.235L420.115 144.279H417.195L415.075 130.279ZM426.432 144.479C425.352 144.479 424.526 144.172 423.952 143.559C423.379 142.946 423.092 142.079 423.092 140.959V133.599C423.092 132.479 423.379 131.612 423.952 130.999C424.526 130.386 425.352 130.079 426.432 130.079C427.512 130.079 428.339 130.386 428.912 130.999C429.486 131.612 429.772 132.479 429.772 133.599V140.959C429.772 142.079 429.486 142.946 428.912 143.559C428.339 144.172 427.512 144.479 426.432 144.479ZM426.432 142.479C427.192 142.479 427.572 142.019 427.572 141.099V133.459C427.572 132.539 427.192 132.079 426.432 132.079C425.672 132.079 425.292 132.539 425.292 133.459V141.099C425.292 142.019 425.672 142.479 426.432 142.479ZM431.26 130.279H433.46V142.279H437.08V144.279H431.26V130.279ZM441.237 144.479C440.157 144.479 439.33 144.172 438.757 143.559C438.184 142.946 437.897 142.079 437.897 140.959V133.599C437.897 132.479 438.184 131.612 438.757 130.999C439.33 130.386 440.157 130.079 441.237 130.079C442.317 130.079 443.144 130.386 443.717 130.999C444.29 131.612 444.577 132.479 444.577 133.599V140.959C444.577 142.079 444.29 142.946 443.717 143.559C443.144 144.172 442.317 144.479 441.237 144.479ZM441.237 142.479C441.997 142.479 442.377 142.019 442.377 141.099V133.459C442.377 132.539 441.997 132.079 441.237 132.079C440.477 132.079 440.097 132.539 440.097 133.459V141.099C440.097 142.019 440.477 142.479 441.237 142.479ZM446.065 130.279H449.305C450.398 130.279 451.218 130.572 451.765 131.159C452.311 131.746 452.585 132.606 452.585 133.739V135.119C452.585 136.252 452.311 137.112 451.765 137.699C451.218 138.286 450.398 138.579 449.305 138.579H448.265V144.279H446.065V130.279ZM449.305 136.579C449.665 136.579 449.931 136.479 450.105 136.279C450.291 136.079 450.385 135.739 450.385 135.259V133.599C450.385 133.119 450.291 132.779 450.105 132.579C449.931 132.379 449.665 132.279 449.305 132.279H448.265V136.579H449.305Z" fill="#E0D8CF"/>
<path d="M402.481 159.008H405.841C406.935 159.008 407.755 159.301 408.301 159.888C408.848 160.474 409.121 161.334 409.121 162.468V169.548C409.121 170.681 408.848 171.541 408.301 172.128C407.755 172.714 406.935 173.008 405.841 173.008H402.481V159.008ZM405.801 171.008C406.161 171.008 406.435 170.901 406.621 170.688C406.821 170.474 406.921 170.128 406.921 169.648V162.368C406.921 161.888 406.821 161.541 406.621 161.328C406.435 161.114 406.161 161.008 405.801 161.008H404.681V171.008H405.801ZM410.606 159.008H416.606V161.008H412.806V164.708H415.826V166.708H412.806V171.008H416.606V173.008H410.606V159.008ZM417.872 159.008H420.072V171.008H423.692V173.008H417.872V159.008ZM424.747 159.008H426.947V173.008H424.747V159.008ZM428.015 159.008H430.235L431.675 169.868H431.715L433.155 159.008H435.175L433.055 173.008H430.135L428.015 159.008ZM436.231 159.008H442.231V161.008H438.431V164.708H441.451V166.708H438.431V171.008H442.231V173.008H436.231V159.008ZM443.497 159.008H446.757C447.89 159.008 448.717 159.274 449.237 159.808C449.757 160.328 450.017 161.134 450.017 162.228V163.088C450.017 164.541 449.537 165.461 448.577 165.848V165.888C449.11 166.048 449.484 166.374 449.697 166.868C449.924 167.361 450.037 168.021 450.037 168.848V171.308C450.037 171.708 450.05 172.034 450.077 172.288C450.104 172.528 450.17 172.768 450.277 173.008H448.037C447.957 172.781 447.904 172.568 447.877 172.368C447.85 172.168 447.837 171.808 447.837 171.288V168.728C447.837 168.088 447.73 167.641 447.517 167.388C447.317 167.134 446.964 167.008 446.457 167.008H445.697V173.008H443.497V159.008ZM446.497 165.008C446.937 165.008 447.264 164.894 447.477 164.668C447.704 164.441 447.817 164.061 447.817 163.528V162.448C447.817 161.941 447.724 161.574 447.537 161.348C447.364 161.121 447.084 161.008 446.697 161.008H445.697V165.008H446.497Z" fill="#E0D8CF"/>
<rect width="222.658" height="222.658" transform="matrix(0.706851 -0.707362 0.706851 0.707362 0 157.5)" fill="#3D6471"/>
<path d="M129.139 130.279H132.499C133.592 130.279 134.412 130.572 134.959 131.159C135.505 131.746 135.779 132.606 135.779 133.739V140.819C135.779 141.952 135.505 142.812 134.959 143.399C134.412 143.986 133.592 144.279 132.499 144.279H129.139V130.279ZM132.459 142.279C132.819 142.279 133.092 142.172 133.279 141.959C133.479 141.746 133.579 141.399 133.579 140.919V133.639C133.579 133.159 133.479 132.812 133.279 132.599C133.092 132.386 132.819 132.279 132.459 132.279H131.339V142.279H132.459ZM137.264 130.279H139.464V144.279H137.264V130.279ZM143.971 144.479C142.905 144.479 142.098 144.179 141.551 143.579C141.005 142.966 140.731 142.092 140.731 140.959V140.159H142.811V141.119C142.811 142.026 143.191 142.479 143.951 142.479C144.325 142.479 144.605 142.372 144.791 142.159C144.991 141.932 145.091 141.572 145.091 141.079C145.091 140.492 144.958 139.979 144.691 139.539C144.425 139.086 143.931 138.546 143.211 137.919C142.305 137.119 141.671 136.399 141.311 135.759C140.951 135.106 140.771 134.372 140.771 133.559C140.771 132.452 141.051 131.599 141.611 130.999C142.171 130.386 142.985 130.079 144.051 130.079C145.105 130.079 145.898 130.386 146.431 130.999C146.978 131.599 147.251 132.466 147.251 133.599V134.179H145.171V133.459C145.171 132.979 145.078 132.632 144.891 132.419C144.705 132.192 144.431 132.079 144.071 132.079C143.338 132.079 142.971 132.526 142.971 133.419C142.971 133.926 143.105 134.399 143.371 134.839C143.651 135.279 144.151 135.812 144.871 136.439C145.791 137.239 146.425 137.966 146.771 138.619C147.118 139.272 147.291 140.039 147.291 140.919C147.291 142.066 147.005 142.946 146.431 143.559C145.871 144.172 145.051 144.479 143.971 144.479ZM151.653 144.479C150.599 144.479 149.793 144.179 149.233 143.579C148.686 142.979 148.413 142.132 148.413 141.039V133.519C148.413 132.426 148.686 131.579 149.233 130.979C149.793 130.379 150.599 130.079 151.653 130.079C152.706 130.079 153.506 130.379 154.053 130.979C154.613 131.579 154.893 132.426 154.893 133.519V134.999H152.813V133.379C152.813 132.512 152.446 132.079 151.713 132.079C150.979 132.079 150.613 132.512 150.613 133.379V141.199C150.613 142.052 150.979 142.479 151.713 142.479C152.446 142.479 152.813 142.052 152.813 141.199V139.059H154.893V141.039C154.893 142.132 154.613 142.979 154.053 143.579C153.506 144.179 152.706 144.479 151.653 144.479ZM159.428 144.479C158.348 144.479 157.521 144.172 156.948 143.559C156.375 142.946 156.088 142.079 156.088 140.959V133.599C156.088 132.479 156.375 131.612 156.948 130.999C157.521 130.386 158.348 130.079 159.428 130.079C160.508 130.079 161.335 130.386 161.908 130.999C162.481 131.612 162.768 132.479 162.768 133.599V140.959C162.768 142.079 162.481 142.946 161.908 143.559C161.335 144.172 160.508 144.479 159.428 144.479ZM159.428 142.479C160.188 142.479 160.568 142.019 160.568 141.099V133.459C160.568 132.539 160.188 132.079 159.428 132.079C158.668 132.079 158.288 132.539 158.288 133.459V141.099C158.288 142.019 158.668 142.479 159.428 142.479ZM163.637 130.279H165.857L167.297 141.139H167.337L168.777 130.279H170.797L168.677 144.279H165.757L163.637 130.279ZM171.853 130.279H177.853V132.279H174.053V135.979H177.073V137.979H174.053V142.279H177.853V144.279H171.853V130.279ZM179.119 130.279H182.379C183.512 130.279 184.339 130.546 184.859 131.079C185.379 131.599 185.639 132.406 185.639 133.499V134.359C185.639 135.812 185.159 136.732 184.199 137.119V137.159C184.732 137.319 185.106 137.646 185.319 138.139C185.546 138.632 185.659 139.292 185.659 140.119V142.579C185.659 142.979 185.672 143.306 185.699 143.559C185.726 143.799 185.792 144.039 185.899 144.279H183.659C183.579 144.052 183.526 143.839 183.499 143.639C183.472 143.439 183.459 143.079 183.459 142.559V139.999C183.459 139.359 183.352 138.912 183.139 138.659C182.939 138.406 182.586 138.279 182.079 138.279H181.319V144.279H179.119V130.279ZM182.119 136.279C182.559 136.279 182.886 136.166 183.099 135.939C183.326 135.712 183.439 135.332 183.439 134.799V133.719C183.439 133.212 183.346 132.846 183.159 132.619C182.986 132.392 182.706 132.279 182.319 132.279H181.319V136.279H182.119Z" fill="#E0D8CF"/>
<path d="M241.3 301H244.66C245.754 301 246.574 301.293 247.12 301.88C247.667 302.467 247.94 303.327 247.94 304.46V311.54C247.94 312.673 247.667 313.533 247.12 314.12C246.574 314.707 245.754 315 244.66 315H241.3V301ZM244.62 313C244.98 313 245.254 312.893 245.44 312.68C245.64 312.467 245.74 312.12 245.74 311.64V304.36C245.74 303.88 245.64 303.533 245.44 303.32C245.254 303.107 244.98 303 244.62 303H243.5V313H244.62ZM252.605 315.2C251.525 315.2 250.699 314.893 250.125 314.28C249.552 313.667 249.265 312.8 249.265 311.68V304.32C249.265 303.2 249.552 302.333 250.125 301.72C250.699 301.107 251.525 300.8 252.605 300.8C253.685 300.8 254.512 301.107 255.085 301.72C255.659 302.333 255.945 303.2 255.945 304.32V311.68C255.945 312.8 255.659 313.667 255.085 314.28C254.512 314.893 253.685 315.2 252.605 315.2ZM252.605 313.2C253.365 313.2 253.745 312.74 253.745 311.82V304.18C253.745 303.26 253.365 302.8 252.605 302.8C251.845 302.8 251.465 303.26 251.465 304.18V311.82C251.465 312.74 251.845 313.2 252.605 313.2ZM260.633 315.2C259.567 315.2 258.753 314.9 258.193 314.3C257.633 313.687 257.353 312.813 257.353 311.68V301H259.553V311.84C259.553 312.32 259.647 312.667 259.833 312.88C260.033 313.093 260.313 313.2 260.673 313.2C261.033 313.2 261.307 313.093 261.493 312.88C261.693 312.667 261.793 312.32 261.793 311.84V301H263.913V311.68C263.913 312.813 263.633 313.687 263.073 314.3C262.513 314.9 261.7 315.2 260.633 315.2ZM265.48 301H268.8C269.933 301 270.76 301.267 271.28 301.8C271.8 302.32 272.06 303.127 272.06 304.22V304.78C272.06 305.5 271.94 306.087 271.7 306.54C271.473 306.993 271.12 307.32 270.64 307.52V307.56C271.733 307.933 272.28 308.907 272.28 310.48V311.68C272.28 312.76 271.993 313.587 271.42 314.16C270.86 314.72 270.033 315 268.94 315H265.48V301ZM268.54 306.7C268.98 306.7 269.307 306.587 269.52 306.36C269.747 306.133 269.86 305.753 269.86 305.22V304.44C269.86 303.933 269.767 303.567 269.58 303.34C269.407 303.113 269.127 303 268.74 303H267.68V306.7H268.54ZM268.94 313C269.327 313 269.613 312.9 269.8 312.7C269.987 312.487 270.08 312.127 270.08 311.62V310.4C270.08 309.76 269.967 309.32 269.74 309.08C269.527 308.827 269.167 308.7 268.66 308.7H267.68V313H268.94ZM273.566 301H275.766V313H279.386V315H273.566V301ZM280.441 301H286.441V303H282.641V306.7H285.661V308.7H282.641V313H286.441V315H280.441V301ZM290.91 301H294.27C295.363 301 296.183 301.293 296.73 301.88C297.277 302.467 297.55 303.327 297.55 304.46V311.54C297.55 312.673 297.277 313.533 296.73 314.12C296.183 314.707 295.363 315 294.27 315H290.91V301ZM294.23 313C294.59 313 294.863 312.893 295.05 312.68C295.25 312.467 295.35 312.12 295.35 311.64V304.36C295.35 303.88 295.25 303.533 295.05 303.32C294.863 303.107 294.59 303 294.23 303H293.11V313H294.23ZM299.035 301H301.235V315H299.035V301ZM304.583 301H307.563L309.843 315H307.643L307.243 312.22V312.26H304.743L304.343 315H302.303L304.583 301ZM306.983 310.36L306.003 303.44H305.963L305.002 310.36H306.983ZM310.91 301H314.05L315.45 311.02H315.49L316.89 301H320.03V315H317.95V304.4H317.91L316.31 315H314.47L312.87 304.4H312.83V315H310.91V301ZM324.852 315.2C323.772 315.2 322.945 314.893 322.372 314.28C321.798 313.667 321.512 312.8 321.512 311.68V304.32C321.512 303.2 321.798 302.333 322.372 301.72C322.945 301.107 323.772 300.8 324.852 300.8C325.932 300.8 326.758 301.107 327.332 301.72C327.905 302.333 328.192 303.2 328.192 304.32V311.68C328.192 312.8 327.905 313.667 327.332 314.28C326.758 314.893 325.932 315.2 324.852 315.2ZM324.852 313.2C325.612 313.2 325.992 312.74 325.992 311.82V304.18C325.992 303.26 325.612 302.8 324.852 302.8C324.092 302.8 323.712 303.26 323.712 304.18V311.82C323.712 312.74 324.092 313.2 324.852 313.2ZM329.679 301H332.439L334.579 309.38H334.619V301H336.579V315H334.319L331.679 304.78H331.639V315H329.679V301ZM338.215 301H341.575C342.668 301 343.488 301.293 344.035 301.88C344.581 302.467 344.855 303.327 344.855 304.46V311.54C344.855 312.673 344.581 313.533 344.035 314.12C343.488 314.707 342.668 315 341.575 315H338.215V301ZM341.535 313C341.895 313 342.168 312.893 342.355 312.68C342.555 312.467 342.655 312.12 342.655 311.64V304.36C342.655 303.88 342.555 303.533 342.355 303.32C342.168 303.107 341.895 303 341.535 303H340.415V313H341.535Z" fill="#3D6471"/>
<path d="M136.653 159.008H140.013C141.106 159.008 141.926 159.301 142.473 159.888C143.019 160.474 143.293 161.334 143.293 162.468V169.548C143.293 170.681 143.019 171.541 142.473 172.128C141.926 172.714 141.106 173.008 140.013 173.008H136.653V159.008ZM139.973 171.008C140.333 171.008 140.606 170.901 140.793 170.688C140.993 170.474 141.093 170.128 141.093 169.648V162.368C141.093 161.888 140.993 161.541 140.793 161.328C140.606 161.114 140.333 161.008 139.973 161.008H138.853V171.008H139.973ZM144.778 159.008H150.778V161.008H146.978V164.708H149.998V166.708H146.978V171.008H150.778V173.008H144.778V159.008ZM152.043 159.008H157.863V161.008H154.243V164.908H157.083V166.908H154.243V173.008H152.043V159.008ZM158.918 159.008H161.118V173.008H158.918V159.008ZM162.766 159.008H165.526L167.666 167.388H167.706V159.008H169.666V173.008H167.406L164.766 162.788H164.726V173.008H162.766V159.008ZM171.301 159.008H177.301V161.008H173.501V164.708H176.521V166.708H173.501V171.008H177.301V173.008H171.301V159.008Z" fill="#E0D8CF"/>
</svg>
