<svg width="15" height="15" viewBox="0 0 15 15" fill="none" xmlns="http://www.w3.org/2000/svg">
<g clip-path="url(#clip0_387_1274)">
<path d="M7.46193 14.9239C11.583 14.9239 14.9239 11.583 14.9239 7.46193C14.9239 3.34082 11.583 0 7.46193 0C3.34082 0 0 3.34082 0 7.46193C0 11.583 3.34082 14.9239 7.46193 14.9239Z" fill="#F3F0EA"/>
<path d="M7.46204 13.4011C10.7421 13.4011 13.4011 10.7421 13.4011 7.46204C13.4011 4.18197 10.7421 1.52295 7.46204 1.52295C4.18197 1.52295 1.52295 4.18197 1.52295 7.46204C1.52295 10.7421 4.18197 13.4011 7.46204 13.4011Z" fill="#625821"/>
<path d="M7.46174 11.6496C9.77461 11.6496 11.6496 9.77461 11.6496 7.46174C11.6496 5.14888 9.77461 3.27393 7.46174 3.27393C5.14888 3.27393 3.27393 5.14888 3.27393 7.46174C3.27393 9.77461 5.14888 11.6496 7.46174 11.6496Z" fill="#F3F0EA"/>
<path d="M7.462 9.74626C8.72356 9.74626 9.74626 8.72356 9.74626 7.462C9.74626 6.20043 8.72356 5.17773 7.462 5.17773C6.20043 5.17773 5.17773 6.20043 5.17773 7.462C5.17773 8.72356 6.20043 9.74626 7.462 9.74626Z" fill="#625821"/>
<path d="M12.1827 6.47217H8.75635V8.37572H12.1827V6.47217Z" fill="#625821"/>
</g>
<defs>
<clipPath id="clip0_387_1274">
<rect width="15" height="15" fill="white"/>
</clipPath>
</defs>
</svg>
