<svg width="400" height="436" viewBox="0 0 400 436" fill="none" xmlns="http://www.w3.org/2000/svg">
<path d="M184.359 335.55C184.28 334.69 183.805 332.325 183.247 329.596C182.296 324.948 182.927 321.959 182.679 319.369C182.461 317.093 182.147 312.5 182.579 309.136C182.871 306.862 183.486 304.452 183.89 302.165C184.361 299.506 185.599 297.422 186.466 295.218C187.657 292.189 189.057 288.982 190.026 286.817C191.03 284.576 191.864 282.268 192.812 280.179C193.701 278.218 194.611 276.16 195.71 273.757C197.007 270.919 198.846 267.282 199.752 265.228C200.804 262.843 202.163 260.914 203.817 258.105C205.275 255.63 206.163 253.555 207.738 251.299C208.448 250.082 209.082 248.969 209.711 247.986C210.028 247.475 210.34 246.94 210.662 246.389" stroke="#BBA232" stroke-width="4.5" stroke-linecap="round"/>
<path d="M210.322 247.343C210.578 246.561 211.565 244.373 212.904 242.253C214.167 240.252 215.11 237.316 216.347 234.875C217.595 232.414 219.74 229.762 221.866 227.283C225.037 223.585 228.988 220.051 231.969 217.57C235.269 214.824 237.812 213.979 240.014 212.772C242.183 211.583 245.975 209.313 248.655 207.612C250.593 206.382 252.982 205.421 255.13 204.246C255.646 203.966 256.114 203.73 256.586 203.479C257.058 203.229 257.519 202.971 259.176 201.752" stroke="#BBA232" stroke-width="4.5" stroke-linecap="round"/>
<path d="M256.755 166.343C256.989 167.126 257.62 169.328 258.172 171.52C258.724 173.72 258.883 176.502 259.119 178.982C259.337 181.279 259.986 183.698 260.301 185.952C260.617 188.201 261.168 190.631 261.523 193.073C261.852 195.336 262.507 197.63 262.51 200.551C262.514 203.372 260.683 205.205 259.838 207.397C259.021 209.514 258.157 211.576 257.041 213.619C255.62 216.223 254.736 218.132 253.691 220.402C252.654 222.657 251.356 224.435 250.479 226.557C250.049 227.598 250.158 229.065 250.353 230.539C250.508 231.705 251.809 232.273 252.792 232.824C254.73 233.911 257.291 232.784 259.713 232.269C262.233 231.734 264.554 230.762 266.665 229.822C268.777 228.882 270.436 227.326 272.48 225.886C274.324 224.586 277.642 222.096 280.285 220.544C283.063 218.913 286.85 216.539 289.215 215.954C291.665 215.349 293.775 214.436 295.817 213.352C297.882 212.257 299.769 211.252 302.108 209.839C304.602 208.333 309.612 206.012 312.796 204.058C314.814 202.721 317.1 202.201 319.227 201.606C319.735 201.407 320.204 201.17 320.923 200.927" stroke="#BBA232" stroke-width="4.5" stroke-linecap="round"/>
<path d="M323.543 201.141C322.832 200.905 320.928 199.796 319.037 198.759C317.007 197.646 315.005 195.979 312.538 193.503C309.655 190.609 307.823 187.994 306.038 184.865C304.45 182.083 303.069 180.183 301.788 178.199C300.275 175.855 299.369 173.56 298.64 171.425C297.846 169.098 297.367 166.51 296.894 163.76C296.522 161.42 296.262 159.588 296.11 158.194C296.059 157.385 296.059 156.37 295.82 154.844" stroke="#BBA232" stroke-width="4.5" stroke-linecap="round"/>
<path d="M295.86 154.139C295.624 153.349 294.987 151.144 294.867 148.579C294.758 146.274 294.164 143.567 293.809 140.779C293.262 136.481 294.306 134.13 294.742 131.921C295.184 129.678 295.806 127.54 296.083 125.379C296.279 123.17 296.752 120.982 297.264 118.761C297.384 118.201 297.462 117.65 297.542 116.844" stroke="#BBA232" stroke-width="4.5" stroke-linecap="round"/>
<path d="M321.799 199.819C322.504 200.053 324.377 200.997 326.48 201.905C328.62 202.829 330.874 203.443 332.823 204.363C334.74 205.269 336.602 206.265 338.496 207.213C340.391 208.16 342.434 209.104 344.638 209.855C346.833 210.603 348.961 211.356 351.292 212.245C353.319 213.018 355.132 214.604 356.83 216.263C358.527 217.921 359.787 219.808 360.864 221.715C361.336 222.75 361.96 223.767 362.669 224.707C362.987 225.178 363.221 225.639 363.462 226.587" stroke="#BBA232" stroke-width="4.5" stroke-linecap="round"/>
<path d="M360.67 220.772C360.904 221.477 362.628 223.677 364.017 225.771C365.352 227.786 366.342 229.714 367.3 231.598C368.325 233.614 369.275 236.457 370.076 239.085C370.796 241.445 371.389 243.673 371.821 245.876C372.267 248.151 372.543 250.643 372.843 253.154C373.127 255.532 373.618 258.243 373.815 261.02C374.084 264.823 374.091 267.74 373.84 270.47C373.633 272.708 373.149 274.985 372.706 277.367C372.244 279.85 372.163 283.217 371.727 286.022C371.377 288.282 370.748 290.817 370.079 293.256C369.491 295.397 369.09 298.023 368.512 300.613C367.954 303.043 367.694 304.846 367.492 306.01C367.391 306.578 367.291 307.103 366.949 308.826" stroke="#BBA232" stroke-width="4.5" stroke-linecap="round"/>
<path d="M366.594 310.832C366.673 311.378 366.039 313.566 365.589 315.757C365.13 317.993 364.635 320.218 363.99 322.415C363.196 325.12 361.741 327.393 361.023 329.512C360.304 331.634 360.105 333.795 359.527 335.982C358.939 338.206 358.255 340.522 357.752 342.912C357.287 345.123 356.787 347.344 356.408 349.695C355.944 352.574 354.685 354.626 353.945 357.054C353.148 359.667 353.151 362.535 352.871 365.466C352.652 367.753 351.416 369.971 351.017 372.24C350.624 374.472 350.338 376.897 349.894 379.095C349.448 381.304 348.126 383.578 347.246 385.858C346.442 387.94 345.578 389.859 344.651 391.771C343.662 393.812 343.378 396.254 343.218 398.527C342.982 399.624 342.662 400.733 342.335 401.862C342.164 402.445 341.985 403.047 341.562 404.614" stroke="#BBA232" stroke-width="4.5" stroke-linecap="round"/>
<path d="M278.85 90.3853C279.006 89.6037 279.947 87.5725 281.406 85.6901C283.174 83.4104 286.092 81.4222 289.117 80.7829C292.973 79.9678 295.834 81.1681 297.801 82.1934C300.04 83.3605 301.664 85.7988 302.929 87.798C304.119 89.6781 304.19 92.1184 304.627 94.4515C305.172 97.3562 303.968 99.5761 303.452 101.975C302.975 104.189 302.618 106.369 301.863 108.493C301.084 110.687 298.568 111.962 295.985 114.719C294.236 116.586 292.208 117.719 290.028 118.473C289.438 118.592 288.824 118.67 288.075 118.71C287.326 118.75 286.46 118.75 285.567 118.75" stroke="#BBA232" stroke-width="4.5" stroke-linecap="round"/>
<path d="M214.676 35.0499C214.988 35.9108 216.09 38.2567 217.038 40.2632C218.015 42.3339 218.929 44.2059 219.94 46.2618C220.995 48.4059 221.859 50.7624 223.318 52.8446C225.196 55.5233 226.724 57.3265 228.223 59.0587C229.691 60.7561 231.203 62.5808 232.324 64.6348C233.235 65.6112 234.188 66.484 234.975 67.2704C235.371 67.6666 235.761 68.0569 236.4 68.459" stroke="#BBA232" stroke-width="4.5" stroke-linecap="round"/>
<path d="M235.723 67.7232C236.349 68.1135 238.078 69.5303 240.758 71.8139C242.812 73.5641 244.916 74.89 246.912 76.1152C248.928 77.3526 250.511 79.0341 252.376 80.3338C254.168 81.5829 256.477 82.12 258.418 82.9868C260.349 83.8491 262.494 85.034 264.72 86.0617C266.672 86.9634 268.538 87.9527 270.664 88.6257C272.771 89.1377 274.316 89.6912 275.584 89.8875C276.242 90.0058 276.93 90.1619 278.326 90.3228" stroke="#BBA232" stroke-width="4.5" stroke-linecap="round"/>
<path d="M215.434 35.6886C215.671 36.7033 215.041 39.7001 213.806 41.6338C212.469 43.7285 211.62 46.0642 210.625 47.9403C209.568 49.9348 208.28 51.8747 207.75 54.0445C207.208 56.2582 206.265 58.4015 205.46 61.0062C204.706 63.4492 204.281 65.6373 203.952 67.8397C203.658 71.2155 203.892 74.982 204.364 75.9257C204.602 76.4011 204.836 76.8695 205.55 78.2981" stroke="#BBA232" stroke-width="4.5" stroke-linecap="round"/>
<path d="M205.267 78.5667C205.345 79.3423 205.815 81.5294 205.965 86.6117C206.318 98.5803 205.036 100.925 204.718 103.397C204.386 105.975 203.779 108.565 202.932 110.913C202.128 113.143 200.618 114.913 199.581 116.839C198.472 118.9 196.425 120.437 197.865 123.304C199.581 126.723 204.694 125.93 206.958 126.722C209.076 127.463 208.025 126.649 209.726 128.106C211.432 129.568 211.263 134.221 212.128 136.157C213.027 138.171 215.511 138.88 217.722 139.276C219.932 139.357 222.134 138.722 226.086 138.481C226.991 138.403 227.523 138.245 228.78 137.844" stroke="#BBA232" stroke-width="4.5" stroke-linecap="round"/>
<path d="M217.345 141.99C217.03 142.695 215.918 144.583 216.066 146.635C216.223 148.812 218.745 150.023 219.418 152.131C220.092 154.242 220.088 156.506 220.679 158.709C221.288 160.983 222.293 162.943 223.821 164.624C225.665 166.653 228.112 167.098 230.042 168.006C233.185 169.485 238.381 168.678 241.538 168.719C243.88 168.75 246.156 168.363 248.359 167.965C250.458 167.587 253.195 167.089 255.491 167.873C257.152 169.449 257.861 170.861 258.294 171.833C258.493 172.343 258.649 172.89 258.81 174.85" stroke="#BBA232" stroke-width="4.5" stroke-linecap="round"/>
<path d="M217.834 99.0443C218.906 99.9314 221.909 101.86 223.941 102.752C224.461 102.923 224.969 103.052 225.607 103.196C226.245 103.34 226.997 103.496 228.235 103.555" stroke="#BBA232" stroke-width="4.5" stroke-linecap="round"/>
<path d="M214.535 83.9225C214.836 83.8437 217.164 83.6839 219.99 83.4859C225.085 83.129 227.6 84.2306 229.768 84.9012C230.28 85.0987 230.741 85.3328 231.212 85.5706C231.684 85.8083 232.152 86.0424 232.635 86.2837" stroke="#BBA232" stroke-width="4.5" stroke-linecap="round"/>
<path d="M205.33 78.2595C204.857 77.4699 202.97 75.7214 201.186 74.0921C198.932 72.0319 197.823 69.9441 196.878 67.8088C195.905 65.6096 195.78 63.2143 195.578 60.6296C195.391 58.2233 195.141 54.34 195.715 50.9664C196.266 47.7281 198.229 45.7049 199.454 43.6533C200.149 42.8574 200.146 41.7205 201.186 40.94C203.15 39.4674 203.575 36.5846 205.33 35.4057" stroke="#BBA232" stroke-width="4.5" stroke-linecap="round"/>
<path d="M201.799 41.2544C202.111 40.4808 203.992 35.9466 205.574 34.0225C207.082 32.1887 207.75 31.4601 209.725 29.8717C211.637 28.3335 214.621 26.2412 216.643 24.3374C218.8 22.3055 221.96 21.3875 224.883 19.3215C226.928 17.8763 228.84 16.8219 231.061 15.3612C234.102 13.3609 236.921 10.9867 239.333 9.32984C241.425 7.89329 244.301 7.98298 246.642 7.66452C248.855 7.36349 251.054 7.02878 253.439 6.86895C256.151 6.68715 259.222 6.31314 261.683 5.78234C264.434 5.18877 266.665 5.29424 269.06 4.97578C270.19 4.81714 271.341 4.63597 273.717 4.48435C275.498 4.43279 278.447 4.43279 281.485 4.43279" stroke="#BBA232" stroke-width="4.5" stroke-linecap="round"/>
<path d="M281.338 4.10293C281.338 3.94549 281.806 3.47077 283.019 2.8744C286.016 1.40149 289.026 2.90816 292.201 3.57517C294.729 4.10655 297.264 4.52613 299.859 4.71728C302.568 4.91671 304.654 6.09668 307.267 6.60876C309.814 7.10806 312.637 7.42443 315.217 8.20551C317.72 8.9629 319.626 10.2803 321.745 11.817C323.937 13.672 325.282 14.6679 326.272 15.4428C326.737 15.8841 327.128 16.4232 328.003 17.2151" stroke="#BBA232" stroke-width="4.5" stroke-linecap="round"/>
<path d="M323.75 13.5903C324.455 14.0587 326.073 15.9168 328.729 18.1277C330.683 19.7548 332.834 22.5651 334.94 25.0308C336.738 27.1359 338.766 28.911 341.443 33.6388C344.102 38.3126 345.065 39.9706 345.84 41.0066C346.329 41.6076 347.012 42.3615 348.49 44.2986" stroke="#BBA232" stroke-width="4.5" stroke-linecap="round"/>
<path d="M346.584 41.1329C347.038 41.7523 348.626 43.4371 349.494 45.4892C350.396 47.6207 351.094 49.8153 352.251 52.2166C353.373 54.5465 353.736 57.2514 354.714 59.793C355.736 62.4463 356.301 64.6786 356.974 66.8517C357.629 68.966 358.145 71.131 359.245 74.0872C360.198 76.649 360.505 79.1871 360.821 81.5322C361.553 86.9718 361.215 95.8417 361.452 98.2059C361.374 99.4199 361.193 100.572 361.002 101.651C360.911 102.198 360.833 102.745 360.751 103.781" stroke="#BBA232" stroke-width="4.5" stroke-linecap="round"/>
<path d="M362.053 105.277C362.053 106.881 361.896 110.864 362.011 114.423C362.24 121.488 362.745 123.887 363.257 126.449C363.7 128.666 363.89 130.979 364.582 133.117C365.312 135.369 366.698 137.645 367.368 139.782C368.015 141.845 369.289 144.507 370.175 147.339C370.98 149.912 372.236 152.047 373.46 153.959C374.589 156.084 375.708 158.354 376.868 160.34C377.22 160.783 377.603 161.195 377.998 161.619" stroke="#BBA232" stroke-width="4.5" stroke-linecap="round"/>
<path d="M375.314 157.377C375.863 157.845 376.965 159.718 377.991 161.801C379.031 163.914 380.418 165.735 381.218 168.092C382.014 170.438 382.448 172.689 383.852 174.954C385.069 176.917 385.953 179.008 386.901 181.116C387.947 183.444 388.872 185.942 389.7 188.368C390.543 190.838 390.85 193.165 391.771 195.342C392.603 197.306 393.873 199.097 395.097 200.992C395.609 201.935 395.928 202.964 396.124 204.097C396.243 204.683 396.399 205.293 397.097 207.296" stroke="#BBA232" stroke-width="4.5" stroke-linecap="round"/>
<path d="M396.348 202.061C396.426 202.915 396.741 205.246 396.771 217.025C396.782 221.074 395.807 223.817 395.474 226.363C395.174 228.666 394.387 230.935 394.228 233.279C394.074 235.536 392.815 237.624 391.938 239.797C391.117 241.834 390.668 243.972 389.713 246.063C388.785 248.093 387.171 249.885 385.501 251.976C384.035 253.812 383.035 255.754 381.406 257.609C379.774 259.228 378.502 260.489 377.59 261.394C377.15 261.83 376.756 262.221 375.635 262.859" stroke="#BBA232" stroke-width="4.5" stroke-linecap="round"/>
<path d="M356.064 319.743C355.443 320.604 352.129 322.793 349.408 326.207C347.657 328.404 347.024 330.576 344.972 333.957C340.935 340.608 337.515 345.746 335.588 349.429C334.486 351.535 331.851 355.366 330.016 358.607C328.764 360.819 327.568 362.738 325.877 364.822C324.359 366.691 322.731 368.332 321.51 370.066C320.355 371.953 319.482 373.357 318.728 374.301C318.368 374.776 318.053 375.245 317.729 375.964" stroke="#BBA232" stroke-width="4.5" stroke-linecap="round"/>
<path d="M320.264 374.045C320.264 374.201 319.713 374.281 318.642 374.162C316.536 373.928 314.727 371.699 312.682 370.641C310.753 369.642 308.896 368.43 306.756 367.079C304.764 365.821 303.106 364.505 301.555 362.839C299.92 361.083 297.806 360.057 295.954 358.942C294.051 357.795 292.424 356.001 290.445 354.756C288.644 353.624 286.848 352.44 285.019 351.045C283.1 349.583 280.905 348.303 278.841 347.029C276.886 345.824 275.026 344.644 273.076 343.688C270.938 342.641 268.707 341.781 266.347 340.826C264.31 340.001 262.496 338.876 260.554 337.899C258.365 337.022 256.302 336.23 254.193 335.472C253.673 335.273 253.201 335.037 251.521 334.555" stroke="#BBA232" stroke-width="4.5" stroke-linecap="round"/>
<path d="M289.229 265.501L288.752 265.263" stroke="#BBA232" stroke-width="4.5" stroke-linecap="round"/>
<path d="M289.699 263.831C289.303 264.37 288.626 266.684 287.471 269.311C286.43 271.68 285.037 273.522 283.954 275.904C282.805 278.432 280.441 282.132 278.944 284.778C277.816 286.774 276.961 288.973 275.781 291.185C274.105 294.325 272.673 297.049 271.117 300.013C269.484 303.121 267.387 306.443 265.735 308.981C263.945 311.732 261.845 315.563 258.007 319.569C256.173 321.483 255.593 324.571 254.481 327.005C253.587 328.96 252.221 331.065 250.881 333.111C249.76 335.148 248.744 336.459 247.99 337.281C247.63 337.712 247.315 338.173 246.99 338.648" stroke="#BBA232" stroke-width="4.5" stroke-linecap="round"/>
<path d="M247.159 338.483C246.686 339.266 244.657 341.043 242.091 343.449C239.907 345.496 238.318 347.915 236.586 350.169C235.177 352.004 234.131 354.196 232.74 356.133C231.479 357.89 230.354 360.038 229.097 362.006C228.817 362.481 228.581 362.95 228.302 363.425C228.023 363.9 227.708 364.369 226.906 365.561" stroke="#BBA232" stroke-width="4.5" stroke-linecap="round"/>
<path d="M227.923 364.939C227.212 364.703 225.151 363.908 222.767 362.836C220.622 361.871 218.455 360.823 216.56 359.62C214.618 358.386 212.596 357.262 211.082 355.592C209.583 353.94 207.364 353.164 205.466 351.907C203.652 350.707 201.829 349.406 199.921 348.249C197.562 346.819 195.231 345.747 192.726 343.72C190.883 342.229 188.709 341.534 186.879 340.218C185.047 339.065 183.776 337.872 182.824 337.158C182.344 336.837 181.872 336.601 180.908 335.88" stroke="#BBA232" stroke-width="4.5" stroke-linecap="round"/>
<path d="M136.404 298.372C137.109 298.762 139.153 300.491 141.124 301.95C143.067 303.388 144.545 305.243 146.415 306.764C148.399 308.377 151.508 310.476 155.446 313.885C157.633 315.778 159.795 316.765 161.967 318.377C165.184 320.766 166.565 322.465 168.439 323.775C170.792 325.421 172.746 326.936 175.095 328.649C177.065 330.085 178.939 331.069 180.808 332.155C182.959 333.406 185.253 335.953 187.462 337.745C187.923 338.073 188.369 338.385 188.865 338.663C189.36 338.941 189.892 339.175 190.891 339.417" stroke="#BBA232" stroke-width="4.5" stroke-linecap="round"/>
<path d="M60.582 187.117H61.2977" stroke="#BBA232" stroke-width="4.5" stroke-linecap="round"/>
<path d="M58.4316 185.918C59.0017 186.616 60.5022 188.474 61.643 190.339C62.7707 192.182 63.9807 194.24 65.8403 196.339C67.8897 198.653 69.439 200.796 73.1698 204.472C75.2921 206.563 77.1342 207.895 78.9039 209.283C80.5628 210.583 81.0305 212.899 81.8996 214.977C82.8282 217.198 83.9668 219.358 85.5066 221.292C87.0683 223.253 88.3474 225.555 89.4362 227.573C90.4884 229.523 92.4661 231.252 93.851 233.476C94.363 234.668 94.7604 235.843 95.1921 237.018C95.4676 237.647 95.8579 238.342 96.4965 239.531" stroke="#BBA232" stroke-width="4.5" stroke-linecap="round"/>
<path d="M96.1133 236.07C96.3474 236.775 97.3339 238.789 98.4818 241.133C99.4902 243.192 100.933 245.442 102.672 247.995C104.363 250.476 104.773 252.862 105.572 255.031C106.422 257.341 106.806 259.948 107.632 261.99C108.6 264.385 110.177 266.126 111.259 267.98C112.484 270.081 114.656 272.209 116.195 274.3C117.421 276.313 118.13 277.883 118.641 278.816C118.918 279.288 119.23 279.756 120.261 280.711" stroke="#BBA232" stroke-width="4.5" stroke-linecap="round"/>
<path d="M119.416 279.009C119.884 279.636 121.46 281.365 123.781 284.082C126.614 287.398 128.631 288.858 130.681 290.747C135.015 295.081 138.017 298.678 139.747 300.836C140.218 301.274 140.679 301.586 141.154 301.908" stroke="#BBA232" stroke-width="4.5" stroke-linecap="round"/>
<path d="M58.6896 186.163C57.9787 185.926 56.0751 184.817 53.531 182.633C51.24 180.667 49.7106 179.016 47.764 177.184C46.8731 176.345 45.6552 176.143 44.5042 176.337C42.336 176.703 41.5188 179.443 41.1555 181.594C40.7462 184.017 42.6075 186.044 43.6352 187.939C44.7149 189.929 46.064 191.92 47.9555 194.247C50.6256 197.532 52.2831 200.088 54.0558 202.514C56.5932 205.988 57.7006 208.099 60.6466 211.199C62.4505 213.097 63.7749 215.565 65.4148 217.819C66.7355 219.259 67.9931 220.497 68.8867 221.316C69.3193 221.723 69.7096 222.113 70.1117 222.515" stroke="#BBA232" stroke-width="4.5" stroke-linecap="round"/>
<path d="M59.3773 210.857C58.6664 210.304 56.7628 209.192 53.0306 208.988C50.466 208.847 48.2561 209.89 46.3429 211.347C45.4259 212.046 45.0667 213.28 44.6695 214.381C43.9459 216.386 45.8058 218.527 47.1883 220.915C48.6708 223.475 51.6122 226.394 53.2471 228.243C54.9172 230.236 57.0367 232.766 58.4412 234.953C58.7972 235.426 59.1874 235.816 59.8261 236.455" stroke="#BBA232" stroke-width="4.5" stroke-linecap="round"/>
<path d="M47.2686 222.057C46.479 221.978 44.1167 222.286 41.756 223.468C40.1609 224.266 39.4474 225.834 39.0108 226.817C37.6813 229.81 38.9591 234.241 40.2161 236.05C41.484 237.875 43.3128 239.735 45.9906 242.851C47.2643 244.256 48.2746 245.3 49.0544 246.15C49.4225 246.616 49.7347 247.155 50.2929 248.42" stroke="#BBA232" stroke-width="4.5" stroke-linecap="round"/>
<path d="M43.3013 239.758C42.5117 239.601 40.1494 239.281 37.8079 239.591C34.8339 239.986 34.3466 243.683 33.4282 245.771C32.405 248.098 34.371 250.483 35.5489 252.41C36.7284 254.34 38.2374 256.166 40.2479 257.983C42.0609 259.621 43.43 261.688 45.016 263.645C46.4604 265.426 47.2792 267.393 48.2265 269.258C49.1903 271.156 51.1346 273.308 52.8766 275.595C54.2968 277.46 54.8481 279.716 56.0804 281.679C57.6782 284.226 60.8066 285.921 62.6936 287.103C64.5871 288.29 66.4757 289.388 68.3703 291.083C70.15 292.675 72.1155 293.49 74.4084 294.409C76.5496 295.267 78.7397 297.017 80.7561 298.56C81.5827 299.307 82.5165 300.064 83.5953 300.836C84.1424 301.253 84.6888 301.721 85.9613 302.677" stroke="#BBA232" stroke-width="4.5" stroke-linecap="round"/>
<path d="M86.2695 303.483C87.2866 304.342 89.4958 307.007 90.9161 308.729C92.4709 310.615 94.0655 313.024 95.9195 314.657C96.8447 315.52 97.6319 316.463 98.261 317.407C98.578 317.882 98.8902 318.351 99.4484 319.306" stroke="#BBA232" stroke-width="4.5" stroke-linecap="round"/>
<path d="M105.035 327.298C105.527 327.759 106.983 329.631 108.21 331.526C109.433 333.413 110.691 335.286 111.797 337.162C113.051 339.29 115.056 340.903 116.395 343.003C117.861 345.304 120.057 347.593 121.698 349.659C123.786 352.289 125.733 353.843 128.08 356.005C130.482 358.217 132.239 360.52 134.335 362.932C137.738 366.847 139.631 368.615 141.406 370.391C142.987 371.971 145.062 374.89 147.312 377.263C149.047 379.094 150.517 381.134 152.435 383.036C155.412 385.986 158.421 388.774 160.5 390.702C162.555 392.293 164.074 393.544 165.424 394.979C166.206 395.797 167.185 396.797 168.904 398.301" stroke="#BBA232" stroke-width="4.5" stroke-linecap="round"/>
<path d="M167.473 399.243L167.707 399.004" stroke="#BBA232" stroke-width="4.5" stroke-linecap="round"/>
<path d="M161.99 392.64C162.773 393.345 164.862 395.218 166.877 396.633C169.684 398.604 171.233 400.617 173.12 402.099C174.929 403.519 176.888 404.504 178.775 405.765C180.911 407.192 182.542 409.074 184.425 410.634C186.172 412.082 188.159 413.234 190.108 414.181C192.042 415.121 194.013 416.394 196.008 417.435C198.153 418.554 200.168 419.341 202.215 420.759C204.223 422.15 206.03 423.674 207.919 424.847C209.914 426.084 212.054 426.803 213.941 427.789C215.901 428.814 217.805 429.786 219.978 430.668C222.05 431.508 224.109 432.06 226.283 432.415C228.515 432.779 233.327 433.086 236.7 432.414C237.761 432.056 238.871 431.658 239.972 431.221C240.526 431.021 241.073 430.863 242.109 430.701" stroke="#BBA232" stroke-width="4.5" stroke-linecap="round"/>
<path d="M312.962 371.598C312.174 372.615 309.631 374.824 307.741 376.126C305.718 377.519 303.434 379.726 301.763 381.836C300.003 384.057 297.058 387.075 293.821 390.279C292.062 392.02 290.786 394.016 288.8 395.845C286.476 397.987 283.602 400.813 281.168 403.069C279.108 404.977 277.219 406.258 275.172 408.013C273.072 409.813 271.354 411.276 267.628 414.623C264.862 417.109 262.874 418.447 260.963 419.832C259.052 420.898 257.699 421.922 256.906 422.708C256.507 423.104 256.113 423.495 255.404 424.348" stroke="#BBA232" stroke-width="4.5" stroke-linecap="round"/>
<path d="M256.427 422.76C255.724 423.016 253.68 424.159 251.712 425.422C249.801 426.648 247.922 427.787 245.972 428.735C243.86 429.761 241.627 430.298 239.608 431.126C237.514 431.984 235.243 432.426 233.013 433.019C230.784 433.375 228.579 433.376 226.56 432.611C226.045 432.4 225.502 432.222 223.75 431.56" stroke="#BBA232" stroke-width="4.5" stroke-linecap="round"/>
<path d="M105.496 313.539C104.864 313.929 103.12 315.346 101.249 316.648C99.4074 317.929 98.6596 319.525 98.5381 320.626C98.2842 322.927 100.7 324.631 101.726 326.518C101.998 327.02 102.432 327.462 102.867 327.585C104.799 326.595 106.611 324.529 108.105 322.943C108.896 322.144 109.755 321.357 111.349 319.83" stroke="#BBA232" stroke-width="4.5" stroke-linecap="round"/>
<path d="M127.67 292.518C128.375 292.203 129.794 291.249 130.738 290.889C132.639 290.164 134.364 293.202 135.943 295.058C136.324 295.507 136.729 295.884 136.694 296.241C136.659 296.599 136.186 296.911 135.707 297.341C135.227 297.772 134.755 298.311 134.03 298.866" stroke="#BBA232" stroke-width="4.5" stroke-linecap="round"/>
<path d="M128.355 294.426C127.644 294.111 125.74 292.999 123.79 291.885C121.81 290.754 119.381 290.929 116.763 290.926C114.311 290.923 112.034 293.36 109.751 295.279C106.023 298.416 105.079 301.257 104.598 303.473C104.077 305.876 104.12 308.837 104.919 311.289C105.622 313.448 107.959 314.871 109.854 316.256C111.582 317.519 113.985 317.088 116.565 316.929C118.878 316.785 120.77 314.946 122.926 313.276C124.717 311.889 125.925 309.925 127.719 307.853C129.232 306.104 129.795 304.002 129.796 300.395C128.847 297.882 127.098 295.818 125.746 294.025C125.347 293.664 124.875 293.428 124.15 292.946" stroke="#BBA232" stroke-width="4.5" stroke-linecap="round"/>
<path d="M136.033 285.54C136.738 285.774 138.782 286.874 140.757 288.372C142.665 290.199 144.468 292.417 145.691 294.286C145.978 294.758 146.291 295.226 146.849 296.418" stroke="#BBA232" stroke-width="4.5" stroke-linecap="round"/>
<path d="M140.037 276.431C141.181 276.431 144.086 276.829 147.006 277.832C149.519 278.696 150.56 282.064 152.731 284.582C153.97 286.572 154.679 287.976 155.162 288.994C155.41 289.544 155.666 290.161 156.166 291.506" stroke="#BBA232" stroke-width="4.5" stroke-linecap="round"/>
<path d="M61.3954 187.3C61.4735 186.51 61.6319 180.545 61.1966 176.208C60.9163 173.699 60.8376 171.766 60.7183 170.144C60.6777 169.049 60.6777 167.402 60.6777 165.705" stroke="#BBA232" stroke-width="4.5" stroke-linecap="round"/>
<path d="M61.9627 164.985C61.7241 164.292 61.4092 161.832 60.956 159.483C60.7233 158.277 60.7833 156.934 60.9016 152.474C61.1805 141.953 60.863 134.429 60.7438 132.607C60.355 126.667 60.4647 123.867 60.3057 121.419C60.134 118.775 59.9903 115.627 59.1148 113.595C58.2782 111.654 55.6201 110.823 53.751 109.466C49.0486 106.051 38.445 109.217 36.058 109.417C33.6477 109.619 28.2836 109.851 24.3985 109.653C21.2624 109.691 19.0577 110.005 16.3248 110.282C15.2617 110.322 13.7033 110.322 12.0977 110.559" stroke="#BBA232" stroke-width="4.5" stroke-linecap="round"/>
<path d="M10.7263 109.872C9.9367 110.028 7.87325 110.813 6.02196 112.266C4.08337 113.788 3.59884 116.418 3.10748 118.558C2.56367 120.926 2.65628 123.256 2.37718 125.615C1.98566 128.925 2.57315 131.09 3.12288 133.433C3.66917 135.76 3.86945 137.971 3.98889 151.278C4.03156 156.031 4.42292 160.166 4.61924 165.413C5.09444 178.113 4.02491 180.636 3.90444 183.198C3.78636 184.427 3.70525 185.658 3.78331 186.836C3.86136 187.412 4.01747 187.944 4.17831 188.729" stroke="#BBA232" stroke-width="4.5" stroke-linecap="round"/>
<path d="M4.66145 182.904C4.58273 183.758 4.4229 186.967 4.13185 189.809C3.85026 192.559 4.03722 195.609 4.15667 199.197C4.24971 201.991 4.59069 204.791 5.17847 207.284C5.80978 209.962 9.07527 211.504 10.9514 212.531C12.9111 213.605 15.5585 213.401 20.4286 213.431C23.1697 213.448 25.3223 213.095 30.4624 213.215C34.5954 213.412 38.9303 213.255 40.0277 212.977C40.5787 212.857 41.1177 212.778 42.1461 212.458" stroke="#BBA232" stroke-width="4.5" stroke-linecap="round"/>
<path d="M74.5898 150.629C75.3581 150.807 77.3742 151.635 79.3481 153.737C81.1487 155.655 81.6365 158.129 82.5594 160.121C83.4685 162.082 82.3351 164.47 81.8175 166.764C81.317 168.982 79.4122 170.64 78.2265 172.374C77.8293 172.69 77.2783 172.846 76.7189 172.886C76.1595 172.927 75.6084 172.848 74.8021 172.766" stroke="#BBA232" stroke-width="4.5" stroke-linecap="round"/>
<path d="M83.7977 140.788C84.2093 141.408 85.9523 142.696 87.7558 143.99C89.6101 145.32 90.6484 147.499 91.6968 150.296C92.5804 152.654 93.766 154.921 94.2973 157.05C95.5944 162.25 94.2741 171.198 93.3998 173.236C92.3973 175.573 91.1942 177.916 89.3429 179.302C87.6354 180.998 85.7318 182.259 83.6038 182.971C83.0485 183.129 82.4974 183.285 81.9297 183.446" stroke="#BBA232" stroke-width="4.5" stroke-linecap="round"/>
<path d="M11.4512 147.609C11.4512 149.001 11.6073 152.427 11.884 156.206C11.8455 166.467 11.7637 168.266 11.882 169.484C11.9222 170.156 11.9222 170.936 11.9222 171.74" stroke="#BBA232" stroke-width="4.5" stroke-linecap="round"/>
<path d="M11.418 147.522C11.9497 147.915 14.2194 148.431 18.4716 148.281C28.3721 147.934 32.8627 148.466 36.908 148.962C37.6261 149.104 38.2285 149.203 40.6023 149.254C42.9761 149.305 47.1029 149.305 52.0422 149.067" stroke="#BBA232" stroke-width="4.5" stroke-linecap="round"/>
<path d="M52.2559 149.338C52.4924 151.018 52.6485 155.493 52.7679 157.67C52.885 158.767 52.9654 161.557 52.9261 165.204C52.8867 166.625 52.808 167.171 52.9634 169.153" stroke="#BBA232" stroke-width="4.5" stroke-linecap="round"/>
<path d="M11.4805 169.697C12.2487 169.775 16.1515 169.933 20.3459 169.339C27.1535 168.375 29.5648 169.454 32.6449 169.058C38.2993 168.331 40.5159 168.895 43.6022 169.014C44.8826 169.131 46.048 169.29 47.9998 169.408C49.3492 169.448 51.4273 169.448 53.8049 169.21" stroke="#BBA232" stroke-width="4.5" stroke-linecap="round"/>
<path d="M27.1914 115.709C27.4568 115.768 28.296 115.729 29.7957 115.698C30.9231 115.675 32.7358 115.507 33.5743 115.417C34.279 115.302 34.7621 115.231 35.0876 115.201C35.2751 115.191 35.5079 115.191 35.7478 115.251" stroke="#BBA232" stroke-width="4.5" stroke-linecap="round"/>
</svg>
