<svg width="63" height="78" viewBox="0 0 63 78" fill="none" xmlns="http://www.w3.org/2000/svg">
<path d="M22.0894 37.9213C22.316 37.0151 23.5054 36.5054 24.0718 36.3638C26.4317 37.355 31.4631 39.6772 32.7092 41.0365C34.2668 42.7357 28.1781 48.6828 27.4701 49.6739C26.7621 50.6651 16.7087 50.5235 15.8591 50.0987C15.0096 49.6739 15.1512 48.1164 15.0096 47.8332C14.868 47.55 15.2928 45.9924 15.8591 45.8508C16.4255 45.7092 17.2751 43.1604 17.2751 42.3109C17.2751 41.4613 20.3903 41.0365 21.0983 41.0365C21.8062 41.0365 21.8062 39.0541 22.0894 37.9213Z" fill="url(#paint0_radial_67_828)"/>
<path d="M24.0268 56.1719H25.2815C26.7035 56.8829 29.7233 58.6311 30.4259 59.936C31.3042 61.567 31.4296 65.0801 31.4296 65.8329C31.4296 66.5857 29.6731 68.5932 28.9203 68.9696C28.1675 69.346 27.1637 68.7187 26.4109 68.2168C25.6581 67.7149 24.9053 66.7112 24.0271 66.0839C23.3244 65.582 23.1488 65.7075 23.1488 65.8329C22.8979 65.582 22.2454 65.0801 21.643 65.0801C20.8899 65.0801 19.7612 64.7037 19.0084 64.2019C18.2556 63.7 18.1299 62.4453 17.2518 62.4453C16.3738 62.4453 17.2518 61.4416 16.7499 61.0652C16.2481 60.6888 16.8754 60.4378 17.2518 59.936C17.6282 59.4341 16.3733 59.4341 15.9969 58.9322C15.6205 58.4304 17.3771 58.9322 18.1299 57.6775C18.8827 56.4229 19.8864 56.7992 21.643 56.1719C23.3995 55.5445 23.1486 56.1719 24.0268 56.1719Z" fill="url(#paint1_radial_67_828)"/>
<path d="M24.7797 59.8097C24.7797 58.9063 26.0344 57.6767 26.6618 57.1749C31.0533 55.7947 43.4742 67.8396 43.5996 69.3452C43.7251 70.8508 43.5996 72.7328 43.5996 72.8583C43.5996 72.9837 41.7176 75.2422 41.3412 75.6186C40.9648 75.995 38.9573 76.8732 38.8319 76.8732C38.7064 76.8732 38.0791 76.8732 37.3263 77.3751C33.5622 77.7515 34.1896 74.4894 34.1896 73.6111C34.1896 72.7328 33.3113 73.7366 32.1821 73.9875C31.0529 74.2384 30.802 72.6073 30.6765 71.98C30.551 71.3527 30.3001 72.1055 29.7982 71.8545C29.2964 71.6036 29.6728 71.2272 29.7982 70.4744C29.9237 69.7216 29.1709 69.5961 28.92 69.3452C28.669 69.0943 28.669 68.0905 28.1671 67.9651C27.6653 67.8396 26.4106 65.8321 26.0342 65.8321C25.6578 65.8321 25.4069 65.3302 25.0305 64.5774C24.7674 64.0512 25.1875 63.5506 25.521 63.2931C25.3953 63.2092 25.168 62.9147 24.7797 62.1936C23.9015 61.8171 24.7797 60.9389 24.7797 59.8097Z" fill="url(#paint2_radial_67_828)"/>
<path d="M37.2018 63.0721C38.2055 62.5702 39.2092 61.441 39.5856 60.9391C40.3803 60.5209 41.9697 59.8601 41.9697 60.5627C41.9697 61.441 43.2244 61.8174 44.6045 62.1938C45.9847 62.5702 47.8667 62.4447 48.6195 62.5702C49.3723 62.6957 51.5052 64.5777 52.258 66.2088C53.0108 67.8398 51.0034 68.8436 51.0034 69.7218C51.0034 70.6001 47.9921 71.6038 46.1101 72.6076C44.2281 73.6113 44.3536 71.6038 43.2244 71.8548C42.0952 72.1057 40.0877 71.3529 38.3311 71.6038C36.5746 71.8548 36.7001 69.7218 36.7001 69.22C36.7001 68.7181 35.5707 69.5964 34.6924 69.7218C33.8141 69.8473 33.9396 67.2125 33.9396 66.2088C33.9396 65.205 35.9471 63.6994 37.2018 63.0721Z" fill="url(#paint3_radial_67_828)"/>
<path d="M46.6119 58.9313C45.8089 59.3328 45.0227 58.764 44.7299 58.4295L42.2206 60.8132C42.4297 61.1478 43.1239 61.9173 44.2281 62.3188C45.6082 62.8207 47.7411 62.8207 48.6194 62.8207C49.4977 62.8207 48.9958 64.7027 49.2468 65.7065C49.4977 66.7102 51.7561 67.3375 53.0108 67.3375C54.2655 67.3375 53.7636 65.581 54.6419 65.7065C55.5201 65.8319 55.3947 64.2009 55.8965 64.2009C56.298 64.2009 56.733 63.2808 56.9003 62.8207C56.9003 62.5698 57.0006 62.0177 57.4021 61.817C57.904 61.566 57.904 60.8132 57.7785 59.684C57.6531 58.5548 56.2729 58.4295 55.8965 57.9275C55.5201 57.4255 53.1362 56.6729 51.2542 56.2965C49.3722 55.9201 49.9996 57.1748 49.2468 57.1748C48.494 57.1748 47.6157 58.4295 46.6119 58.9313Z" fill="url(#paint4_radial_67_828)"/>
<path d="M46.3614 49.1449C45.3577 49.5464 45.4413 50.5669 45.6086 51.0269C45.3159 53.1598 44.8309 57.6767 45.2324 58.6804C45.7343 59.9351 46.9889 58.304 47.9927 58.304C48.9964 58.304 50.1256 56.6729 50.8784 56.422C51.6312 56.1711 52.7605 56.9239 54.7679 57.4257C56.7754 57.9276 56.9009 60.3115 58.0301 60.3115C59.1593 60.3115 59.7866 59.0568 60.163 58.304C60.5394 57.5512 61.7941 55.4183 62.1705 54.4145C62.5469 53.4108 62.9233 53.4108 62.9233 52.9089C62.9233 52.407 62.5469 51.9052 62.9233 51.0269C63.2997 50.1486 62.1705 49.7722 62.1705 49.1449C62.1705 48.5176 61.4177 48.1411 60.9158 46.8865C60.9158 46.1337 60.163 46.0082 59.4102 44.7535C58.6574 43.4989 56.1481 42.4951 55.5207 42.4951H53.2623C52.5095 42.4951 51.3803 45.5063 51.3803 46.3846C51.3803 47.2629 47.6161 48.643 46.3614 49.1449Z" fill="url(#paint5_radial_67_828)"/>
<path d="M31.054 30.0741C29.8495 30.576 29.9666 31.7052 30.1758 32.2071C31.6396 33.2944 34.9688 35.6197 36.5748 36.222C38.1808 36.8242 43.2664 34.7163 45.6085 33.5871C45.8594 33.1271 46.2107 32.2071 45.6085 32.2071C44.8557 32.2071 43.8519 30.0741 43.4755 30.0741C43.0991 30.0741 41.468 28.694 41.0916 28.694C40.7152 28.694 38.5823 27.3138 37.955 27.3138C37.3276 27.3138 36.8257 27.4393 35.6965 27.3138C34.5673 27.1884 33.5636 28.0667 33.3127 28.694C33.0617 29.3213 32.5596 29.4468 31.054 30.0741Z" fill="url(#paint6_linear_67_828)"/>
<path d="M37.0762 48.1415C36.7751 49.0449 37.4526 49.5217 37.829 49.6472C40.0874 50.149 44.7046 51.0774 45.1061 50.7762C45.6079 50.3998 45.6079 50.2744 45.9843 49.898C46.3607 49.5216 47.6154 50.1489 49.6229 50.2744C51.6304 50.3998 51.254 49.2706 51.5049 49.2706C51.7558 49.2706 52.1322 46.8868 52.3832 46.6358C52.6341 46.3849 53.2614 46.0085 53.3869 45.7576C53.5124 45.5066 53.2614 44.8793 53.2614 44.5029C53.2614 44.1265 53.7633 44.001 53.8888 43.7501C54.0142 43.4991 54.0142 42.9973 53.7633 42.6209C53.5124 42.2445 53.7633 41.8681 53.7633 41.6171C53.7633 41.3662 53.6378 40.7389 53.3869 40.4879C53.136 40.237 53.2614 39.8606 53.2614 39.6096C53.2614 39.3587 52.0068 37.7276 51.7558 37.7276C51.5049 37.7276 51.5049 37.1003 51.5049 36.5984C51.5049 36.0966 50.1248 35.3438 49.9993 34.842C49.8738 34.3402 48.4937 33.9637 48.1173 33.8383C47.7409 33.7128 47.7409 33.2108 47.7409 33.0854C47.7409 32.9601 46.7371 32.9599 46.4862 32.9599C46.2353 32.9599 45.357 32.458 44.8551 32.458C44.3533 32.458 43.475 33.5872 43.224 33.8383C42.9731 34.0893 43.224 33.2109 42.4712 33.0854C41.7184 32.96 41.7184 33.9637 41.4675 33.8383C41.2166 33.7128 40.0874 33.8383 40.0874 33.9637C40.0874 34.0892 39.3346 34.2147 38.8327 34.2147C38.3308 34.2147 38.0799 34.4656 38.0799 34.842C38.0799 35.2184 41.2166 39.8607 41.342 40.3626C41.4675 40.8644 37.4526 47.0123 37.0762 48.1415Z" fill="url(#paint7_radial_67_828)"/>
<path d="M37.3268 47.7655C36.9253 48.5685 37.4941 49.3547 37.8287 49.6475L36.4487 57.1755L33.8139 55.9208C33.8557 56.0881 33.8892 56.4227 33.6884 56.4227C33.4375 56.4227 28.6697 52.2823 28.2933 52.2823C27.9169 52.2823 27.1641 52.7842 26.7877 52.6587C26.4113 52.5332 26.7877 52.6587 26.6623 53.0351C26.5368 53.4115 25.6585 53.1606 25.6585 53.286C25.6585 53.4115 25.5331 53.4115 25.2821 53.537C25.0814 53.6373 24.4875 54.0807 24.5293 54.4152C25.2821 54.4152 24.3788 54.6662 24.2784 54.6662C24.1529 54.6662 25.1567 55.168 25.2821 55.5444C25.4076 55.9208 24.5292 56.0463 24.5292 56.4227C24.5292 56.7991 23.7765 56.6736 23.5256 56.4227C23.2746 56.1718 20.5144 56.6736 19.3852 56.9246C18.2559 57.1755 17.6286 58.6811 17.5031 58.9321C17.3777 59.183 16.4993 58.9321 15.9975 58.5557C15.4957 58.1793 15.7466 57.1755 15.7466 56.6736C15.7466 56.1718 15.3702 56.1718 15.2447 55.7954C15.1191 55.419 15.4957 55.0426 15.1193 54.6662C14.7429 54.2898 14.8683 53.286 14.7428 52.6587C14.6173 52.0313 15.2447 50.5257 15.2447 49.6475C15.2447 48.7692 15.9975 49.1456 16.4993 49.1456C17.0012 49.1456 18.0049 47.0127 18.3813 46.6362C18.7577 46.2598 20.0124 46.2598 20.6398 46.2598C21.2671 46.2598 21.1416 46.7617 21.3926 46.8872C21.6435 47.0127 21.518 46.5108 22.0199 46.3853C22.5218 46.2598 24.0274 44.8797 24.0274 44.7542C24.0274 44.6288 24.4038 44.7542 24.5292 44.7542C24.6547 44.7542 24.6547 44.3778 24.6547 44.1269C24.6547 43.876 24.9056 43.876 25.282 43.876C25.5832 43.876 25.5748 42.7049 25.533 42.1194C25.5748 42.0776 25.7337 41.8183 26.0349 41.1157C26.4113 40.2374 23.1491 38.8573 22.8982 38.6063C22.6472 38.3554 23.0236 38.1045 23.0236 37.979C23.0236 37.8535 23.4 37.4771 23.5255 37.4771C23.651 37.4771 23.5255 36.7243 23.651 36.7243C23.7764 36.7243 23.9019 36.7243 23.9019 36.3479C23.9019 35.9715 25.1566 34.215 25.282 33.964C25.4075 33.7131 25.7839 33.8386 26.0349 33.8386C26.2858 33.8386 26.2858 33.7131 26.2858 33.4622C26.2858 33.2112 26.6622 33.3367 27.0386 33.3367C27.415 33.3367 28.1678 32.7094 28.6697 32.4584C29.1715 32.2075 28.5442 32.5839 29.6734 32.333C30.5768 32.1322 31.4718 32.082 31.8064 32.082C31.9067 32.1824 32.5173 32.7094 32.8101 32.9603C33.312 32.5839 33.0108 32.6341 33.312 32.333C33.6884 31.9566 35.8213 33.2112 37.8287 34.3405C39.4346 35.2438 40.7563 37.6444 41.2164 38.7318C41.3419 38.9827 41.643 39.6101 41.8437 40.112C42.0947 40.7393 37.8287 46.7617 37.3268 47.7655Z" fill="url(#paint8_radial_67_828)"/>
<path d="M29.0459 52.4075C29.8489 52.7086 32.6427 55.3769 33.9392 56.6734C34.1065 56.5898 34.4914 56.4225 34.6921 56.4225C34.9431 56.4225 37.8288 59.4337 37.7033 59.5592C37.5779 59.6847 37.4524 60.0611 37.3269 60.4375C37.2015 60.8139 37.5779 61.5667 37.9543 62.0685C38.3307 62.5704 38.3307 63.5741 38.3307 63.8251C38.3307 64.076 38.4562 64.8288 38.5816 65.3307C38.7071 65.8326 38.4562 65.0797 38.2052 66.209C37.9543 67.3382 36.9505 66.8363 36.5741 67.4636C36.1977 68.091 35.3195 67.2127 35.0685 66.209C34.8176 65.2052 33.9392 66.209 33.5629 66.209C33.1867 66.209 33.0611 65.4562 32.6846 65.0797C32.3082 64.7033 29.548 64.8288 29.548 64.5779C29.548 64.3269 28.7952 64.2015 27.7914 63.9505C26.7877 63.6996 26.4113 63.6996 26.0349 63.5741C25.6585 63.4487 26.4113 62.194 27.1639 61.3157C27.9166 60.4375 26.6622 60.312 26.9131 59.8101C27.1641 59.3082 27.1639 58.43 27.415 57.8026C27.6661 57.1753 26.9131 57.4262 26.1601 57.4262C25.4071 57.4262 24.4038 56.4225 24.529 56.0461C24.6543 55.6697 24.2781 55.0424 24.1526 54.7914C24.0272 54.5405 24.4036 54.666 24.529 54.2896C24.6545 53.9132 24.529 53.5367 24.529 53.2858C24.529 53.0349 24.9054 53.1603 25.2818 53.1603C25.6582 53.1603 25.9092 51.5292 26.1601 51.2783C26.411 51.0273 27.1639 51.5292 27.1639 51.6547C27.1639 51.7801 27.0385 51.9056 29.0459 52.4075Z" fill="url(#paint9_radial_67_828)"/>
<path d="M37.4525 50.0231L37.8289 49.7722C37.8707 49.6886 38.0046 49.5213 38.2053 49.5213C38.4061 49.5213 38.3726 49.4376 38.3308 49.3958H38.8327C39.0334 49.3958 39 49.2285 38.9581 49.1449H39.3345C39.5353 49.1449 39.6691 49.0612 39.7109 49.0194L39.9619 49.2703L40.0873 49.0194H40.5892C40.7147 49.0194 40.7147 49.3958 40.9656 49.2703C41.1664 49.17 41.3838 49.2285 41.4675 49.2703V49.5213H41.8439C41.8857 49.3958 41.9693 49.1198 41.9693 49.0194C41.9693 48.8939 42.4712 48.8939 42.4712 49.0194C42.4712 49.1449 42.5967 49.3958 42.7222 49.5213C42.8225 49.6216 43.0149 49.3958 43.0986 49.2703H43.475C43.5753 49.2703 43.6004 49.6886 43.6004 49.8977H43.9768L44.3532 50.0231L44.6042 50.3995C44.8551 50.3159 45.357 50.1737 45.357 50.2741V51.0269C45.4824 51.0269 45.7334 51.0771 45.7334 51.2778V51.6542L45.9843 51.7797V52.1561C45.9843 52.2565 46.1516 52.1979 46.2352 52.1561L46.3607 52.5325C46.2771 52.6579 46.0847 52.934 45.9843 53.0343C45.8839 53.1347 46.1098 53.2435 46.2352 53.2853V53.7872C46.2352 53.8875 46.4025 53.9963 46.4862 54.0381C46.6116 54.1217 46.8877 54.3141 46.988 54.4145C47.0884 54.5149 47.0299 54.9582 46.988 55.1673C46.9044 55.2928 46.7371 55.5688 46.7371 55.6692C46.7371 55.7695 46.9044 55.9619 46.988 56.0456L46.7371 56.2965C46.6953 56.4638 46.5364 56.7984 46.2352 56.7984C45.9341 56.7984 45.5243 57.3002 45.357 57.5512C45.4824 57.6348 45.7334 57.8523 45.7334 58.053C45.7334 58.2538 45.3151 58.4713 45.106 58.5549C45.1479 58.7222 45.2064 59.0568 45.106 59.0568H44.6042L44.3532 59.3077C44.2278 59.3914 43.9768 59.6088 43.9768 59.8096C43.9768 60.0103 43.6422 59.8932 43.475 59.8096V60.0605C43.3913 60.186 43.1989 60.462 43.0986 60.5624C42.9982 60.6628 43.0567 61.2734 43.0986 61.5661L42.5967 61.1897C42.5549 61.2734 42.4712 61.4909 42.4712 61.6916C42.4712 61.8923 42.053 61.608 41.8439 61.4407L41.4675 61.8171C41.3838 61.608 41.2165 61.2148 41.2165 61.3152C41.2165 61.4407 40.9656 61.9425 40.7147 61.9425C40.4637 61.9425 40.5892 61.6916 40.4637 61.4407C40.3634 61.2399 40.171 61.608 40.0873 61.8171C39.9619 61.7334 39.6607 61.541 39.46 61.4407C39.2091 61.3152 39.2091 61.1897 39.0836 61.0643C38.9581 60.9388 38.7072 61.0643 38.4563 61.0643C38.2053 61.0643 38.4563 60.8133 38.4563 60.5624C38.4563 60.3616 38.289 60.2278 38.2053 60.186L37.7035 60.0605L37.3271 59.5587C37.2852 59.475 37.051 59.3077 36.4488 59.3077C35.696 59.3077 35.696 58.5549 35.696 58.4294C35.696 58.304 35.696 58.053 35.445 58.1785C35.1941 58.304 35.0686 57.8021 34.8177 57.6766C34.617 57.5763 34.6504 57.0493 34.6922 56.7984C34.3995 56.7147 33.814 56.4471 33.814 56.0456C33.814 55.6441 34.3995 55.5437 34.6922 55.5437C34.4831 55.3764 34.0398 54.9916 33.9394 54.7909C33.814 54.54 34.3158 54.54 34.3158 54.289C34.3158 54.0883 33.9813 53.9544 33.814 53.9126L34.3158 53.6617L33.9394 53.2853C33.814 53.1598 34.0649 53.0343 33.9394 52.7834C33.8391 52.5827 34.3995 52.5325 34.6922 52.5325C34.4831 52.407 34.0649 52.131 34.0649 52.0306C34.0649 51.9051 34.4413 51.7797 34.6922 51.5287C34.893 51.328 35.1105 51.6124 35.1941 51.7797C35.1941 51.5706 35.169 51.1022 35.0686 50.9014C34.9683 50.7007 35.445 50.8178 35.696 50.9014V50.525H36.4488H36.8252C36.9507 50.4832 37.1765 50.3744 37.0761 50.2741C36.9757 50.1737 37.2852 50.065 37.4525 50.0231Z" fill="url(#paint10_radial_67_828)"/>
<g opacity="0.74">
<path d="M4.65563 21.3525C4.77695 20.8596 5.41387 20.5824 5.71716 20.5054C6.98089 21.0444 9.67514 22.3074 10.3424 23.0467C11.1765 23.9709 7.91603 27.2053 7.53691 27.7444C7.15779 28.2835 1.77428 28.2064 1.31937 27.9754C0.864462 27.7444 0.940251 26.8973 0.864427 26.7432C0.788603 26.5892 1.01608 25.7421 1.31937 25.6651C1.62267 25.5881 2.07761 24.2019 2.07761 23.7398C2.07761 23.2778 3.74574 23.0467 4.12486 23.0467C4.50398 23.0467 4.50398 21.9686 4.65563 21.3525Z" fill="url(#paint11_radial_67_828)"/>
<path d="M4.96058 31.0882H5.62975C6.38817 31.4674 7.99871 32.3997 8.37344 33.0957C8.84186 33.9656 8.90877 35.8393 8.90877 36.2407C8.90877 36.6422 7.97194 37.7129 7.57045 37.9137C7.16895 38.1144 6.63362 37.7798 6.23212 37.5122C5.83062 37.2445 5.42912 36.7092 4.9607 36.3746C4.58597 36.1069 4.49229 36.1738 4.49229 36.2407C4.35846 36.1069 4.01047 35.8393 3.68917 35.8393C3.28755 35.8393 2.68555 35.6385 2.28405 35.3708C1.88255 35.1032 1.81551 34.434 1.34722 34.434C0.878925 34.434 1.34722 33.8987 1.07955 33.6979C0.811887 33.4972 1.14647 33.3633 1.34722 33.0957C1.54797 32.828 0.878683 32.828 0.677933 32.5603C0.477184 32.2927 1.41401 32.5603 1.81551 31.8912C2.21701 31.222 2.75234 31.4227 3.68917 31.0882C4.626 30.7536 4.49217 31.0882 4.96058 31.0882Z" fill="url(#paint12_radial_67_828)"/>
<path d="M5.36205 33.0283C5.36205 32.5465 6.03122 31.8907 6.3658 31.6231C8.70799 30.887 15.3325 37.311 15.3994 38.114C15.4663 38.917 15.3994 39.9207 15.3994 39.9876C15.3994 40.0545 14.3957 41.259 14.1949 41.4598C13.9942 41.6605 12.9235 42.1289 12.8566 42.1289C12.7897 42.1289 12.4551 42.1289 12.0536 42.3966C10.0461 42.5974 10.3807 40.8575 10.3807 40.3891C10.3807 39.9207 9.91225 40.456 9.31001 40.5899C8.70776 40.7237 8.57393 39.8538 8.50701 39.5192C8.44009 39.1846 8.30626 39.5861 8.03859 39.4523C7.77093 39.3185 7.97168 39.1177 8.03859 38.7162C8.10551 38.3147 7.70401 38.2478 7.57018 38.114C7.43635 37.9801 7.43635 37.4448 7.16868 37.3779C6.90102 37.311 6.23185 36.2403 6.0311 36.2403C5.83035 36.2403 5.69652 35.9726 5.49577 35.5711C5.35545 35.2905 5.57952 35.0235 5.75737 34.8861C5.69034 34.8414 5.56911 34.6844 5.36205 34.2997C4.89364 34.099 5.36205 33.6306 5.36205 33.0283Z" fill="url(#paint13_radial_67_828)"/>
<path d="M11.9869 34.7684C12.5222 34.5007 13.0576 33.8985 13.2583 33.6308C13.6822 33.4078 14.5298 33.0553 14.5298 33.4301C14.5298 33.8985 15.199 34.0992 15.9351 34.3C16.6711 34.5007 17.6749 34.4338 18.0764 34.5007C18.4779 34.5676 19.6155 35.5714 20.017 36.4413C20.4185 37.3112 19.3478 37.8465 19.3478 38.315C19.3478 38.7834 17.7418 39.3187 16.7381 39.854C15.7343 40.3894 15.8012 39.3187 15.199 39.4525C14.5967 39.5864 13.5261 39.1849 12.5892 39.3187C11.6524 39.4525 11.7193 38.315 11.7193 38.0473C11.7193 37.7796 11.117 38.248 10.6486 38.315C10.1802 38.3819 10.2471 36.9766 10.2471 36.4413C10.2471 35.906 11.3177 35.103 11.9869 34.7684Z" fill="url(#paint14_radial_67_828)"/>
<path d="M17.0058 32.56C16.5776 32.7741 16.1582 32.4708 16.0021 32.2923L14.6638 33.5637C14.7753 33.7421 15.1456 34.1526 15.7344 34.3667C16.4705 34.6344 17.6081 34.6344 18.0765 34.6344C18.5449 34.6344 18.2772 35.6381 18.4111 36.1734C18.5449 36.7088 19.7494 37.0433 20.4186 37.0433C21.0877 37.0433 20.8201 36.1065 21.2885 36.1734C21.7569 36.2403 21.69 35.3704 21.9576 35.3704C22.1718 35.3704 22.4038 34.8797 22.493 34.6344C22.493 34.5005 22.5465 34.2061 22.7606 34.099C23.0283 33.9652 23.0283 33.5637 22.9614 32.9614C22.8945 32.3592 22.1584 32.2923 21.9576 32.0246C21.7569 31.7569 20.4855 31.3555 19.4817 31.1548C18.478 30.954 18.8126 31.6232 18.4111 31.6232C18.0096 31.6232 17.5412 32.2923 17.0058 32.56Z" fill="url(#paint15_radial_67_828)"/>
<path d="M16.8722 27.341C16.3369 27.5551 16.3815 28.0994 16.4707 28.3447C16.3146 29.4823 16.056 31.8913 16.2701 32.4267C16.5378 33.0958 17.2069 32.2259 17.7423 32.2259C18.2776 32.2259 18.8798 31.356 19.2813 31.2222C19.6828 31.0883 20.2851 31.4898 21.3557 31.7575C22.4264 32.0252 22.4933 33.2966 23.0956 33.2966C23.6978 33.2966 24.0324 32.6274 24.2331 32.2259C24.4339 31.8244 25.1031 30.6868 25.3038 30.1515C25.5046 29.6162 25.7053 29.6162 25.7053 29.3485C25.7053 29.0808 25.5046 28.8132 25.7053 28.3447C25.9061 27.8763 25.3038 27.6756 25.3038 27.341C25.3038 27.0064 24.9023 26.8057 24.6346 26.1365C24.6346 25.735 24.2331 25.6681 23.8316 24.9989C23.4301 24.3298 22.0918 23.7944 21.7572 23.7944H20.5527C20.1512 23.7944 19.549 25.4004 19.549 25.8688C19.549 26.3373 17.5414 27.0733 16.8722 27.341Z" fill="url(#paint16_radial_67_828)"/>
<path d="M8.70822 17.1695C8.06582 17.4372 8.12828 18.0394 8.2398 18.3071C9.02053 18.887 10.7961 20.1272 11.6527 20.4484C12.5092 20.7696 15.2215 19.6454 16.4706 19.0431C16.6045 18.7978 16.7918 18.3071 16.4706 18.3071C16.0691 18.3071 15.5338 17.1695 15.3331 17.1695C15.1323 17.1695 14.2624 16.4334 14.0616 16.4334C13.8609 16.4334 12.7233 15.6974 12.3887 15.6974C12.0542 15.6974 11.7865 15.7643 11.1842 15.6974C10.582 15.6304 10.0467 16.0989 9.91283 16.4334C9.779 16.768 9.51122 16.8349 8.70822 17.1695Z" fill="url(#paint17_linear_67_828)"/>
<path d="M11.9201 26.8055C11.7595 27.2873 12.1209 27.5416 12.3216 27.6085C13.5261 27.8762 15.9886 28.3713 16.2028 28.2107C16.4704 28.01 16.4704 27.943 16.6712 27.7423C16.8719 27.5416 17.5411 27.8761 18.6118 27.943C19.6824 28.01 19.4817 27.4077 19.6155 27.4077C19.7493 27.4077 19.9501 26.1363 20.0839 26.0025C20.2178 25.8686 20.5523 25.6679 20.6193 25.5341C20.6862 25.4002 20.5523 25.0656 20.5523 24.8649C20.5523 24.6641 20.82 24.5972 20.8869 24.4634C20.9538 24.3296 20.9538 24.0619 20.82 23.8611C20.6862 23.6604 20.82 23.4596 20.82 23.3258C20.82 23.192 20.7531 22.8574 20.6193 22.7236C20.4854 22.5897 20.5523 22.389 20.5523 22.2552C20.5523 22.1213 19.8832 21.2514 19.7493 21.2514C19.6155 21.2514 19.6155 20.9168 19.6155 20.6492C19.6155 20.3815 18.8794 19.98 18.8125 19.7124C18.7456 19.4448 18.0095 19.244 17.8088 19.1771C17.608 19.1101 17.608 18.8424 17.608 18.7756C17.608 18.7087 17.0727 18.7086 16.9389 18.7086C16.805 18.7086 16.3366 18.4409 16.0689 18.4409C15.8013 18.4409 15.3329 19.0432 15.199 19.1771C15.0652 19.311 15.199 18.8425 14.7975 18.7756C14.396 18.7086 14.396 19.244 14.2622 19.1771C14.1284 19.1101 13.5261 19.1771 13.5261 19.244C13.5261 19.3109 13.1246 19.3778 12.8569 19.3778C12.5893 19.3778 12.4555 19.5116 12.4555 19.7124C12.4555 19.9131 14.1284 22.389 14.1953 22.6567C14.2622 22.9244 12.1209 26.2033 11.9201 26.8055Z" fill="url(#paint18_radial_67_828)"/>
<path d="M12.0537 26.6048C11.8396 27.0331 12.143 27.4524 12.3214 27.6085L11.5854 31.6235L10.1802 30.9544C10.2025 31.0436 10.2203 31.222 10.1133 31.222C9.97943 31.222 7.43661 29.0138 7.23586 29.0138C7.03511 29.0138 6.63361 29.2814 6.43286 29.2145C6.23211 29.1476 6.43286 29.2145 6.36595 29.4153C6.29903 29.616 5.83061 29.4822 5.83061 29.5491C5.83061 29.616 5.7637 29.616 5.62987 29.6829C5.5228 29.7365 5.20606 29.9729 5.22837 30.1514C5.62987 30.1514 5.14807 30.2852 5.09453 30.2852C5.02762 30.2852 5.56295 30.5529 5.62987 30.7536C5.69678 30.9544 5.22833 31.0213 5.22833 31.222C5.22833 31.4228 4.82687 31.3559 4.69304 31.222C4.5592 31.0882 3.08704 31.3559 2.48479 31.4897C1.88255 31.6235 1.54796 32.4265 1.48105 32.5603C1.41413 32.6942 0.945678 32.5603 0.678051 32.3596C0.410425 32.1588 0.544219 31.6235 0.544219 31.3559C0.544219 31.0882 0.343469 31.0882 0.276514 30.8874C0.209559 30.6867 0.410386 30.4859 0.209637 30.2852C0.00888734 30.0844 0.0757649 29.5491 0.00884845 29.2145C-0.058068 28.8799 0.276514 28.0769 0.276514 27.6085C0.276514 27.1401 0.678013 27.3409 0.945678 27.3409C1.21334 27.3409 1.74867 26.2033 1.94942 26.0025C2.15017 25.8018 2.81934 25.8018 3.15392 25.8018C3.4885 25.8018 3.42159 26.0695 3.55542 26.1364C3.68925 26.2033 3.62233 25.9356 3.89 25.8687C4.15767 25.8018 4.96066 25.0657 4.96066 24.9988C4.96066 24.9319 5.16141 24.9988 5.22833 24.9988C5.29524 24.9988 5.29524 24.798 5.29524 24.6642C5.29524 24.5304 5.42908 24.5304 5.62983 24.5304C5.79043 24.5304 5.78596 23.9058 5.76366 23.5935C5.78596 23.5712 5.87073 23.4329 6.03132 23.0582C6.23207 22.5898 4.49225 21.8537 4.35842 21.7199C4.22458 21.5861 4.42533 21.4522 4.42533 21.3853C4.42533 21.3184 4.62608 21.1176 4.693 21.1176C4.75991 21.1176 4.693 20.7161 4.75991 20.7161C4.82683 20.7161 4.89375 20.7161 4.89375 20.5154C4.89375 20.3146 5.56291 19.3778 5.62983 19.244C5.69674 19.1101 5.89749 19.1771 6.03132 19.1771C6.16516 19.1771 6.16516 19.1101 6.16516 18.9763C6.16516 18.8425 6.36591 18.9094 6.56666 18.9094C6.76741 18.9094 7.1689 18.5748 7.43657 18.441C7.70424 18.3072 7.36965 18.5079 7.9719 18.3741C8.4537 18.267 8.93104 18.2402 9.10948 18.2402C9.16301 18.2938 9.48867 18.5748 9.64481 18.7086C9.91248 18.5079 9.75188 18.5347 9.91248 18.3741C10.1132 18.1733 11.2508 18.8425 12.3214 19.4447C13.1779 19.9265 13.8828 21.2069 14.1282 21.7868C14.1951 21.9206 14.3557 22.2552 14.4628 22.5229C14.5966 22.8575 12.3214 26.0695 12.0537 26.6048Z" fill="url(#paint19_radial_67_828)"/>
<path d="M7.63729 29.0806C8.06555 29.2412 9.55556 30.6643 10.247 31.3558C10.3363 31.3112 10.5415 31.222 10.6486 31.222C10.7824 31.222 12.3215 32.828 12.2546 32.8949C12.1877 32.9618 12.1208 33.1625 12.0539 33.3633C11.9869 33.564 12.1877 33.9655 12.3884 34.2332C12.5892 34.5009 12.5892 35.0362 12.5892 35.17C12.5892 35.3039 12.6561 35.7054 12.723 35.973C12.7899 36.2407 12.6561 35.8392 12.5223 36.4414C12.3884 37.0437 11.8531 36.776 11.6524 37.1106C11.4516 37.4452 10.9832 36.9768 10.8494 36.4414C10.7155 35.9061 10.247 36.4414 10.0464 36.4414C9.8457 36.4414 9.7787 36.0399 9.57795 35.8392C9.3772 35.6384 7.90504 35.7054 7.90504 35.5715C7.90504 35.4377 7.50354 35.3708 6.96821 35.237C6.43288 35.1031 6.23213 35.1031 6.03138 35.0362C5.83063 34.9693 6.23213 34.3001 6.63354 33.8317C7.03496 33.3633 6.36596 33.2964 6.49979 33.0287C6.63362 32.761 6.63354 32.2926 6.76746 31.958C6.90137 31.6235 6.49979 31.7573 6.09817 31.7573C5.69655 31.7573 5.16146 31.222 5.22826 31.0212C5.29505 30.8205 5.09442 30.4859 5.02751 30.3521C4.96059 30.2182 5.16134 30.2851 5.22826 30.0844C5.29517 29.8836 5.22826 29.6829 5.22826 29.5491C5.22826 29.4152 5.429 29.4821 5.62975 29.4821C5.8305 29.4821 5.96434 28.6122 6.09817 28.4784C6.232 28.3445 6.63354 28.6122 6.63354 28.6791C6.63354 28.746 6.56663 28.8129 7.63729 29.0806Z" fill="url(#paint20_radial_67_828)"/>
<path d="M12.1208 27.8092L12.3215 27.6753C12.3438 27.6307 12.4152 27.5415 12.5223 27.5415C12.6293 27.5415 12.6115 27.4969 12.5892 27.4746H12.8568C12.9639 27.4746 12.9461 27.3853 12.9237 27.3407H13.1245C13.2316 27.3407 13.3029 27.2961 13.3252 27.2738L13.4591 27.4077L13.526 27.2738H13.7937C13.8606 27.2738 13.8606 27.4746 13.9944 27.4077C14.1015 27.3541 14.2175 27.3853 14.2621 27.4077V27.5415H14.4628C14.4851 27.4746 14.5297 27.3274 14.5297 27.2738C14.5297 27.2069 14.7974 27.2069 14.7974 27.2738C14.7974 27.3407 14.8643 27.4746 14.9312 27.5415C14.9848 27.595 15.0874 27.4746 15.132 27.4077H15.3327C15.3863 27.4077 15.3997 27.6307 15.3997 27.7422H15.6004L15.8012 27.8092L15.935 28.0099C16.0688 27.9653 16.3365 27.8895 16.3365 27.943V28.3445C16.4034 28.3445 16.5372 28.3712 16.5372 28.4783V28.6791L16.6711 28.746V28.9467C16.6711 29.0003 16.7603 28.969 16.8049 28.9467L16.8718 29.1475C16.8272 29.2144 16.7246 29.3616 16.6711 29.4151C16.6175 29.4687 16.738 29.5267 16.8049 29.549V29.8166C16.8049 29.8702 16.8941 29.9282 16.9387 29.9505C17.0057 29.9951 17.1529 30.0977 17.2064 30.1512C17.2599 30.2048 17.2287 30.4412 17.2064 30.5527C17.1618 30.6196 17.0726 30.7669 17.0726 30.8204C17.0726 30.8739 17.1618 30.9765 17.2064 31.0211L17.0726 31.155C17.0503 31.2442 16.9655 31.4226 16.8049 31.4226C16.6443 31.4226 16.4257 31.6903 16.3365 31.8241C16.4034 31.8687 16.5372 31.9847 16.5372 32.0918C16.5372 32.1989 16.3142 32.3149 16.2027 32.3595C16.225 32.4487 16.2562 32.6271 16.2027 32.6271H15.935L15.8012 32.761C15.7342 32.8056 15.6004 32.9216 15.6004 33.0286C15.6004 33.1357 15.422 33.0732 15.3327 33.0286V33.1625C15.2881 33.2294 15.1855 33.3766 15.132 33.4301C15.0785 33.4837 15.1097 33.8093 15.132 33.9655L14.8643 33.7647C14.842 33.8093 14.7974 33.9253 14.7974 34.0324C14.7974 34.1394 14.5744 33.9878 14.4628 33.8985L14.2621 34.0993C14.2175 33.9878 14.1282 33.7781 14.1282 33.8316C14.1282 33.8985 13.9944 34.1662 13.8606 34.1662C13.7267 34.1662 13.7937 34.0324 13.7267 33.8985C13.6732 33.7915 13.5706 33.9878 13.526 34.0993C13.4591 34.0547 13.2985 33.9521 13.1914 33.8985C13.0576 33.8316 13.0576 33.7647 12.9907 33.6978C12.9237 33.6309 12.7899 33.6978 12.6561 33.6978C12.5223 33.6978 12.6561 33.564 12.6561 33.4301C12.6561 33.3231 12.5669 33.2517 12.5223 33.2294L12.2546 33.1625L12.0538 32.8948C12.0315 32.8502 11.9066 32.761 11.5854 32.761C11.1839 32.761 11.1839 32.3595 11.1839 32.2926C11.1839 32.2256 11.1839 32.0918 11.0501 32.1587C10.9163 32.2256 10.8493 31.958 10.7155 31.8911C10.6084 31.8375 10.6263 31.5565 10.6486 31.4226C10.4925 31.378 10.1802 31.2353 10.1802 31.0211C10.1802 30.807 10.4925 30.7535 10.6486 30.7535C10.5371 30.6643 10.3006 30.459 10.2471 30.352C10.1802 30.2181 10.4478 30.2181 10.4478 30.0843C10.4478 29.9772 10.2694 29.9059 10.1802 29.8836L10.4478 29.7497L10.2471 29.549C10.1802 29.4821 10.314 29.4151 10.2471 29.2813C10.1936 29.1742 10.4925 29.1475 10.6486 29.1475C10.5371 29.0806 10.314 28.9333 10.314 28.8798C10.314 28.8129 10.5148 28.746 10.6486 28.6121C10.7557 28.5051 10.8716 28.6568 10.9163 28.746C10.9163 28.6345 10.9029 28.3846 10.8493 28.2776C10.7958 28.1705 11.0501 28.233 11.1839 28.2776V28.0768H11.5854H11.7862C11.8531 28.0545 11.9735 27.9965 11.92 27.943C11.8665 27.8895 12.0315 27.8315 12.1208 27.8092Z" fill="url(#paint21_radial_67_828)"/>
</g>
<g opacity="0.86">
<path d="M25.1063 4.24803C25.2196 4.02147 26.0031 3.68164 26.3807 3.54004C27.0888 3.54004 29.0709 8.49595 29.0709 9.62873C29.0709 10.7615 24.823 10.6199 24.2567 10.6199C23.6904 10.6199 22.8407 10.3367 22.4158 10.3367C21.9909 10.3367 22.2744 9.06234 22.1328 9.06234C21.9912 9.06234 22.416 7.78796 22.8407 7.78796C23.2655 7.78796 22.9823 6.79678 23.1239 6.51359C23.2655 6.23039 23.9735 6.37199 24.2567 6.08879C24.5399 5.8056 24.9647 4.53122 25.1063 4.24803Z" fill="url(#paint22_radial_67_828)"/>
<path d="M25.9189 14.6444H26.5824C27.3343 15.005 28.9312 15.8917 29.3027 16.5536C29.7671 17.3809 29.8335 19.1629 29.8335 19.5447C29.8335 19.9266 28.9046 20.9448 28.5066 21.1357C28.1085 21.3267 27.5777 21.0085 27.1796 20.7539C26.7815 20.4993 26.3834 19.9902 25.919 19.672C25.5475 19.4174 25.4546 19.4811 25.4546 19.5447C25.3219 19.4174 24.9769 19.1629 24.6583 19.1629C24.2601 19.1629 23.6632 18.972 23.2651 18.7174C22.8671 18.4628 22.8006 17.8264 22.3363 17.8264C21.872 17.8264 22.3363 17.3173 22.0709 17.1264C21.8055 16.9355 22.1372 16.8082 22.3363 16.5536C22.5353 16.299 21.8717 16.299 21.6727 16.0445C21.4737 15.7899 22.4025 16.0445 22.8006 15.4081C23.1987 14.7717 23.7294 14.9626 24.6583 14.6444C25.5872 14.3261 25.4545 14.6444 25.9189 14.6444Z" fill="url(#paint23_radial_67_828)"/>
<path d="M26.3157 16.4894C26.3157 16.0312 26.9792 15.4075 27.3109 15.1529C29.6332 14.4529 36.2013 20.5624 36.2677 21.3261C36.334 22.0898 36.2677 23.0444 36.2677 23.108C36.2677 23.1717 35.2725 24.3172 35.0734 24.5081C34.8744 24.699 33.8128 25.1445 33.7465 25.1445C33.6801 25.1445 33.3484 25.1445 32.9503 25.3991C30.9599 25.59 31.2916 23.9354 31.2916 23.4899C31.2916 23.0444 30.8272 23.5535 30.2301 23.6808C29.633 23.8081 29.5003 22.9807 29.4339 22.6625C29.3676 22.3443 29.2349 22.7262 28.9695 22.5989C28.7041 22.4716 28.9031 22.2807 28.9695 21.8988C29.0358 21.517 28.6378 21.4534 28.5051 21.3261C28.3724 21.1988 28.3724 20.6897 28.107 20.626C27.8416 20.5624 27.1781 19.5441 26.9791 19.5441C26.78 19.5441 26.6473 19.2896 26.4483 18.9077C26.3092 18.6408 26.5313 18.3869 26.7077 18.2563C26.6412 18.2137 26.521 18.0644 26.3157 17.6986C25.8513 17.5076 26.3157 17.0621 26.3157 16.4894Z" fill="url(#paint24_radial_67_828)"/>
<path d="M32.885 18.1431C33.4158 17.8885 33.9465 17.3157 34.1456 17.0612C34.5658 16.849 35.4063 16.5139 35.4063 16.8703C35.4063 17.3157 36.0697 17.5067 36.7995 17.6976C37.5294 17.8885 38.5246 17.8249 38.9226 17.8885C39.3207 17.9522 40.4486 18.9068 40.8467 19.7341C41.2448 20.5614 40.1832 21.0706 40.1832 21.516C40.1832 21.9615 38.5909 22.4707 37.5957 22.9798C36.6005 23.4889 36.6668 22.4707 36.0697 22.5979C35.4726 22.7252 34.411 22.3434 33.4822 22.4707C32.5533 22.5979 32.6197 21.516 32.6197 21.2615C32.6197 21.0069 32.0225 21.4524 31.558 21.516C31.0936 21.5797 31.16 20.2432 31.16 19.7341C31.16 19.225 32.2215 18.4613 32.885 18.1431Z" fill="url(#paint25_radial_67_828)"/>
<path d="M37.861 16.0441C37.4364 16.2477 37.0206 15.9592 36.8658 15.7895L35.5389 16.9986C35.6495 17.1683 36.0166 17.5587 36.6004 17.7623C37.3302 18.0169 38.4581 18.0169 38.9226 18.0169C39.387 18.0169 39.1216 18.9715 39.2543 19.4806C39.387 19.9897 40.5813 20.3079 41.2447 20.3079C41.9082 20.3079 41.6428 19.417 42.1072 19.4806C42.5717 19.5443 42.5053 18.7169 42.7707 18.7169C42.983 18.7169 43.213 18.2502 43.3015 18.0169C43.3015 17.8896 43.3546 17.6096 43.5669 17.5077C43.8323 17.3805 43.8323 16.9986 43.7659 16.4259C43.6996 15.8531 42.9697 15.7895 42.7707 15.5349C42.5717 15.2803 41.3111 14.8985 40.3159 14.7076C39.3207 14.5167 39.6524 15.1531 39.2543 15.1531C38.8562 15.1531 38.3918 15.7895 37.861 16.0441Z" fill="url(#paint26_radial_67_828)"/>
<path d="M37.7278 11.08C37.197 11.2836 37.2413 11.8013 37.3297 12.0346C37.1749 13.1165 36.9185 15.4076 37.1308 15.9167C37.3962 16.5531 38.0596 15.7258 38.5904 15.7258C39.1212 15.7258 39.7183 14.8984 40.1164 14.7712C40.5145 14.6439 41.1116 15.0257 42.1732 15.2803C43.2347 15.5349 43.3011 16.744 43.8982 16.744C44.4953 16.744 44.827 16.1076 45.0261 15.7258C45.2251 15.3439 45.8886 14.262 46.0876 13.7529C46.2867 13.2438 46.4857 13.2438 46.4857 12.9892C46.4857 12.7347 46.2867 12.4801 46.4857 12.0346C46.6848 11.5891 46.0876 11.3982 46.0876 11.08C46.0876 10.7618 45.6896 10.5709 45.4242 9.93446C45.4242 9.55262 45.0261 9.48897 44.628 8.85257C44.2299 8.21616 42.903 7.70703 42.5712 7.70703H41.377C40.9789 7.70703 40.3818 9.23441 40.3818 9.6799C40.3818 10.1254 38.3913 10.8254 37.7278 11.08Z" fill="url(#paint27_radial_67_828)"/>
<path d="M29.634 1.40623C28.9971 1.66079 29.059 2.23356 29.1696 2.48812C29.9437 3.03966 31.7042 4.21911 32.5534 4.52459C33.4027 4.83007 36.0919 3.7609 37.3304 3.18813C37.4631 2.9548 37.6489 2.48812 37.3304 2.48812C36.9323 2.48812 36.4016 1.40623 36.2025 1.40623C36.0035 1.40623 35.141 0.706181 34.9419 0.706181C34.7429 0.706181 33.615 0.00613159 33.2833 0.00613159C32.9515 0.00613159 32.6861 0.0697724 32.089 0.00613159C31.4919 -0.0575093 30.9611 0.387977 30.8284 0.706181C30.6957 1.02439 30.4302 1.08803 29.634 1.40623Z" fill="url(#paint28_linear_67_828)"/>
<path d="M32.8188 10.5709C32.6596 11.0291 33.0178 11.2709 33.2169 11.3346C34.4111 11.5891 36.8527 12.06 37.065 11.9073C37.3304 11.7164 37.3304 11.6527 37.5294 11.4618C37.7284 11.2709 38.3919 11.5891 39.4535 11.6527C40.515 11.7164 40.316 11.1436 40.4487 11.1436C40.5814 11.1436 40.7804 9.93442 40.9131 9.80714C41.0458 9.67986 41.3775 9.48893 41.4439 9.36165C41.5102 9.23437 41.3775 8.91617 41.3775 8.72524C41.3775 8.53432 41.6429 8.47068 41.7093 8.3434C41.7756 8.21612 41.7756 7.96155 41.6429 7.77063C41.5102 7.57971 41.6429 7.38879 41.6429 7.2615C41.6429 7.13422 41.5766 6.81602 41.4439 6.68874C41.3112 6.56145 41.3775 6.37053 41.3775 6.24325C41.3775 6.11597 40.7141 5.28864 40.5814 5.28864C40.4487 5.28864 40.4487 4.97043 40.4487 4.71587C40.4487 4.46131 39.7189 4.07946 39.6525 3.82496C39.5862 3.57045 38.8563 3.37947 38.6573 3.31583C38.4583 3.25219 38.4583 2.99757 38.4583 2.93398C38.4583 2.87038 37.9275 2.87029 37.7948 2.87029C37.6621 2.87029 37.1977 2.61572 36.9323 2.61572C36.6669 2.61572 36.2025 3.18849 36.0698 3.31583C35.9371 3.44317 36.0698 2.99762 35.6717 2.93398C35.2736 2.87034 35.2736 3.37947 35.1409 3.31583C35.0082 3.25219 34.4111 3.31583 34.4111 3.37947C34.4111 3.44311 34.013 3.50675 33.7476 3.50675C33.4822 3.50675 33.3495 3.63403 33.3495 3.82496C33.3495 4.01588 35.0082 6.37059 35.0746 6.62515C35.1409 6.87972 33.0178 9.99812 32.8188 10.5709Z" fill="url(#paint29_radial_67_828)"/>
<path d="M32.9512 10.3794C32.7389 10.7867 33.0397 11.1855 33.2166 11.334L32.4869 15.1525L31.0936 14.5161C31.1157 14.6009 31.1334 14.7706 31.0273 14.7706C30.8946 14.7706 28.3734 12.6705 28.1743 12.6705C27.9753 12.6705 27.5772 12.9251 27.3782 12.8614C27.1791 12.7978 27.3782 12.8614 27.3118 13.0523C27.2455 13.2433 26.7811 13.116 26.7811 13.1796C26.7811 13.2433 26.7147 13.2433 26.582 13.3069C26.4759 13.3578 26.1618 13.5827 26.1839 13.7524C26.582 13.7524 26.1043 13.8797 26.0512 13.8797C25.9849 13.8797 26.5157 14.1342 26.582 14.3252C26.6484 14.5161 26.1839 14.5797 26.1839 14.7706C26.1839 14.9616 25.7859 14.8979 25.6532 14.7706C25.5205 14.6434 24.0608 14.8979 23.4637 15.0252C22.8666 15.1525 22.5349 15.9162 22.4685 16.0435C22.4022 16.1707 21.9377 16.0435 21.6723 15.8525C21.407 15.6616 21.5396 15.1525 21.5396 14.8979C21.5396 14.6434 21.3406 14.6434 21.2742 14.4524C21.2078 14.2615 21.407 14.0706 21.2079 13.8797C21.0089 13.6887 21.0752 13.1796 21.0088 12.8614C20.9425 12.5432 21.2742 11.7795 21.2742 11.334C21.2742 10.8886 21.6723 11.0795 21.9377 11.0795C22.2031 11.0795 22.7339 9.99758 22.9329 9.80665C23.1319 9.61573 23.7954 9.61573 24.1271 9.61573C24.4589 9.61573 24.3925 9.87029 24.5252 9.93393C24.6579 9.99758 24.5916 9.74301 24.857 9.67937C25.1223 9.61573 25.9185 8.91568 25.9185 8.85204C25.9185 8.7884 26.1176 8.85204 26.1839 8.85204C26.2502 8.85204 26.2502 8.66112 26.2502 8.53384C26.2502 8.40655 26.3829 8.40655 26.582 8.40655C26.7412 8.40655 26.7368 7.81257 26.7147 7.51558C26.7368 7.49437 26.8208 7.36284 26.9801 7.00646C27.1791 6.56097 25.4541 5.86092 25.3214 5.73364C25.1887 5.60636 25.3877 5.47908 25.3877 5.41544C25.3877 5.35179 25.5868 5.16087 25.6531 5.16087C25.7195 5.16087 25.6531 4.77903 25.7195 4.77903C25.7858 4.77903 25.8522 4.77903 25.8522 4.5881C25.8522 4.39718 26.5156 3.50621 26.582 3.37893C26.6483 3.25165 26.8474 3.31529 26.9801 3.31529C27.1128 3.31529 27.1128 3.25165 27.1128 3.12437C27.1128 2.99708 27.3118 3.06072 27.5108 3.06072C27.7099 3.06072 28.108 2.74252 28.3734 2.61524C28.6387 2.48796 28.307 2.67888 28.9041 2.5516C29.3818 2.44978 29.8551 2.42432 30.032 2.42432C30.0851 2.47523 30.408 2.74252 30.5628 2.8698C30.8282 2.67888 30.669 2.70434 30.8282 2.5516C31.0272 2.36068 32.1551 2.99709 33.2166 3.56986C34.0658 4.02807 34.7647 5.24573 35.008 5.79728C35.0744 5.92457 35.2336 6.24277 35.3398 6.49733C35.4725 6.81554 33.2166 9.8703 32.9512 10.3794Z" fill="url(#paint30_radial_67_828)"/>
<path d="M28.5721 12.7344C28.9967 12.8871 30.4741 14.2405 31.1597 14.8982C31.2481 14.8558 31.4517 14.7709 31.5578 14.7709C31.6905 14.7709 33.2165 16.2983 33.1501 16.3619C33.0838 16.4256 33.0175 16.6165 32.9511 16.8074C32.8848 16.9983 33.0838 17.3802 33.2828 17.6348C33.4819 17.8893 33.4819 18.3984 33.4819 18.5257C33.4819 18.653 33.5482 19.0349 33.6146 19.2894C33.6809 19.544 33.5482 19.1621 33.4155 19.7349C33.2828 20.3077 32.7521 20.0531 32.553 20.3713C32.354 20.6895 31.8896 20.244 31.7569 19.7349C31.6242 19.2258 31.1597 19.7349 30.9607 19.7349C30.7617 19.7349 30.6953 19.3531 30.4963 19.1621C30.2972 18.9712 28.8376 19.0349 28.8376 18.9076C28.8376 18.7803 28.4395 18.7166 27.9087 18.5894C27.378 18.4621 27.1789 18.4621 26.9799 18.3984C26.7808 18.3348 27.1789 17.6984 27.5769 17.2529C27.9749 16.8074 27.3116 16.7438 27.4443 16.4892C27.577 16.2347 27.5769 15.7892 27.7097 15.471C27.8425 15.1528 27.4443 15.28 27.0461 15.28C26.6479 15.28 26.1174 14.7709 26.1836 14.58C26.2498 14.3891 26.0509 14.0709 25.9845 13.9436C25.9182 13.8163 26.1172 13.8799 26.1836 13.689C26.2499 13.4981 26.1836 13.3072 26.1836 13.1799C26.1836 13.0526 26.3826 13.1163 26.5817 13.1163C26.7807 13.1163 26.9134 12.2889 27.0461 12.1616C27.1788 12.0343 27.5769 12.2889 27.5769 12.3525C27.5769 12.4162 27.5106 12.4798 28.5721 12.7344Z" fill="url(#paint31_radial_67_828)"/>
<path d="M33.0178 11.5256L33.2169 11.3983C33.239 11.3559 33.3097 11.271 33.4159 11.271C33.5221 11.271 33.5044 11.2286 33.4822 11.2074H33.7476C33.8538 11.2074 33.8361 11.1225 33.814 11.0801H34.013C34.1192 11.0801 34.1899 11.0377 34.2121 11.0165L34.3448 11.1438L34.4111 11.0165H34.6765C34.7428 11.0165 34.7428 11.2074 34.8755 11.1438C34.9817 11.0928 35.0967 11.1225 35.1409 11.1438V11.271H35.34C35.3621 11.2074 35.4063 11.0674 35.4063 11.0165C35.4063 10.9528 35.6717 10.9528 35.6717 11.0165C35.6717 11.0801 35.738 11.2074 35.8044 11.271C35.8575 11.322 35.9592 11.2074 36.0034 11.1438H36.2025C36.2555 11.1438 36.2688 11.3559 36.2688 11.462H36.4679L36.6669 11.5256L36.7996 11.7165C36.9323 11.6741 37.1977 11.602 37.1977 11.6529V12.0347C37.264 12.0347 37.3967 12.0602 37.3967 12.162V12.3529L37.5294 12.4166V12.6075C37.5294 12.6584 37.6179 12.6287 37.6621 12.6075L37.7284 12.7984C37.6842 12.8621 37.5825 13.0021 37.5294 13.053C37.4763 13.1039 37.5958 13.1591 37.6621 13.1803V13.4348C37.6621 13.4857 37.7506 13.5409 37.7948 13.5621C37.8611 13.6045 38.0071 13.7021 38.0602 13.753C38.1133 13.8039 38.0823 14.0288 38.0602 14.1349C38.016 14.1985 37.9275 14.3385 37.9275 14.3894C37.9275 14.4404 38.016 14.5379 38.0602 14.5804L37.9275 14.7076C37.9054 14.7925 37.8213 14.9622 37.6621 14.9622C37.5029 14.9622 37.2861 15.2168 37.1977 15.3441C37.264 15.3865 37.3967 15.4968 37.3967 15.5986C37.3967 15.7004 37.1756 15.8108 37.065 15.8532C37.0871 15.938 37.1181 16.1077 37.065 16.1077H36.7996L36.6669 16.235C36.6006 16.2775 36.4679 16.3878 36.4679 16.4896C36.4679 16.5914 36.2909 16.532 36.2025 16.4896V16.6169C36.1582 16.6805 36.0565 16.8205 36.0034 16.8714C35.9504 16.9224 35.9813 17.2321 36.0034 17.3806L35.738 17.1896C35.7159 17.2321 35.6717 17.3424 35.6717 17.4442C35.6717 17.546 35.4505 17.4018 35.34 17.3169L35.1409 17.5078C35.0967 17.4018 35.0082 17.2024 35.0082 17.2533C35.0082 17.3169 34.8755 17.5715 34.7428 17.5715C34.6101 17.5715 34.6765 17.4442 34.6101 17.3169C34.5571 17.2151 34.4553 17.4018 34.4111 17.5078C34.3448 17.4654 34.1855 17.3678 34.0794 17.3169C33.9467 17.2533 33.9467 17.1896 33.8803 17.126C33.814 17.0624 33.6813 17.126 33.5486 17.126C33.4159 17.126 33.5486 16.9987 33.5486 16.8714C33.5486 16.7696 33.4601 16.7017 33.4159 16.6805L33.1505 16.6169L32.9515 16.3623C32.9294 16.3199 32.8055 16.235 32.487 16.235C32.089 16.235 32.089 15.8532 32.089 15.7895C32.089 15.7259 32.089 15.5986 31.9563 15.6623C31.8236 15.7259 31.7572 15.4713 31.6245 15.4077C31.5184 15.3568 31.5361 15.0895 31.5582 14.9622C31.4034 14.9198 31.0938 14.784 31.0938 14.5804C31.0938 14.3767 31.4034 14.3258 31.5582 14.3258C31.4476 14.2409 31.2132 14.0458 31.1601 13.944C31.0938 13.8167 31.3591 13.8167 31.3591 13.6894C31.3591 13.5876 31.1822 13.5197 31.0938 13.4985L31.3591 13.3712L31.1601 13.1803C31.0938 13.1166 31.2264 13.053 31.1601 12.9257C31.107 12.8239 31.4034 12.7984 31.5582 12.7984C31.4476 12.7348 31.2264 12.5948 31.2264 12.5439C31.2264 12.4802 31.4255 12.4166 31.5582 12.2893C31.6643 12.1875 31.7793 12.3317 31.8236 12.4166C31.8236 12.3105 31.8103 12.0729 31.7572 11.9711C31.7041 11.8693 31.9563 11.9287 32.089 11.9711V11.7802H32.487H32.6861C32.7524 11.759 32.8718 11.7038 32.8188 11.6529C32.7657 11.602 32.9294 11.5468 33.0178 11.5256Z" fill="url(#paint32_radial_67_828)"/>
</g>
<defs>
<radialGradient id="paint0_radial_67_828" cx="0" cy="0" r="1" gradientUnits="userSpaceOnUse" gradientTransform="translate(31.5764 49.5323) rotate(-148.65) scale(14.4249 18.449)">
<stop stop-color="#B1949A"/>
<stop offset="0.182692" stop-color="#BEAAAA"/>
<stop offset="0.384935" stop-color="#DCC7C8"/>
<stop offset="0.572907" stop-color="#D7C2C3"/>
<stop offset="0.74734" stop-color="#E4DAE2"/>
<stop offset="0.975962" stop-color="#F5F1F4"/>
</radialGradient>
<radialGradient id="paint1_radial_67_828" cx="0" cy="0" r="1" gradientUnits="userSpaceOnUse" gradientTransform="translate(29.6731 57.4266) rotate(146.842) scale(11.2404 13.1947)">
<stop stop-color="#BDAEB5"/>
<stop offset="0.120192" stop-color="#BDB0B7"/>
<stop offset="0.269231" stop-color="#CBC1C7"/>
<stop offset="0.475275" stop-color="#E0C5C5"/>
<stop offset="0.889423" stop-color="#EEE7EE"/>
<stop offset="0.889523" stop-color="#EEE7EE"/>
</radialGradient>
<radialGradient id="paint2_radial_67_828" cx="0" cy="0" r="1" gradientUnits="userSpaceOnUse" gradientTransform="translate(38.33 61.9427) rotate(119.667) scale(11.4072 10.8047)">
<stop stop-color="#CBB7B6"/>
<stop offset="0.302885" stop-color="#D2C3C0"/>
<stop offset="0.639423" stop-color="#D5CBCC"/>
<stop offset="0.908654" stop-color="#F0E7E8"/>
</radialGradient>
<radialGradient id="paint3_radial_67_828" cx="0" cy="0" r="1" gradientUnits="userSpaceOnUse" gradientTransform="translate(40.966 59.8099) rotate(73.2016) scale(13.8924 20.3318)">
<stop stop-color="#4A4A3E"/>
<stop offset="0.119304" stop-color="#654F42"/>
<stop offset="0.190995" stop-color="#916E74"/>
<stop offset="0.247977" stop-color="#B7A0AA"/>
<stop offset="0.40314" stop-color="#F6ECF1"/>
<stop offset="0.754808" stop-color="#F0EFED"/>
</radialGradient>
<radialGradient id="paint4_radial_67_828" cx="0" cy="0" r="1" gradientUnits="userSpaceOnUse" gradientTransform="translate(43.2243 58.3039) rotate(24.9547) scale(13.9771 19.658)">
<stop stop-color="#524B2F"/>
<stop offset="0.0623057" stop-color="#635139"/>
<stop offset="0.126676" stop-color="#705647"/>
<stop offset="0.174584" stop-color="#916D6F"/>
<stop offset="0.276885" stop-color="#BFA6A9"/>
<stop offset="0.335981" stop-color="#D5BAC1"/>
<stop offset="0.788462" stop-color="#FAF9F7"/>
</radialGradient>
<radialGradient id="paint5_radial_67_828" cx="0" cy="0" r="1" gradientUnits="userSpaceOnUse" gradientTransform="translate(43.3502 54.54) rotate(-10.7327) scale(19.5383 19.6523)">
<stop offset="0.0752693" stop-color="#5C5441"/>
<stop offset="0.156192" stop-color="#896C5E"/>
<stop offset="0.247879" stop-color="#A38388"/>
<stop offset="0.32168" stop-color="#B59FA2"/>
<stop offset="0.599246" stop-color="#E8E3E0"/>
<stop offset="0.884615" stop-color="#F3F4F8"/>
</radialGradient>
<linearGradient id="paint6_linear_67_828" x1="37.3276" y1="36.222" x2="37.4531" y2="27.4392" gradientUnits="userSpaceOnUse">
<stop stop-color="#E0D8D5"/>
<stop offset="0.302885" stop-color="#DBD1D0"/>
<stop offset="0.788462" stop-color="#F0EFEC"/>
</linearGradient>
<radialGradient id="paint7_radial_67_828" cx="0" cy="0" r="1" gradientUnits="userSpaceOnUse" gradientTransform="translate(40.7147 51.78) rotate(-68.3978) scale(20.1069 18.5675)">
<stop stop-color="#585542"/>
<stop offset="0.0384615" stop-color="#645943"/>
<stop offset="0.0961538" stop-color="#816649"/>
<stop offset="0.139423" stop-color="#896356"/>
<stop offset="0.192308" stop-color="#A47C72"/>
<stop offset="0.298077" stop-color="#CEA6A6"/>
<stop offset="0.427885" stop-color="#D9BDBC"/>
<stop offset="0.653846" stop-color="#E3D3D3"/>
<stop offset="0.903846" stop-color="#EDEEE8"/>
</radialGradient>
<radialGradient id="paint8_radial_67_828" cx="0" cy="0" r="1" gradientUnits="userSpaceOnUse" gradientTransform="translate(36.8251 53.0351) rotate(-155.27) scale(19.1047 19.2303)">
<stop offset="0.0416334" stop-color="#5E5F57"/>
<stop offset="0.0950181" stop-color="#474538"/>
<stop offset="0.17741" stop-color="#785B5D"/>
<stop offset="0.259138" stop-color="#A38189"/>
<stop offset="0.56423" stop-color="#D5C7C6"/>
<stop offset="0.706731" stop-color="#E0D8D5"/>
<stop offset="0.875" stop-color="#F0E3E1"/>
<stop offset="1" stop-color="#ECE6E6"/>
</radialGradient>
<radialGradient id="paint9_radial_67_828" cx="0" cy="0" r="1" gradientUnits="userSpaceOnUse" gradientTransform="translate(36.4487 57.1753) rotate(147.619) scale(12.1826 10.7193)">
<stop stop-color="#343628"/>
<stop offset="0.129808" stop-color="#635437"/>
<stop offset="0.307692" stop-color="#95757A"/>
<stop offset="0.447115" stop-color="#B5A5A8"/>
<stop offset="0.807692" stop-color="#FBF0EE"/>
</radialGradient>
<radialGradient id="paint10_radial_67_828" cx="0" cy="0" r="1" gradientUnits="userSpaceOnUse" gradientTransform="translate(40.3383 55.5437) rotate(128.234) scale(5.27112 4.29437)">
<stop stop-color="#2B395E"/>
<stop offset="1" stop-color="#070E21"/>
</radialGradient>
<radialGradient id="paint11_radial_67_828" cx="0" cy="0" r="1" gradientTransform="matrix(-6.59669 -4.08157 5.13975 -8.569 9.7358 27.6674)" gradientUnits="userSpaceOnUse">
<stop stop-color="#B1949A"/>
<stop offset="0.182692" stop-color="#BEAAAA"/>
<stop offset="0.384935" stop-color="#DCC7C8"/>
<stop offset="0.572907" stop-color="#D7C2C3"/>
<stop offset="0.74734" stop-color="#E4DAE2"/>
<stop offset="0.975962" stop-color="#F5F1F4"/>
</radialGradient>
<radialGradient id="paint12_radial_67_828" cx="0" cy="0" r="1" gradientUnits="userSpaceOnUse" gradientTransform="translate(7.97194 31.7573) rotate(146.842) scale(5.9949 7.03723)">
<stop stop-color="#BDAEB5"/>
<stop offset="0.120192" stop-color="#BDB0B7"/>
<stop offset="0.269231" stop-color="#CBC1C7"/>
<stop offset="0.475275" stop-color="#E0C5C5"/>
<stop offset="0.889423" stop-color="#EEE7EE"/>
<stop offset="0.889523" stop-color="#EEE7EE"/>
</radialGradient>
<radialGradient id="paint13_radial_67_828" cx="0" cy="0" r="1" gradientUnits="userSpaceOnUse" gradientTransform="translate(12.5889 34.166) rotate(119.667) scale(6.08387 5.76256)">
<stop stop-color="#CBB7B6"/>
<stop offset="0.302885" stop-color="#D2C3C0"/>
<stop offset="0.639423" stop-color="#D5CBCC"/>
<stop offset="0.908654" stop-color="#F0E7E8"/>
</radialGradient>
<radialGradient id="paint14_radial_67_828" cx="0" cy="0" r="1" gradientUnits="userSpaceOnUse" gradientTransform="translate(13.9945 33.0285) rotate(73.2016) scale(7.40931 10.8437)">
<stop stop-color="#4A4A3E"/>
<stop offset="0.119304" stop-color="#654F42"/>
<stop offset="0.190995" stop-color="#916E74"/>
<stop offset="0.247977" stop-color="#B7A0AA"/>
<stop offset="0.40314" stop-color="#F6ECF1"/>
<stop offset="0.754808" stop-color="#F0EFED"/>
</radialGradient>
<radialGradient id="paint15_radial_67_828" cx="0" cy="0" r="1" gradientUnits="userSpaceOnUse" gradientTransform="translate(15.1991 32.2254) rotate(24.9547) scale(7.4545 10.4843)">
<stop stop-color="#524B2F"/>
<stop offset="0.0623057" stop-color="#635139"/>
<stop offset="0.126676" stop-color="#705647"/>
<stop offset="0.174584" stop-color="#916D6F"/>
<stop offset="0.276885" stop-color="#BFA6A9"/>
<stop offset="0.335981" stop-color="#D5BAC1"/>
<stop offset="0.788462" stop-color="#FAF9F7"/>
</radialGradient>
<radialGradient id="paint16_radial_67_828" cx="0" cy="0" r="1" gradientUnits="userSpaceOnUse" gradientTransform="translate(15.2663 30.2184) rotate(-10.7327) scale(10.4205 10.4813)">
<stop offset="0.0752693" stop-color="#5C5441"/>
<stop offset="0.156192" stop-color="#896C5E"/>
<stop offset="0.247879" stop-color="#A38388"/>
<stop offset="0.32168" stop-color="#B59FA2"/>
<stop offset="0.599246" stop-color="#E8E3E0"/>
<stop offset="0.884615" stop-color="#F3F4F8"/>
</radialGradient>
<linearGradient id="paint17_linear_67_828" x1="12.0542" y1="20.4484" x2="12.1211" y2="15.7642" gradientUnits="userSpaceOnUse">
<stop stop-color="#E0D8D5"/>
<stop offset="0.302885" stop-color="#DBD1D0"/>
<stop offset="0.788462" stop-color="#F0EFEC"/>
</linearGradient>
<radialGradient id="paint18_radial_67_828" cx="0" cy="0" r="1" gradientUnits="userSpaceOnUse" gradientTransform="translate(13.8607 28.746) rotate(-68.3978) scale(10.7238 9.90271)">
<stop stop-color="#585542"/>
<stop offset="0.0384615" stop-color="#645943"/>
<stop offset="0.0961538" stop-color="#816649"/>
<stop offset="0.139423" stop-color="#896356"/>
<stop offset="0.192308" stop-color="#A47C72"/>
<stop offset="0.298077" stop-color="#CEA6A6"/>
<stop offset="0.427885" stop-color="#D9BDBC"/>
<stop offset="0.653846" stop-color="#E3D3D3"/>
<stop offset="0.903846" stop-color="#EDEEE8"/>
</radialGradient>
<radialGradient id="paint19_radial_67_828" cx="0" cy="0" r="1" gradientUnits="userSpaceOnUse" gradientTransform="translate(11.7862 29.4153) rotate(-155.27) scale(10.1893 10.2562)">
<stop offset="0.0416334" stop-color="#5E5F57"/>
<stop offset="0.0950181" stop-color="#474538"/>
<stop offset="0.17741" stop-color="#785B5D"/>
<stop offset="0.259138" stop-color="#A38189"/>
<stop offset="0.56423" stop-color="#D5C7C6"/>
<stop offset="0.706731" stop-color="#E0D8D5"/>
<stop offset="0.875" stop-color="#F0E3E1"/>
<stop offset="1" stop-color="#ECE6E6"/>
</radialGradient>
<radialGradient id="paint20_radial_67_828" cx="0" cy="0" r="1" gradientUnits="userSpaceOnUse" gradientTransform="translate(11.5854 31.6235) rotate(147.619) scale(6.49744 5.71698)">
<stop stop-color="#343628"/>
<stop offset="0.129808" stop-color="#635437"/>
<stop offset="0.307692" stop-color="#95757A"/>
<stop offset="0.447115" stop-color="#B5A5A8"/>
<stop offset="0.807692" stop-color="#FBF0EE"/>
</radialGradient>
<radialGradient id="paint21_radial_67_828" cx="0" cy="0" r="1" gradientUnits="userSpaceOnUse" gradientTransform="translate(13.6598 30.7535) rotate(128.234) scale(2.81129 2.29035)">
<stop stop-color="#2B395E"/>
<stop offset="1" stop-color="#070E21"/>
</radialGradient>
<radialGradient id="paint22_radial_67_828" cx="0" cy="0" r="1" gradientUnits="userSpaceOnUse" gradientTransform="translate(30.3453 11.0447) rotate(-148.671) scale(7.62526 7.49654)">
<stop stop-color="#BC9A4E"/>
<stop offset="0.0991372" stop-color="#D9B67B"/>
<stop offset="0.774038" stop-color="#FFEBBD"/>
<stop offset="1" stop-color="#FFFDF8"/>
</radialGradient>
<radialGradient id="paint23_radial_67_828" cx="0" cy="0" r="1" gradientTransform="matrix(-4.97603 3.1184 -3.81625 -5.60295 28.9046 15.2808)" gradientUnits="userSpaceOnUse">
<stop stop-color="#BDAEB5"/>
<stop offset="0.120192" stop-color="#BDB0B7"/>
<stop offset="0.269231" stop-color="#E4DFD3"/>
<stop offset="0.475275" stop-color="#FFE29A"/>
<stop offset="0.889423" stop-color="#F8EAC8"/>
<stop offset="0.889523" stop-color="#F7EACB"/>
</radialGradient>
<radialGradient id="paint24_radial_67_828" cx="0" cy="0" r="1" gradientTransform="matrix(-2.98562 5.02763 -4.96459 -2.71259 33.4811 17.5713)" gradientUnits="userSpaceOnUse">
<stop stop-color="#CBB7B6"/>
<stop offset="0.302885" stop-color="#CCBB94"/>
<stop offset="0.639423" stop-color="#E5D4AD"/>
<stop offset="0.908654" stop-color="#FFF1D3"/>
</radialGradient>
<radialGradient id="paint25_radial_67_828" cx="0" cy="0" r="1" gradientTransform="matrix(2.1231 6.74593 -10.2927 2.98048 34.8755 16.4884)" gradientUnits="userSpaceOnUse">
<stop stop-color="#4A4A3E"/>
<stop offset="0.119304" stop-color="#655223"/>
<stop offset="0.190995" stop-color="#836722"/>
<stop offset="0.247977" stop-color="#DCB658"/>
<stop offset="0.40314" stop-color="#FFE5A6"/>
<stop offset="0.754808" stop-color="#FFF5DE"/>
</radialGradient>
<radialGradient id="paint26_radial_67_828" cx="0" cy="0" r="1" gradientTransform="matrix(6.70105 2.99112 -4.38573 9.04024 36.0697 15.7258)" gradientUnits="userSpaceOnUse">
<stop stop-color="#524B2F"/>
<stop offset="0.0623057" stop-color="#635139"/>
<stop offset="0.126676" stop-color="#705647"/>
<stop offset="0.174584" stop-color="#816729"/>
<stop offset="0.276885" stop-color="#D0AD5A"/>
<stop offset="0.335981" stop-color="#EAC771"/>
<stop offset="0.788462" stop-color="#FFFAEE"/>
</radialGradient>
<radialGradient id="paint27_radial_67_828" cx="0" cy="0" r="1" gradientTransform="matrix(10.1511 -1.84558 1.93529 9.79384 36.1355 13.8166)" gradientUnits="userSpaceOnUse">
<stop offset="0.0752693" stop-color="#5C5441"/>
<stop offset="0.156192" stop-color="#896C5E"/>
<stop offset="0.247879" stop-color="#A88F53"/>
<stop offset="0.32168" stop-color="#C7AF73"/>
<stop offset="0.599246" stop-color="#FFE8B0"/>
<stop offset="0.884615" stop-color="#FFF9EC"/>
</radialGradient>
<linearGradient id="paint28_linear_67_828" x1="32.9515" y1="4.52459" x2="33.0126" y2="0.0696587" gradientUnits="userSpaceOnUse">
<stop stop-color="#FFDC88"/>
<stop offset="0.302885" stop-color="#FFF1CF"/>
<stop offset="0.788462" stop-color="#FFFAEE"/>
</linearGradient>
<radialGradient id="paint29_radial_67_828" cx="0" cy="0" r="1" gradientTransform="matrix(3.91447 -9.48248 9.12882 3.46733 34.7428 12.4164)" gradientUnits="userSpaceOnUse">
<stop stop-color="#585542"/>
<stop offset="0.0384615" stop-color="#645943"/>
<stop offset="0.0961538" stop-color="#816649"/>
<stop offset="0.139423" stop-color="#FFE39F"/>
<stop offset="0.192308" stop-color="#F8EAC8"/>
<stop offset="0.298077" stop-color="#F9DE9D"/>
<stop offset="0.427885" stop-color="#F4D281"/>
<stop offset="0.653846" stop-color="#F3DBA1"/>
<stop offset="0.903846" stop-color="#FFF5DE"/>
</radialGradient>
<radialGradient id="paint30_radial_67_828" cx="0" cy="0" r="1" gradientTransform="matrix(-9.17602 -4.05398 4.25415 -8.85961 32.6859 13.0523)" gradientUnits="userSpaceOnUse">
<stop offset="0.0416334" stop-color="#5E5F57"/>
<stop offset="0.0950181" stop-color="#AD9E3E"/>
<stop offset="0.17741" stop-color="#DDB85D"/>
<stop offset="0.259138" stop-color="#E8C570"/>
<stop offset="0.56423" stop-color="#F7DDA0"/>
<stop offset="0.706731" stop-color="#F0E1BC"/>
<stop offset="0.875" stop-color="#F8EAC8"/>
<stop offset="1" stop-color="#FCF4E2"/>
</radialGradient>
<radialGradient id="paint31_radial_67_828" cx="0" cy="0" r="1" gradientTransform="matrix(-5.44045 3.30932 -3.03563 -4.59171 32.4867 15.1528)" gradientUnits="userSpaceOnUse">
<stop stop-color="#343628"/>
<stop offset="0.129808" stop-color="#9E7A34"/>
<stop offset="0.307692" stop-color="#CDB06B"/>
<stop offset="0.447115" stop-color="#E5C67A"/>
<stop offset="0.807692" stop-color="#FFF5DE"/>
</radialGradient>
<radialGradient id="paint32_radial_67_828" cx="0" cy="0" r="1" gradientTransform="matrix(-1.72502 2.10015 -1.78374 -1.34805 34.5438 14.3258)" gradientUnits="userSpaceOnUse">
<stop stop-color="#4F4115"/>
<stop offset="1" stop-color="#302607"/>
</radialGradient>
</defs>
</svg>
