<svg width="369" height="727" viewBox="0 0 369 727" fill="none" xmlns="http://www.w3.org/2000/svg">
<path d="M245 329C159.908 448.697 197.084 657.502 197.085 724" stroke="url(#paint0_linear_416_4131)" stroke-width="18"/>
<path d="M82.7357 200.06C82.1504 198.809 82.6898 197.321 83.9403 196.736C85.1908 196.15 86.679 196.69 87.2643 197.94L82.7357 200.06ZM129.426 724L129.426 726.5H124.426L124.426 724H129.426ZM85 199L87.2643 197.94C124.734 278.003 135.209 387.622 136.384 487.986C136.972 538.216 135.23 586.22 133.343 627.169C131.453 668.175 129.426 701.981 129.426 724H126.926H124.426C124.426 701.827 126.465 667.799 128.348 626.939C130.234 586.022 131.971 538.13 131.384 488.044C130.21 387.777 119.721 279.088 82.7357 200.06L85 199Z" fill="url(#paint1_linear_416_4131)"/>
<path d="M206 86C149.778 279.333 174.341 616.593 174.342 724" stroke="url(#paint2_linear_416_4131)" stroke-width="8"/>
<path d="M129.38 239.684C130.707 234.376 137.674 231.391 140.991 230.561C154.814 236.367 184.283 249.968 191.581 257.93C200.704 267.882 165.042 302.715 160.895 308.521C156.748 314.326 97.8642 313.497 92.8884 311.009C87.9126 308.521 88.7416 299.398 87.9123 297.739C87.0829 296.08 89.571 286.958 92.8884 286.128C96.2058 285.299 101.182 270.37 101.182 265.394C101.182 260.418 119.428 257.93 123.575 257.93C127.721 257.93 127.721 246.319 129.38 239.684Z" fill="url(#paint3_radial_416_4131)"/>
<path d="M140.728 346.577H148.077C156.406 350.742 174.093 360.981 178.208 368.624C183.353 378.178 184.087 398.754 184.087 403.164C184.087 407.573 173.799 419.331 169.39 421.536C164.981 423.74 159.102 420.066 154.692 417.126C150.283 414.187 145.874 408.308 140.729 404.633C136.614 401.694 135.585 402.429 135.585 403.164C134.116 401.694 130.294 398.754 126.765 398.754C122.355 398.754 115.744 396.55 111.334 393.61C106.925 390.671 106.189 383.322 101.046 383.322C95.9031 383.322 101.046 377.443 98.1064 375.238C95.1669 373.034 98.8413 371.564 101.046 368.624C103.251 365.685 95.9005 365.685 93.6958 362.745C91.4912 359.806 101.779 362.745 106.189 355.396C110.598 348.048 116.477 350.252 126.765 346.577C137.054 342.903 135.584 346.577 140.728 346.577Z" fill="url(#paint4_radial_416_4131)"/>
<path d="M145.139 367.886C145.139 362.594 152.487 355.393 156.162 352.453C181.884 344.369 254.635 414.918 255.369 423.737C256.104 432.555 255.369 443.578 255.369 444.313C255.369 445.048 244.346 458.276 242.142 460.481C239.937 462.685 228.179 467.829 227.444 467.829C226.709 467.829 223.035 467.829 218.625 470.769C196.579 472.973 200.253 453.867 200.253 448.722C200.253 443.578 195.109 449.457 188.495 450.927C181.881 452.397 180.412 442.843 179.677 439.169C178.942 435.495 177.472 439.904 174.533 438.434C171.593 436.964 173.798 434.76 174.533 430.35C175.267 425.941 170.858 425.206 169.388 423.737C167.919 422.267 167.919 416.388 164.979 415.653C162.04 414.918 154.691 403.16 152.486 403.16C150.281 403.16 148.812 400.22 146.607 395.811C145.066 392.729 147.527 389.797 149.48 388.288C148.744 387.797 147.413 386.072 145.139 381.848C139.994 379.644 145.139 374.5 145.139 367.886Z" fill="url(#paint5_radial_416_4131)"/>
<path d="M217.896 386.994C223.775 384.055 229.654 377.441 231.859 374.501C236.513 372.052 245.823 368.181 245.823 372.297C245.823 377.441 253.171 379.646 261.255 381.85C269.339 384.055 280.362 383.32 284.771 384.055C289.181 384.79 301.674 395.813 306.083 405.366C310.492 414.92 298.734 420.799 298.734 425.943C298.734 431.087 281.097 436.966 270.074 442.845C259.05 448.724 259.785 436.966 253.171 438.436C246.557 439.906 234.799 435.497 224.511 436.966C214.223 438.436 214.958 425.943 214.958 423.004C214.958 420.064 208.343 425.208 203.198 425.943C198.054 426.678 198.789 411.245 198.789 405.366C198.789 399.487 210.547 390.669 217.896 386.994Z" fill="url(#paint6_radial_416_4131)"/>
<path d="M273.012 362.741C268.308 365.093 263.703 361.762 261.988 359.802L247.291 373.764C248.516 375.724 252.582 380.231 259.049 382.583C267.133 385.522 279.626 385.522 284.77 385.522C289.914 385.522 286.974 396.545 288.444 402.424C289.914 408.303 303.142 411.978 310.491 411.978C317.839 411.978 314.9 401.689 320.044 402.424C325.188 403.159 324.453 393.606 327.393 393.606C329.744 393.606 332.292 388.217 333.272 385.522C333.272 384.052 333.86 380.819 336.211 379.643C339.151 378.173 339.151 373.764 338.416 367.15C337.681 360.536 329.598 359.802 327.393 356.862C325.188 353.922 311.225 349.514 300.202 347.309C289.179 345.104 292.853 352.453 288.444 352.453C284.035 352.453 278.891 359.802 273.012 362.741Z" fill="url(#paint7_radial_416_4131)"/>
<path d="M271.545 305.422C265.666 307.773 266.156 313.75 267.136 316.445C265.421 328.938 262.58 355.394 264.932 361.273C267.872 368.621 275.22 359.068 281.099 359.068C286.979 359.068 293.592 349.515 298.002 348.045C302.411 346.575 309.025 350.984 320.783 353.924C332.541 356.863 333.276 370.826 339.89 370.826C346.504 370.826 350.178 363.477 352.383 359.068C354.588 354.659 361.936 342.166 364.141 336.287C366.346 330.408 368.55 330.408 368.55 327.468C368.55 324.529 366.346 321.589 368.55 316.445C370.755 311.301 364.141 309.096 364.141 305.422C364.141 301.747 359.732 299.543 356.792 292.194C356.792 287.785 352.383 287.05 347.974 279.701C343.564 272.352 328.867 266.473 325.192 266.473H311.964C307.555 266.473 300.941 284.11 300.941 289.254C300.941 294.398 278.894 302.482 271.545 305.422Z" fill="url(#paint8_radial_416_4131)"/>
<path d="M181.887 193.721C174.832 196.66 175.518 203.274 176.743 206.214C185.317 212.582 204.817 226.202 214.223 229.729C223.63 233.257 253.417 220.911 267.135 214.297C268.604 211.602 270.662 206.214 267.135 206.214C262.725 206.214 256.846 193.721 254.642 193.721C252.437 193.721 242.883 185.637 240.679 185.637C238.474 185.637 225.981 177.553 222.307 177.553C218.632 177.553 215.693 178.288 209.079 177.553C202.465 176.818 196.586 181.962 195.116 185.637C193.646 189.311 190.706 190.046 181.887 193.721Z" fill="url(#paint9_linear_416_4131)"/>
<path d="M217.159 299.543C215.396 304.835 219.364 307.627 221.569 308.362C234.796 311.301 261.84 316.739 264.191 314.975C267.131 312.771 267.131 312.036 269.336 309.831C271.54 307.626 278.889 311.301 290.647 312.036C302.405 312.771 300.201 306.157 301.67 306.157C303.14 306.157 305.345 292.194 306.814 290.724C308.284 289.254 311.959 287.05 312.693 285.58C313.428 284.11 311.959 280.436 311.959 278.231C311.959 276.027 314.898 275.292 315.633 273.822C316.368 272.352 316.368 269.413 314.898 267.208C313.428 265.003 314.898 262.799 314.898 261.329C314.898 259.859 314.163 256.185 312.693 254.715C311.224 253.245 311.959 251.041 311.959 249.571C311.959 248.101 304.61 238.548 303.14 238.548C301.67 238.548 301.67 234.873 301.67 231.934C301.67 228.994 293.587 224.585 292.852 221.646C292.117 218.707 284.033 216.502 281.829 215.767C279.624 215.032 279.624 212.092 279.624 211.358C279.624 210.623 273.745 210.622 272.275 210.622C270.805 210.622 265.661 207.683 262.722 207.683C259.782 207.683 254.638 214.297 253.168 215.767C251.698 217.237 253.168 212.092 248.759 211.358C244.35 210.623 244.35 216.502 242.88 215.767C241.41 215.032 234.796 215.767 234.796 216.502C234.796 217.237 230.387 217.972 227.447 217.972C224.508 217.972 223.038 219.441 223.038 221.646C223.038 223.851 241.41 251.041 242.145 253.981C242.88 256.92 219.364 292.929 217.159 299.543Z" fill="url(#paint10_radial_416_4131)"/>
<path d="M218.628 297.341C216.277 302.045 219.608 306.65 221.568 308.365L213.485 352.457L198.053 345.109C198.298 346.088 198.494 348.048 197.318 348.048C195.848 348.048 167.923 323.797 165.718 323.797C163.513 323.797 159.104 326.737 156.899 326.002C154.695 325.267 156.899 326.002 156.165 328.206C155.43 330.411 150.286 328.941 150.286 329.676C150.286 330.411 149.551 330.411 148.081 331.146C146.905 331.734 143.427 334.33 143.672 336.29C148.081 336.29 142.79 337.76 142.202 337.76C141.467 337.76 147.346 340.699 148.081 342.904C148.816 345.109 143.671 345.844 143.671 348.048C143.671 350.253 139.262 349.518 137.793 348.048C136.323 346.578 120.155 349.518 113.542 350.988C106.928 352.457 103.253 361.276 102.518 362.746C101.783 364.216 96.6388 362.746 93.6997 360.541C90.7607 358.336 92.23 352.457 92.23 349.518C92.23 346.578 90.0253 346.578 89.29 344.374C88.5547 342.169 90.7602 339.964 88.5556 337.76C86.3509 335.555 87.0854 329.676 86.3505 326.002C85.6156 322.327 89.29 313.509 89.29 308.365C89.29 303.221 93.6993 305.425 96.6388 305.425C99.5784 305.425 105.457 292.932 107.662 290.727C109.867 288.523 117.216 288.523 120.89 288.523C124.564 288.523 123.829 291.462 125.299 292.197C126.769 292.932 126.034 289.993 128.974 289.258C131.913 288.523 140.732 280.439 140.732 279.704C140.732 278.969 142.936 279.704 143.671 279.704C144.406 279.704 144.406 277.5 144.406 276.03C144.406 274.56 145.876 274.56 148.08 274.56C149.844 274.56 149.795 267.701 149.55 264.272C149.795 264.027 150.726 262.508 152.49 258.393C154.694 253.249 135.588 245.165 134.118 243.695C132.648 242.225 134.853 240.756 134.853 240.021C134.853 239.286 137.057 237.081 137.792 237.081C138.527 237.081 137.792 232.672 138.527 232.672C139.262 232.672 139.997 232.672 139.997 230.467C139.997 228.263 147.346 217.974 148.08 216.505C148.815 215.035 151.02 215.77 152.49 215.77C153.96 215.77 153.96 215.035 153.96 213.565C153.96 212.095 156.164 212.83 158.369 212.83C160.573 212.83 164.983 209.156 167.922 207.686C170.862 206.216 167.187 208.421 173.801 206.951C179.092 205.775 184.335 205.481 186.294 205.481C186.882 206.069 190.459 209.156 192.173 210.625C195.113 208.421 193.349 208.715 195.113 206.951C197.317 204.746 209.81 212.095 221.568 218.709C230.974 224 238.715 238.061 241.41 244.43C242.145 245.9 243.909 249.574 245.085 252.514C246.554 256.188 221.568 291.462 218.628 297.341Z" fill="url(#paint11_radial_416_4131)"/>
<path d="M170.125 324.529C174.828 326.293 191.191 341.921 198.785 349.515C199.765 349.025 202.02 348.046 203.195 348.046C204.665 348.046 221.567 365.683 220.833 366.418C220.098 367.152 219.363 369.357 218.628 371.562L218.628 371.562C217.893 373.766 220.098 378.176 222.302 381.115C224.507 384.055 224.507 389.934 224.507 391.403C224.507 392.873 225.242 397.283 225.977 400.222C226.712 403.162 225.242 398.752 223.772 405.366C222.302 411.98 216.423 409.041 214.219 412.715C212.014 416.389 206.87 411.245 205.4 405.366C203.93 399.487 198.785 405.366 196.581 405.366C194.378 405.366 193.642 400.957 191.437 398.752C189.233 396.548 173.065 397.283 173.065 395.813C173.065 394.343 168.656 393.608 162.777 392.138C156.898 390.669 154.693 390.669 152.489 389.934C150.284 389.199 154.693 381.85 159.102 376.706C163.51 371.562 156.163 370.827 157.633 367.887C159.103 364.948 159.102 359.804 160.572 356.129C162.043 352.455 157.633 353.925 153.222 353.925C148.812 353.925 142.935 348.046 143.669 345.841C144.402 343.636 142.199 339.962 141.464 338.492C140.729 337.022 142.934 337.757 143.669 335.553C144.404 333.348 143.669 331.143 143.669 329.674C143.669 328.204 145.873 328.939 148.078 328.939C150.283 328.939 151.752 319.385 153.222 317.915C154.692 316.445 159.102 319.385 159.102 320.12C159.102 320.855 158.367 321.59 170.125 324.529Z" fill="url(#paint12_radial_416_4131)"/>
<path d="M219.364 310.566L221.569 309.096C221.814 308.606 222.597 307.627 223.773 307.627C224.949 307.627 224.753 307.137 224.508 306.892H227.448C228.623 306.892 228.427 305.912 228.183 305.422H230.387C231.563 305.422 232.347 304.932 232.592 304.687L234.062 306.157L234.796 304.687H237.736C238.471 304.687 238.471 306.892 239.941 306.157C241.116 305.569 242.39 305.912 242.88 306.157V307.627H245.085C245.33 306.892 245.82 305.275 245.82 304.687C245.82 303.952 248.759 303.952 248.759 304.687C248.759 305.422 249.494 306.892 250.229 307.627C250.817 308.214 251.944 306.892 252.434 306.157H254.638C255.226 306.157 255.373 308.606 255.373 309.831H257.578L259.782 310.566L261.252 312.771C262.722 312.281 265.661 311.448 265.661 312.036V316.445C266.396 316.445 267.866 316.739 267.866 317.915V320.12L269.336 320.854V323.059C269.336 323.647 270.316 323.304 270.806 323.059L271.54 325.264C271.051 325.999 269.924 327.615 269.336 328.203C268.748 328.791 270.071 329.428 270.806 329.673V332.612C270.806 333.2 271.785 333.837 272.275 334.082C273.01 334.572 274.627 335.699 275.215 336.287C275.803 336.875 275.46 339.471 275.215 340.696C274.725 341.431 273.745 343.048 273.745 343.636C273.745 344.224 274.725 345.35 275.215 345.84L273.745 347.31C273.5 348.29 272.569 350.25 270.806 350.25C269.042 350.25 266.641 353.189 265.661 354.659C266.396 355.149 267.866 356.423 267.866 357.598C267.866 358.774 265.416 360.048 264.192 360.538C264.437 361.518 264.78 363.477 264.192 363.477H261.252L259.782 364.947C259.048 365.437 257.578 366.711 257.578 367.887C257.578 369.063 255.618 368.377 254.638 367.887V369.357C254.148 370.091 253.022 371.708 252.434 372.296C251.846 372.884 252.189 376.46 252.434 378.175L249.494 375.97C249.249 376.46 248.759 377.734 248.759 378.91C248.759 380.086 246.31 378.42 245.085 377.44L242.88 379.645C242.39 378.42 241.41 376.117 241.41 376.705C241.41 377.44 239.941 380.38 238.471 380.38C237.001 380.38 237.736 378.91 237.001 377.44C236.413 376.264 235.286 378.42 234.796 379.645C234.062 379.155 232.298 378.028 231.122 377.44C229.652 376.705 229.652 375.97 228.917 375.236C228.183 374.501 226.713 375.236 225.243 375.236C223.773 375.236 225.243 373.766 225.243 372.296C225.243 371.12 224.263 370.336 223.773 370.091L220.834 369.357L218.629 366.417C218.384 365.927 217.012 364.947 213.485 364.947C209.076 364.947 209.076 360.538 209.076 359.803C209.076 359.068 209.076 357.598 207.606 358.333C206.136 359.068 205.401 356.129 203.931 355.394C202.756 354.806 202.952 351.719 203.197 350.25C201.482 349.76 198.052 348.192 198.052 345.84C198.052 343.489 201.482 342.901 203.197 342.901C201.972 341.921 199.375 339.667 198.787 338.492C198.052 337.022 200.992 337.022 200.992 335.552C200.992 334.376 199.032 333.592 198.052 333.347L200.992 331.878L198.787 329.673C198.052 328.938 199.522 328.203 198.787 326.733C198.199 325.558 201.482 325.264 203.197 325.264C201.972 324.529 199.522 322.912 199.522 322.324C199.522 321.589 201.727 320.854 203.197 319.385C204.372 318.209 205.646 319.875 206.136 320.854C206.136 319.63 205.989 316.886 205.401 315.71C204.813 314.534 207.606 315.22 209.076 315.71V313.506H213.485H215.69C216.424 313.261 217.747 312.624 217.159 312.036C216.571 311.448 218.384 310.811 219.364 310.566Z" fill="url(#paint13_radial_416_4131)"/>
<g opacity="0.74">
<path d="M27.2676 142.635C27.9782 139.748 31.7087 138.124 33.4852 137.673C40.887 140.831 56.6676 148.228 60.5758 152.558C65.4611 157.971 46.3642 176.916 44.1437 180.073C41.9231 183.231 10.3912 182.78 7.72669 181.426C5.06221 180.073 5.50612 175.111 5.06201 174.209C4.6179 173.307 5.95024 168.346 7.72669 167.894C9.50313 167.443 12.1678 159.324 12.1678 156.618C12.1678 153.912 21.9383 152.558 24.1588 152.558C26.3794 152.558 26.3794 146.243 27.2676 142.635Z" fill="url(#paint14_radial_416_4131)"/>
<path d="M29.053 199.66H32.9724C37.4146 201.881 46.8478 207.342 49.0426 211.418C51.7862 216.513 52.1781 227.488 52.1781 229.839C52.1781 232.191 46.691 238.462 44.3394 239.638C41.9877 240.814 38.8522 238.854 36.5006 237.286C34.1489 235.718 31.7973 232.583 29.0537 230.623C26.8589 229.055 26.3102 229.447 26.3102 229.839C25.5263 229.055 23.4881 227.488 21.6062 227.488C19.2538 227.488 15.7278 226.312 13.3762 224.744C11.0245 223.176 10.6319 219.257 7.88903 219.257C5.14616 219.257 7.88903 216.121 6.32127 214.946C4.75352 213.77 6.71321 212.986 7.88903 211.418C9.06485 209.85 5.14475 209.85 3.96893 208.283C2.79311 206.715 8.28026 208.283 10.6319 204.363C12.9835 200.444 16.119 201.619 21.6062 199.66C27.0933 197.7 26.3095 199.66 29.053 199.66Z" fill="url(#paint15_radial_416_4131)"/>
<path d="M31.4052 211.024C31.4052 208.202 35.3246 204.361 37.2843 202.793C51.0028 198.482 89.8034 236.108 90.1954 240.811C90.5873 245.515 90.1954 251.394 90.1954 251.786C90.1954 252.177 84.3163 259.232 83.1405 260.408C81.9646 261.584 75.6936 264.328 75.3017 264.328C74.9097 264.328 72.95 264.328 70.5984 265.895C58.8402 267.071 60.7999 256.881 60.7999 254.137C60.7999 251.394 58.0564 254.529 54.5289 255.313C51.0015 256.097 50.2176 251.002 49.8256 249.042C49.4337 247.082 48.6498 249.434 47.0821 248.65C45.5143 247.866 46.6901 246.69 47.0821 244.339C47.474 241.987 45.1224 241.595 44.3385 240.811C43.5546 240.027 43.5546 236.892 41.9869 236.5C40.4191 236.108 36.4997 229.837 35.3239 229.837C34.1481 229.837 33.3642 228.269 32.1884 225.918C31.3665 224.274 32.6789 222.71 33.7206 221.905C33.328 221.644 32.618 220.724 31.4052 218.471C28.6616 217.295 31.4052 214.551 31.4052 211.024Z" fill="url(#paint16_radial_416_4131)"/>
<path d="M70.2095 221.215C73.345 219.648 76.4806 216.12 77.6564 214.553C80.1388 213.246 85.1038 211.182 85.1038 213.377C85.1038 216.12 89.0232 217.296 93.3345 218.472C97.6458 219.648 103.525 219.256 105.877 219.648C108.228 220.04 114.891 225.919 117.243 231.014C119.594 236.109 113.323 239.245 113.323 241.988C113.323 244.732 103.917 247.867 98.0378 251.003C92.1587 254.138 92.5506 247.867 89.0232 248.651C85.4957 249.435 79.2247 247.083 73.7375 247.867C68.2504 248.651 68.6423 241.988 68.6423 240.42C68.6423 238.853 65.1143 241.596 62.3708 241.988C59.6272 242.38 60.0191 234.149 60.0191 231.014C60.0191 227.878 66.2901 223.175 70.2095 221.215Z" fill="url(#paint17_radial_416_4131)"/>
<path d="M99.6055 208.28C97.0971 209.535 94.641 207.758 93.7265 206.713L85.8877 214.159C86.5409 215.204 88.7096 217.608 92.1587 218.862C96.47 220.43 103.133 220.43 105.877 220.43C108.62 220.43 107.052 226.309 107.836 229.445C108.62 232.58 115.675 234.54 119.594 234.54C123.514 234.54 121.946 229.053 124.69 229.445C127.433 229.837 127.041 224.742 128.609 224.742C129.863 224.742 131.222 221.867 131.745 220.43C131.745 219.646 132.058 217.922 133.312 217.295C134.88 216.511 134.88 214.159 134.488 210.632C134.096 207.104 129.785 206.713 128.609 205.145C127.433 203.576 119.986 201.226 114.107 200.05C108.228 198.874 110.188 202.793 107.836 202.793C105.485 202.793 102.741 206.713 99.6055 208.28Z" fill="url(#paint18_radial_416_4131)"/>
<path d="M98.8225 177.71C95.687 178.964 95.9482 182.152 96.4708 183.589C95.5565 190.252 94.0414 204.362 95.2956 207.497C96.8634 211.417 100.783 206.322 103.918 206.322C107.054 206.322 110.581 201.226 112.933 200.442C115.285 199.659 118.812 202.01 125.083 203.578C131.354 205.146 131.746 212.593 135.273 212.593C138.801 212.593 140.761 208.673 141.936 206.322C143.112 203.97 147.032 197.307 148.207 194.171C149.383 191.036 150.559 191.036 150.559 189.468C150.559 187.9 149.383 186.333 150.559 183.589C151.735 180.846 148.207 179.67 148.207 177.71C148.207 175.75 145.856 174.575 144.288 170.655C144.288 168.303 141.936 167.912 139.585 163.992C137.233 160.073 129.394 156.937 127.435 156.937H120.38C118.028 156.937 114.501 166.344 114.501 169.087C114.501 171.831 102.742 176.142 98.8225 177.71Z" fill="url(#paint19_radial_416_4131)"/>
<path d="M51.0054 118.136C47.2427 119.703 47.6085 123.231 48.2618 124.799C52.8346 128.195 63.2345 135.459 68.2514 137.34C73.2682 139.222 89.1548 132.637 96.471 129.11C97.2549 127.673 98.3523 124.799 96.471 124.799C94.1193 124.799 90.9838 118.136 89.808 118.136C88.6322 118.136 83.537 113.824 82.3612 113.824C81.1854 113.824 74.5224 109.513 72.5627 109.513C70.603 109.513 69.0352 109.905 65.5078 109.513C61.9803 109.121 58.8448 111.865 58.0609 113.824C57.2771 115.784 55.7086 116.176 51.0054 118.136Z" fill="url(#paint20_linear_416_4131)"/>
<path d="M69.8168 174.575C68.8762 177.397 70.9927 178.886 72.1685 179.278C79.2233 180.846 93.6466 183.746 94.9008 182.805C96.4685 181.63 96.4685 181.238 97.6444 180.062C98.8202 178.886 102.74 180.846 109.011 181.238C115.282 181.63 114.106 178.102 114.89 178.102C115.674 178.102 116.849 170.655 117.633 169.871C118.417 169.088 120.377 167.912 120.769 167.128C121.161 166.344 120.377 164.384 120.377 163.208C120.377 162.033 121.945 161.641 122.337 160.857C122.728 160.073 122.728 158.505 121.945 157.329C121.161 156.154 121.945 154.978 121.945 154.194C121.945 153.41 121.553 151.45 120.769 150.666C119.985 149.883 120.377 148.707 120.377 147.923C120.377 147.139 116.457 142.044 115.674 142.044C114.89 142.044 114.89 140.084 114.89 138.516C114.89 136.949 110.578 134.597 110.186 133.03C109.794 131.462 105.483 130.286 104.307 129.894C103.132 129.502 103.132 127.934 103.132 127.542C103.132 127.151 99.996 127.15 99.2121 127.15C98.4282 127.15 95.6847 125.582 94.1169 125.582C92.5491 125.582 89.8056 129.11 89.0217 129.894C88.2378 130.678 89.0217 127.934 86.6701 127.542C84.3184 127.15 84.3184 130.286 83.5345 129.894C82.7507 129.502 79.2232 129.894 79.2232 130.286C79.2232 130.678 76.8716 131.07 75.3038 131.07C73.7361 131.07 72.9522 131.854 72.9522 133.03C72.9522 134.205 82.7507 148.707 83.1426 150.275C83.5345 151.843 70.9927 171.048 69.8168 174.575Z" fill="url(#paint21_radial_416_4131)"/>
<path d="M70.6005 173.4C69.3463 175.908 71.1231 178.365 72.1682 179.279L67.8575 202.795L59.6268 198.876C59.7574 199.399 59.8619 200.444 59.2348 200.444C58.451 200.444 43.5573 187.51 42.3815 187.51C41.2057 187.51 38.854 189.077 37.6782 188.686C36.5024 188.294 37.6782 188.686 37.2863 189.861C36.8943 191.037 34.1507 190.253 34.1507 190.645C34.1507 191.037 33.7588 191.037 32.9749 191.429C32.3478 191.743 30.4927 193.128 30.6233 194.173C32.9749 194.173 30.153 194.957 29.8394 194.957C29.4475 194.957 32.583 196.524 32.9749 197.7C33.3669 198.876 30.6231 199.268 30.6231 200.444C30.6231 201.62 28.2717 201.228 27.4878 200.444C26.7039 199.66 18.0812 201.228 14.5538 202.011C11.0263 202.795 9.06665 207.499 8.67471 208.283C8.28277 209.066 5.53897 208.283 3.97144 207.107C2.40392 205.931 3.18757 202.795 3.18757 201.228C3.18757 199.66 2.01175 199.66 1.61958 198.484C1.22742 197.308 2.40369 196.132 1.22787 194.957C0.0520544 193.781 0.443766 190.645 0.0518266 188.686C-0.340112 186.726 1.61958 182.023 1.61958 179.279C1.61958 176.535 3.97122 177.711 5.53897 177.711C7.10673 177.711 10.2422 171.048 11.4181 169.872C12.5939 168.697 16.5133 168.697 18.473 168.697C20.4327 168.697 20.0407 170.264 20.8246 170.656C21.6085 171.048 21.2165 169.481 22.7843 169.089C24.352 168.697 29.0553 164.385 29.0553 163.993C29.0553 163.601 30.2311 163.993 30.6231 163.993C31.015 163.993 31.015 162.818 31.015 162.034C31.015 161.25 31.7989 161.25 32.9747 161.25C33.9154 161.25 33.8892 157.592 33.7586 155.763C33.8892 155.632 34.3857 154.822 35.3263 152.627C36.5022 149.884 26.3117 145.572 25.5279 144.788C24.744 144.005 25.9198 143.221 25.9198 142.829C25.9198 142.437 27.0956 141.261 27.4876 141.261C27.8795 141.261 27.4876 138.909 27.8795 138.909C28.2714 138.909 28.6634 138.909 28.6634 137.733C28.6634 136.558 32.5828 131.071 32.9747 130.287C33.3666 129.503 34.5425 129.895 35.3263 129.895C36.1102 129.895 36.1102 129.503 36.1102 128.719C36.1102 127.935 37.286 128.327 38.4618 128.327C39.6377 128.327 41.9893 126.367 43.5571 125.583C45.1248 124.8 43.1651 125.975 46.6926 125.191C49.5145 124.564 52.3104 124.408 53.3555 124.408C53.6691 124.721 55.5765 126.367 56.491 127.151C58.0588 125.975 57.1181 126.132 58.0588 125.191C59.2346 124.016 65.8976 127.935 72.1682 131.462C77.1848 134.284 81.3136 141.784 82.751 145.18C83.1429 145.964 84.0835 147.924 84.7107 149.492C85.4945 151.451 72.1682 170.264 70.6005 173.4Z" fill="url(#paint22_radial_416_4131)"/>
<path d="M44.7315 187.9C47.2399 188.841 55.9671 197.176 60.0171 201.226C60.5399 200.965 61.7421 200.443 62.3692 200.443C63.1531 200.443 72.1677 209.849 71.7758 210.241C71.3838 210.633 70.9919 211.809 70.6 212.985L70.5999 212.985C70.208 214.161 71.3838 216.512 72.5596 218.08C73.7355 219.648 73.7355 222.783 73.7355 223.567C73.7355 224.351 74.1274 226.703 74.5193 228.27C74.9113 229.838 74.1274 227.487 73.3435 231.014C72.5596 234.541 69.4241 232.974 68.2483 234.933C67.0725 236.893 64.3289 234.149 63.545 231.014C62.7612 227.878 60.0171 231.014 58.8418 231.014C57.6664 231.014 57.274 228.662 56.0982 227.487C54.9224 226.311 46.2997 226.703 46.2997 225.919C46.2997 225.135 43.9481 224.743 40.8126 223.959C37.6771 223.175 36.5013 223.175 35.3254 222.783C34.1496 222.391 36.5013 218.472 38.8524 215.728C41.2036 212.985 37.2851 212.593 38.069 211.025C38.8529 209.457 38.8524 206.714 39.6368 204.754C40.4211 202.794 38.069 203.578 35.7166 203.578C33.3643 203.578 30.2302 200.443 30.6214 199.267C31.0126 198.091 29.8376 196.131 29.4456 195.348C29.0537 194.564 30.2295 194.956 30.6214 193.78C31.0134 192.604 30.6214 191.428 30.6214 190.644C30.6214 189.86 31.7973 190.252 32.9731 190.252C34.1489 190.252 34.9328 185.157 35.7166 184.373C36.5005 183.589 38.8524 185.157 38.8524 185.549C38.8524 185.941 38.4605 186.333 44.7315 187.9Z" fill="url(#paint23_radial_416_4131)"/>
<path d="M70.9931 180.454L72.1689 179.67C72.2995 179.408 72.7176 178.886 73.3447 178.886C73.9718 178.886 73.8673 178.624 73.7366 178.494H75.3044C75.9315 178.494 75.827 177.971 75.6963 177.71H76.8721C77.4992 177.71 77.9173 177.449 78.048 177.318L78.8318 178.102L79.2238 177.318H80.7915C81.1835 177.318 81.1835 178.494 81.9673 178.102C82.5945 177.788 83.2738 177.971 83.5351 178.102V178.886H84.7109C84.8416 178.494 85.1029 177.632 85.1029 177.318C85.1029 176.926 86.6706 176.926 86.6706 177.318C86.6706 177.71 87.0626 178.494 87.4545 178.886C87.768 179.199 88.369 178.494 88.6303 178.102H89.8061C90.1197 178.102 90.1981 179.408 90.1981 180.062H91.3739L92.5497 180.454L93.3336 181.629C94.1175 181.368 95.6852 180.924 95.6852 181.237V183.589C96.0772 183.589 96.861 183.746 96.861 184.373V185.549L97.6449 185.941V187.116C97.6449 187.43 98.1675 187.247 98.4288 187.116L98.8207 188.292C98.5594 188.684 97.9585 189.546 97.6449 189.86C97.3314 190.174 98.0368 190.513 98.4288 190.644V192.212C98.4288 192.525 98.9514 192.865 99.2127 192.996C99.6046 193.257 100.467 193.858 100.78 194.171C101.094 194.485 100.911 195.87 100.78 196.523C100.519 196.915 99.9965 197.777 99.9965 198.091C99.9965 198.404 100.519 199.005 100.78 199.267L99.9965 200.05C99.8659 200.573 99.3694 201.618 98.4288 201.618C97.4881 201.618 96.2078 203.186 95.6852 203.97C96.0772 204.231 96.861 204.911 96.861 205.538C96.861 206.165 95.5546 206.844 94.9013 207.105C95.032 207.628 95.2149 208.673 94.9013 208.673H93.3336L92.5497 209.457C92.1578 209.718 91.3739 210.398 91.3739 211.025C91.3739 211.652 90.3287 211.286 89.8061 211.025V211.809C89.5448 212.201 88.9439 213.063 88.6303 213.376C88.3168 213.69 88.4997 215.597 88.6303 216.512L87.0626 215.336C86.9319 215.597 86.6706 216.277 86.6706 216.904C86.6706 217.531 85.3642 216.643 84.7109 216.12L83.5351 217.296C83.2738 216.643 82.7512 215.414 82.7512 215.728C82.7512 216.12 81.9673 217.688 81.1835 217.688C80.3996 217.688 80.7915 216.904 80.3996 216.12C80.086 215.493 79.4851 216.643 79.2238 217.296C78.8318 217.034 77.8912 216.434 77.2641 216.12C76.4802 215.728 76.4802 215.336 76.0883 214.944C75.6963 214.552 74.9124 214.944 74.1286 214.944C73.3447 214.944 74.1286 214.16 74.1286 213.376C74.1286 212.749 73.606 212.331 73.3447 212.201L71.7769 211.809L70.6011 210.241C70.4705 209.98 69.7389 209.457 67.8575 209.457C65.5059 209.457 65.5059 207.105 65.5059 206.713C65.5059 206.321 65.5059 205.538 64.722 205.93C63.9382 206.321 63.5462 204.754 62.7623 204.362C62.1352 204.048 62.2398 202.402 62.3704 201.618C61.4559 201.357 59.6268 200.521 59.6268 199.267C59.6268 198.012 61.4559 197.699 62.3704 197.699C61.7172 197.176 60.3323 195.974 60.0188 195.347C59.6268 194.563 61.1946 194.563 61.1946 193.779C61.1946 193.152 60.1494 192.734 59.6268 192.604L61.1946 191.82L60.0188 190.644C59.6268 190.252 60.4107 189.86 60.0188 189.076C59.7052 188.449 61.4559 188.292 62.3704 188.292C61.7172 187.9 60.4107 187.038 60.4107 186.725C60.4107 186.333 61.5865 185.941 62.3704 185.157C62.9975 184.53 63.6769 185.418 63.9382 185.941C63.9382 185.287 63.8598 183.824 63.5462 183.197C63.2327 182.57 64.722 182.936 65.5059 183.197V182.021H67.8575H69.0334C69.4253 181.891 70.1308 181.551 69.8172 181.237C69.5037 180.924 70.4705 180.584 70.9931 180.454Z" fill="url(#paint24_radial_416_4131)"/>
</g>
<g opacity="0.86">
<path d="M156.748 24.8807C157.412 23.5537 162.001 21.5633 164.212 20.7339C168.36 20.7339 179.97 49.7614 179.97 56.3963C179.97 63.0311 155.089 62.2018 151.772 62.2018C148.455 62.2018 143.479 60.5431 140.99 60.5431C138.501 60.5431 140.161 53.0788 139.332 53.0788C138.502 53.0788 140.99 45.6146 143.479 45.6146C145.967 45.6146 144.308 39.8091 145.137 38.1504C145.967 36.4917 150.113 37.3211 151.772 35.6623C153.431 34.0036 155.919 26.5394 156.748 24.8807Z" fill="url(#paint25_radial_416_4131)"/>
<path d="M161.509 85.7742H165.395C169.8 87.8866 179.152 93.0804 181.329 96.957C184.049 101.803 184.437 112.24 184.437 114.476C184.437 116.713 178.997 122.677 176.665 123.795C174.334 124.914 171.225 123.05 168.893 121.559C166.562 120.068 164.23 117.086 161.51 115.222C159.334 113.731 158.79 114.104 158.79 114.476C158.012 113.731 155.991 112.24 154.126 112.24C151.793 112.24 148.297 111.122 145.966 109.631C143.634 108.14 143.245 104.412 140.525 104.412C137.806 104.412 140.525 101.43 138.971 100.312C137.416 99.1935 139.359 98.448 140.525 96.957C141.691 95.466 137.804 95.466 136.638 93.975C135.473 92.484 140.913 93.975 143.245 90.2474C145.576 86.5199 148.685 87.638 154.126 85.7742C159.566 83.9105 158.789 85.7742 161.509 85.7742Z" fill="url(#paint26_radial_416_4131)"/>
<path d="M163.833 96.5797C163.833 93.8959 167.719 90.2429 169.662 88.7519C183.264 84.6516 221.734 120.436 222.123 124.909C222.511 129.382 222.123 134.973 222.123 135.346C222.123 135.719 216.294 142.428 215.128 143.547C213.962 144.665 207.744 147.274 207.356 147.274C206.967 147.274 205.024 147.274 202.692 148.765C191.034 149.883 192.977 140.192 192.977 137.583C192.977 134.973 190.257 137.955 186.76 138.701C183.262 139.446 182.485 134.601 182.096 132.737C181.708 130.873 180.931 133.11 179.376 132.364C177.822 131.619 178.988 130.5 179.376 128.264C179.765 126.027 177.433 125.654 176.656 124.909C175.879 124.163 175.879 121.181 174.324 120.809C172.77 120.436 168.884 114.472 167.718 114.472C166.552 114.472 165.775 112.981 164.609 110.744C163.794 109.181 165.096 107.694 166.128 106.929C165.739 106.679 165.035 105.805 163.833 103.662C161.113 102.544 163.833 99.9345 163.833 96.5797Z" fill="url(#paint27_radial_416_4131)"/>
<path d="M202.31 106.266C205.419 104.775 208.528 101.42 209.693 99.9292C212.155 98.6867 217.078 96.7235 217.078 98.8109C217.078 101.42 220.964 102.538 225.238 103.657C229.513 104.775 235.342 104.402 237.674 104.775C240.005 105.148 246.611 110.739 248.943 115.585C251.275 120.431 245.057 123.413 245.057 126.022C245.057 128.631 235.73 131.613 229.901 134.595C224.072 137.577 224.461 131.613 220.964 132.359C217.466 133.104 211.248 130.868 205.808 131.613C200.368 132.359 200.756 126.022 200.756 124.531C200.756 123.04 197.258 125.649 194.538 126.022C191.818 126.395 192.206 118.567 192.206 115.585C192.206 112.603 198.424 108.13 202.31 106.266Z" fill="url(#paint28_radial_416_4131)"/>
<path d="M231.456 93.9711C228.969 95.1639 226.534 93.4741 225.627 92.4801L217.855 99.5621C218.503 100.556 220.653 102.842 224.073 104.035C228.347 105.526 234.953 105.526 237.674 105.526C240.394 105.526 238.839 111.117 239.617 114.099C240.394 117.082 247.389 118.945 251.275 118.945C255.161 118.945 253.606 113.727 256.327 114.099C259.047 114.472 258.658 109.626 260.213 109.626C261.456 109.626 262.803 106.893 263.322 105.526C263.322 104.781 263.632 103.141 264.876 102.544C266.43 101.799 266.43 99.5621 266.042 96.2073C265.653 92.8525 261.379 92.4801 260.213 90.9888C259.047 89.4974 251.663 87.2616 245.834 86.1433C240.005 85.025 241.948 88.7526 239.617 88.7526C237.285 88.7526 234.565 92.4801 231.456 93.9711Z" fill="url(#paint29_radial_416_4131)"/>
<path d="M230.675 64.896C227.567 66.0888 227.826 69.1205 228.344 70.4873C227.437 76.8241 225.935 90.2432 227.179 93.2253C228.733 96.9528 232.619 92.107 235.728 92.107C238.837 92.107 242.334 87.2612 244.666 86.5157C246.997 85.7702 250.495 88.0067 256.713 89.4977C262.93 90.9887 263.319 98.071 266.816 98.071C270.314 98.071 272.257 94.3435 273.423 92.107C274.588 89.8705 278.474 83.5337 279.64 80.5516C280.806 77.5696 281.972 77.5696 281.972 76.0786C281.972 74.5876 280.806 73.0966 281.972 70.4873C283.138 67.878 279.64 66.7598 279.64 64.896C279.64 63.0322 277.309 61.914 275.754 58.1864C275.754 55.9499 273.423 55.5771 271.091 51.8496C268.759 48.1221 260.987 45.14 259.044 45.14H252.049C249.718 45.14 246.22 54.0861 246.22 56.6954C246.22 59.3047 234.562 63.405 230.675 64.896Z" fill="url(#paint30_radial_416_4131)"/>
<path d="M183.269 8.23649C179.539 9.7275 179.902 13.0823 180.549 14.5733C185.083 17.8038 195.395 24.712 200.369 26.5012C205.343 28.2904 221.094 22.0281 228.348 18.6733C229.125 17.3067 230.214 14.5733 228.348 14.5733C226.017 14.5733 222.908 8.23649 221.742 8.23649C220.576 8.23649 215.524 4.1362 214.358 4.1362C213.193 4.1362 206.586 0.0359136 204.643 0.0359136C202.7 0.0359136 201.146 0.408667 197.649 0.0359136C194.151 -0.33684 191.042 2.27243 190.265 4.1362C189.488 5.99997 187.933 6.37272 183.269 8.23649Z" fill="url(#paint31_linear_416_4131)"/>
<path d="M201.923 61.9166C200.99 64.6004 203.089 66.0169 204.255 66.3896C211.25 67.8805 225.55 70.6387 226.794 69.7441C228.348 68.6258 228.348 68.253 229.514 67.1348C230.68 66.0165 234.566 67.8803 240.783 68.253C247.001 68.6258 245.835 65.271 246.612 65.271C247.39 65.271 248.555 58.1887 249.333 57.4432C250.11 56.6977 252.053 55.5794 252.441 54.8339C252.83 54.0884 252.053 52.2246 252.053 51.1064C252.053 49.9881 253.607 49.6154 253.996 48.8699C254.384 48.1244 254.384 46.6333 253.607 45.5151C252.83 44.3968 253.607 43.2786 253.607 42.5331C253.607 41.7875 253.219 39.9238 252.441 39.1783C251.664 38.4328 252.053 37.3145 252.053 36.569C252.053 35.8235 248.167 30.9777 247.39 30.9777C246.612 30.9777 246.612 29.1139 246.612 27.6229C246.612 26.1319 242.338 23.8954 241.949 22.4047C241.561 20.914 237.286 19.7954 236.12 19.4227C234.954 19.0499 234.954 17.5586 234.954 17.1861C234.954 16.8136 231.845 16.8131 231.068 16.8131C230.291 16.8131 227.571 15.3221 226.016 15.3221C224.462 15.3221 221.742 18.6768 220.965 19.4227C220.187 20.1685 220.965 17.5589 218.633 17.1861C216.301 16.8134 216.301 19.7954 215.524 19.4227C214.747 19.0499 211.249 19.4227 211.249 19.7954C211.249 20.1682 208.918 20.5409 207.363 20.5409C205.809 20.5409 205.032 21.2865 205.032 22.4047C205.032 23.523 214.747 37.3149 215.135 38.8059C215.524 40.2969 203.089 58.5618 201.923 61.9166Z" fill="url(#paint32_radial_416_4131)"/>
<path d="M202.697 60.7937C201.453 63.1793 203.215 65.5153 204.251 66.385L199.977 88.7502L191.816 85.0227C191.946 85.5197 192.05 86.5137 191.428 86.5137C190.651 86.5137 175.884 74.2128 174.718 74.2128C173.552 74.2128 171.22 75.7038 170.055 75.3311C168.889 74.9583 170.055 75.3311 169.666 76.4493C169.277 77.5676 166.557 76.8221 166.557 77.1948C166.557 77.5676 166.169 77.5676 165.391 77.9403C164.77 78.2385 162.93 79.5556 163.06 80.5496C165.391 80.5496 162.593 81.2951 162.283 81.2951C161.894 81.2951 165.003 82.7861 165.391 83.9044C165.78 85.0227 163.06 85.3954 163.06 86.5137C163.06 87.6319 160.728 87.2592 159.951 86.5137C159.174 85.7682 150.624 87.2592 147.127 88.0047C143.63 88.7502 141.687 93.2232 141.298 93.9687C140.909 94.7142 138.189 93.9688 136.635 92.8505C135.081 91.7322 135.858 88.7502 135.858 87.2592C135.858 85.7682 134.692 85.7682 134.303 84.6499C133.914 83.5316 135.08 82.4134 133.915 81.2951C132.749 80.1769 133.137 77.1948 132.748 75.3311C132.36 73.4673 134.303 68.9943 134.303 66.385C134.303 63.7758 136.635 64.894 138.189 64.894C139.743 64.894 142.852 58.5572 144.018 57.4389C145.184 56.3206 149.07 56.3206 151.013 56.3206C152.956 56.3206 152.567 57.8117 153.344 58.1844C154.122 58.5572 153.733 57.0662 155.287 56.6934C156.842 56.3206 161.505 52.2204 161.505 51.8476C161.505 51.4748 162.671 51.8476 163.06 51.8476C163.448 51.8476 163.448 50.7293 163.448 49.9838C163.448 49.2383 164.225 49.2383 165.391 49.2383C166.324 49.2383 166.298 45.7593 166.168 44.0198C166.298 43.8955 166.79 43.1252 167.723 41.0377C168.889 38.4285 158.785 34.3282 158.008 33.5827C157.231 32.8372 158.396 32.0917 158.396 31.7189C158.396 31.3462 159.562 30.2279 159.951 30.2279C160.339 30.2279 159.951 27.9914 160.339 27.9914C160.728 27.9914 161.117 27.9914 161.117 26.8731C161.117 25.7549 165.003 20.5363 165.391 19.7908C165.78 19.0453 166.946 19.418 167.723 19.418C168.5 19.418 168.5 19.0453 168.5 18.2998C168.5 17.5543 169.666 17.927 170.832 17.927C171.997 17.927 174.329 16.0633 175.883 15.3178C177.438 14.5722 175.495 15.6905 178.992 14.945C181.79 14.3486 184.562 14.1995 185.599 14.1995C185.909 14.4977 187.801 16.0633 188.707 16.8088C190.262 15.6905 189.329 15.8396 190.262 14.945C191.428 13.8268 198.034 17.5543 204.251 20.9091C209.225 23.5929 213.319 30.7249 214.744 33.9555C215.132 34.701 216.065 36.5647 216.687 38.0557C217.464 39.9195 204.251 57.8117 202.697 60.7937Z" fill="url(#paint33_radial_416_4131)"/>
<path d="M177.049 74.5857C179.536 75.4803 188.189 83.4075 192.205 87.2593C192.723 87.0109 193.915 86.514 194.537 86.514C195.314 86.514 204.252 95.4601 203.864 95.8328C203.475 96.2056 203.086 97.3238 202.698 98.4421L202.698 98.4421C202.309 99.5604 203.475 101.797 204.641 103.288C205.807 104.779 205.807 107.761 205.807 108.506C205.807 109.252 206.195 111.488 206.584 112.979C206.972 114.47 206.195 112.234 205.418 115.589C204.641 118.944 201.532 117.453 200.366 119.316C199.2 121.18 196.48 118.571 195.703 115.589C194.926 112.607 192.205 115.589 191.04 115.589C189.874 115.589 189.485 113.352 188.319 112.234C187.154 111.116 178.604 111.488 178.604 110.743C178.604 109.997 176.273 109.625 173.164 108.879C170.055 108.134 168.889 108.134 167.723 107.761C166.558 107.388 168.889 103.661 171.22 101.051C173.551 98.4421 169.666 98.0693 170.444 96.5783C171.221 95.0873 171.22 92.478 171.998 90.6143C172.776 88.7505 170.444 89.496 168.111 89.496C165.779 89.496 162.672 86.514 163.059 85.3957C163.447 84.2775 162.282 82.4137 161.894 81.6682C161.505 80.9227 162.671 81.2954 163.059 80.1772C163.448 79.0589 163.059 77.9407 163.059 77.1951C163.059 76.4496 164.225 76.8224 165.391 76.8224C166.557 76.8224 167.334 71.9764 168.111 71.2309C168.888 70.4854 171.22 71.9764 171.22 72.3492C171.22 72.7219 170.832 73.0947 177.049 74.5857Z" fill="url(#paint34_radial_416_4131)"/>
<path d="M203.088 67.506L204.254 66.7605C204.384 66.512 204.798 66.015 205.42 66.015C206.042 66.015 205.938 65.7665 205.809 65.6422H207.363C207.985 65.6422 207.881 65.1452 207.752 64.8967H208.918C209.539 64.8967 209.954 64.6482 210.083 64.5239L210.861 65.2695L211.249 64.5239H212.804C213.192 64.5239 213.192 65.6422 213.969 65.2695C214.591 64.9713 215.265 65.1452 215.524 65.2695V66.015H216.69C216.819 65.6422 217.078 64.8222 217.078 64.5239C217.078 64.1512 218.633 64.1512 218.633 64.5239C218.633 64.8967 219.021 65.6422 219.41 66.015C219.721 66.3132 220.317 65.6422 220.576 65.2695H221.741C222.052 65.2695 222.13 66.512 222.13 67.1332H223.296L224.462 67.506L225.239 68.6242C226.016 68.3757 227.571 67.9533 227.571 68.2515V70.488C227.959 70.488 228.736 70.6371 228.736 71.2335V72.3518L229.514 72.7245V73.8428C229.514 74.141 230.032 73.967 230.291 73.8428L230.679 74.9611C230.42 75.3338 229.824 76.1539 229.514 76.4521C229.203 76.7503 229.902 77.0733 230.291 77.1976V78.6886C230.291 78.9868 230.809 79.3098 231.068 79.4341C231.457 79.6826 232.312 80.2542 232.622 80.5524C232.933 80.8506 232.752 82.1676 232.622 82.7889C232.363 83.1616 231.845 83.9817 231.845 84.2799C231.845 84.5781 232.363 85.1496 232.622 85.3981L231.845 86.1437C231.716 86.6407 231.223 87.6347 230.291 87.6347C229.358 87.6347 228.089 89.1257 227.571 89.8712C227.959 90.1197 228.736 90.7658 228.736 91.3622C228.736 91.9586 227.441 92.6047 226.793 92.8532C226.923 93.3502 227.104 94.3442 226.793 94.3442H225.239L224.462 95.0897C224.073 95.3382 223.296 95.9844 223.296 96.5808C223.296 97.1772 222.26 96.8293 221.741 96.5808V97.3263C221.482 97.699 220.887 98.5191 220.576 98.8173C220.265 99.1155 220.446 100.93 220.576 101.799L219.021 100.681C218.892 100.93 218.633 101.576 218.633 102.172C218.633 102.768 217.337 101.924 216.69 101.427L215.524 102.545C215.265 101.924 214.747 100.756 214.747 101.054C214.747 101.427 213.969 102.918 213.192 102.918C212.415 102.918 212.804 102.172 212.415 101.427C212.104 100.83 211.508 101.924 211.249 102.545C210.861 102.296 209.928 101.725 209.306 101.427C208.529 101.054 208.529 100.681 208.14 100.308C207.752 99.9355 206.975 100.308 206.197 100.308C205.42 100.308 206.197 99.5628 206.197 98.8173C206.197 98.2209 205.679 97.8233 205.42 97.699L203.866 97.3263L202.7 95.8352C202.57 95.5867 201.845 95.0897 199.98 95.0897C197.648 95.0897 197.648 92.8532 197.648 92.4805C197.648 92.1077 197.648 91.3622 196.871 91.735C196.094 92.1077 195.705 90.6167 194.928 90.2439C194.306 89.9457 194.41 88.3802 194.539 87.6347C193.632 87.3862 191.819 86.591 191.819 85.3981C191.819 84.2053 193.632 83.9071 194.539 83.9071C193.892 83.4101 192.518 82.267 192.208 81.6706C191.819 80.9251 193.373 80.9251 193.373 80.1796C193.373 79.5832 192.337 79.1856 191.819 79.0613L193.373 78.3158L192.208 77.1976C191.819 76.8248 192.596 76.4521 192.208 75.7066C191.897 75.1102 193.632 74.9611 194.539 74.9611C193.892 74.5883 192.596 73.7682 192.596 73.47C192.596 73.0973 193.762 72.7245 194.539 71.979C195.161 71.3826 195.835 72.2275 196.094 72.7245C196.094 72.1033 196.016 70.7117 195.705 70.1153C195.394 69.5188 196.871 69.8668 197.648 70.1153V68.997H199.98H201.145C201.534 68.8727 202.234 68.5497 201.923 68.2515C201.612 67.9533 202.57 67.6302 203.088 67.506Z" fill="url(#paint35_radial_416_4131)"/>
</g>
<defs>
<linearGradient id="paint0_linear_416_4131" x1="217" y1="329" x2="217" y2="724" gradientUnits="userSpaceOnUse">
<stop stop-color="#625821"/>
<stop offset="0.605769" stop-color="#C8B543"/>
<stop offset="0.975962" stop-color="#F3F0EA"/>
</linearGradient>
<linearGradient id="paint1_linear_416_4131" x1="109.5" y1="199" x2="109.5" y2="724" gradientUnits="userSpaceOnUse">
<stop stop-color="#625821"/>
<stop offset="0.480769" stop-color="#C8B543"/>
<stop offset="0.947115" stop-color="#F3F0EA"/>
</linearGradient>
<linearGradient id="paint2_linear_416_4131" x1="187.5" y1="86" x2="187.5" y2="724" gradientUnits="userSpaceOnUse">
<stop stop-color="#625821"/>
<stop offset="0.653846" stop-color="#C8B543"/>
<stop offset="0.971154" stop-color="#F3F0EA"/>
</linearGradient>
<radialGradient id="paint3_radial_416_4131" cx="0" cy="0" r="1" gradientUnits="userSpaceOnUse" gradientTransform="translate(184.947 307.691) rotate(-148.65) scale(84.4886 108.058)">
<stop stop-color="#B1949A"/>
<stop offset="0.182692" stop-color="#BEAAAA"/>
<stop offset="0.384935" stop-color="#DCC7C8"/>
<stop offset="0.572907" stop-color="#D7C2C3"/>
<stop offset="0.74734" stop-color="#E4DAE2"/>
<stop offset="0.975962" stop-color="#F5F1F4"/>
</radialGradient>
<radialGradient id="paint4_radial_416_4131" cx="0" cy="0" r="1" gradientUnits="userSpaceOnUse" gradientTransform="translate(173.799 353.927) rotate(146.842) scale(65.8364 77.2834)">
<stop stop-color="#BDAEB5"/>
<stop offset="0.120192" stop-color="#BDB0B7"/>
<stop offset="0.269231" stop-color="#CBC1C7"/>
<stop offset="0.475275" stop-color="#E0C5C5"/>
<stop offset="0.889423" stop-color="#EEE7EE"/>
<stop offset="0.889523" stop-color="#EEE7EE"/>
</radialGradient>
<radialGradient id="paint5_radial_416_4131" cx="0" cy="0" r="1" gradientUnits="userSpaceOnUse" gradientTransform="translate(224.504 380.379) rotate(119.667) scale(66.8135 63.2848)">
<stop stop-color="#CBB7B6"/>
<stop offset="0.302885" stop-color="#D2C3C0"/>
<stop offset="0.639423" stop-color="#D5CBCC"/>
<stop offset="0.908654" stop-color="#F0E7E8"/>
</radialGradient>
<radialGradient id="paint6_radial_416_4131" cx="0" cy="0" r="1" gradientUnits="userSpaceOnUse" gradientTransform="translate(239.944 367.887) rotate(73.2016) scale(81.3696 119.086)">
<stop stop-color="#4A4A3E"/>
<stop offset="0.119304" stop-color="#654F42"/>
<stop offset="0.190995" stop-color="#916E74"/>
<stop offset="0.247977" stop-color="#B7A0AA"/>
<stop offset="0.40314" stop-color="#F6ECF1"/>
<stop offset="0.754808" stop-color="#F0EFED"/>
</radialGradient>
<radialGradient id="paint7_radial_416_4131" cx="0" cy="0" r="1" gradientUnits="userSpaceOnUse" gradientTransform="translate(253.17 359.066) rotate(24.9547) scale(81.8658 115.14)">
<stop stop-color="#524B2F"/>
<stop offset="0.0623057" stop-color="#635139"/>
<stop offset="0.126676" stop-color="#705647"/>
<stop offset="0.174584" stop-color="#916D6F"/>
<stop offset="0.276885" stop-color="#BFA6A9"/>
<stop offset="0.335981" stop-color="#D5BAC1"/>
<stop offset="0.788462" stop-color="#FAF9F7"/>
</radialGradient>
<radialGradient id="paint8_radial_416_4131" cx="0" cy="0" r="1" gradientUnits="userSpaceOnUse" gradientTransform="translate(253.908 337.022) rotate(-10.7327) scale(114.439 115.106)">
<stop offset="0.0752693" stop-color="#5C5441"/>
<stop offset="0.156192" stop-color="#896C5E"/>
<stop offset="0.247879" stop-color="#A38388"/>
<stop offset="0.32168" stop-color="#B59FA2"/>
<stop offset="0.599246" stop-color="#E8E3E0"/>
<stop offset="0.884615" stop-color="#F3F4F8"/>
</radialGradient>
<linearGradient id="paint9_linear_416_4131" x1="218.632" y1="229.729" x2="219.367" y2="178.288" gradientUnits="userSpaceOnUse">
<stop stop-color="#E0D8D5"/>
<stop offset="0.302885" stop-color="#DBD1D0"/>
<stop offset="0.788462" stop-color="#F0EFEC"/>
</linearGradient>
<radialGradient id="paint10_radial_416_4131" cx="0" cy="0" r="1" gradientUnits="userSpaceOnUse" gradientTransform="translate(238.471 320.854) rotate(-68.3978) scale(117.769 108.752)">
<stop stop-color="#585542"/>
<stop offset="0.0384615" stop-color="#645943"/>
<stop offset="0.0961538" stop-color="#816649"/>
<stop offset="0.139423" stop-color="#896356"/>
<stop offset="0.192308" stop-color="#A47C72"/>
<stop offset="0.298077" stop-color="#CEA6A6"/>
<stop offset="0.427885" stop-color="#D9BDBC"/>
<stop offset="0.653846" stop-color="#E3D3D3"/>
<stop offset="0.903846" stop-color="#EDEEE8"/>
</radialGradient>
<radialGradient id="paint11_radial_416_4131" cx="0" cy="0" r="1" gradientUnits="userSpaceOnUse" gradientTransform="translate(215.69 328.206) rotate(-155.27) scale(111.899 112.635)">
<stop offset="0.0416334" stop-color="#5E5F57"/>
<stop offset="0.0950181" stop-color="#474538"/>
<stop offset="0.17741" stop-color="#785B5D"/>
<stop offset="0.259138" stop-color="#A38189"/>
<stop offset="0.56423" stop-color="#D5C7C6"/>
<stop offset="0.706731" stop-color="#E0D8D5"/>
<stop offset="0.875" stop-color="#F0E3E1"/>
<stop offset="1" stop-color="#ECE6E6"/>
</radialGradient>
<radialGradient id="paint12_radial_416_4131" cx="0" cy="0" r="1" gradientUnits="userSpaceOnUse" gradientTransform="translate(213.484 352.455) rotate(147.619) scale(71.3554 62.7843)">
<stop stop-color="#343628"/>
<stop offset="0.129808" stop-color="#635437"/>
<stop offset="0.307692" stop-color="#95757A"/>
<stop offset="0.447115" stop-color="#B5A5A8"/>
<stop offset="0.807692" stop-color="#FBF0EE"/>
</radialGradient>
<radialGradient id="paint13_radial_416_4131" cx="0" cy="0" r="1" gradientUnits="userSpaceOnUse" gradientTransform="translate(236.266 342.901) rotate(128.234) scale(30.8737 25.1527)">
<stop stop-color="#2B395E"/>
<stop offset="1" stop-color="#070E21"/>
</radialGradient>
<radialGradient id="paint14_radial_416_4131" cx="0" cy="0" r="1" gradientUnits="userSpaceOnUse" gradientTransform="translate(57.0229 179.622) rotate(-148.254) scale(45.4355 58.5204)">
<stop stop-color="#B1949A"/>
<stop offset="0.182692" stop-color="#BEAAAA"/>
<stop offset="0.384935" stop-color="#DCC7C8"/>
<stop offset="0.572907" stop-color="#D7C2C3"/>
<stop offset="0.74734" stop-color="#E4DAE2"/>
<stop offset="0.975962" stop-color="#F5F1F4"/>
</radialGradient>
<radialGradient id="paint15_radial_416_4131" cx="0" cy="0" r="1" gradientUnits="userSpaceOnUse" gradientTransform="translate(46.691 203.579) rotate(146.842) scale(35.113 41.2181)">
<stop stop-color="#BDAEB5"/>
<stop offset="0.120192" stop-color="#BDB0B7"/>
<stop offset="0.269231" stop-color="#CBC1C7"/>
<stop offset="0.475275" stop-color="#E0C5C5"/>
<stop offset="0.889423" stop-color="#EEE7EE"/>
<stop offset="0.889523" stop-color="#EEE7EE"/>
</radialGradient>
<radialGradient id="paint16_radial_416_4131" cx="0" cy="0" r="1" gradientUnits="userSpaceOnUse" gradientTransform="translate(73.7339 217.687) rotate(119.667) scale(35.6341 33.7521)">
<stop stop-color="#CBB7B6"/>
<stop offset="0.302885" stop-color="#D2C3C0"/>
<stop offset="0.639423" stop-color="#D5CBCC"/>
<stop offset="0.908654" stop-color="#F0E7E8"/>
</radialGradient>
<radialGradient id="paint17_radial_416_4131" cx="0" cy="0" r="1" gradientUnits="userSpaceOnUse" gradientTransform="translate(81.9683 211.025) rotate(73.2016) scale(43.3974 63.5132)">
<stop stop-color="#4A4A3E"/>
<stop offset="0.119304" stop-color="#654F42"/>
<stop offset="0.190995" stop-color="#916E74"/>
<stop offset="0.247977" stop-color="#B7A0AA"/>
<stop offset="0.40314" stop-color="#F6ECF1"/>
<stop offset="0.754808" stop-color="#F0EFED"/>
</radialGradient>
<radialGradient id="paint18_radial_416_4131" cx="0" cy="0" r="1" gradientUnits="userSpaceOnUse" gradientTransform="translate(89.0232 206.32) rotate(24.9547) scale(43.6621 61.4083)">
<stop stop-color="#524B2F"/>
<stop offset="0.0623057" stop-color="#635139"/>
<stop offset="0.126676" stop-color="#705647"/>
<stop offset="0.174584" stop-color="#916D6F"/>
<stop offset="0.276885" stop-color="#BFA6A9"/>
<stop offset="0.335981" stop-color="#D5BAC1"/>
<stop offset="0.788462" stop-color="#FAF9F7"/>
</radialGradient>
<radialGradient id="paint19_radial_416_4131" cx="0" cy="0" r="1" gradientUnits="userSpaceOnUse" gradientTransform="translate(89.4161 194.563) rotate(-10.7327) scale(61.0344 61.3904)">
<stop offset="0.0752693" stop-color="#5C5441"/>
<stop offset="0.156192" stop-color="#896C5E"/>
<stop offset="0.247879" stop-color="#A38388"/>
<stop offset="0.32168" stop-color="#B59FA2"/>
<stop offset="0.599246" stop-color="#E8E3E0"/>
<stop offset="0.884615" stop-color="#F3F4F8"/>
</radialGradient>
<linearGradient id="paint20_linear_416_4131" x1="70.603" y1="137.34" x2="70.9949" y2="109.905" gradientUnits="userSpaceOnUse">
<stop stop-color="#E0D8D5"/>
<stop offset="0.302885" stop-color="#DBD1D0"/>
<stop offset="0.788462" stop-color="#F0EFEC"/>
</linearGradient>
<radialGradient id="paint21_radial_416_4131" cx="0" cy="0" r="1" gradientUnits="userSpaceOnUse" gradientTransform="translate(81.1829 185.941) rotate(-68.3978) scale(62.8106 58.0016)">
<stop stop-color="#585542"/>
<stop offset="0.0384615" stop-color="#645943"/>
<stop offset="0.0961538" stop-color="#816649"/>
<stop offset="0.139423" stop-color="#896356"/>
<stop offset="0.192308" stop-color="#A47C72"/>
<stop offset="0.298077" stop-color="#CEA6A6"/>
<stop offset="0.427885" stop-color="#D9BDBC"/>
<stop offset="0.653846" stop-color="#E3D3D3"/>
<stop offset="0.903846" stop-color="#EDEEE8"/>
</radialGradient>
<radialGradient id="paint22_radial_416_4131" cx="0" cy="0" r="1" gradientUnits="userSpaceOnUse" gradientTransform="translate(69.0333 189.861) rotate(-155.27) scale(59.6799 60.0722)">
<stop offset="0.0416334" stop-color="#5E5F57"/>
<stop offset="0.0950181" stop-color="#474538"/>
<stop offset="0.17741" stop-color="#785B5D"/>
<stop offset="0.259138" stop-color="#A38189"/>
<stop offset="0.56423" stop-color="#D5C7C6"/>
<stop offset="0.706731" stop-color="#E0D8D5"/>
<stop offset="0.875" stop-color="#F0E3E1"/>
<stop offset="1" stop-color="#ECE6E6"/>
</radialGradient>
<radialGradient id="paint23_radial_416_4131" cx="0" cy="0" r="1" gradientUnits="userSpaceOnUse" gradientTransform="translate(67.8564 202.794) rotate(147.619) scale(38.0565 33.4852)">
<stop stop-color="#343628"/>
<stop offset="0.129808" stop-color="#635437"/>
<stop offset="0.307692" stop-color="#95757A"/>
<stop offset="0.447115" stop-color="#B5A5A8"/>
<stop offset="0.807692" stop-color="#FBF0EE"/>
</radialGradient>
<radialGradient id="paint24_radial_416_4131" cx="0" cy="0" r="1" gradientUnits="userSpaceOnUse" gradientTransform="translate(80.0077 197.699) rotate(128.234) scale(16.4661 13.4149)">
<stop stop-color="#2B395E"/>
<stop offset="1" stop-color="#070E21"/>
</radialGradient>
<radialGradient id="paint25_radial_416_4131" cx="0" cy="0" r="1" gradientUnits="userSpaceOnUse" gradientTransform="translate(187.434 64.6898) rotate(-148.671) scale(44.6622 43.9083)">
<stop stop-color="#BC9A4E"/>
<stop offset="0.0991372" stop-color="#D9B67B"/>
<stop offset="0.774038" stop-color="#FFEBBD"/>
<stop offset="1" stop-color="#FFFDF8"/>
</radialGradient>
<radialGradient id="paint26_radial_416_4131" cx="0" cy="0" r="1" gradientUnits="userSpaceOnUse" gradientTransform="translate(178.997 89.5019) rotate(147.925) scale(34.3956 39.6776)">
<stop stop-color="#BDAEB5"/>
<stop offset="0.120192" stop-color="#BDB0B7"/>
<stop offset="0.269231" stop-color="#E4DFD3"/>
<stop offset="0.475275" stop-color="#FFE29A"/>
<stop offset="0.889423" stop-color="#F8EAC8"/>
<stop offset="0.889523" stop-color="#F7EACB"/>
</radialGradient>
<radialGradient id="paint27_radial_416_4131" cx="0" cy="0" r="1" gradientUnits="userSpaceOnUse" gradientTransform="translate(205.801 102.917) rotate(120.704) scale(34.2485 33.1145)">
<stop stop-color="#CBB7B6"/>
<stop offset="0.302885" stop-color="#CCBB94"/>
<stop offset="0.639423" stop-color="#E5D4AD"/>
<stop offset="0.908654" stop-color="#FFF1D3"/>
</radialGradient>
<radialGradient id="paint28_radial_416_4131" cx="0" cy="0" r="1" gradientUnits="userSpaceOnUse" gradientTransform="translate(213.969 96.5742) rotate(72.53) scale(41.4225 62.7456)">
<stop stop-color="#4A4A3E"/>
<stop offset="0.119304" stop-color="#655223"/>
<stop offset="0.190995" stop-color="#836722"/>
<stop offset="0.247977" stop-color="#DCB658"/>
<stop offset="0.40314" stop-color="#FFE5A6"/>
<stop offset="0.754808" stop-color="#FFF5DE"/>
</radialGradient>
<radialGradient id="paint29_radial_416_4131" cx="0" cy="0" r="1" gradientUnits="userSpaceOnUse" gradientTransform="translate(220.964 92.107) rotate(24.0544) scale(42.9815 58.8222)">
<stop stop-color="#524B2F"/>
<stop offset="0.0623057" stop-color="#635139"/>
<stop offset="0.126676" stop-color="#705647"/>
<stop offset="0.174584" stop-color="#816729"/>
<stop offset="0.276885" stop-color="#D0AD5A"/>
<stop offset="0.335981" stop-color="#EAC771"/>
<stop offset="0.788462" stop-color="#FFFAEE"/>
</radialGradient>
<radialGradient id="paint30_radial_416_4131" cx="0" cy="0" r="1" gradientUnits="userSpaceOnUse" gradientTransform="translate(221.349 80.9244) rotate(-10.3045) scale(60.4311 58.4664)">
<stop offset="0.0752693" stop-color="#5C5441"/>
<stop offset="0.156192" stop-color="#896C5E"/>
<stop offset="0.247879" stop-color="#A88F53"/>
<stop offset="0.32168" stop-color="#C7AF73"/>
<stop offset="0.599246" stop-color="#FFE8B0"/>
<stop offset="0.884615" stop-color="#FFF9EC"/>
</radialGradient>
<linearGradient id="paint31_linear_416_4131" x1="202.7" y1="26.5012" x2="203.058" y2="0.408001" gradientUnits="userSpaceOnUse">
<stop stop-color="#FFDC88"/>
<stop offset="0.302885" stop-color="#FFF1CF"/>
<stop offset="0.788462" stop-color="#FFFAEE"/>
</linearGradient>
<radialGradient id="paint32_radial_416_4131" cx="0" cy="0" r="1" gradientUnits="userSpaceOnUse" gradientTransform="translate(213.192 72.7261) rotate(-67.5686) scale(60.0866 57.1725)">
<stop stop-color="#585542"/>
<stop offset="0.0384615" stop-color="#645943"/>
<stop offset="0.0961538" stop-color="#816649"/>
<stop offset="0.139423" stop-color="#FFE39F"/>
<stop offset="0.192308" stop-color="#F8EAC8"/>
<stop offset="0.298077" stop-color="#F9DE9D"/>
<stop offset="0.427885" stop-color="#F4D281"/>
<stop offset="0.653846" stop-color="#F3DBA1"/>
<stop offset="0.903846" stop-color="#FFF5DE"/>
</radialGradient>
<radialGradient id="paint33_radial_416_4131" cx="0" cy="0" r="1" gradientUnits="userSpaceOnUse" gradientTransform="translate(201.143 76.4493) rotate(-156.164) scale(58.7569 57.5354)">
<stop offset="0.0416334" stop-color="#5E5F57"/>
<stop offset="0.0950181" stop-color="#AD9E3E"/>
<stop offset="0.17741" stop-color="#DDB85D"/>
<stop offset="0.259138" stop-color="#E8C570"/>
<stop offset="0.56423" stop-color="#F7DDA0"/>
<stop offset="0.706731" stop-color="#F0E1BC"/>
<stop offset="0.875" stop-color="#F8EAC8"/>
<stop offset="1" stop-color="#FCF4E2"/>
</radialGradient>
<radialGradient id="paint34_radial_416_4131" cx="0" cy="0" r="1" gradientUnits="userSpaceOnUse" gradientTransform="translate(199.977 88.7505) rotate(148.689) scale(37.2977 32.2174)">
<stop stop-color="#343628"/>
<stop offset="0.129808" stop-color="#9E7A34"/>
<stop offset="0.307692" stop-color="#CDB06B"/>
<stop offset="0.447115" stop-color="#E5C67A"/>
<stop offset="0.807692" stop-color="#FFF5DE"/>
</radialGradient>
<radialGradient id="paint35_radial_416_4131" cx="0" cy="0" r="1" gradientUnits="userSpaceOnUse" gradientTransform="translate(212.026 83.9071) rotate(129.399) scale(15.9184 13.0849)">
<stop stop-color="#4F4115"/>
<stop offset="1" stop-color="#302607"/>
</radialGradient>
</defs>
</svg>
