<svg width="299" height="245" viewBox="0 0 299 245" fill="none" xmlns="http://www.w3.org/2000/svg">
<path d="M220.72 174.002C224.72 181.502 227.72 188.002 228.22 192.502C233.387 193.836 237.42 193.009 238.22 193.009C239.22 193.009 237.885 188.838 239.22 183.503C240.72 177.51 246.22 166.508 243.72 169.508C241.72 171.908 234.22 182.01 235.72 188.51C234.554 187.51 234.22 184.51 234.22 183.502C234.22 179.471 231.501 170.446 231.22 172.002C230.95 173.502 231.387 183.336 231.22 186.502C230.554 185.336 230.72 185.502 229.72 184.002C228.577 182.287 217.045 167.111 220.72 174.002Z" fill="#7B6F28"/>
<path d="M151.72 201.002C155.72 208.502 158.72 215.002 159.22 219.502C164.387 220.836 168.42 220.009 169.22 220.009C170.22 220.009 168.885 215.838 170.22 210.503C171.72 204.51 177.22 193.508 174.72 196.508C172.72 198.908 165.22 209.01 166.72 215.51C165.554 214.51 165.22 211.51 165.22 210.502C165.22 206.471 162.501 197.446 162.22 199.002C161.95 200.502 162.387 210.336 162.22 213.502C161.554 212.336 161.72 212.502 160.72 211.002C159.577 209.287 148.045 194.111 151.72 201.002Z" fill="#7B6F28"/>
<path d="M274.72 225.002C278.72 232.502 281.72 239.002 282.22 243.502C287.387 244.836 291.42 244.009 292.22 244.009C293.22 244.009 291.885 239.838 293.22 234.503C294.72 228.51 300.22 217.508 297.72 220.508C295.72 222.908 288.22 233.01 289.72 239.51C288.554 238.51 288.22 235.51 288.22 234.502C288.22 230.471 285.501 221.446 285.22 223.002C284.95 224.502 285.387 234.336 285.22 237.502C284.554 236.336 284.72 236.502 283.72 235.002C282.577 233.287 271.045 218.111 274.72 225.002Z" fill="#7B6F28"/>
<rect x="101.617" y="181" width="3" height="1" transform="rotate(38.1106 101.617 181)" fill="#7B6F28"/>
<rect x="90.8872" y="182" width="3" height="1" transform="rotate(62.524 90.8872 182)" fill="#7B6F28"/>
<rect x="102.303" y="175" width="3" height="1" transform="rotate(17.6244 102.303 175)" fill="#7B6F28"/>
<rect x="112.903" y="172" width="3" height="1" transform="rotate(64.5106 112.903 172)" fill="#7B6F28"/>
<rect x="108" y="171.719" width="3" height="1" transform="rotate(-64.9728 108 171.719)" fill="#7B6F28"/>
<rect x="97" y="177.575" width="1.71446" height="1" transform="rotate(-19.6067 97 177.575)" fill="#7B6F28"/>
<rect x="109.048" y="174" width="1.71446" height="1" transform="rotate(2.74276 109.048 174)" fill="#7B6F28"/>
<rect x="102.619" y="170" width="1.71446" height="1" transform="rotate(38.2107 102.619 170)" fill="#7B6F28"/>
<rect x="92" y="180.553" width="1.71446" height="1" transform="rotate(-64.917 92 180.553)" fill="#7B6F28"/>
<rect x="85" y="188.523" width="1.71446" height="1" transform="rotate(-17.7942 85 188.523)" fill="#7B6F28"/>
<rect x="86.3282" y="184.874" width="1.71446" height="1" transform="rotate(-101.038 86.3282 184.874)" fill="#7B6F28"/>
<rect x="95.6752" y="186" width="1.71446" height="1" transform="rotate(42.4648 95.6752 186)" fill="#7B6F28"/>
<rect x="97.7111" y="181" width="0.488352" height="1" transform="rotate(45.3243 97.7111 181)" fill="#7B6F28"/>
<rect x="95.0922" y="183.258" width="0.488352" height="1" transform="rotate(104.944 95.0922 183.258)" fill="#7B6F28"/>
<rect x="89.2566" y="186.039" width="0.488352" height="1" transform="rotate(-3.0713 89.2566 186.039)" fill="#7B6F28"/>
<rect width="0.482449" height="1" transform="matrix(0.346051 -0.938216 -0.938216 -0.346051 94.9382 176.799)" fill="#7B6F28"/>
<rect width="0.482449" height="1" transform="matrix(0.346051 -0.938216 -0.938216 -0.346051 106.938 173.799)" fill="#7B6F28"/>
<rect width="0.482449" height="1" transform="matrix(0.713467 -0.700689 -0.700689 -0.713467 107.731 177.926)" fill="#7B6F28"/>
<rect x="103.246" y="178.045" width="0.488352" height="1" transform="rotate(-4.30612 103.246 178.045)" fill="#7B6F28"/>
<rect x="99.535" y="172.969" width="0.488352" height="1" transform="rotate(26.8369 99.535 172.969)" fill="#7B6F28"/>
<path d="M58.8354 131.939L40.5 103.5L25.5 111L51.7468 141.735L62.8861 177H72L58.8354 131.939Z" fill="#EEB3A4"/>
<path d="M14.9318 180.904L3 184L14.9318 149.678V105L32.5 109.5L25.1591 152.965L14.9318 180.904Z" fill="#EEB3A4"/>
<path d="M55 67L32 44.5L37.5 58L49.5 75.5L77 80.5L84.5 78L55 67Z" fill="#EEB3A4"/>
<ellipse cx="28" cy="24.5" rx="19" ry="21.5" fill="#EEB3A4"/>
<path d="M46 68.261C40.9982 105.204 46.5002 107.192 28.9939 112.533C12.3425 117.613 10.9876 110.307 17.9901 77.8151C24.1598 49.1868 19.4972 42 29.9943 42C32.9954 42 46 46.8744 46 68.261Z" fill="#CCB367"/>
<path d="M83.4791 176.642C83.5428 180.628 77.8551 180.455 72.6133 180.798C67.3628 180.639 63.4326 181.926 62.4949 177.004C61.0628 169.488 64.9362 168.612 70.6724 168.784C73.7347 168.876 83.3911 171.122 83.4791 176.642Z" fill="#404040"/>
<path d="M25.4999 187C25.4999 190.542 23.9999 190.542 13.7337 190.542C7.5 190.543 0.999975 191.5 1.94423 185.918C3.99997 181.5 6.1796 180.059 12.2929 179.588C18.4061 179.117 25.4999 182 25.4999 187Z" fill="#404040"/>
<path d="M63 84L72 81.5L45.5 73.5L32.3196 52.4937C30.8017 50.0747 27.5406 49.4695 25.256 51.183C23.1584 52.7562 22.6784 55.7055 24.1688 57.8627L40.5 81.5L63 84Z" fill="#EEB3A4"/>
<circle cx="115.491" cy="193.78" r="16.2203" fill="#303030"/>
<ellipse cx="115.5" cy="194" rx="7.5" ry="7" fill="#404040"/>
<circle cx="141.22" cy="173.58" r="16.2203" fill="#303030"/>
<path d="M103.746 181.238L133.949 159.102C142.769 153.697 160.172 164.441 155.762 173.085L131.307 192.037C131.307 178.213 113.668 175.408 103.746 181.238Z" fill="#FB8243" stroke="#CB632D"/>
<path d="M71.8644 86.2034L118.286 175.696C119.167 177.394 121.392 177.845 122.865 176.623L141.452 161.2C142.62 160.23 142.88 158.54 142.056 157.264L90.8813 78H88.0847L59 86.2034H71.8644Z" stroke="#404040" stroke-width="2"/>
<path d="M110 180.74L112.133 188H116.4L118 180.74C117.573 179.4 112.489 180.182 110 180.74Z" fill="#404040"/>
<path d="M123.701 182.458L119.321 188.629L121.963 191.979L128.654 188.74C129.443 187.575 125.68 184.067 123.701 182.458Z" fill="#404040"/>
<path d="M129.476 194.561L121.984 193.499L120.218 197.383L126.165 201.844C127.562 202.01 128.954 197.058 129.476 194.561Z" fill="#404040"/>
<path d="M122.177 206.491L119.109 199.574L114.88 200.134L114.246 207.541C114.845 208.814 119.783 207.371 122.177 206.491Z" fill="#404040"/>
<path d="M107.477 205.801L111.955 199.702L109.368 196.31L102.625 199.44C101.818 200.592 105.523 204.161 107.477 205.801Z" fill="#404040"/>
<path d="M100.691 192.736L108.234 193.337L109.759 189.352L103.549 185.264C102.145 185.184 101.059 190.212 100.691 192.736Z" fill="#404040"/>
<circle cx="116" cy="194" r="3" fill="#303030"/>
<circle cx="41.1239" cy="20.4487" r="2.41842" transform="rotate(-6.41031 41.1239 20.4487)" fill="#3D3D3D"/>
<circle cx="41.8922" cy="21.101" r="0.807564" transform="rotate(-6.41031 41.8922 21.101)" fill="#FCFCFC"/>
<path d="M37.696 21.3C38.0052 19.8032 39.6273 17.1385 43.6416 18.4545" stroke="#3D3D3D" stroke-linecap="round"/>
<path d="M49.1782 28.2646C50.1887 24.8766 47.5566 24.303 45.9684 18L45.277 30.0295C46.0458 30.8412 48.88 29.2646 49.1782 28.2646Z" fill="#EEB3A4"/>
<path d="M47.0001 33.9998C47.3941 31.0653 42.5002 31.4989 42.0003 34.4997C41.0003 38.4997 46 39.5 46.5 37.5C47 35.5 45.5002 35.6731 45.5002 35.499C45.5002 35.1731 46.7949 35.5279 47.0001 33.9998Z" fill="#E44444"/>
<path d="M36 16.5005C38.178 14.7581 44.1508 14.9131 45.6534 14.982C45.8791 14.9923 46.1021 14.9314 46.2632 14.773C47.0892 13.9608 49.2732 10.9312 44 4.99949C40 0.5 21.4999 -2.50038 12.8148 8.49929C10.4551 11.4879 7.49992 19.9996 8.49992 29.4996C9.02334 34.4721 3.99998 34.4996 3.49998 43.9996C2.99998 53.4996 11.5 48.4996 17 50.9996C22.5 53.4996 23.6758 45.824 27.5 41.9996C31.4999 37.9995 29.5 19.0004 29.5 19.0004C29.5 19.0004 31.2824 20.2746 36 16.5005Z" fill="#956B47"/>
<path d="M29.9791 22.9967C30.07 25.204 30.1437 26.9933 30.1437 26.9933C28.037 27.0801 26.2556 25.3611 26.1646 23.1538C26.0737 20.9466 27.7078 19.0869 29.8144 19.0001C29.8144 19.0001 29.8882 20.7894 29.9791 22.9967Z" fill="#EEB3A4"/>
<path d="M29.9793 22.988C30.0245 24.0859 30.0612 24.976 30.0612 24.976C29.0133 25.0192 28.1271 24.1641 28.0819 23.0661C28.0367 21.9682 28.8495 21.0431 29.8974 21C29.8974 21 29.9341 21.89 29.9793 22.988Z" fill="#E6AB9D"/>
<circle cx="35.5" cy="28.5" r="3.5" fill="#E18771"/>
<path d="M7.5 139.5L14.5 98L41 104C48.5 114 57.5 130 57.5 130C57.5 130 41.5 140 7.5 139.5Z" fill="#7B8373"/>
<path d="M22.5 59.999C20.9 57.999 23.6667 51.4993 25 48.9993C26 47.9999 28.5 47.4992 31 48.999C33.1438 50.2851 36.9175 53.1972 36.9175 55C36.9175 56 34.5 57 34 57.4999C32.7251 58.7746 31.3944 57.0527 30.5 57.4999C29 58.2499 29.5 60.5 27 58.999C25.0833 57.8482 24.5 62.499 22.5 59.999Z" fill="#727A6A"/>
<path d="M29.6858 25.5358C29.4294 25.4332 29.1384 25.5579 29.0359 25.8143C28.9333 26.0707 29.058 26.3617 29.3144 26.4642L29.5001 26L29.6858 25.5358ZM27.3536 26.3535L27.7071 26L27 25.2929L26.6465 25.6465L27 26L27.3536 26.3535ZM29.5001 26L29.3144 26.4642C29.8589 26.682 30.1341 26.9571 30.2627 27.2015C30.3901 27.4437 30.4027 27.7103 30.3197 27.9759C30.1426 28.5427 29.5682 29 29 29V29.5V30C30.0569 30 30.9826 29.2073 31.2742 28.2741C31.4256 27.7897 31.4149 27.2438 31.1477 26.736C30.8818 26.2304 30.3914 25.818 29.6858 25.5358L29.5001 26ZM29 29.5V29C27.6524 29 27.1384 28.4588 26.9744 27.9669C26.7875 27.4062 26.9802 26.727 27.3536 26.3535L27 26L26.6465 25.6465C26.02 26.273 25.7126 27.3438 26.0257 28.2831C26.3617 29.2912 27.3476 30 29 30V29.5Z" fill="#FFCF54"/>
<path d="M86.5 78C86.1 77.6001 84.6667 77.8337 84 78.0003H83.5L77.5 79.5002C79 80.5 77.5 80.8 77.5 82C77.5 84.5 83.5 83 85.5 82.5C87.5 82 86.2095 80.2908 87 79.5002C87.283 79.2172 87 78.4999 86.5 78Z" fill="#EEB3A4"/>
<path d="M74 81.2207C73.6 80.8208 72.1667 81.0544 71.5 81.221H71L65 82.7209C66.5 83.7207 65 84.0207 65 85.2207C65 87.7207 71 86.2207 73 85.7207C75 85.2207 73.7095 83.5115 74.5 82.7209C74.783 82.4379 74.5 81.7206 74 81.2207Z" fill="#EEB3A4"/>
<path d="M63.049 85.8379L72.0446 86.1166L73.451 89.1616" stroke="#404040" stroke-width="2" stroke-linecap="square"/>
<rect x="97" y="184" width="3" height="1" fill="#7B6F28"/>
<rect x="90" y="189.549" width="3" height="1" transform="rotate(-31.0878 90 189.549)" fill="#7B6F28"/>
</svg>
