<svg width="670" height="431" viewBox="0 0 670 431" fill="none" xmlns="http://www.w3.org/2000/svg">
<path d="M44.9452 176.474C68.916 175.24 60 85.0002 145 96.5002C195.767 103.369 189.7 157 131.5 254C101.5 304 185 393.5 254.5 304C321.755 217.391 282.5 129.5 360.5 129.5C435.101 129.5 361.522 232.5 477 232.5C553.5 232.5 510 38.5001 604.645 46.9259" stroke="#F7C7D9" stroke-width="31"/>
<circle cx="44.6808" cy="166.826" r="44.6808" fill="#273BA9"/>
<circle cx="181.103" cy="341.319" r="44.6808" fill="#273BA9"/>
<circle cx="356.681" cy="121.681" r="44.6808" fill="#273BA9"/>
<circle cx="611.519" cy="44.6808" r="44.6808" fill="#273BA9"/>
<path d="M13.6997 219H16.6797L18.9597 233H16.7597L16.3597 230.22V230.26H13.8597L13.4597 233H11.4197L13.6997 219ZM16.0997 228.36L15.1197 221.44H15.0797L14.1197 228.36H16.0997ZM15.1997 218.28C14.693 218.28 14.2664 218.113 13.9197 217.78C13.5864 217.433 13.4197 217.013 13.4197 216.52C13.4197 216.027 13.5864 215.613 13.9197 215.28C14.2664 214.933 14.693 214.76 15.1997 214.76C15.7064 214.76 16.1264 214.933 16.4597 215.28C16.8064 215.613 16.9797 216.027 16.9797 216.52C16.9797 217.013 16.8064 217.433 16.4597 217.78C16.1264 218.113 15.7064 218.28 15.1997 218.28ZM15.1997 217.22C15.3864 217.22 15.5397 217.16 15.6597 217.04C15.7797 216.907 15.8397 216.733 15.8397 216.52C15.8397 216.307 15.7797 216.14 15.6597 216.02C15.5397 215.887 15.3864 215.82 15.1997 215.82C15.013 215.82 14.8597 215.887 14.7397 216.02C14.6197 216.14 14.5597 216.307 14.5597 216.52C14.5597 216.733 14.6197 216.907 14.7397 217.04C14.8597 217.16 15.013 217.22 15.1997 217.22ZM20.027 219H23.347C24.4804 219 25.307 219.267 25.827 219.8C26.347 220.32 26.607 221.127 26.607 222.22V222.78C26.607 223.5 26.487 224.087 26.247 224.54C26.0204 224.993 25.667 225.32 25.187 225.52V225.56C26.2804 225.933 26.827 226.907 26.827 228.48V229.68C26.827 230.76 26.5404 231.587 25.967 232.16C25.407 232.72 24.5804 233 23.487 233H20.027V219ZM23.087 224.7C23.527 224.7 23.8537 224.587 24.067 224.36C24.2937 224.133 24.407 223.753 24.407 223.22V222.44C24.407 221.933 24.3137 221.567 24.127 221.34C23.9537 221.113 23.6737 221 23.287 221H22.227V224.7H23.087ZM23.487 231C23.8737 231 24.1604 230.9 24.347 230.7C24.5337 230.487 24.627 230.127 24.627 229.62V228.4C24.627 227.76 24.5137 227.32 24.287 227.08C24.0737 226.827 23.7137 226.7 23.207 226.7H22.227V231H23.487ZM28.113 219H30.873L33.013 227.38H33.053V219H35.013V233H32.753L30.113 222.78H30.073V233H28.113V219ZM36.6481 219H42.6481V221H38.8481V224.7H41.8681V226.7H38.8481V231H42.6481V233H36.6481V219ZM43.9138 219H47.1738C48.3071 219 49.1338 219.267 49.6538 219.8C50.1738 220.32 50.4338 221.127 50.4338 222.22V223.08C50.4338 224.533 49.9538 225.453 48.9938 225.84V225.88C49.5271 226.04 49.9004 226.367 50.1138 226.86C50.3404 227.353 50.4538 228.013 50.4538 228.84V231.3C50.4538 231.7 50.4671 232.027 50.4938 232.28C50.5204 232.52 50.5871 232.76 50.6938 233H48.4538C48.3738 232.773 48.3204 232.56 48.2938 232.36C48.2671 232.16 48.2538 231.8 48.2538 231.28V228.72C48.2538 228.08 48.1471 227.633 47.9338 227.38C47.7338 227.127 47.3804 227 46.8738 227H46.1138V233H43.9138V219ZM46.9138 225C47.3538 225 47.6804 224.887 47.8938 224.66C48.1204 224.433 48.2337 224.053 48.2337 223.52V222.44C48.2337 221.933 48.1404 221.567 47.9538 221.34C47.7804 221.113 47.5004 221 47.1138 221H46.1138V225H46.9138ZM56.8833 219H59.8633L62.1433 233H59.9433L59.5433 230.22V230.26H57.0433L56.6433 233H54.6033L56.8833 219ZM59.2833 228.36L58.3033 221.44H58.2633L57.3033 228.36H59.2833ZM63.2106 219H66.4506C67.544 219 68.364 219.293 68.9106 219.88C69.4573 220.467 69.7306 221.327 69.7306 222.46V223.84C69.7306 224.973 69.4573 225.833 68.9106 226.42C68.364 227.007 67.544 227.3 66.4506 227.3H65.4106V233H63.2106V219ZM66.4506 225.3C66.8106 225.3 67.0773 225.2 67.2506 225C67.4373 224.8 67.5306 224.46 67.5306 223.98V222.32C67.5306 221.84 67.4373 221.5 67.2506 221.3C67.0773 221.1 66.8106 221 66.4506 221H65.4106V225.3H66.4506ZM70.9255 219H74.1655C75.2588 219 76.0788 219.293 76.6255 219.88C77.1721 220.467 77.4455 221.327 77.4455 222.46V223.84C77.4455 224.973 77.1721 225.833 76.6255 226.42C76.0788 227.007 75.2588 227.3 74.1655 227.3H73.1255V233H70.9255V219ZM74.1655 225.3C74.5255 225.3 74.7921 225.2 74.9655 225C75.1521 224.8 75.2455 224.46 75.2455 223.98V222.32C75.2455 221.84 75.1521 221.5 74.9655 221.3C74.7921 221.1 74.5255 221 74.1655 221H73.1255V225.3H74.1655Z" fill="#273BA9"/>
<path d="M109.471 410.2C108.405 410.2 107.591 409.9 107.031 409.3C106.471 408.687 106.191 407.813 106.191 406.68V396H108.391V406.84C108.391 407.32 108.485 407.667 108.671 407.88C108.871 408.093 109.151 408.2 109.511 408.2C109.871 408.2 110.145 408.093 110.331 407.88C110.531 407.667 110.631 407.32 110.631 406.84V396H112.751V406.68C112.751 407.813 112.471 408.687 111.911 409.3C111.351 409.9 110.538 410.2 109.471 410.2ZM114.318 396H117.078L119.218 404.38H119.258V396H121.218V410H118.958L116.318 399.78H116.278V410H114.318V396ZM125.973 410.2C124.907 410.2 124.093 409.9 123.533 409.3C122.973 408.687 122.693 407.813 122.693 406.68V399.32C122.693 398.187 122.973 397.32 123.533 396.72C124.093 396.107 124.907 395.8 125.973 395.8C127.04 395.8 127.853 396.107 128.413 396.72C128.973 397.32 129.253 398.187 129.253 399.32V400.52H127.173V399.18C127.173 398.26 126.793 397.8 126.033 397.8C125.273 397.8 124.893 398.26 124.893 399.18V406.84C124.893 407.747 125.273 408.2 126.033 408.2C126.793 408.2 127.173 407.747 127.173 406.84V404.1H126.073V402.1H129.253V406.68C129.253 407.813 128.973 408.687 128.413 409.3C127.853 409.9 127.04 410.2 125.973 410.2ZM130.346 402H134.746V404H130.346V402ZM136.311 398H134.011V396H140.811V398H138.511V410H136.311V398ZM141.877 396H144.077V410H141.877V396ZM145.724 396H147.924V408H151.544V410H145.724V396ZM150.814 402H155.214V404H150.814V402ZM159.725 410.2C158.658 410.2 157.845 409.9 157.285 409.3C156.725 408.687 156.445 407.813 156.445 406.68V396H158.645V406.84C158.645 407.32 158.738 407.667 158.925 407.88C159.125 408.093 159.405 408.2 159.765 408.2C160.125 408.2 160.398 408.093 160.585 407.88C160.785 407.667 160.885 407.32 160.885 406.84V396H163.005V406.68C163.005 407.813 162.725 408.687 162.165 409.3C161.605 409.9 160.792 410.2 159.725 410.2ZM164.572 396H167.332L169.472 404.38H169.512V396H171.472V410H169.212L166.572 399.78H166.532V410H164.572V396ZM176.227 410.2C175.16 410.2 174.347 409.9 173.787 409.3C173.227 408.687 172.947 407.813 172.947 406.68V399.32C172.947 398.187 173.227 397.32 173.787 396.72C174.347 396.107 175.16 395.8 176.227 395.8C177.294 395.8 178.107 396.107 178.667 396.72C179.227 397.32 179.507 398.187 179.507 399.32V400.52H177.427V399.18C177.427 398.26 177.047 397.8 176.287 397.8C175.527 397.8 175.147 398.26 175.147 399.18V406.84C175.147 407.747 175.527 408.2 176.287 408.2C177.047 408.2 177.427 407.747 177.427 406.84V404.1H176.327V402.1H179.507V406.68C179.507 407.813 179.227 408.687 178.667 409.3C178.107 409.9 177.294 410.2 176.227 410.2ZM184.123 396H187.383C188.516 396 189.343 396.267 189.863 396.8C190.383 397.32 190.643 398.127 190.643 399.22V400.08C190.643 401.533 190.163 402.453 189.203 402.84V402.88C189.736 403.04 190.109 403.367 190.323 403.86C190.549 404.353 190.663 405.013 190.663 405.84V408.3C190.663 408.7 190.676 409.027 190.703 409.28C190.729 409.52 190.796 409.76 190.903 410H188.663C188.583 409.773 188.529 409.56 188.503 409.36C188.476 409.16 188.463 408.8 188.463 408.28V405.72C188.463 405.08 188.356 404.633 188.143 404.38C187.943 404.127 187.589 404 187.083 404H186.323V410H184.123V396ZM187.123 402C187.563 402 187.889 401.887 188.103 401.66C188.329 401.433 188.443 401.053 188.443 400.52V399.44C188.443 398.933 188.349 398.567 188.163 398.34C187.989 398.113 187.709 398 187.323 398H186.323V402H187.123ZM193.889 396H196.869L199.149 410H196.949L196.549 407.22V407.26H194.049L193.649 410H191.609L193.889 396ZM196.289 405.36L195.309 398.44H195.269L194.309 405.36H196.289ZM195.389 395.28C194.882 395.28 194.456 395.113 194.109 394.78C193.776 394.433 193.609 394.013 193.609 393.52C193.609 393.027 193.776 392.613 194.109 392.28C194.456 391.933 194.882 391.76 195.389 391.76C195.896 391.76 196.316 391.933 196.649 392.28C196.996 392.613 197.169 393.027 197.169 393.52C197.169 394.013 196.996 394.433 196.649 394.78C196.316 395.113 195.896 395.28 195.389 395.28ZM195.389 394.22C195.576 394.22 195.729 394.16 195.849 394.04C195.969 393.907 196.029 393.733 196.029 393.52C196.029 393.307 195.969 393.14 195.849 393.02C195.729 392.887 195.576 392.82 195.389 392.82C195.202 392.82 195.049 392.887 194.929 393.02C194.809 393.14 194.749 393.307 194.749 393.52C194.749 393.733 194.809 393.907 194.929 394.04C195.049 394.16 195.202 394.22 195.389 394.22ZM200.216 396H203.576C204.67 396 205.49 396.293 206.036 396.88C206.583 397.467 206.856 398.327 206.856 399.46V406.54C206.856 407.673 206.583 408.533 206.036 409.12C205.49 409.707 204.67 410 203.576 410H200.216V396ZM203.536 408C203.896 408 204.17 407.893 204.356 407.68C204.556 407.467 204.656 407.12 204.656 406.64V399.36C204.656 398.88 204.556 398.533 204.356 398.32C204.17 398.107 203.896 398 203.536 398H202.416V408H203.536ZM211.461 410.2C210.395 410.2 209.581 409.9 209.021 409.3C208.461 408.687 208.181 407.813 208.181 406.68V399.32C208.181 398.187 208.461 397.32 209.021 396.72C209.581 396.107 210.395 395.8 211.461 395.8C212.528 395.8 213.341 396.107 213.901 396.72C214.461 397.32 214.741 398.187 214.741 399.32V400.52H212.661V399.18C212.661 398.26 212.281 397.8 211.521 397.8C210.761 397.8 210.381 398.26 210.381 399.18V406.84C210.381 407.747 210.761 408.2 211.521 408.2C212.281 408.2 212.661 407.747 212.661 406.84V404.1H211.561V402.1H214.741V406.68C214.741 407.813 214.461 408.687 213.901 409.3C213.341 409.9 212.528 410.2 211.461 410.2ZM216.154 396H218.354V410H216.154V396ZM219.422 396H221.642L223.082 406.86H223.122L224.562 396H226.582L224.462 410H221.542L219.422 396ZM227.638 396H230.398L232.538 404.38H232.578V396H234.538V410H232.278L229.638 399.78H229.598V410H227.638V396ZM236.174 396H238.374V410H236.174V396ZM240.021 396H242.781L244.921 404.38H244.961V396H246.921V410H244.661L242.021 399.78H241.981V410H240.021V396ZM251.676 410.2C250.61 410.2 249.796 409.9 249.236 409.3C248.676 408.687 248.396 407.813 248.396 406.68V399.32C248.396 398.187 248.676 397.32 249.236 396.72C249.796 396.107 250.61 395.8 251.676 395.8C252.743 395.8 253.556 396.107 254.116 396.72C254.676 397.32 254.956 398.187 254.956 399.32V400.52H252.876V399.18C252.876 398.26 252.496 397.8 251.736 397.8C250.976 397.8 250.596 398.26 250.596 399.18V406.84C250.596 407.747 250.976 408.2 251.736 408.2C252.496 408.2 252.876 407.747 252.876 406.84V404.1H251.776V402.1H254.956V406.68C254.956 407.813 254.676 408.687 254.116 409.3C253.556 409.9 252.743 410.2 251.676 410.2ZM158.302 414H160.502V426H164.122V428H158.302V414ZM168.377 428.2C167.311 428.2 166.497 427.9 165.937 427.3C165.377 426.687 165.097 425.813 165.097 424.68V414H167.297V424.84C167.297 425.32 167.391 425.667 167.577 425.88C167.777 426.093 168.057 426.2 168.417 426.2C168.777 426.2 169.051 426.093 169.237 425.88C169.437 425.667 169.537 425.32 169.537 424.84V414H171.657V424.68C171.657 425.813 171.377 426.687 170.817 427.3C170.257 427.9 169.444 428.2 168.377 428.2ZM173.224 414H175.424V419.9L178.224 414H180.424L177.804 419.14L180.464 428H178.164L176.304 421.76L175.424 423.54V428H173.224V414ZM181.506 414H183.706V419.9L186.506 414H188.706L186.086 419.14L188.746 428H186.446L184.586 421.76L183.706 423.54V428H181.506V414ZM189.787 414H195.787V416H191.987V419.7H195.007V421.7H191.987V426H195.787V428H189.787V414ZM198.772 416H196.472V414H203.272V416H200.972V428H198.772V416Z" fill="#273BA9"/>
<path d="M328.944 52.2C327.877 52.2 327.064 51.9 326.504 51.3C325.944 50.6867 325.664 49.8133 325.664 48.68V41.32C325.664 40.1867 325.944 39.32 326.504 38.72C327.064 38.1067 327.877 37.8 328.944 37.8C330.011 37.8 330.824 38.1067 331.384 38.72C331.944 39.32 332.224 40.1867 332.224 41.32V42.52H330.144V41.18C330.144 40.26 329.764 39.8 329.004 39.8C328.244 39.8 327.864 40.26 327.864 41.18V48.84C327.864 49.7467 328.244 50.2 329.004 50.2C329.764 50.2 330.144 49.7467 330.144 48.84V46.1H329.044V44.1H332.224V48.68C332.224 49.8133 331.944 50.6867 331.384 51.3C330.824 51.9 330.011 52.2 328.944 52.2ZM336.836 52.2C335.77 52.2 334.956 51.9 334.396 51.3C333.836 50.6867 333.556 49.8133 333.556 48.68V38H335.756V48.84C335.756 49.32 335.85 49.6667 336.036 49.88C336.236 50.0933 336.516 50.2 336.876 50.2C337.236 50.2 337.51 50.0933 337.696 49.88C337.896 49.6667 337.996 49.32 337.996 48.84V38H340.116V48.68C340.116 49.8133 339.836 50.6867 339.276 51.3C338.716 51.9 337.903 52.2 336.836 52.2ZM341.683 38H343.883V52H341.683V38ZM345.531 38H348.891C349.984 38 350.804 38.2933 351.351 38.88C351.898 39.4667 352.171 40.3267 352.171 41.46V48.54C352.171 49.6733 351.898 50.5333 351.351 51.12C350.804 51.7067 349.984 52 348.891 52H345.531V38ZM348.851 50C349.211 50 349.484 49.8933 349.671 49.68C349.871 49.4667 349.971 49.12 349.971 48.64V41.36C349.971 40.88 349.871 40.5333 349.671 40.32C349.484 40.1067 349.211 40 348.851 40H347.731V50H348.851ZM353.656 38H359.656V40H355.856V43.7H358.876V45.7H355.856V50H359.656V52H353.656V38ZM363.821 52.2C362.754 52.2 361.947 51.9 361.401 51.3C360.854 50.6867 360.581 49.8133 360.581 48.68V47.88H362.661V48.84C362.661 49.7467 363.041 50.2 363.801 50.2C364.174 50.2 364.454 50.0933 364.641 49.88C364.841 49.6533 364.941 49.2933 364.941 48.8C364.941 48.2133 364.807 47.7 364.541 47.26C364.274 46.8067 363.781 46.2667 363.061 45.64C362.154 44.84 361.521 44.12 361.161 43.48C360.801 42.8267 360.621 42.0933 360.621 41.28C360.621 40.1733 360.901 39.32 361.461 38.72C362.021 38.1067 362.834 37.8 363.901 37.8C364.954 37.8 365.747 38.1067 366.281 38.72C366.827 39.32 367.101 40.1867 367.101 41.32V41.9H365.021V41.18C365.021 40.7 364.927 40.3533 364.741 40.14C364.554 39.9133 364.281 39.8 363.921 39.8C363.187 39.8 362.821 40.2467 362.821 41.14C362.821 41.6467 362.954 42.12 363.221 42.56C363.501 43 364.001 43.5333 364.721 44.16C365.641 44.96 366.274 45.6867 366.621 46.34C366.967 46.9933 367.141 47.76 367.141 48.64C367.141 49.7867 366.854 50.6667 366.281 51.28C365.721 51.8933 364.901 52.2 363.821 52.2ZM373.325 40H371.025V38H377.825V40H375.525V52H373.325V40ZM378.89 38H381.09V52H378.89V38ZM382.738 38H384.938V50H388.558V52H382.738V38ZM316.258 70.2C315.192 70.2 314.378 69.9 313.818 69.3C313.258 68.6867 312.978 67.8133 312.978 66.68V59.32C312.978 58.1867 313.258 57.32 313.818 56.72C314.378 56.1067 315.192 55.8 316.258 55.8C317.325 55.8 318.138 56.1067 318.698 56.72C319.258 57.32 319.538 58.1867 319.538 59.32V60.52H317.458V59.18C317.458 58.26 317.078 57.8 316.318 57.8C315.558 57.8 315.178 58.26 315.178 59.18V66.84C315.178 67.7467 315.558 68.2 316.318 68.2C317.078 68.2 317.458 67.7467 317.458 66.84V64.1H316.358V62.1H319.538V66.68C319.538 67.8133 319.258 68.6867 318.698 69.3C318.138 69.9 317.325 70.2 316.258 70.2ZM320.951 56H326.951V58H323.151V61.7H326.171V63.7H323.151V68H326.951V70H320.951V56ZM328.216 56H331.476C332.61 56 333.436 56.2667 333.956 56.8C334.476 57.32 334.736 58.1267 334.736 59.22V60.08C334.736 61.5333 334.256 62.4533 333.296 62.84V62.88C333.83 63.04 334.203 63.3667 334.416 63.86C334.643 64.3533 334.756 65.0133 334.756 65.84V68.3C334.756 68.7 334.77 69.0267 334.796 69.28C334.823 69.52 334.89 69.76 334.996 70H332.756C332.676 69.7733 332.623 69.56 332.596 69.36C332.57 69.16 332.556 68.8 332.556 68.28V65.72C332.556 65.08 332.45 64.6333 332.236 64.38C332.036 64.1267 331.683 64 331.176 64H330.416V70H328.216V56ZM331.216 62C331.656 62 331.983 61.8867 332.196 61.66C332.423 61.4333 332.536 61.0533 332.536 60.52V59.44C332.536 58.9333 332.443 58.5667 332.256 58.34C332.083 58.1133 331.803 58 331.416 58H330.416V62H331.216ZM336.283 56H339.643C340.736 56 341.556 56.2933 342.103 56.88C342.65 57.4667 342.923 58.3267 342.923 59.46V66.54C342.923 67.6733 342.65 68.5333 342.103 69.12C341.556 69.7067 340.736 70 339.643 70H336.283V56ZM339.603 68C339.963 68 340.236 67.8933 340.423 67.68C340.623 67.4667 340.723 67.12 340.723 66.64V59.36C340.723 58.88 340.623 58.5333 340.423 58.32C340.236 58.1067 339.963 58 339.603 58H338.483V68H339.603ZM346.069 56H349.049L351.329 70H349.129L348.729 67.22V67.26H346.229L345.829 70H343.789L346.069 56ZM348.469 65.36L347.489 58.44H347.449L346.489 65.36H348.469ZM358.719 70.2C357.653 70.2 356.839 69.9 356.279 69.3C355.719 68.6867 355.439 67.8133 355.439 66.68V59.32C355.439 58.1867 355.719 57.32 356.279 56.72C356.839 56.1067 357.653 55.8 358.719 55.8C359.786 55.8 360.599 56.1067 361.159 56.72C361.719 57.32 361.999 58.1867 361.999 59.32V60.52H359.919V59.18C359.919 58.26 359.539 57.8 358.779 57.8C358.019 57.8 357.639 58.26 357.639 59.18V66.84C357.639 67.7467 358.019 68.2 358.779 68.2C359.539 68.2 359.919 67.7467 359.919 66.84V64.1H358.819V62.1H361.999V66.68C361.999 67.8133 361.719 68.6867 361.159 69.3C360.599 69.9 359.786 70.2 358.719 70.2ZM363.412 56H365.612V70H363.412V56ZM367.259 56H370.519C371.653 56 372.479 56.2667 372.999 56.8C373.519 57.32 373.779 58.1267 373.779 59.22V60.08C373.779 61.5333 373.299 62.4533 372.339 62.84V62.88C372.873 63.04 373.246 63.3667 373.459 63.86C373.686 64.3533 373.799 65.0133 373.799 65.84V68.3C373.799 68.7 373.813 69.0267 373.839 69.28C373.866 69.52 373.933 69.76 374.039 70H371.799C371.719 69.7733 371.666 69.56 371.639 69.36C371.613 69.16 371.599 68.8 371.599 68.28V65.72C371.599 65.08 371.493 64.6333 371.279 64.38C371.079 64.1267 370.726 64 370.219 64H369.459V70H367.259V56ZM370.259 62C370.699 62 371.026 61.8867 371.239 61.66C371.466 61.4333 371.579 61.0533 371.579 60.52V59.44C371.579 58.9333 371.486 58.5667 371.299 58.34C371.126 58.1133 370.846 58 370.459 58H369.459V62H370.259ZM375.326 56H377.526V68H381.146V70H375.326V56ZM382.201 56H385.521C386.654 56 387.481 56.2667 388.001 56.8C388.521 57.32 388.781 58.1267 388.781 59.22V59.78C388.781 60.5 388.661 61.0867 388.421 61.54C388.194 61.9933 387.841 62.32 387.361 62.52V62.56C388.454 62.9333 389.001 63.9067 389.001 65.48V66.68C389.001 67.76 388.714 68.5867 388.141 69.16C387.581 69.72 386.754 70 385.661 70H382.201V56ZM385.261 61.7C385.701 61.7 386.028 61.5867 386.241 61.36C386.468 61.1333 386.581 60.7533 386.581 60.22V59.44C386.581 58.9333 386.488 58.5667 386.301 58.34C386.128 58.1133 385.848 58 385.461 58H384.401V61.7H385.261ZM385.661 68C386.048 68 386.334 67.9 386.521 67.7C386.708 67.4867 386.801 67.1267 386.801 66.62V65.4C386.801 64.76 386.688 64.32 386.461 64.08C386.248 63.8267 385.888 63.7 385.381 63.7H384.401V68H385.661ZM393.467 70.2C392.387 70.2 391.56 69.8933 390.987 69.28C390.413 68.6667 390.127 67.8 390.127 66.68V59.32C390.127 58.2 390.413 57.3333 390.987 56.72C391.56 56.1067 392.387 55.8 393.467 55.8C394.547 55.8 395.373 56.1067 395.947 56.72C396.52 57.3333 396.807 58.2 396.807 59.32V66.68C396.807 67.8 396.52 68.6667 395.947 69.28C395.373 69.8933 394.547 70.2 393.467 70.2ZM393.467 68.2C394.227 68.2 394.607 67.74 394.607 66.82V59.18C394.607 58.26 394.227 57.8 393.467 57.8C392.707 57.8 392.327 58.26 392.327 59.18V66.82C392.327 67.74 392.707 68.2 393.467 68.2ZM399.936 58H397.636V56H404.436V58H402.136V70H399.936V58Z" fill="#273BA9"/>
<path d="M568.24 101H574.06V103H570.44V106.9H573.28V108.9H570.44V115H568.24V101ZM576.17 101H579.15L581.43 115H579.23L578.83 112.22V112.26H576.33L575.93 115H573.89L576.17 101ZM578.57 110.36L577.59 103.44H577.55L576.59 110.36H578.57ZM577.67 100.28C577.164 100.28 576.737 100.113 576.39 99.78C576.057 99.4333 575.89 99.0133 575.89 98.52C575.89 98.0267 576.057 97.6133 576.39 97.28C576.737 96.9333 577.164 96.76 577.67 96.76C578.177 96.76 578.597 96.9333 578.93 97.28C579.277 97.6133 579.45 98.0267 579.45 98.52C579.45 99.0133 579.277 99.4333 578.93 99.78C578.597 100.113 578.177 100.28 577.67 100.28ZM577.67 99.22C577.857 99.22 578.01 99.16 578.13 99.04C578.25 98.9067 578.31 98.7333 578.31 98.52C578.31 98.3067 578.25 98.14 578.13 98.02C578.01 97.8867 577.857 97.82 577.67 97.82C577.484 97.82 577.33 97.8867 577.21 98.02C577.09 98.14 577.03 98.3067 577.03 98.52C577.03 98.7333 577.09 98.9067 577.21 99.04C577.33 99.16 577.484 99.22 577.67 99.22ZM582.498 101H585.758C586.891 101 587.718 101.267 588.238 101.8C588.758 102.32 589.018 103.127 589.018 104.22V105.08C589.018 106.533 588.538 107.453 587.578 107.84V107.88C588.111 108.04 588.484 108.367 588.698 108.86C588.924 109.353 589.038 110.013 589.038 110.84V113.3C589.038 113.7 589.051 114.027 589.078 114.28C589.104 114.52 589.171 114.76 589.278 115H587.038C586.958 114.773 586.904 114.56 586.878 114.36C586.851 114.16 586.838 113.8 586.838 113.28V110.72C586.838 110.08 586.731 109.633 586.518 109.38C586.318 109.127 585.964 109 585.458 109H584.698V115H582.498V101ZM585.498 107C585.938 107 586.264 106.887 586.478 106.66C586.704 106.433 586.818 106.053 586.818 105.52V104.44C586.818 103.933 586.724 103.567 586.538 103.34C586.364 103.113 586.084 103 585.698 103H584.698V107H585.498ZM596.627 115.2C595.561 115.2 594.754 114.9 594.207 114.3C593.661 113.687 593.387 112.813 593.387 111.68V110.88H595.467V111.84C595.467 112.747 595.847 113.2 596.607 113.2C596.981 113.2 597.261 113.093 597.447 112.88C597.647 112.653 597.747 112.293 597.747 111.8C597.747 111.213 597.614 110.7 597.347 110.26C597.081 109.807 596.587 109.267 595.867 108.64C594.961 107.84 594.327 107.12 593.967 106.48C593.607 105.827 593.427 105.093 593.427 104.28C593.427 103.173 593.707 102.32 594.267 101.72C594.827 101.107 595.641 100.8 596.707 100.8C597.761 100.8 598.554 101.107 599.087 101.72C599.634 102.32 599.907 103.187 599.907 104.32V104.9H597.827V104.18C597.827 103.7 597.734 103.353 597.547 103.14C597.361 102.913 597.087 102.8 596.727 102.8C595.994 102.8 595.627 103.247 595.627 104.14C595.627 104.647 595.761 105.12 596.027 105.56C596.307 106 596.807 106.533 597.527 107.16C598.447 107.96 599.081 108.687 599.427 109.34C599.774 109.993 599.947 110.76 599.947 111.64C599.947 112.787 599.661 113.667 599.087 114.28C598.527 114.893 597.707 115.2 596.627 115.2ZM602.929 103H600.629V101H607.429V103H605.129V115H602.929V103ZM614.556 102.42C614.809 102.927 614.936 103.56 614.936 104.32V111.68C614.936 112.8 614.649 113.667 614.076 114.28C613.502 114.893 612.676 115.2 611.596 115.2C610.796 115.2 610.129 115.027 609.596 114.68L609.256 115.52L608.056 115L608.636 113.58C608.382 113.073 608.256 112.44 608.256 111.68V104.32C608.256 103.2 608.542 102.333 609.116 101.72C609.689 101.107 610.516 100.8 611.596 100.8C612.396 100.8 613.062 100.973 613.596 101.32L613.936 100.48L615.136 101L614.556 102.42ZM610.456 109.08L612.676 103.6C612.542 103.067 612.182 102.8 611.596 102.8C610.836 102.8 610.456 103.26 610.456 104.18V109.08ZM612.736 106.92L610.516 112.4C610.649 112.933 611.009 113.2 611.596 113.2C612.356 113.2 612.736 112.74 612.736 111.82V106.92ZM618.065 103H615.765V101H622.565V103H620.265V115H618.065V103ZM625.546 103H623.246V101H630.046V103H627.746V115H625.546V103ZM631.111 101H637.111V103H633.311V106.7H636.331V108.7H633.311V113H637.111V115H631.111V101ZM644.76 115.2C643.68 115.2 642.853 114.893 642.28 114.28C641.706 113.667 641.42 112.8 641.42 111.68V104.32C641.42 103.2 641.706 102.333 642.28 101.72C642.853 101.107 643.68 100.8 644.76 100.8C645.84 100.8 646.666 101.107 647.24 101.72C647.813 102.333 648.1 103.2 648.1 104.32V111.68C648.1 112.8 647.813 113.667 647.24 114.28C646.666 114.893 645.84 115.2 644.76 115.2ZM644.76 113.2C645.52 113.2 645.9 112.74 645.9 111.82V104.18C645.9 103.26 645.52 102.8 644.76 102.8C644 102.8 643.62 103.26 643.62 104.18V111.82C643.62 112.74 644 113.2 644.76 113.2ZM652.708 115.2C651.641 115.2 650.828 114.9 650.268 114.3C649.708 113.687 649.428 112.813 649.428 111.68V104.32C649.428 103.187 649.708 102.32 650.268 101.72C650.828 101.107 651.641 100.8 652.708 100.8C653.774 100.8 654.588 101.107 655.148 101.72C655.708 102.32 655.988 103.187 655.988 104.32V105.52H653.908V104.18C653.908 103.26 653.528 102.8 652.768 102.8C652.008 102.8 651.628 103.26 651.628 104.18V111.84C651.628 112.747 652.008 113.2 652.768 113.2C653.528 113.2 653.908 112.747 653.908 111.84V109.1H652.808V107.1H655.988V111.68C655.988 112.813 655.708 113.687 655.148 114.3C654.588 114.9 653.774 115.2 652.708 115.2ZM555.066 119H558.326C559.459 119 560.286 119.267 560.806 119.8C561.326 120.32 561.586 121.127 561.586 122.22V123.08C561.586 124.533 561.106 125.453 560.146 125.84V125.88C560.679 126.04 561.053 126.367 561.266 126.86C561.493 127.353 561.606 128.013 561.606 128.84V131.3C561.606 131.7 561.619 132.027 561.646 132.28C561.673 132.52 561.739 132.76 561.846 133H559.606C559.526 132.773 559.473 132.56 559.446 132.36C559.419 132.16 559.406 131.8 559.406 131.28V128.72C559.406 128.08 559.299 127.633 559.086 127.38C558.886 127.127 558.533 127 558.026 127H557.266V133H555.066V119ZM558.066 125C558.506 125 558.833 124.887 559.046 124.66C559.273 124.433 559.386 124.053 559.386 123.52V122.44C559.386 121.933 559.293 121.567 559.106 121.34C558.933 121.113 558.653 121 558.266 121H557.266V125H558.066ZM563.133 119H569.133V121H565.333V124.7H568.353V126.7H565.333V131H569.133V133H563.133V119ZM570.398 119H572.598V131H576.218V133H570.398V119ZM577.273 119H583.273V121H579.473V124.7H582.493V126.7H579.473V131H583.273V133H577.273V119ZM583.959 119H586.179L587.619 129.86H587.659L589.099 119H591.119L588.999 133H586.079L583.959 119ZM593.309 119H596.289L598.569 133H596.369L595.969 130.22V130.26H593.469L593.069 133H591.029L593.309 119ZM595.709 128.36L594.729 121.44H594.689L593.729 128.36H595.709ZM599.636 119H602.396L604.536 127.38H604.576V119H606.536V133H604.276L601.636 122.78H601.596V133H599.636V119ZM609.892 121H607.592V119H614.392V121H612.092V133H609.892V121ZM618.66 119H620.86V133H618.66V119ZM622.508 119H625.268L627.408 127.38H627.448V119H629.408V133H627.148L624.508 122.78H624.468V133H622.508V119ZM631.043 119H634.403C635.496 119 636.316 119.293 636.863 119.88C637.409 120.467 637.683 121.327 637.683 122.46V129.54C637.683 130.673 637.409 131.533 636.863 132.12C636.316 132.707 635.496 133 634.403 133H631.043V119ZM634.363 131C634.723 131 634.996 130.893 635.183 130.68C635.383 130.467 635.483 130.12 635.483 129.64V122.36C635.483 121.88 635.383 121.533 635.183 121.32C634.996 121.107 634.723 121 634.363 121H633.243V131H634.363ZM639.168 119H641.368V124.7H643.728V119H645.928V133H643.728V126.7H641.368V133H639.168V119ZM650.746 133.2C649.666 133.2 648.839 132.893 648.266 132.28C647.693 131.667 647.406 130.8 647.406 129.68V122.32C647.406 121.2 647.693 120.333 648.266 119.72C648.839 119.107 649.666 118.8 650.746 118.8C651.826 118.8 652.653 119.107 653.226 119.72C653.799 120.333 654.086 121.2 654.086 122.32V129.68C654.086 130.8 653.799 131.667 653.226 132.28C652.653 132.893 651.826 133.2 650.746 133.2ZM650.746 131.2C651.506 131.2 651.886 130.74 651.886 129.82V122.18C651.886 121.26 651.506 120.8 650.746 120.8C649.986 120.8 649.606 121.26 649.606 122.18V129.82C649.606 130.74 649.986 131.2 650.746 131.2ZM655.574 119H657.774V131H661.394V133H655.574V119ZM662.449 119H665.809C666.902 119 667.722 119.293 668.269 119.88C668.816 120.467 669.089 121.327 669.089 122.46V129.54C669.089 130.673 668.816 131.533 668.269 132.12C667.722 132.707 666.902 133 665.809 133H662.449V119ZM665.769 131C666.129 131 666.402 130.893 666.589 130.68C666.789 130.467 666.889 130.12 666.889 129.64V122.36C666.889 121.88 666.789 121.533 666.589 121.32C666.402 121.107 666.129 121 665.769 121H664.649V131H665.769Z" fill="#273BA9"/>
<g clip-path="url(#clip0_53_414)">
<path d="M25.7084 147.936C25.7084 144.662 28.7727 142 32.5417 142H56.4584C60.2274 142 63.2917 144.662 63.2917 147.936V183.553C63.2917 186.827 60.2274 189.489 56.4584 189.489H32.5417C28.7727 189.489 25.7084 186.827 25.7084 183.553V147.936ZM47.9167 183.553C47.9167 182.766 47.5567 182.011 46.916 181.454C46.2752 180.898 45.4062 180.585 44.5 180.585C43.5939 180.585 42.7248 180.898 42.0841 181.454C41.4433 182.011 41.0834 182.766 41.0834 183.553C41.0834 184.34 41.4433 185.095 42.0841 185.652C42.7248 186.209 43.5939 186.521 44.5 186.521C45.4062 186.521 46.2752 186.209 46.916 185.652C47.5567 185.095 47.9167 184.34 47.9167 183.553ZM56.4584 147.936H32.5417V177.617H56.4584V147.936Z" fill="#F9F8F8"/>
</g>
<g clip-path="url(#clip1_53_414)">
<path d="M170.175 350.312C180.767 350.312 189.35 343.079 189.35 334.156C189.35 325.234 180.767 318 170.175 318C159.582 318 151 325.234 151 334.156C151 337.7 152.355 340.977 154.65 343.648C154.328 344.511 153.848 345.273 153.341 345.915C152.899 346.485 152.447 346.925 152.115 347.228C151.949 347.375 151.811 347.494 151.719 347.568C151.673 347.604 151.636 347.632 151.617 347.641L151.599 347.66C151.092 348.036 150.871 348.697 151.074 349.294C151.276 349.89 151.839 350.312 152.475 350.312C154.484 350.312 156.513 349.798 158.2 349.165C159.048 348.844 159.841 348.486 160.523 348.119C163.362 349.514 166.653 350.312 170.175 350.312ZM192.3 334.156C192.3 344.465 183.164 352.231 172.341 353.158C174.581 359.988 182.012 365 190.825 365C194.346 365 197.637 364.201 200.477 362.806C201.168 363.173 201.952 363.531 202.8 363.853C204.487 364.486 206.515 365 208.525 365C209.161 365 209.732 364.587 209.926 363.981C210.12 363.375 209.908 362.714 209.391 362.338L209.373 362.32C209.354 362.301 209.318 362.283 209.272 362.246C209.179 362.173 209.041 362.062 208.875 361.906C208.543 361.604 208.092 361.163 207.649 360.594C207.142 359.951 206.663 359.18 206.34 358.326C208.635 355.664 209.991 352.387 209.991 348.835C209.991 340.316 202.164 333.33 192.235 332.724C192.272 333.192 192.291 333.67 192.291 334.147L192.3 334.156Z" fill="#F8F8F8"/>
</g>
<g clip-path="url(#clip2_53_414)">
<path d="M357 99C358.549 99 359.8 100.257 359.8 101.812V107.438H370.3C373.782 107.438 376.6 110.268 376.6 113.766V137.672C376.6 141.17 373.782 144 370.3 144H343.7C340.217 144 337.4 141.17 337.4 137.672V113.766C337.4 110.268 340.217 107.438 343.7 107.438H354.2V101.812C354.2 100.257 355.451 99 357 99ZM347.2 132.75C346.43 132.75 345.8 133.383 345.8 134.156C345.8 134.93 346.43 135.562 347.2 135.562H350C350.77 135.562 351.4 134.93 351.4 134.156C351.4 133.383 350.77 132.75 350 132.75H347.2ZM355.6 132.75C354.83 132.75 354.2 133.383 354.2 134.156C354.2 134.93 354.83 135.562 355.6 135.562H358.4C359.17 135.562 359.8 134.93 359.8 134.156C359.8 133.383 359.17 132.75 358.4 132.75H355.6ZM364 132.75C363.23 132.75 362.6 133.383 362.6 134.156C362.6 134.93 363.23 135.562 364 135.562H366.8C367.57 135.562 368.2 134.93 368.2 134.156C368.2 133.383 367.57 132.75 366.8 132.75H364ZM352.1 121.5C352.1 120.568 351.731 119.673 351.075 119.014C350.418 118.355 349.528 117.984 348.6 117.984C347.672 117.984 346.782 118.355 346.125 119.014C345.469 119.673 345.1 120.568 345.1 121.5C345.1 122.432 345.469 123.327 346.125 123.986C346.782 124.645 347.672 125.016 348.6 125.016C349.528 125.016 350.418 124.645 351.075 123.986C351.731 123.327 352.1 122.432 352.1 121.5ZM365.4 125.016C366.328 125.016 367.218 124.645 367.875 123.986C368.531 123.327 368.9 122.432 368.9 121.5C368.9 120.568 368.531 119.673 367.875 119.014C367.218 118.355 366.328 117.984 365.4 117.984C364.472 117.984 363.582 118.355 362.925 119.014C362.269 119.673 361.9 120.568 361.9 121.5C361.9 122.432 362.269 123.327 362.925 123.986C363.582 124.645 364.472 125.016 365.4 125.016ZM333.2 118.688H334.6V135.562H333.2C330.881 135.562 329 133.673 329 131.344V122.906C329 120.577 330.881 118.688 333.2 118.688ZM380.8 118.688C383.119 118.688 385 120.577 385 122.906V131.344C385 133.673 383.119 135.562 380.8 135.562H379.4V118.688H380.8Z" fill="#F9F8F8"/>
</g>
<path d="M599.219 34.1336C596.31 31.5883 596.31 27.4543 599.219 24.909C602.129 22.3637 606.839 22.3637 609.749 24.909L611.5 26.4464L613.252 24.909C616.161 22.3637 620.872 22.3637 623.781 24.909C626.691 27.4543 626.691 31.5883 623.781 34.1336L613.727 42.9483C613.113 43.4864 612.312 43.7512 611.5 43.7512C610.689 43.7512 609.887 43.4864 609.274 42.9483L599.219 34.1336ZM639.229 51.1651C640.525 52.6854 640.149 54.8208 638.388 55.9397L625.859 63.9088C623.544 65.3779 620.753 66.1722 617.873 66.1722H602H586.167C584.415 66.1722 583 64.9508 583 63.439V57.9725C583 56.4607 584.415 55.2393 586.167 55.2393H589.808L594.252 52.1644C596.498 50.6099 599.289 49.7728 602.168 49.7728H609.917H611.5H617.834C619.585 49.7728 621 50.9942 621 52.5061C621 54.0179 619.585 55.2393 617.834 55.2393H611.5H609.917C609.046 55.2393 608.334 55.8543 608.334 56.6059C608.334 57.3575 609.046 57.9725 609.917 57.9725H621.851L633.697 50.4391C635.458 49.3201 637.932 49.6447 639.229 51.1651ZM602.159 55.2393H602.069C602.099 55.2393 602.129 55.2393 602.159 55.2393Z" fill="#F9F8F8"/>
<defs>
<clipPath id="clip0_53_414">
<rect width="41" height="47.4894" fill="white" transform="translate(24 142)"/>
</clipPath>
<clipPath id="clip1_53_414">
<rect width="59" height="47" fill="white" transform="translate(151 318)"/>
</clipPath>
<clipPath id="clip2_53_414">
<rect width="56" height="45" fill="white" transform="translate(329 99)"/>
</clipPath>
</defs>
</svg>
