<svg width="132" height="103" viewBox="0 0 132 103" fill="none" xmlns="http://www.w3.org/2000/svg">
<path d="M44.8281 90.8828H49.8203L47.3477 83.418H47.3008L44.8281 90.8828ZM51.8828 97L50.5586 93.1797H44.0781L42.7656 97H40.0234L46.2344 79.9141H48.4023L54.6133 97H51.8828ZM56.3711 97V84.8359H58.8203V86.125H58.8672C59.6719 85.1641 60.7305 84.6836 62.043 84.6836C62.8867 84.6992 63.5664 84.8438 64.082 85.1172C64.5898 85.4219 65.0547 85.8086 65.4766 86.2773C66.4297 85.1992 67.707 84.668 69.3086 84.6836C70.3164 84.6836 71.2383 85.0391 72.0742 85.75C72.9023 86.4688 73.332 87.5234 73.3633 88.9141V97H70.9141V89.7578C70.9141 88.9062 70.6914 88.2578 70.2461 87.8125C69.8008 87.3594 69.2266 87.1328 68.5234 87.1328C67.8203 87.1328 67.2422 87.3594 66.7891 87.8125C66.3281 88.2578 66.0977 88.9062 66.0977 89.7578V97H63.6484V89.7578C63.6484 88.9062 63.4258 88.2578 62.9805 87.8125C62.5273 87.3594 61.9492 87.1328 61.2461 87.1328C60.543 87.1328 59.9688 87.3594 59.5234 87.8125C59.0547 88.2578 58.8203 88.9062 58.8203 89.7578V97H56.3711ZM86.125 91.8438H78.543C78.543 92.8203 78.8242 93.5625 79.3867 94.0703C79.9102 94.5859 80.5977 94.8438 81.4492 94.8438C82.4414 94.8438 83.3281 94.4492 84.1094 93.6602L85.8789 95.1719C84.6367 96.5 83.1758 97.1562 81.4961 97.1406C80.8555 97.1406 80.2305 97.0469 79.6211 96.8594C79.3164 96.7578 79.0195 96.6211 78.7305 96.4492C78.4258 96.3008 78.1406 96.1172 77.875 95.8984C77.3594 95.4453 76.9414 94.8125 76.6211 94C76.2695 93.2188 76.0938 92.2031 76.0938 90.9531C76.0938 89.75 76.2461 88.75 76.5508 87.9531C76.8555 87.1406 77.2461 86.5 77.7227 86.0312C78.207 85.5547 78.75 85.2109 79.3516 85C79.9453 84.7891 80.5312 84.6836 81.1094 84.6836C82.5 84.6992 83.6758 85.1562 84.6367 86.0547C85.6133 86.9688 86.1094 88.2266 86.125 89.8281V91.8438ZM78.543 89.8281H83.6758C83.6445 88.8828 83.3906 88.168 82.9141 87.6836C82.4453 87.2227 81.8438 86.9922 81.1094 86.9922C80.375 86.9922 79.7734 87.2227 79.3047 87.6836C78.8438 88.168 78.5898 88.8828 78.543 89.8281ZM88.6914 94.0469V79.9141H91.1406V93.8594C91.1406 94.4141 91.4453 94.6914 92.0547 94.6914H92.8984V97H91.8086C90.918 97 90.1836 96.7773 89.6055 96.332C88.9961 95.8789 88.6914 95.1172 88.6914 94.0469ZM94.8789 92.9219V84.8359H97.3281V92.0781C97.3281 92.8984 97.5586 93.5391 98.0195 94C98.4727 94.4609 99.0508 94.6914 99.7539 94.6914C100.457 94.6914 101.031 94.4609 101.477 94C101.93 93.5391 102.156 92.8984 102.156 92.0781V84.8359H104.605V97H102.156V95.6992H102.109C101.305 96.6602 100.254 97.1406 98.957 97.1406C97.9492 97.125 97.0391 96.7578 96.2266 96.0391C95.3438 95.3359 94.8945 94.2969 94.8789 92.9219ZM107.77 97V84.8359L110.219 84.8359V86.125H110.266C111.07 85.1641 112.125 84.6836 113.43 84.6836C114.438 84.6836 115.359 85.0391 116.195 85.75C117.023 86.4687 117.457 87.5234 117.496 88.9141V97H115.047V89.7578C115.047 88.9062 114.82 88.2578 114.367 87.8125C113.922 87.3594 113.348 87.1328 112.645 87.1328C111.941 87.1328 111.363 87.3594 110.91 87.8125C110.449 88.2578 110.219 88.9062 110.219 89.7578V97H107.77ZM127.504 95.7227C126.699 96.6367 125.652 97.1094 124.363 97.1406C123.574 97.125 122.918 96.957 122.395 96.6367C121.848 96.332 121.43 96.0039 121.141 95.6523C120.82 95.2539 120.59 94.7656 120.449 94.1875C120.301 93.6172 120.227 92.5312 120.227 90.9297C120.227 89.2969 120.301 88.1914 120.449 87.6133C120.59 87.043 120.82 86.5625 121.141 86.1719C121.43 85.7891 121.848 85.4453 122.395 85.1406C122.918 84.8516 123.574 84.6992 124.363 84.6836C125.574 84.6836 126.621 85.1641 127.504 86.125V84.8359H129.953V96.707C129.922 98.5352 129.395 99.8789 128.371 100.738C127.34 101.621 126.105 102.062 124.668 102.062C123.02 102.031 121.613 101.352 120.449 100.023L122.348 98.5117C122.66 98.8008 123.02 99.0469 123.426 99.25C123.84 99.4766 124.27 99.5977 124.715 99.6133C125.551 99.6133 126.223 99.3828 126.73 98.9219C127.23 98.4531 127.488 97.8047 127.504 96.9766V95.7227ZM122.676 90.9297C122.676 91.8594 122.707 92.5 122.77 92.8516C122.824 93.2187 122.953 93.5234 123.156 93.7656C123.32 93.9844 123.57 94.1836 123.906 94.3633C124.227 94.582 124.625 94.6914 125.102 94.6914C125.578 94.6914 125.977 94.582 126.297 94.3633C126.617 94.1836 126.859 93.9844 127.023 93.7656C127.227 93.5234 127.363 93.2187 127.434 92.8516C127.48 92.5 127.504 91.8594 127.504 90.9297C127.504 89.9844 127.48 89.3281 127.434 88.9609C127.363 88.5937 127.227 88.2969 127.023 88.0703C126.859 87.8516 126.617 87.6367 126.297 87.4258C125.977 87.2461 125.578 87.1484 125.102 87.1328C124.625 87.1484 124.227 87.2461 123.906 87.4258C123.57 87.6367 123.32 87.8516 123.156 88.0703C122.953 88.2969 122.824 88.5937 122.77 88.9609C122.707 89.3281 122.676 89.9844 122.676 90.9297Z" fill="#625821"/>
<path d="M59.8047 76V58.9141H62.3945V73.5508H70.7148V76H59.8047ZM79.3281 76V74.9219H79.2812C79.0547 75.3359 78.7031 75.6406 78.2266 75.8359C77.7578 76.0391 77.1094 76.1406 76.2812 76.1406C74.9219 76.125 73.875 75.7656 73.1406 75.0625C72.3672 74.375 71.9805 73.4961 71.9805 72.4258C71.9805 71.4023 72.3164 70.5547 72.9883 69.8828C73.6602 69.1953 74.6445 68.8438 75.9414 68.8281H79.3281V67.5508C79.3438 66.4805 78.5117 65.9609 76.832 65.9922C76.2227 65.9922 75.7422 66.0547 75.3906 66.1797C75.0234 66.3281 74.7344 66.5781 74.5234 66.9297L72.6016 65.4648C73.5312 64.2461 74.9023 63.6523 76.7148 63.6836C78.2461 63.668 79.4688 63.957 80.3828 64.5508C81.2969 65.1602 81.7617 66.207 81.7773 67.6914V76H79.3281ZM79.3281 71.7227V70.8438H76.3984C74.9766 70.875 74.2734 71.3633 74.2891 72.3086C74.2891 72.7227 74.4727 73.0742 74.8398 73.3633C75.1914 73.6836 75.7734 73.8438 76.5859 73.8438C77.6094 73.8594 78.332 73.7383 78.7539 73.4805C79.1367 73.2227 79.3281 72.6367 79.3281 71.7227ZM84.9414 71.9219V63.8359H87.3906V71.0781C87.3906 71.8984 87.6211 72.5391 88.082 73C88.5352 73.4609 89.1133 73.6914 89.8164 73.6914C90.5195 73.6914 91.0938 73.4609 91.5391 73C91.9922 72.5391 92.2188 71.8984 92.2188 71.0781V63.8359L94.668 63.8359V76H92.2188V74.6992H92.1719C91.3672 75.6602 90.3164 76.1406 89.0195 76.1406C88.0117 76.125 87.1016 75.7578 86.2891 75.0391C85.4062 74.3359 84.957 73.2969 84.9414 71.9219ZM97.832 76V63.8359H100.281V65.125H100.328C101.133 64.1641 102.188 63.6836 103.492 63.6836C104.469 63.6992 105.32 64.0117 106.047 64.6211L104.266 66.7422C103.75 66.3359 103.215 66.1328 102.66 66.1328C102.035 66.1328 101.5 66.3359 101.055 66.7422C100.555 67.1406 100.297 67.7852 100.281 68.6758V76H97.832ZM113.125 76V74.9219H113.078C112.852 75.3359 112.5 75.6406 112.023 75.8359C111.555 76.0391 110.906 76.1406 110.078 76.1406C108.719 76.125 107.672 75.7656 106.938 75.0625C106.164 74.375 105.777 73.4961 105.777 72.4258C105.777 71.4023 106.113 70.5547 106.785 69.8828C107.457 69.1953 108.441 68.8438 109.738 68.8281H113.125V67.5508C113.141 66.4805 112.309 65.9609 110.629 65.9922C110.02 65.9922 109.539 66.0547 109.188 66.1797C108.82 66.3281 108.531 66.5781 108.32 66.9297L106.398 65.4648C107.328 64.2461 108.699 63.6523 110.512 63.6836C112.043 63.668 113.266 63.957 114.18 64.5508C115.094 65.1602 115.559 66.207 115.574 67.6914V76H113.125ZM113.125 71.7227V70.8438H110.195C108.773 70.875 108.07 71.3633 108.086 72.3086C108.086 72.7227 108.27 73.0742 108.637 73.3633C108.988 73.6836 109.57 73.8438 110.383 73.8438C111.406 73.8594 112.129 73.7383 112.551 73.4805C112.934 73.2227 113.125 72.6367 113.125 71.7227Z" fill="#625821"/>
<path d="M41.9132 56.2142C27.3284 68.958 33.7005 91.1888 33.7005 98.2687" stroke="#625821" stroke-width="1.5"/>
<path d="M14.0279 34.2622C13.874 34.0329 13.935 33.7223 14.1642 33.5683C14.3935 33.4144 14.7041 33.4754 14.8581 33.7046L14.0279 34.2622ZM22.2123 97.4191L22.2123 97.9191L21.2123 97.9191L21.2123 97.4191L22.2123 97.4191ZM14.443 33.9834L14.8581 33.7046C21.397 43.4414 23.2147 56.7541 23.4187 68.8967C23.5208 74.9779 23.2182 80.7876 22.8908 85.7381C22.5624 90.7048 22.2123 94.7712 22.2123 97.4191H21.7123L21.2123 97.4191C21.2123 94.7272 21.5673 90.5972 21.893 85.6721C22.2197 80.7308 22.5203 74.9534 22.4188 68.9135C22.2155 56.8137 20.3985 43.7483 14.0279 34.2622L14.443 33.9834Z" fill="#625821"/>
<path d="M35.116 14.7261C25.6491 40.0421 29.7852 84.2043 29.7852 98.2687" stroke="#625821"/>
<path d="M22.0894 40.9217C22.3159 40.0154 23.5054 39.5057 24.0717 39.3641C26.4317 40.3553 31.4631 42.6775 32.7091 44.0368C34.2667 45.736 28.178 51.6831 27.47 52.6743C26.762 53.6654 16.7086 53.5238 15.8591 53.0991C15.0096 52.6743 15.1511 51.1167 15.0095 50.8335C14.8679 50.5503 15.2927 48.9927 15.8591 48.8511C16.4255 48.7095 17.2751 46.1608 17.2751 45.3112C17.2751 44.4616 20.3902 44.0368 21.0982 44.0368C21.8062 44.0368 21.8062 42.0545 22.0894 40.9217Z" fill="url(#paint0_radial_431_170)"/>
<path d="M24.0268 59.1718H25.2815C26.7035 59.8828 29.7233 61.631 30.4259 62.9358C31.3042 64.5669 31.4296 68.08 31.4296 68.8328C31.4296 69.5856 29.6731 71.5931 28.9203 71.9695C28.1675 72.3459 27.1637 71.7185 26.4109 71.2167C25.6581 70.7148 24.9053 69.7111 24.0271 69.0837C23.3244 68.5819 23.1488 68.7073 23.1488 68.8328C22.8979 68.5819 22.2454 68.08 21.643 68.08C20.8899 68.08 19.7612 67.7036 19.0084 67.2017C18.2556 66.6999 18.1299 65.4452 17.2518 65.4452C16.3738 65.4452 17.2518 64.4414 16.7499 64.065C16.2481 63.6886 16.8754 63.4377 17.2518 62.9358C17.6282 62.434 16.3733 62.434 15.9969 61.9321C15.6205 61.4302 17.3771 61.9321 18.1299 60.6774C18.8827 59.4227 19.8864 59.7991 21.643 59.1718C23.3995 58.5444 23.1486 59.1718 24.0268 59.1718Z" fill="url(#paint1_radial_431_170)"/>
<path d="M24.7796 62.8097C24.7796 61.9064 26.0343 60.6768 26.6616 60.1749C31.0532 58.7948 43.4741 70.8396 43.5995 72.3452C43.725 73.8509 43.5995 75.7329 43.5995 75.8583C43.5995 75.9838 41.7175 78.2422 41.3411 78.6186C40.9647 78.995 38.9572 79.8733 38.8318 79.8733C38.7063 79.8733 38.079 79.8733 37.3261 80.3752C33.5621 80.7516 34.1895 77.4894 34.1895 76.6111C34.1895 75.7329 33.3112 76.7366 32.182 76.9875C31.0528 77.2385 30.8018 75.6074 30.6764 74.9801C30.5509 74.3527 30.3 75.1055 29.7981 74.8546C29.2962 74.6037 29.6726 74.2273 29.7981 73.4745C29.9236 72.7216 29.1708 72.5962 28.9198 72.3452C28.6689 72.0943 28.6689 71.0906 28.167 70.9651C27.6652 70.8396 26.4105 68.8322 26.0341 68.8322C25.6577 68.8322 25.4067 68.3303 25.0303 67.5775C24.7673 67.0513 25.1874 66.5507 25.5208 66.2931C25.3952 66.2093 25.1679 65.9148 24.7796 65.1936C23.9014 64.8172 24.7796 63.9389 24.7796 62.8097Z" fill="url(#paint2_radial_431_170)"/>
<path d="M37.2017 66.0722C38.2054 65.5703 39.2092 64.4411 39.5856 63.9393C40.3803 63.521 41.9696 62.8602 41.9696 63.5629C41.9696 64.4411 43.2243 64.8175 44.6045 65.1939C45.9846 65.5703 47.8666 65.4449 48.6194 65.5703C49.3722 65.6958 51.5052 67.5778 52.258 69.2089C53.0108 70.84 51.0033 71.8437 51.0033 72.722C51.0033 73.6002 47.9921 74.604 46.1101 75.6077C44.228 76.6115 44.3535 74.604 43.2243 74.8549C42.0951 75.1059 40.0876 74.3531 38.3311 74.604C36.5745 74.8549 36.7 72.722 36.7 72.2201C36.7 71.7182 35.5706 72.5965 34.6924 72.722C33.8141 72.8474 33.9395 70.2126 33.9395 69.2089C33.9395 68.2051 35.947 66.6995 37.2017 66.0722Z" fill="url(#paint3_radial_431_170)"/>
<path d="M46.6119 61.9315C45.8089 62.3329 45.0227 61.7642 44.7299 61.4296L42.2206 63.8134C42.4297 64.1479 43.1239 64.9175 44.2281 65.319C45.6082 65.8208 47.7411 65.8208 48.6194 65.8208C49.4977 65.8208 48.9958 67.7028 49.2468 68.7066C49.4977 69.7103 51.7561 70.3377 53.0108 70.3377C54.2655 70.3377 53.7636 68.5811 54.6419 68.7066C55.5201 68.832 55.3947 67.201 55.8965 67.201C56.298 67.201 56.733 66.2809 56.9003 65.8208C56.9003 65.5699 57.0006 65.0178 57.4021 64.8171C57.904 64.5662 57.904 63.8134 57.7785 62.6841C57.6531 61.5549 56.2729 61.4296 55.8965 60.9276C55.5201 60.4256 53.1362 59.673 51.2542 59.2966C49.3722 58.9202 49.9996 60.1749 49.2468 60.1749C48.494 60.1749 47.6157 61.4296 46.6119 61.9315Z" fill="url(#paint4_radial_431_170)"/>
<path d="M46.3613 52.1452C45.3576 52.5467 45.4412 53.5671 45.6085 54.0272C45.3158 56.1601 44.8308 60.6769 45.2323 61.6807C45.7342 62.9354 46.9888 61.3043 47.9926 61.3043C48.9963 61.3043 50.1255 59.6732 50.8783 59.4223C51.6311 59.1713 52.7603 59.9241 54.7678 60.426C56.7753 60.9279 56.9008 63.3118 58.03 63.3118C59.1592 63.3118 59.7865 62.0571 60.1629 61.3043C60.5393 60.5515 61.794 58.4185 62.1704 57.4148C62.5468 56.411 62.9232 56.411 62.9232 55.9092C62.9232 55.4073 62.5468 54.9054 62.9232 54.0272C63.2996 53.1489 62.1704 52.7725 62.1704 52.1452C62.1704 51.5178 61.4176 51.1414 60.9157 49.8867C60.9157 49.1339 60.1629 49.0085 59.4101 47.7538C58.6573 46.4991 56.1479 45.4954 55.5206 45.4954H53.2622C52.5094 45.4954 51.3802 48.5066 51.3802 49.3849C51.3802 50.2631 47.616 51.6433 46.3613 52.1452Z" fill="url(#paint5_radial_431_170)"/>
<path d="M31.054 33.0742C29.8495 33.5761 29.9666 34.7053 30.1757 35.2072C31.6395 36.2945 34.9688 38.6198 36.5747 39.2221C38.1807 39.8243 43.2663 37.7165 45.6084 36.5872C45.8593 36.1272 46.2106 35.2072 45.6084 35.2072C44.8556 35.2072 43.8519 33.0742 43.4755 33.0742C43.0991 33.0742 41.468 31.6941 41.0916 31.6941C40.7152 31.6941 38.5822 30.314 37.9549 30.314C37.3276 30.314 36.8257 30.4394 35.6965 30.314C34.5673 30.1885 33.5635 31.0668 33.3126 31.6941C33.0617 32.3214 32.5596 32.4469 31.054 33.0742Z" fill="url(#paint6_linear_431_170)"/>
<path d="M37.0761 51.1415C36.775 52.0449 37.4525 52.5217 37.8289 52.6472C40.0873 53.149 44.7045 54.0774 45.106 53.7762C45.6079 53.3998 45.6079 53.2744 45.9843 52.898C46.3607 52.5216 47.6153 53.1489 49.6228 53.2744C51.6303 53.3998 51.2539 52.2706 51.5048 52.2706C51.7558 52.2706 52.1322 49.8868 52.3831 49.6358C52.634 49.3849 53.2614 49.0085 53.3868 48.7575C53.5123 48.5066 53.2614 47.8793 53.2614 47.5029C53.2614 47.1265 53.7633 47.001 53.8887 46.7501C54.0142 46.4991 54.0142 45.9973 53.7633 45.6209C53.5123 45.2445 53.7633 44.8681 53.7633 44.6171C53.7633 44.3662 53.6378 43.7388 53.3868 43.4879C53.1359 43.237 53.2614 42.8606 53.2614 42.6096C53.2614 42.3587 52.0067 40.7276 51.7558 40.7276C51.5048 40.7276 51.5048 40.1003 51.5048 39.5984C51.5048 39.0966 50.1247 38.3438 49.9992 37.842C49.8738 37.3402 48.4936 36.9637 48.1172 36.8383C47.7408 36.7128 47.7408 36.2108 47.7408 36.0854C47.7408 35.9601 46.7371 35.9599 46.4861 35.9599C46.2352 35.9599 45.3569 35.458 44.8551 35.458C44.3532 35.458 43.4749 36.5872 43.224 36.8383C42.9731 37.0893 43.224 36.2109 42.4712 36.0854C41.7184 35.96 41.7184 36.9637 41.4674 36.8383C41.2165 36.7128 40.0873 36.8383 40.0873 36.9637C40.0873 37.0892 39.3345 37.2147 38.8326 37.2147C38.3308 37.2147 38.0798 37.4656 38.0798 37.842C38.0798 38.2184 41.2165 42.8607 41.342 43.3626C41.4674 43.8644 37.4525 50.0123 37.0761 51.1415Z" fill="url(#paint7_radial_431_170)"/>
<path d="M37.3267 50.7656C36.9252 51.5686 37.494 52.3548 37.8285 52.6476L36.4486 60.1756L33.8138 58.921C33.8556 59.0883 33.8891 59.4228 33.6883 59.4228C33.4374 59.4228 28.6696 55.2824 28.2932 55.2824C27.9168 55.2824 27.164 55.7843 26.7876 55.6588C26.4112 55.5333 26.7876 55.6588 26.6621 56.0352C26.5367 56.4116 25.6584 56.1607 25.6584 56.2861C25.6584 56.4116 25.5329 56.4116 25.282 56.5371C25.0813 56.6375 24.4874 57.0808 24.5292 57.4154C25.282 57.4154 24.3786 57.6663 24.2783 57.6663C24.1528 57.6663 25.1565 58.1682 25.282 58.5446C25.4075 58.921 24.5291 59.0464 24.5291 59.4228C24.5291 59.7992 23.7764 59.6738 23.5255 59.4228C23.2745 59.1719 20.5142 59.6738 19.385 59.9247C18.2558 60.1756 17.6285 61.6812 17.503 61.9322C17.3776 62.1831 16.4992 61.9322 15.9974 61.5558C15.4956 61.1794 15.7465 60.1756 15.7465 59.6738C15.7465 59.1719 15.3701 59.1719 15.2445 58.7955C15.119 58.4191 15.4955 58.0427 15.1191 57.6663C14.7427 57.2899 14.8681 56.2861 14.7427 55.6588C14.6172 55.0315 15.2445 53.5259 15.2445 52.6476C15.2445 51.7693 15.9973 52.1457 16.4992 52.1457C17.0011 52.1457 18.0048 50.0128 18.3812 49.6364C18.7576 49.26 20.0123 49.26 20.6396 49.26C21.267 49.26 21.1415 49.7618 21.3924 49.8873C21.6434 50.0128 21.5179 49.5109 22.0198 49.3854C22.5216 49.26 24.0273 47.8798 24.0273 47.7544C24.0273 47.6289 24.4037 47.7544 24.5291 47.7544C24.6546 47.7544 24.6546 47.378 24.6546 47.127C24.6546 46.8761 24.9055 46.8761 25.2819 46.8761C25.583 46.8761 25.5747 45.7051 25.5329 45.1195C25.5747 45.0777 25.7336 44.8184 26.0347 44.1158C26.4111 43.2375 23.149 41.8574 22.898 41.6065C22.6471 41.3555 23.0235 41.1046 23.0235 40.9791C23.0235 40.8537 23.3999 40.4773 23.5254 40.4773C23.6509 40.4773 23.5254 39.7245 23.6509 39.7245C23.7763 39.7245 23.9018 39.7245 23.9018 39.348C23.9018 38.9716 25.1565 37.2151 25.2819 36.9642C25.4074 36.7132 25.7838 36.8387 26.0347 36.8387C26.2857 36.8387 26.2857 36.7132 26.2857 36.4623C26.2857 36.2114 26.6621 36.3368 27.0385 36.3368C27.4149 36.3368 28.1677 35.7095 28.6695 35.4586C29.1714 35.2076 28.5441 35.584 29.6733 35.3331C30.5766 35.1324 31.4717 35.0822 31.8062 35.0822C31.9066 35.1825 32.5172 35.7095 32.81 35.9604C33.3118 35.584 33.0107 35.6342 33.3118 35.3331C33.6882 34.9567 35.8212 36.2114 37.8285 37.3406C39.4344 38.2439 40.7562 40.6446 41.2163 41.7319C41.3418 41.9829 41.6429 42.6102 41.8436 43.1121C42.0946 43.7394 37.8285 49.7619 37.3267 50.7656Z" fill="url(#paint8_radial_431_170)"/>
<path d="M29.0459 55.4074C29.8489 55.7085 32.6426 58.3768 33.9391 59.6733C34.1064 59.5897 34.4913 59.4224 34.6921 59.4224C34.943 59.4224 37.8288 62.4336 37.7033 62.5591C37.5778 62.6846 37.4523 63.061 37.3269 63.4374C37.2014 63.8138 37.5778 64.5666 37.9542 65.0684C38.3306 65.5703 38.3306 66.574 38.3306 66.825C38.3306 67.0759 38.4561 67.8287 38.5816 68.3306C38.707 68.8325 38.4561 68.0797 38.2052 69.2089C37.9542 70.3381 36.9505 69.8362 36.5741 70.4635C36.1977 71.0909 35.3194 70.2126 35.0685 69.2089C34.8175 68.2051 33.9391 69.2089 33.5629 69.2089C33.1866 69.2089 33.061 68.4561 32.6846 68.0797C32.3082 67.7033 29.5479 67.8287 29.5479 67.5778C29.5479 67.3269 28.7951 67.2014 27.7914 66.9505C26.7876 66.6995 26.4112 66.6995 26.0348 66.574C25.6584 66.4486 26.4112 65.1939 27.1639 64.3156C27.9165 63.4374 26.6622 63.3119 26.9131 62.81C27.164 62.3082 27.1639 61.4299 27.415 60.8025C27.666 60.1752 26.9131 60.4261 26.1601 60.4261C25.407 60.4261 24.4037 59.4224 24.529 59.046C24.6542 58.6696 24.278 58.0423 24.1526 57.7913C24.0271 57.5404 24.4035 57.6659 24.529 57.2895C24.6544 56.9131 24.529 56.5367 24.529 56.2857C24.529 56.0348 24.9054 56.1603 25.2818 56.1603C25.6582 56.1603 25.9091 54.5291 26.1601 54.2782C26.411 54.0273 27.1639 54.5291 27.1639 54.6546C27.1639 54.7801 27.0384 54.9055 29.0459 55.4074Z" fill="url(#paint9_radial_431_170)"/>
<path d="M37.4524 53.0235L37.8288 52.7725C37.8706 52.6889 38.0045 52.5216 38.2052 52.5216C38.406 52.5216 38.3725 52.438 38.3307 52.3961H38.8325C39.0333 52.3961 38.9998 52.2288 38.958 52.1452H39.3344C39.5352 52.1452 39.669 52.0616 39.7108 52.0197L39.9617 52.2707L40.0872 52.0197H40.5891C40.7146 52.0197 40.7146 52.3961 40.9655 52.2707C41.1662 52.1703 41.3837 52.2288 41.4674 52.2707V52.5216H41.8438C41.8856 52.3961 41.9692 52.1201 41.9692 52.0197C41.9692 51.8943 42.4711 51.8943 42.4711 52.0197C42.4711 52.1452 42.5966 52.3961 42.722 52.5216C42.8224 52.622 43.0148 52.3961 43.0984 52.2707H43.4748C43.5752 52.2707 43.6003 52.6889 43.6003 52.898H43.9767L44.3531 53.0235L44.604 53.3999C44.855 53.3162 45.3568 53.174 45.3568 53.2744V54.0272C45.4823 54.0272 45.7332 54.0774 45.7332 54.2781V54.6545L45.9842 54.78V55.1564C45.9842 55.2568 46.1515 55.1982 46.2351 55.1564L46.3606 55.5328C46.2769 55.6583 46.0846 55.9343 45.9842 56.0347C45.8838 56.1351 46.1096 56.2438 46.2351 56.2856V56.7875C46.2351 56.8879 46.4024 56.9966 46.4861 57.0384C46.6115 57.1221 46.8875 57.3145 46.9879 57.4148C47.0883 57.5152 47.0297 57.9585 46.9879 58.1676C46.9043 58.2931 46.737 58.5691 46.737 58.6695C46.737 58.7699 46.9043 58.9623 46.9879 59.0459L46.737 59.2968C46.6952 59.4641 46.5362 59.7987 46.2351 59.7987C45.934 59.7987 45.5241 60.3006 45.3568 60.5515C45.4823 60.6352 45.7332 60.8526 45.7332 61.0534C45.7332 61.2541 45.315 61.4716 45.1059 61.5553C45.1477 61.7225 45.2063 62.0571 45.1059 62.0571H44.604L44.3531 62.3081C44.2276 62.3917 43.9767 62.6092 43.9767 62.8099C43.9767 63.0107 43.6421 62.8936 43.4748 62.8099V63.0609C43.3912 63.1863 43.1988 63.4624 43.0984 63.5627C42.9981 63.6631 43.0566 64.2737 43.0984 64.5665L42.5966 64.1901C42.5547 64.2737 42.4711 64.4912 42.4711 64.6919C42.4711 64.8927 42.0529 64.6083 41.8438 64.441L41.4674 64.8174C41.3837 64.6083 41.2164 64.2152 41.2164 64.3155C41.2164 64.441 40.9655 64.9429 40.7146 64.9429C40.4636 64.9429 40.5891 64.6919 40.4636 64.441C40.3632 64.2403 40.1709 64.6083 40.0872 64.8174C39.9617 64.7338 39.6606 64.5414 39.4599 64.441C39.2089 64.3155 39.2089 64.1901 39.0835 64.0646C38.958 63.9391 38.7071 64.0646 38.4561 64.0646C38.2052 64.0646 38.4561 63.8137 38.4561 63.5627C38.4561 63.362 38.2888 63.2281 38.2052 63.1863L37.7033 63.0609L37.3269 62.559C37.2851 62.4753 37.0509 62.3081 36.4487 62.3081C35.6959 62.3081 35.6959 61.5553 35.6959 61.4298C35.6959 61.3043 35.6959 61.0534 35.4449 61.1788C35.194 61.3043 35.0685 60.8024 34.8176 60.677C34.6168 60.5766 34.6503 60.0496 34.6921 59.7987C34.3994 59.7151 33.8138 59.4474 33.8138 59.0459C33.8138 58.6444 34.3994 58.544 34.6921 58.544C34.483 58.3767 34.0397 57.992 33.9393 57.7912C33.8138 57.5403 34.3157 57.5403 34.3157 57.2894C34.3157 57.0886 33.9811 56.9548 33.8138 56.913L34.3157 56.662L33.9393 56.2856C33.8138 56.1602 34.0648 56.0347 33.9393 55.7838C33.8389 55.583 34.3994 55.5328 34.6921 55.5328C34.483 55.4073 34.0648 55.1313 34.0648 55.0309C34.0648 54.9055 34.4412 54.78 34.6921 54.5291C34.8929 54.3283 35.1103 54.6127 35.194 54.78C35.194 54.5709 35.1689 54.1025 35.0685 53.9017C34.9681 53.701 35.4449 53.8181 35.6959 53.9017V53.5253H36.4487H36.8251C36.9505 53.4835 37.1764 53.3748 37.076 53.2744C36.9756 53.174 37.2851 53.0653 37.4524 53.0235Z" fill="url(#paint10_radial_431_170)"/>
<g opacity="0.74">
<path d="M4.65563 24.3523C4.77695 23.8594 5.41387 23.5822 5.71716 23.5052C6.98089 24.0443 9.67514 25.3072 10.3424 26.0465C11.1765 26.9707 7.91603 30.2051 7.53691 30.7442C7.15779 31.2833 1.77428 31.2063 1.31937 30.9752C0.864462 30.7442 0.940251 29.8971 0.864427 29.7431C0.788603 29.589 1.01608 28.7419 1.31937 28.6649C1.62267 28.5879 2.07761 27.2017 2.07761 26.7396C2.07761 26.2776 3.74574 26.0465 4.12486 26.0465C4.50398 26.0465 4.50398 24.9684 4.65563 24.3523Z" fill="url(#paint11_radial_431_170)"/>
<path d="M4.96052 34.0882H5.62969C6.38811 34.4674 7.99865 35.3998 8.37338 36.0958C8.8418 36.9657 8.90871 38.8393 8.90871 39.2408C8.90871 39.6423 7.97188 40.713 7.57038 40.9137C7.16889 41.1145 6.63355 40.7799 6.23206 40.5122C5.83056 40.2446 5.42906 39.7093 4.96064 39.3747C4.58591 39.107 4.49223 39.1739 4.49223 39.2408C4.3584 39.107 4.01041 38.8393 3.68911 38.8393C3.28749 38.8393 2.68549 38.6386 2.28399 38.3709C1.88249 38.1033 1.81545 37.4341 1.34716 37.4341C0.878864 37.4341 1.34716 36.8988 1.07949 36.698C0.811826 36.4973 1.14641 36.3634 1.34716 36.0958C1.54791 35.8281 0.878622 35.8281 0.677872 35.5604C0.477123 35.2928 1.41395 35.5604 1.81545 34.8913C2.21695 34.2221 2.75228 34.4228 3.68911 34.0882C4.62594 33.7537 4.49211 34.0882 4.96052 34.0882Z" fill="url(#paint12_radial_431_170)"/>
<path d="M5.36199 36.0285C5.36199 35.5467 6.03116 34.8909 6.36574 34.6232C8.70793 33.8871 15.3324 40.3111 15.3993 41.1141C15.4663 41.9171 15.3993 42.9209 15.3993 42.9878C15.3993 43.0547 14.3956 44.2592 14.1948 44.4599C13.9941 44.6607 12.9234 45.1291 12.8565 45.1291C12.7896 45.1291 12.455 45.1291 12.0535 45.3968C10.046 45.5975 10.3806 43.8577 10.3806 43.3893C10.3806 42.9209 9.91219 43.4562 9.30995 43.59C8.7077 43.7239 8.57386 42.8539 8.50695 42.5194C8.44003 42.1848 8.3062 42.5863 8.03853 42.4524C7.77087 42.3186 7.97162 42.1179 8.03853 41.7164C8.10545 41.3149 7.70395 41.2479 7.57012 41.1141C7.43629 40.9803 7.43629 40.445 7.16862 40.378C6.90095 40.3111 6.23179 39.2405 6.03104 39.2405C5.83029 39.2405 5.69646 38.9728 5.49571 38.5713C5.35539 38.2907 5.57946 38.0236 5.75731 37.8863C5.69028 37.8416 5.56905 37.6845 5.36199 37.2999C4.89358 37.0991 5.36199 36.6307 5.36199 36.0285Z" fill="url(#paint13_radial_431_170)"/>
<path d="M11.9869 37.7685C12.5222 37.5008 13.0576 36.8986 13.2583 36.6309C13.6822 36.4079 14.5298 36.0554 14.5298 36.4302C14.5298 36.8986 15.199 37.0993 15.9351 37.3001C16.6711 37.5008 17.6749 37.4339 18.0764 37.5008C18.4779 37.5677 19.6155 38.5715 20.017 39.4414C20.4185 40.3113 19.3478 40.8466 19.3478 41.3151C19.3478 41.7835 17.7418 42.3188 16.7381 42.8541C15.7343 43.3895 15.8012 42.3188 15.199 42.4526C14.5967 42.5865 13.5261 42.185 12.5892 42.3188C11.6524 42.4526 11.7193 41.3151 11.7193 41.0474C11.7193 40.7797 11.117 41.2481 10.6486 41.3151C10.1802 41.382 10.2471 39.9767 10.2471 39.4414C10.2471 38.9061 11.3177 38.1031 11.9869 37.7685Z" fill="url(#paint14_radial_431_170)"/>
<path d="M17.0058 35.5601C16.5775 35.7742 16.1582 35.4708 16.002 35.2924L14.6637 36.5638C14.7752 36.7422 15.1455 37.1526 15.7344 37.3668C16.4704 37.6344 17.608 37.6344 18.0764 37.6344C18.5448 37.6344 18.2772 38.6382 18.411 39.1735C18.5448 39.7088 19.7493 40.0434 20.4185 40.0434C21.0877 40.0434 20.82 39.1066 21.2884 39.1735C21.7568 39.2404 21.6899 38.3705 21.9576 38.3705C22.1717 38.3705 22.4037 37.8798 22.4929 37.6344C22.4929 37.5006 22.5465 37.2062 22.7606 37.0991C23.0282 36.9653 23.0282 36.5638 22.9613 35.9615C22.8944 35.3593 22.1583 35.2924 21.9576 35.0247C21.7568 34.757 20.4854 34.3556 19.4817 34.1548C18.4779 33.9541 18.8125 34.6232 18.411 34.6232C18.0095 34.6232 17.5411 35.2924 17.0058 35.5601Z" fill="url(#paint15_radial_431_170)"/>
<path d="M16.8722 30.3407C16.3369 30.5549 16.3815 31.0991 16.4707 31.3445C16.3146 32.4821 16.056 34.8911 16.2701 35.4264C16.5378 36.0955 17.2069 35.2256 17.7423 35.2256C18.2776 35.2256 18.8798 34.3557 19.2813 34.2219C19.6828 34.0881 20.2851 34.4896 21.3557 34.7572C22.4264 35.0249 22.4933 36.2963 23.0956 36.2963C23.6978 36.2963 24.0324 35.6271 24.2331 35.2256C24.4339 34.8241 25.1031 33.6866 25.3038 33.1512C25.5046 32.6159 25.7053 32.6159 25.7053 32.3482C25.7053 32.0806 25.5046 31.8129 25.7053 31.3445C25.9061 30.8761 25.3038 30.6753 25.3038 30.3407C25.3038 30.0062 24.9023 29.8054 24.6346 29.1362C24.6346 28.7347 24.2331 28.6678 23.8316 27.9987C23.4301 27.3295 22.0918 26.7942 21.7572 26.7942H20.5527C20.1512 26.7942 19.549 28.4002 19.549 28.8686C19.549 29.337 17.5414 30.0731 16.8722 30.3407Z" fill="url(#paint16_radial_431_170)"/>
<path d="M8.70822 20.1695C8.06582 20.4371 8.12828 21.0394 8.2398 21.3071C9.02053 21.887 10.7961 23.1271 11.6527 23.4483C12.5092 23.7695 15.2215 22.6453 16.4706 22.0431C16.6045 21.7978 16.7918 21.3071 16.4706 21.3071C16.0691 21.3071 15.5338 20.1695 15.3331 20.1695C15.1323 20.1695 14.2624 19.4334 14.0616 19.4334C13.8609 19.4334 12.7233 18.6973 12.3887 18.6973C12.0542 18.6973 11.7865 18.7642 11.1842 18.6973C10.582 18.6304 10.0467 19.0988 9.91283 19.4334C9.779 19.768 9.51122 19.8349 8.70822 20.1695Z" fill="url(#paint17_linear_431_170)"/>
<path d="M11.9201 29.8055C11.7595 30.2873 12.1209 30.5416 12.3216 30.6085C13.5261 30.8761 15.9886 31.3713 16.2028 31.2107C16.4704 31.0099 16.4704 30.943 16.6712 30.7423C16.8719 30.5415 17.5411 30.8761 18.6118 30.943C19.6824 31.0099 19.4817 30.4077 19.6155 30.4077C19.7493 30.4077 19.9501 29.1363 20.0839 29.0024C20.2178 28.8686 20.5523 28.6678 20.6193 28.534C20.6862 28.4002 20.5523 28.0656 20.5523 27.8648C20.5523 27.6641 20.82 27.5972 20.8869 27.4633C20.9538 27.3295 20.9538 27.0619 20.82 26.8611C20.6862 26.6604 20.82 26.4596 20.82 26.3258C20.82 26.1919 20.7531 25.8574 20.6193 25.7235C20.4854 25.5897 20.5523 25.3889 20.5523 25.2551C20.5523 25.1213 19.8832 24.2514 19.7493 24.2514C19.6155 24.2514 19.6155 23.9168 19.6155 23.6491C19.6155 23.3814 18.8794 22.9799 18.8125 22.7123C18.7456 22.4447 18.0095 22.2439 17.8088 22.177C17.608 22.1101 17.608 21.8424 17.608 21.7755C17.608 21.7086 17.0727 21.7085 16.9389 21.7085C16.805 21.7085 16.3366 21.4409 16.0689 21.4409C15.8013 21.4409 15.3329 22.0431 15.199 22.177C15.0652 22.3109 15.199 21.8424 14.7975 21.7755C14.396 21.7086 14.396 22.2439 14.2622 22.177C14.1284 22.1101 13.5261 22.177 13.5261 22.2439C13.5261 22.3108 13.1246 22.3778 12.8569 22.3778C12.5893 22.3778 12.4555 22.5116 12.4555 22.7123C12.4555 22.9131 14.1284 25.389 14.1953 25.6567C14.2622 25.9243 12.1209 29.2032 11.9201 29.8055Z" fill="url(#paint18_radial_431_170)"/>
<path d="M12.0537 29.6049C11.8396 30.0331 12.143 30.4525 12.3214 30.6086L11.5854 34.6236L10.1802 33.9544C10.2025 34.0437 10.2203 34.2221 10.1133 34.2221C9.97943 34.2221 7.43661 32.0139 7.23586 32.0139C7.03511 32.0139 6.63361 32.2815 6.43286 32.2146C6.23211 32.1477 6.43286 32.2146 6.36595 32.4154C6.29903 32.6161 5.83061 32.4823 5.83061 32.5492C5.83061 32.6161 5.7637 32.6161 5.62987 32.683C5.5228 32.7366 5.20606 32.973 5.22837 33.1514C5.62987 33.1514 5.14807 33.2853 5.09453 33.2853C5.02762 33.2853 5.56295 33.5529 5.62987 33.7537C5.69678 33.9544 5.22833 34.0214 5.22833 34.2221C5.22833 34.4229 4.82687 34.3559 4.69304 34.2221C4.5592 34.0883 3.08704 34.3559 2.48479 34.4898C1.88255 34.6236 1.54796 35.4266 1.48105 35.5604C1.41413 35.6943 0.945678 35.5604 0.678051 35.3597C0.410425 35.1589 0.544219 34.6236 0.544219 34.3559C0.544219 34.0883 0.343469 34.0883 0.276514 33.8875C0.209559 33.6868 0.410386 33.486 0.209637 33.2853C0.00888734 33.0845 0.0757649 32.5492 0.00884845 32.2146C-0.058068 31.88 0.276514 31.077 0.276514 30.6086C0.276514 30.1402 0.678013 30.341 0.945678 30.341C1.21334 30.341 1.74867 29.2034 1.94942 29.0026C2.15017 28.8019 2.81934 28.8019 3.15392 28.8019C3.4885 28.8019 3.42159 29.0695 3.55542 29.1365C3.68925 29.2034 3.62233 28.9357 3.89 28.8688C4.15767 28.8019 4.96066 28.0658 4.96066 27.9989C4.96066 27.932 5.16141 27.9989 5.22833 27.9989C5.29524 27.9989 5.29524 27.7981 5.29524 27.6643C5.29524 27.5305 5.42908 27.5305 5.62983 27.5305C5.79043 27.5305 5.78596 26.9059 5.76366 26.5936C5.78596 26.5713 5.87073 26.433 6.03132 26.0583C6.23207 25.5899 4.49225 24.8538 4.35842 24.72C4.22458 24.5861 4.42533 24.4523 4.42533 24.3854C4.42533 24.3185 4.62608 24.1177 4.693 24.1177C4.75991 24.1177 4.693 23.7162 4.75991 23.7162C4.82683 23.7162 4.89375 23.7162 4.89375 23.5155C4.89375 23.3147 5.56291 22.3779 5.62983 22.2441C5.69674 22.1102 5.89749 22.1772 6.03132 22.1772C6.16516 22.1772 6.16516 22.1102 6.16516 21.9764C6.16516 21.8426 6.36591 21.9095 6.56666 21.9095C6.76741 21.9095 7.1689 21.5749 7.43657 21.4411C7.70424 21.3072 7.36965 21.508 7.9719 21.3742C8.4537 21.2671 8.93104 21.2403 9.10948 21.2403C9.16301 21.2939 9.48867 21.5749 9.64481 21.7087C9.91248 21.508 9.75188 21.5348 9.91248 21.3742C10.1132 21.1734 11.2508 21.8426 12.3214 22.4448C13.1779 22.9266 13.8828 24.207 14.1282 24.7869C14.1951 24.9207 14.3557 25.2553 14.4628 25.523C14.5966 25.8576 12.3214 29.0695 12.0537 29.6049Z" fill="url(#paint19_radial_431_170)"/>
<path d="M7.63729 32.0806C8.06555 32.2412 9.55556 33.6643 10.247 34.3557C10.3363 34.3111 10.5415 34.2219 10.6486 34.2219C10.7824 34.2219 12.3215 35.8279 12.2546 35.8948C12.1877 35.9617 12.1208 36.1625 12.0539 36.3632C11.9869 36.564 12.1877 36.9655 12.3884 37.2332C12.5892 37.5008 12.5892 38.0362 12.5892 38.17C12.5892 38.3038 12.6561 38.7053 12.723 38.973C12.7899 39.2407 12.6561 38.8392 12.5223 39.4414C12.3884 40.0436 11.8531 39.776 11.6524 40.1106C11.4516 40.4451 10.9832 39.9767 10.8494 39.4414C10.7155 38.9061 10.247 39.4414 10.0464 39.4414C9.8457 39.4414 9.7787 39.0399 9.57795 38.8392C9.3772 38.6384 7.90504 38.7053 7.90504 38.5715C7.90504 38.4377 7.50354 38.3707 6.96821 38.2369C6.43288 38.1031 6.23213 38.1031 6.03138 38.0362C5.83063 37.9692 6.23213 37.3001 6.63354 36.8317C7.03496 36.3632 6.36596 36.2963 6.49979 36.0287C6.63362 35.761 6.63354 35.2926 6.76746 34.958C6.90137 34.6234 6.49979 34.7573 6.09817 34.7573C5.69655 34.7573 5.16146 34.2219 5.22826 34.0212C5.29505 33.8204 5.09442 33.4858 5.02751 33.352C4.96059 33.2182 5.16134 33.2851 5.22826 33.0843C5.29517 32.8836 5.22826 32.6828 5.22826 32.549C5.22826 32.4152 5.429 32.4821 5.62975 32.4821C5.8305 32.4821 5.96434 31.6122 6.09817 31.4783C6.232 31.3445 6.63354 31.6122 6.63354 31.6791C6.63354 31.746 6.56663 31.8129 7.63729 32.0806Z" fill="url(#paint20_radial_431_170)"/>
<path d="M12.1208 30.8091L12.3215 30.6753C12.3438 30.6307 12.4152 30.5415 12.5223 30.5415C12.6293 30.5415 12.6115 30.4968 12.5892 30.4745H12.8568C12.9639 30.4745 12.9461 30.3853 12.9237 30.3407H13.1245C13.2316 30.3407 13.3029 30.2961 13.3252 30.2738L13.4591 30.4076L13.526 30.2738H13.7937C13.8606 30.2738 13.8606 30.4745 13.9944 30.4076C14.1015 30.3541 14.2175 30.3853 14.2621 30.4076V30.5415H14.4628C14.4851 30.4745 14.5297 30.3273 14.5297 30.2738C14.5297 30.2069 14.7974 30.2069 14.7974 30.2738C14.7974 30.3407 14.8643 30.4745 14.9312 30.5415C14.9848 30.595 15.0874 30.4745 15.132 30.4076H15.3327C15.3863 30.4076 15.3997 30.6307 15.3997 30.7422H15.6004L15.8012 30.8091L15.935 31.0099C16.0688 30.9653 16.3365 30.8894 16.3365 30.943V31.3445C16.4034 31.3445 16.5372 31.3712 16.5372 31.4783V31.679L16.6711 31.746V31.9467C16.6711 32.0002 16.7603 31.969 16.8049 31.9467L16.8718 32.1475C16.8272 32.2144 16.7246 32.3616 16.6711 32.4151C16.6175 32.4687 16.738 32.5266 16.8049 32.549V32.8166C16.8049 32.8702 16.8941 32.9281 16.9387 32.9504C17.0057 32.9951 17.1529 33.0977 17.2064 33.1512C17.2599 33.2047 17.2287 33.4412 17.2064 33.5527C17.1618 33.6196 17.0726 33.7668 17.0726 33.8204C17.0726 33.8739 17.1618 33.9765 17.2064 34.0211L17.0726 34.1549C17.0503 34.2442 16.9655 34.4226 16.8049 34.4226C16.6443 34.4226 16.4257 34.6903 16.3365 34.8241C16.4034 34.8687 16.5372 34.9847 16.5372 35.0918C16.5372 35.1988 16.3142 35.3148 16.2027 35.3594C16.225 35.4487 16.2562 35.6271 16.2027 35.6271H15.935L15.8012 35.7609C15.7342 35.8055 15.6004 35.9215 15.6004 36.0286C15.6004 36.1357 15.422 36.0732 15.3327 36.0286V36.1624C15.2881 36.2294 15.1855 36.3766 15.132 36.4301C15.0785 36.4836 15.1097 36.8093 15.132 36.9654L14.8643 36.7647C14.842 36.8093 14.7974 36.9253 14.7974 37.0324C14.7974 37.1394 14.5744 36.9877 14.4628 36.8985L14.2621 37.0993C14.2175 36.9877 14.1282 36.7781 14.1282 36.8316C14.1282 36.8985 13.9944 37.1662 13.8606 37.1662C13.7267 37.1662 13.7937 37.0324 13.7267 36.8985C13.6732 36.7915 13.5706 36.9877 13.526 37.0993C13.4591 37.0547 13.2985 36.9521 13.1914 36.8985C13.0576 36.8316 13.0576 36.7647 12.9907 36.6978C12.9237 36.6309 12.7899 36.6978 12.6561 36.6978C12.5223 36.6978 12.6561 36.5639 12.6561 36.4301C12.6561 36.323 12.5669 36.2517 12.5223 36.2294L12.2546 36.1624L12.0538 35.8948C12.0315 35.8502 11.9066 35.7609 11.5854 35.7609C11.1839 35.7609 11.1839 35.3594 11.1839 35.2925C11.1839 35.2256 11.1839 35.0918 11.0501 35.1587C10.9163 35.2256 10.8493 34.9579 10.7155 34.891C10.6084 34.8375 10.6263 34.5564 10.6486 34.4226C10.4925 34.378 10.1802 34.2352 10.1802 34.0211C10.1802 33.807 10.4925 33.7534 10.6486 33.7534C10.5371 33.6642 10.3006 33.459 10.2471 33.3519C10.1802 33.2181 10.4478 33.2181 10.4478 33.0843C10.4478 32.9772 10.2694 32.9058 10.1802 32.8835L10.4478 32.7497L10.2471 32.549C10.1802 32.482 10.314 32.4151 10.2471 32.2813C10.1936 32.1742 10.4925 32.1475 10.6486 32.1475C10.5371 32.0805 10.314 31.9333 10.314 31.8798C10.314 31.8129 10.5148 31.746 10.6486 31.6121C10.7557 31.5051 10.8716 31.6567 10.9163 31.746C10.9163 31.6344 10.9029 31.3846 10.8493 31.2775C10.7958 31.1705 11.0501 31.2329 11.1839 31.2775V31.0768H11.5854H11.7862C11.8531 31.0545 11.9735 30.9965 11.92 30.943C11.8665 30.8894 12.0315 30.8314 12.1208 30.8091Z" fill="url(#paint21_radial_431_170)"/>
</g>
<g opacity="0.86">
<path d="M26.7622 4.24792C26.8755 4.02137 27.659 3.68153 28.0366 3.53994C28.7447 3.53994 30.7268 8.49585 30.7268 9.62863C30.7268 10.7614 26.4789 10.6198 25.9126 10.6198C25.3463 10.6198 24.4966 10.3366 24.0717 10.3366C23.6468 10.3366 23.9302 9.06224 23.7886 9.06224C23.647 9.06224 24.0718 7.78786 24.4966 7.78786C24.9214 7.78786 24.6382 6.79668 24.7798 6.51348C24.9214 6.23029 25.6294 6.37189 25.9126 6.08869C26.1958 5.8055 26.6206 4.53112 26.7622 4.24792Z" fill="url(#paint22_radial_431_170)"/>
<path d="M27.5748 14.6444H28.2383C28.9903 15.005 30.5871 15.8918 30.9587 16.5536C31.4231 17.381 31.4894 19.1629 31.4894 19.5448C31.4894 19.9266 30.5606 20.9449 30.1625 21.1358C29.7644 21.3267 29.2336 21.0085 28.8356 20.7539C28.4375 20.4994 28.0394 19.9902 27.575 19.672C27.2034 19.4175 27.1105 19.4811 27.1105 19.5448C26.9778 19.4175 26.6328 19.1629 26.3143 19.1629C25.916 19.1629 25.3192 18.972 24.9211 18.7174C24.523 18.4629 24.4565 17.8265 23.9922 17.8265C23.5279 17.8265 23.9922 17.3173 23.7268 17.1264C23.4615 16.9355 23.7932 16.8082 23.9922 16.5536C24.1913 16.2991 23.5277 16.2991 23.3286 16.0445C23.1296 15.7899 24.0585 16.0445 24.4565 15.4081C24.8546 14.7717 25.3854 14.9626 26.3143 14.6444C27.2431 14.3262 27.1104 14.6444 27.5748 14.6444Z" fill="url(#paint23_radial_431_170)"/>
<path d="M27.9717 16.4892C27.9717 16.031 28.6351 15.4073 28.9669 15.1528C31.2891 14.4527 37.8573 20.5622 37.9236 21.3259C37.99 22.0896 37.9236 23.0442 37.9236 23.1079C37.9236 23.1715 36.9284 24.317 36.7294 24.508C36.5303 24.6989 35.4688 25.1444 35.4024 25.1444C35.3361 25.1444 35.0043 25.1444 34.6063 25.3989C32.6158 25.5898 32.9476 23.9352 32.9476 23.4897C32.9476 23.0442 32.4832 23.5533 31.886 23.6806C31.2889 23.8079 31.1562 22.9806 31.0899 22.6624C31.0235 22.3442 30.8908 22.726 30.6254 22.5987C30.36 22.4714 30.5591 22.2805 30.6254 21.8987C30.6918 21.5168 30.2937 21.4532 30.161 21.3259C30.0283 21.1986 30.0283 20.6895 29.7629 20.6259C29.4975 20.5622 28.8341 19.544 28.635 19.544C28.436 19.544 28.3033 19.2894 28.1043 18.9076C27.9651 18.6407 28.1873 18.3867 28.3636 18.2561C28.2972 18.2136 28.177 18.0642 27.9717 17.6984C27.5072 17.5075 27.9717 17.062 27.9717 16.4892Z" fill="url(#paint24_radial_431_170)"/>
<path d="M34.5408 18.143C35.0716 17.8884 35.6024 17.3156 35.8014 17.0611C36.2216 16.8489 37.0621 16.5138 37.0621 16.8701C37.0621 17.3156 37.7255 17.5066 38.4554 17.6975C39.1852 17.8884 40.1804 17.8248 40.5785 17.8884C40.9766 17.952 42.1045 18.9067 42.5025 19.734C42.9006 20.5613 41.8391 21.0704 41.8391 21.5159C41.8391 21.9614 40.2467 22.4705 39.2515 22.9797C38.2563 23.4888 38.3227 22.4705 37.7255 22.5978C37.1284 22.7251 36.0669 22.3433 35.138 22.4705C34.2092 22.5978 34.2755 21.5159 34.2755 21.2614C34.2755 21.0068 33.6783 21.4523 33.2139 21.5159C32.7494 21.5796 32.8158 20.2431 32.8158 19.734C32.8158 19.2249 33.8773 18.4612 34.5408 18.143Z" fill="url(#paint25_radial_431_170)"/>
<path d="M39.517 16.0438C39.0923 16.2475 38.6766 15.959 38.5218 15.7893L37.1948 16.9984C37.3054 17.1681 37.6725 17.5584 38.2564 17.7621C38.9862 18.0167 40.1141 18.0167 40.5785 18.0167C41.0429 18.0167 40.7776 18.9713 40.9103 19.4804C41.0429 19.9895 42.2372 20.3077 42.9007 20.3077C43.5641 20.3077 43.2987 19.4168 43.7632 19.4804C44.2276 19.544 44.1613 18.7167 44.4266 18.7167C44.639 18.7167 44.869 18.25 44.9574 18.0167C44.9574 17.8894 45.0105 17.6094 45.2228 17.5075C45.4882 17.3802 45.4882 16.9984 45.4219 16.4256C45.3555 15.8529 44.6257 15.7893 44.4266 15.5347C44.2276 15.28 42.967 14.8983 41.9718 14.7074C40.9766 14.5165 41.3083 15.1529 40.9103 15.1529C40.5122 15.1529 40.0477 15.7893 39.517 16.0438Z" fill="url(#paint26_radial_431_170)"/>
<path d="M39.3836 11.0798C38.8529 11.2834 38.8971 11.8011 38.9855 12.0344C38.8308 13.1163 38.5743 15.4074 38.7866 15.9165C39.052 16.5529 39.7155 15.7256 40.2462 15.7256C40.777 15.7256 41.3741 14.8982 41.7722 14.771C42.1703 14.6437 42.7674 15.0255 43.829 15.2801C44.8905 15.5347 44.9569 16.7438 45.554 16.7438C46.1511 16.7438 46.4829 16.1074 46.6819 15.7256C46.8809 15.3437 47.5444 14.2618 47.7435 13.7527C47.9425 13.2436 48.1415 13.2436 48.1415 12.989C48.1415 12.7345 47.9425 12.4799 48.1415 12.0344C48.3406 11.5889 47.7435 11.398 47.7435 11.0798C47.7435 10.7616 47.3454 10.5707 47.08 9.93426C47.08 9.55242 46.6819 9.48878 46.2838 8.85237C45.8857 8.21596 44.5588 7.70683 44.2271 7.70683H43.0328C42.6347 7.70683 42.0376 9.23421 42.0376 9.6797C42.0376 10.1252 40.0471 10.8252 39.3836 11.0798Z" fill="url(#paint27_radial_431_170)"/>
<path d="M31.2899 1.40623C30.653 1.66079 30.7149 2.23356 30.8255 2.48812C31.5996 3.03966 33.3601 4.21911 34.2093 4.52459C35.0586 4.83007 37.7478 3.7609 38.9863 3.18813C39.119 2.9548 39.3048 2.48812 38.9863 2.48812C38.5882 2.48812 38.0574 1.40623 37.8584 1.40623C37.6594 1.40623 36.7969 0.706181 36.5978 0.706181C36.3988 0.706181 35.2709 0.00613159 34.9391 0.00613159C34.6074 0.00613159 34.342 0.0697724 33.7449 0.00613159C33.1478 -0.0575093 32.617 0.387977 32.4843 0.706181C32.3516 1.02439 32.0861 1.08803 31.2899 1.40623Z" fill="url(#paint28_linear_431_170)"/>
<path d="M34.4746 10.5711C34.3154 11.0293 34.6737 11.2712 34.8727 11.3348C36.0669 11.5894 38.5085 12.0603 38.7208 11.9075C38.9862 11.7166 38.9862 11.653 39.1852 11.462C39.3843 11.2711 40.0477 11.5893 41.1093 11.653C42.1708 11.7166 41.9718 11.1438 42.1045 11.1438C42.2372 11.1438 42.4362 9.93466 42.5689 9.80737C42.7016 9.68009 43.0334 9.48917 43.0997 9.36189C43.166 9.23461 43.0334 8.9164 43.0334 8.72548C43.0334 8.53456 43.2987 8.47092 43.3651 8.34363C43.4314 8.21635 43.4314 7.96179 43.2987 7.77087C43.166 7.57994 43.2987 7.38902 43.2987 7.26174C43.2987 7.13446 43.2324 6.81625 43.0997 6.68897C42.967 6.56169 43.0334 6.37077 43.0334 6.24349C43.0334 6.1162 42.3699 5.28887 42.2372 5.28887C42.1045 5.28887 42.1045 4.97067 42.1045 4.71611C42.1045 4.46154 41.3747 4.0797 41.3083 3.82519C41.242 3.57069 40.5122 3.37971 40.3131 3.31607C40.1141 3.25243 40.1141 2.9978 40.1141 2.93421C40.1141 2.87062 39.5833 2.87052 39.4506 2.87052C39.3179 2.87052 38.8535 2.61596 38.5881 2.61596C38.3227 2.61596 37.8583 3.18873 37.7256 3.31607C37.5929 3.44341 37.7256 2.99785 37.3275 2.93421C36.9294 2.87057 36.9294 3.37971 36.7967 3.31607C36.664 3.25243 36.0669 3.31607 36.0669 3.37971C36.0669 3.44335 35.6688 3.50699 35.4034 3.50699C35.1381 3.50699 35.0054 3.63427 35.0054 3.82519C35.0054 4.01612 36.664 6.37083 36.7304 6.62539C36.7967 6.87995 34.6737 9.99835 34.4746 10.5711Z" fill="url(#paint29_radial_431_170)"/>
<path d="M34.6071 10.3794C34.3947 10.7867 34.6955 11.1855 34.8724 11.334L34.1427 15.1525L32.7494 14.5161C32.7716 14.6009 32.7892 14.7706 32.6831 14.7706C32.5504 14.7706 30.0292 12.6705 29.8302 12.6705C29.6311 12.6705 29.233 12.925 29.034 12.8614C28.835 12.7978 29.034 12.8614 28.9677 13.0523C28.9013 13.2432 28.4369 13.116 28.4369 13.1796C28.4369 13.2432 28.3705 13.2432 28.2378 13.3069C28.1317 13.3578 27.8176 13.5827 27.8398 13.7524C28.2378 13.7524 27.7601 13.8797 27.7071 13.8797C27.6407 13.8797 28.1715 14.1342 28.2378 14.3251C28.3042 14.5161 27.8397 14.5797 27.8397 14.7706C27.8397 14.9615 27.4417 14.8979 27.309 14.7706C27.1763 14.6433 25.7167 14.8979 25.1195 15.0252C24.5224 15.1525 24.1907 15.9162 24.1243 16.0434C24.058 16.1707 23.5935 16.0434 23.3282 15.8525C23.0628 15.6616 23.1955 15.1525 23.1955 14.8979C23.1955 14.6433 22.9964 14.6433 22.93 14.4524C22.8637 14.2615 23.0628 14.0706 22.8637 13.8797C22.6647 13.6887 22.731 13.1796 22.6647 12.8614C22.5983 12.5432 22.93 11.7795 22.93 11.334C22.93 10.8885 23.3281 11.0795 23.5935 11.0795C23.8589 11.0795 24.3897 9.99756 24.5887 9.80664C24.7878 9.61572 25.4512 9.61572 25.783 9.61572C26.1147 9.61572 26.0484 9.87028 26.181 9.93392C26.3137 9.99756 26.2474 9.743 26.5128 9.67936C26.7782 9.61572 27.5743 8.91567 27.5743 8.85203C27.5743 8.78839 27.7734 8.85203 27.8397 8.85203C27.9061 8.85203 27.9061 8.6611 27.9061 8.53382C27.9061 8.40654 28.0388 8.40654 28.2378 8.40654C28.397 8.40654 28.3926 7.81256 28.3705 7.51557C28.3926 7.49436 28.4767 7.36283 28.6359 7.00644C28.8349 6.56096 27.1099 5.86091 26.9772 5.73363C26.8445 5.60634 27.0436 5.47906 27.0436 5.41542C27.0436 5.35178 27.2426 5.16086 27.3089 5.16086C27.3753 5.16086 27.3089 4.77901 27.3753 4.77901C27.4416 4.77901 27.508 4.77901 27.508 4.58809C27.508 4.39717 28.1715 3.5062 28.2378 3.37892C28.3042 3.25163 28.5032 3.31527 28.6359 3.31527C28.7686 3.31527 28.7686 3.25163 28.7686 3.12435C28.7686 2.99707 28.9676 3.06071 29.1667 3.06071C29.3657 3.06071 29.7638 2.74251 30.0292 2.61523C30.2946 2.48794 29.9628 2.67887 30.5599 2.55159C31.0376 2.44977 31.5109 2.42431 31.6878 2.4243C31.7409 2.47522 32.0638 2.74251 32.2186 2.86979C32.484 2.67887 32.3248 2.70433 32.484 2.55159C32.6831 2.36067 33.811 2.99707 34.8724 3.56984C35.7216 4.02806 36.4206 5.24572 36.6639 5.79727C36.7302 5.92455 36.8895 6.24276 36.9956 6.49732C37.1283 6.81552 34.8724 9.87028 34.6071 10.3794Z" fill="url(#paint30_radial_431_170)"/>
<path d="M30.228 12.7341C30.6526 12.8869 32.13 14.2403 32.8155 14.8979C32.904 14.8555 33.1075 14.7707 33.2137 14.7707C33.3464 14.7707 34.8724 16.2981 34.806 16.3617C34.7397 16.4253 34.6733 16.6163 34.607 16.8072C34.5406 16.9981 34.7397 17.3799 34.9387 17.6345C35.1378 17.8891 35.1378 18.3982 35.1378 18.5255C35.1378 18.6528 35.2041 19.0346 35.2705 19.2892C35.3368 19.5437 35.2041 19.1619 35.0714 19.7347C34.9387 20.3074 34.4079 20.0529 34.2089 20.3711C34.0099 20.6893 33.5454 20.2438 33.4127 19.7347C33.28 19.2255 32.8155 19.7347 32.6166 19.7347C32.4176 19.7347 32.3512 19.3528 32.1521 19.1619C31.9531 18.971 30.4935 19.0346 30.4935 18.9073C30.4935 18.78 30.0954 18.7164 29.5646 18.5891C29.0338 18.4618 28.8348 18.4618 28.6358 18.3982C28.4367 18.3346 28.8348 17.6982 29.2328 17.2527C29.6308 16.8072 28.9675 16.7435 29.1002 16.489C29.2329 16.2344 29.2328 15.7889 29.3656 15.4707C29.4983 15.1525 29.1002 15.2798 28.702 15.2798C28.3038 15.2798 27.7732 14.7707 27.8395 14.5797C27.9057 14.3888 27.7068 14.0706 27.6404 13.9433C27.5741 13.8161 27.7731 13.8797 27.8395 13.6888C27.9058 13.4979 27.8395 13.3069 27.8395 13.1797C27.8395 13.0524 28.0385 13.116 28.2376 13.116C28.4366 13.116 28.5693 12.2887 28.702 12.1614C28.8347 12.0341 29.2328 12.2887 29.2328 12.3523C29.2328 12.4159 29.1665 12.4796 30.228 12.7341Z" fill="url(#paint31_radial_431_170)"/>
<path d="M34.6737 11.5254L34.8727 11.3981C34.8949 11.3557 34.9656 11.2708 35.0718 11.2708C35.1779 11.2708 35.1602 11.2284 35.1381 11.2072H35.4035C35.5097 11.2072 35.492 11.1224 35.4699 11.0799H35.6689C35.7751 11.0799 35.8458 11.0375 35.8679 11.0163L36.0006 11.1436L36.067 11.0163H36.3324C36.3987 11.0163 36.3987 11.2072 36.5314 11.1436C36.6376 11.0927 36.7526 11.1224 36.7968 11.1436V11.2708H36.9958C37.018 11.2072 37.0622 11.0672 37.0622 11.0163C37.0622 10.9526 37.3276 10.9526 37.3276 11.0163C37.3276 11.0799 37.3939 11.2072 37.4603 11.2708C37.5133 11.3218 37.6151 11.2072 37.6593 11.1436H37.8584C37.9114 11.1436 37.9247 11.3557 37.9247 11.4618H38.1237L38.3228 11.5254L38.4555 11.7163C38.5882 11.6739 38.8536 11.6018 38.8536 11.6527V12.0345C38.9199 12.0345 39.0526 12.06 39.0526 12.1618V12.3527L39.1853 12.4164V12.6073C39.1853 12.6582 39.2738 12.6285 39.318 12.6073L39.3843 12.7982C39.3401 12.8619 39.2384 13.0019 39.1853 13.0528C39.1322 13.1037 39.2516 13.1589 39.318 13.1801V13.4346C39.318 13.4855 39.4064 13.5407 39.4507 13.5619C39.517 13.6043 39.663 13.7019 39.7161 13.7528C39.7691 13.8038 39.7382 14.0286 39.7161 14.1347C39.6718 14.1983 39.5834 14.3383 39.5834 14.3892C39.5834 14.4402 39.6718 14.5377 39.7161 14.5802L39.5834 14.7075C39.5613 14.7923 39.4772 14.962 39.318 14.962C39.1588 14.962 38.942 15.2166 38.8536 15.3439C38.9199 15.3863 39.0526 15.4966 39.0526 15.5984C39.0526 15.7002 38.8314 15.8106 38.7209 15.853C38.743 15.9378 38.7739 16.1075 38.7209 16.1075H38.4555L38.3228 16.2348C38.2564 16.2773 38.1237 16.3876 38.1237 16.4894C38.1237 16.5912 37.9468 16.5318 37.8584 16.4894V16.6167C37.8141 16.6803 37.7124 16.8203 37.6593 16.8712C37.6062 16.9222 37.6372 17.2319 37.6593 17.3804L37.3939 17.1894C37.3718 17.2319 37.3276 17.3422 37.3276 17.444C37.3276 17.5458 37.1064 17.4016 36.9958 17.3167L36.7968 17.5076C36.7526 17.4016 36.6641 17.2022 36.6641 17.2531C36.6641 17.3167 36.5314 17.5713 36.3987 17.5713C36.266 17.5713 36.3324 17.444 36.266 17.3167C36.2129 17.2149 36.1112 17.4016 36.067 17.5076C36.0006 17.4652 35.8414 17.3676 35.7352 17.3167C35.6026 17.2531 35.6026 17.1894 35.5362 17.1258C35.4699 17.0622 35.3372 17.1258 35.2045 17.1258C35.0718 17.1258 35.2045 16.9985 35.2045 16.8712C35.2045 16.7694 35.116 16.7015 35.0718 16.6803L34.8064 16.6167L34.6073 16.3621C34.5852 16.3197 34.4614 16.2348 34.1429 16.2348C33.7448 16.2348 33.7448 15.853 33.7448 15.7893C33.7448 15.7257 33.7448 15.5984 33.6121 15.6621C33.4795 15.7257 33.4131 15.4711 33.2804 15.4075C33.1743 15.3566 33.1919 15.0893 33.2141 14.962C33.0593 14.9196 32.7496 14.7838 32.7496 14.5802C32.7496 14.3765 33.0593 14.3256 33.2141 14.3256C33.1035 14.2408 32.8691 14.0456 32.816 13.9438C32.7496 13.8165 33.015 13.8165 33.015 13.6892C33.015 13.5874 32.8381 13.5195 32.7496 13.4983L33.015 13.371L32.816 13.1801C32.7496 13.1164 32.8823 13.0528 32.816 12.9255C32.7629 12.8237 33.0593 12.7982 33.2141 12.7982C33.1035 12.7346 32.8823 12.5946 32.8823 12.5437C32.8823 12.48 33.0814 12.4164 33.2141 12.2891C33.3202 12.1873 33.4352 12.3315 33.4795 12.4164C33.4795 12.3103 33.4662 12.0727 33.4131 11.9709C33.36 11.8691 33.6121 11.9285 33.7448 11.9709V11.78H34.1429H34.342C34.4083 11.7588 34.5277 11.7036 34.4747 11.6527C34.4216 11.6018 34.5852 11.5466 34.6737 11.5254Z" fill="url(#paint32_radial_431_170)"/>
</g>
<defs>
<radialGradient id="paint0_radial_431_170" cx="0" cy="0" r="1" gradientUnits="userSpaceOnUse" gradientTransform="translate(31.5763 52.5327) rotate(-148.65) scale(14.4249 18.449)">
<stop stop-color="#B1949A"/>
<stop offset="0.182692" stop-color="#BEAAAA"/>
<stop offset="0.384935" stop-color="#DCC7C8"/>
<stop offset="0.572907" stop-color="#D7C2C3"/>
<stop offset="0.74734" stop-color="#E4DAE2"/>
<stop offset="0.975962" stop-color="#F5F1F4"/>
</radialGradient>
<radialGradient id="paint1_radial_431_170" cx="0" cy="0" r="1" gradientUnits="userSpaceOnUse" gradientTransform="translate(29.6731 60.4265) rotate(146.842) scale(11.2404 13.1947)">
<stop stop-color="#BDAEB5"/>
<stop offset="0.120192" stop-color="#BDB0B7"/>
<stop offset="0.269231" stop-color="#CBC1C7"/>
<stop offset="0.475275" stop-color="#E0C5C5"/>
<stop offset="0.889423" stop-color="#EEE7EE"/>
<stop offset="0.889523" stop-color="#EEE7EE"/>
</radialGradient>
<radialGradient id="paint2_radial_431_170" cx="0" cy="0" r="1" gradientUnits="userSpaceOnUse" gradientTransform="translate(38.3299 64.9428) rotate(119.667) scale(11.4072 10.8047)">
<stop stop-color="#CBB7B6"/>
<stop offset="0.302885" stop-color="#D2C3C0"/>
<stop offset="0.639423" stop-color="#D5CBCC"/>
<stop offset="0.908654" stop-color="#F0E7E8"/>
</radialGradient>
<radialGradient id="paint3_radial_431_170" cx="0" cy="0" r="1" gradientUnits="userSpaceOnUse" gradientTransform="translate(40.9659 62.81) rotate(73.2016) scale(13.8924 20.3318)">
<stop stop-color="#4A4A3E"/>
<stop offset="0.119304" stop-color="#654F42"/>
<stop offset="0.190995" stop-color="#916E74"/>
<stop offset="0.247977" stop-color="#B7A0AA"/>
<stop offset="0.40314" stop-color="#F6ECF1"/>
<stop offset="0.754808" stop-color="#F0EFED"/>
</radialGradient>
<radialGradient id="paint4_radial_431_170" cx="0" cy="0" r="1" gradientUnits="userSpaceOnUse" gradientTransform="translate(43.2243 61.304) rotate(24.9547) scale(13.9771 19.658)">
<stop stop-color="#524B2F"/>
<stop offset="0.0623057" stop-color="#635139"/>
<stop offset="0.126676" stop-color="#705647"/>
<stop offset="0.174584" stop-color="#916D6F"/>
<stop offset="0.276885" stop-color="#BFA6A9"/>
<stop offset="0.335981" stop-color="#D5BAC1"/>
<stop offset="0.788462" stop-color="#FAF9F7"/>
</radialGradient>
<radialGradient id="paint5_radial_431_170" cx="0" cy="0" r="1" gradientUnits="userSpaceOnUse" gradientTransform="translate(43.3501 57.5403) rotate(-10.7327) scale(19.5383 19.6523)">
<stop offset="0.0752693" stop-color="#5C5441"/>
<stop offset="0.156192" stop-color="#896C5E"/>
<stop offset="0.247879" stop-color="#A38388"/>
<stop offset="0.32168" stop-color="#B59FA2"/>
<stop offset="0.599246" stop-color="#E8E3E0"/>
<stop offset="0.884615" stop-color="#F3F4F8"/>
</radialGradient>
<linearGradient id="paint6_linear_431_170" x1="37.3276" y1="39.2221" x2="37.453" y2="30.4393" gradientUnits="userSpaceOnUse">
<stop stop-color="#E0D8D5"/>
<stop offset="0.302885" stop-color="#DBD1D0"/>
<stop offset="0.788462" stop-color="#F0EFEC"/>
</linearGradient>
<radialGradient id="paint7_radial_431_170" cx="0" cy="0" r="1" gradientUnits="userSpaceOnUse" gradientTransform="translate(40.7146 54.78) rotate(-68.3978) scale(20.1069 18.5675)">
<stop stop-color="#585542"/>
<stop offset="0.0384615" stop-color="#645943"/>
<stop offset="0.0961538" stop-color="#816649"/>
<stop offset="0.139423" stop-color="#896356"/>
<stop offset="0.192308" stop-color="#A47C72"/>
<stop offset="0.298077" stop-color="#CEA6A6"/>
<stop offset="0.427885" stop-color="#D9BDBC"/>
<stop offset="0.653846" stop-color="#E3D3D3"/>
<stop offset="0.903846" stop-color="#EDEEE8"/>
</radialGradient>
<radialGradient id="paint8_radial_431_170" cx="0" cy="0" r="1" gradientUnits="userSpaceOnUse" gradientTransform="translate(36.825 56.0352) rotate(-155.27) scale(19.1047 19.2303)">
<stop offset="0.0416334" stop-color="#5E5F57"/>
<stop offset="0.0950181" stop-color="#474538"/>
<stop offset="0.17741" stop-color="#785B5D"/>
<stop offset="0.259138" stop-color="#A38189"/>
<stop offset="0.56423" stop-color="#D5C7C6"/>
<stop offset="0.706731" stop-color="#E0D8D5"/>
<stop offset="0.875" stop-color="#F0E3E1"/>
<stop offset="1" stop-color="#ECE6E6"/>
</radialGradient>
<radialGradient id="paint9_radial_431_170" cx="0" cy="0" r="1" gradientUnits="userSpaceOnUse" gradientTransform="translate(36.4486 60.1752) rotate(147.619) scale(12.1826 10.7193)">
<stop stop-color="#343628"/>
<stop offset="0.129808" stop-color="#635437"/>
<stop offset="0.307692" stop-color="#95757A"/>
<stop offset="0.447115" stop-color="#B5A5A8"/>
<stop offset="0.807692" stop-color="#FBF0EE"/>
</radialGradient>
<radialGradient id="paint10_radial_431_170" cx="0" cy="0" r="1" gradientUnits="userSpaceOnUse" gradientTransform="translate(40.3381 58.544) rotate(128.234) scale(5.27112 4.29437)">
<stop stop-color="#2B395E"/>
<stop offset="1" stop-color="#070E21"/>
</radialGradient>
<radialGradient id="paint11_radial_431_170" cx="0" cy="0" r="1" gradientUnits="userSpaceOnUse" gradientTransform="translate(9.7358 30.6672) rotate(-148.254) scale(7.75729 9.99129)">
<stop stop-color="#B1949A"/>
<stop offset="0.182692" stop-color="#BEAAAA"/>
<stop offset="0.384935" stop-color="#DCC7C8"/>
<stop offset="0.572907" stop-color="#D7C2C3"/>
<stop offset="0.74734" stop-color="#E4DAE2"/>
<stop offset="0.975962" stop-color="#F5F1F4"/>
</radialGradient>
<radialGradient id="paint12_radial_431_170" cx="0" cy="0" r="1" gradientUnits="userSpaceOnUse" gradientTransform="translate(7.97188 34.7574) rotate(146.842) scale(5.9949 7.03723)">
<stop stop-color="#BDAEB5"/>
<stop offset="0.120192" stop-color="#BDB0B7"/>
<stop offset="0.269231" stop-color="#CBC1C7"/>
<stop offset="0.475275" stop-color="#E0C5C5"/>
<stop offset="0.889423" stop-color="#EEE7EE"/>
<stop offset="0.889523" stop-color="#EEE7EE"/>
</radialGradient>
<radialGradient id="paint13_radial_431_170" cx="0" cy="0" r="1" gradientUnits="userSpaceOnUse" gradientTransform="translate(12.5888 37.1661) rotate(119.667) scale(6.08387 5.76256)">
<stop stop-color="#CBB7B6"/>
<stop offset="0.302885" stop-color="#D2C3C0"/>
<stop offset="0.639423" stop-color="#D5CBCC"/>
<stop offset="0.908654" stop-color="#F0E7E8"/>
</radialGradient>
<radialGradient id="paint14_radial_431_170" cx="0" cy="0" r="1" gradientUnits="userSpaceOnUse" gradientTransform="translate(13.9945 36.0286) rotate(73.2016) scale(7.40931 10.8437)">
<stop stop-color="#4A4A3E"/>
<stop offset="0.119304" stop-color="#654F42"/>
<stop offset="0.190995" stop-color="#916E74"/>
<stop offset="0.247977" stop-color="#B7A0AA"/>
<stop offset="0.40314" stop-color="#F6ECF1"/>
<stop offset="0.754808" stop-color="#F0EFED"/>
</radialGradient>
<radialGradient id="paint15_radial_431_170" cx="0" cy="0" r="1" gradientUnits="userSpaceOnUse" gradientTransform="translate(15.199 35.2254) rotate(24.9547) scale(7.4545 10.4843)">
<stop stop-color="#524B2F"/>
<stop offset="0.0623057" stop-color="#635139"/>
<stop offset="0.126676" stop-color="#705647"/>
<stop offset="0.174584" stop-color="#916D6F"/>
<stop offset="0.276885" stop-color="#BFA6A9"/>
<stop offset="0.335981" stop-color="#D5BAC1"/>
<stop offset="0.788462" stop-color="#FAF9F7"/>
</radialGradient>
<radialGradient id="paint16_radial_431_170" cx="0" cy="0" r="1" gradientUnits="userSpaceOnUse" gradientTransform="translate(15.2663 33.2181) rotate(-10.7327) scale(10.4205 10.4813)">
<stop offset="0.0752693" stop-color="#5C5441"/>
<stop offset="0.156192" stop-color="#896C5E"/>
<stop offset="0.247879" stop-color="#A38388"/>
<stop offset="0.32168" stop-color="#B59FA2"/>
<stop offset="0.599246" stop-color="#E8E3E0"/>
<stop offset="0.884615" stop-color="#F3F4F8"/>
</radialGradient>
<linearGradient id="paint17_linear_431_170" x1="12.0542" y1="23.4483" x2="12.1211" y2="18.7642" gradientUnits="userSpaceOnUse">
<stop stop-color="#E0D8D5"/>
<stop offset="0.302885" stop-color="#DBD1D0"/>
<stop offset="0.788462" stop-color="#F0EFEC"/>
</linearGradient>
<radialGradient id="paint18_radial_431_170" cx="0" cy="0" r="1" gradientUnits="userSpaceOnUse" gradientTransform="translate(13.8607 31.746) rotate(-68.3978) scale(10.7238 9.90271)">
<stop stop-color="#585542"/>
<stop offset="0.0384615" stop-color="#645943"/>
<stop offset="0.0961538" stop-color="#816649"/>
<stop offset="0.139423" stop-color="#896356"/>
<stop offset="0.192308" stop-color="#A47C72"/>
<stop offset="0.298077" stop-color="#CEA6A6"/>
<stop offset="0.427885" stop-color="#D9BDBC"/>
<stop offset="0.653846" stop-color="#E3D3D3"/>
<stop offset="0.903846" stop-color="#EDEEE8"/>
</radialGradient>
<radialGradient id="paint19_radial_431_170" cx="0" cy="0" r="1" gradientUnits="userSpaceOnUse" gradientTransform="translate(11.7862 32.4154) rotate(-155.27) scale(10.1893 10.2562)">
<stop offset="0.0416334" stop-color="#5E5F57"/>
<stop offset="0.0950181" stop-color="#474538"/>
<stop offset="0.17741" stop-color="#785B5D"/>
<stop offset="0.259138" stop-color="#A38189"/>
<stop offset="0.56423" stop-color="#D5C7C6"/>
<stop offset="0.706731" stop-color="#E0D8D5"/>
<stop offset="0.875" stop-color="#F0E3E1"/>
<stop offset="1" stop-color="#ECE6E6"/>
</radialGradient>
<radialGradient id="paint20_radial_431_170" cx="0" cy="0" r="1" gradientUnits="userSpaceOnUse" gradientTransform="translate(11.5854 34.6234) rotate(147.619) scale(6.49744 5.71698)">
<stop stop-color="#343628"/>
<stop offset="0.129808" stop-color="#635437"/>
<stop offset="0.307692" stop-color="#95757A"/>
<stop offset="0.447115" stop-color="#B5A5A8"/>
<stop offset="0.807692" stop-color="#FBF0EE"/>
</radialGradient>
<radialGradient id="paint21_radial_431_170" cx="0" cy="0" r="1" gradientUnits="userSpaceOnUse" gradientTransform="translate(13.6598 33.7534) rotate(128.234) scale(2.81129 2.29035)">
<stop stop-color="#2B395E"/>
<stop offset="1" stop-color="#070E21"/>
</radialGradient>
<radialGradient id="paint22_radial_431_170" cx="0" cy="0" r="1" gradientUnits="userSpaceOnUse" gradientTransform="translate(32.0012 11.0446) rotate(-148.671) scale(7.62526 7.49654)">
<stop stop-color="#BC9A4E"/>
<stop offset="0.0991372" stop-color="#D9B67B"/>
<stop offset="0.774038" stop-color="#FFEBBD"/>
<stop offset="1" stop-color="#FFFDF8"/>
</radialGradient>
<radialGradient id="paint23_radial_431_170" cx="0" cy="0" r="1" gradientUnits="userSpaceOnUse" gradientTransform="translate(30.5606 15.2808) rotate(147.925) scale(5.87241 6.77422)">
<stop stop-color="#BDAEB5"/>
<stop offset="0.120192" stop-color="#BDB0B7"/>
<stop offset="0.269231" stop-color="#E4DFD3"/>
<stop offset="0.475275" stop-color="#FFE29A"/>
<stop offset="0.889423" stop-color="#F8EAC8"/>
<stop offset="0.889523" stop-color="#F7EACB"/>
</radialGradient>
<radialGradient id="paint24_radial_431_170" cx="0" cy="0" r="1" gradientUnits="userSpaceOnUse" gradientTransform="translate(35.137 17.5712) rotate(120.704) scale(5.8473 5.65369)">
<stop stop-color="#CBB7B6"/>
<stop offset="0.302885" stop-color="#CCBB94"/>
<stop offset="0.639423" stop-color="#E5D4AD"/>
<stop offset="0.908654" stop-color="#FFF1D3"/>
</radialGradient>
<radialGradient id="paint25_radial_431_170" cx="0" cy="0" r="1" gradientUnits="userSpaceOnUse" gradientTransform="translate(36.5313 16.4883) rotate(72.53) scale(7.07214 10.7127)">
<stop stop-color="#4A4A3E"/>
<stop offset="0.119304" stop-color="#655223"/>
<stop offset="0.190995" stop-color="#836722"/>
<stop offset="0.247977" stop-color="#DCB658"/>
<stop offset="0.40314" stop-color="#FFE5A6"/>
<stop offset="0.754808" stop-color="#FFF5DE"/>
</radialGradient>
<radialGradient id="paint26_radial_431_170" cx="0" cy="0" r="1" gradientUnits="userSpaceOnUse" gradientTransform="translate(37.7256 15.7256) rotate(24.0544) scale(7.33831 10.0428)">
<stop stop-color="#524B2F"/>
<stop offset="0.0623057" stop-color="#635139"/>
<stop offset="0.126676" stop-color="#705647"/>
<stop offset="0.174584" stop-color="#816729"/>
<stop offset="0.276885" stop-color="#D0AD5A"/>
<stop offset="0.335981" stop-color="#EAC771"/>
<stop offset="0.788462" stop-color="#FFFAEE"/>
</radialGradient>
<radialGradient id="paint27_radial_431_170" cx="0" cy="0" r="1" gradientUnits="userSpaceOnUse" gradientTransform="translate(37.7913 13.8164) rotate(-10.3045) scale(10.3175 9.98206)">
<stop offset="0.0752693" stop-color="#5C5441"/>
<stop offset="0.156192" stop-color="#896C5E"/>
<stop offset="0.247879" stop-color="#A88F53"/>
<stop offset="0.32168" stop-color="#C7AF73"/>
<stop offset="0.599246" stop-color="#FFE8B0"/>
<stop offset="0.884615" stop-color="#FFF9EC"/>
</radialGradient>
<linearGradient id="paint28_linear_431_170" x1="34.6074" y1="4.52459" x2="34.6684" y2="0.0696587" gradientUnits="userSpaceOnUse">
<stop stop-color="#FFDC88"/>
<stop offset="0.302885" stop-color="#FFF1CF"/>
<stop offset="0.788462" stop-color="#FFFAEE"/>
</linearGradient>
<radialGradient id="paint29_radial_431_170" cx="0" cy="0" r="1" gradientUnits="userSpaceOnUse" gradientTransform="translate(36.3987 12.4166) rotate(-67.5686) scale(10.2587 9.76116)">
<stop stop-color="#585542"/>
<stop offset="0.0384615" stop-color="#645943"/>
<stop offset="0.0961538" stop-color="#816649"/>
<stop offset="0.139423" stop-color="#FFE39F"/>
<stop offset="0.192308" stop-color="#F8EAC8"/>
<stop offset="0.298077" stop-color="#F9DE9D"/>
<stop offset="0.427885" stop-color="#F4D281"/>
<stop offset="0.653846" stop-color="#F3DBA1"/>
<stop offset="0.903846" stop-color="#FFF5DE"/>
</radialGradient>
<radialGradient id="paint30_radial_431_170" cx="0" cy="0" r="1" gradientUnits="userSpaceOnUse" gradientTransform="translate(34.3418 13.0523) rotate(-156.164) scale(10.0317 9.82312)">
<stop offset="0.0416334" stop-color="#5E5F57"/>
<stop offset="0.0950181" stop-color="#AD9E3E"/>
<stop offset="0.17741" stop-color="#DDB85D"/>
<stop offset="0.259138" stop-color="#E8C570"/>
<stop offset="0.56423" stop-color="#F7DDA0"/>
<stop offset="0.706731" stop-color="#F0E1BC"/>
<stop offset="0.875" stop-color="#F8EAC8"/>
<stop offset="1" stop-color="#FCF4E2"/>
</radialGradient>
<radialGradient id="paint31_radial_431_170" cx="0" cy="0" r="1" gradientUnits="userSpaceOnUse" gradientTransform="translate(34.1426 15.1525) rotate(148.689) scale(6.3679 5.50054)">
<stop stop-color="#343628"/>
<stop offset="0.129808" stop-color="#9E7A34"/>
<stop offset="0.307692" stop-color="#CDB06B"/>
<stop offset="0.447115" stop-color="#E5C67A"/>
<stop offset="0.807692" stop-color="#FFF5DE"/>
</radialGradient>
<radialGradient id="paint32_radial_431_170" cx="0" cy="0" r="1" gradientUnits="userSpaceOnUse" gradientTransform="translate(36.1997 14.3256) rotate(129.399) scale(2.71778 2.234)">
<stop stop-color="#4F4115"/>
<stop offset="1" stop-color="#302607"/>
</radialGradient>
</defs>
</svg>
